<?xml version="1.0" encoding="UTF-8"?>
<svg width="119px" height="148px" viewBox="0 0 119 148" version="1.1" xmlns="http://www.w3.org/2000/svg" xmlns:xlink="http://www.w3.org/1999/xlink">
    <!-- Generator: Sketch 52.5 (67469) - http://www.bohemiancoding.com/sketch -->
    <title>Group 29</title>
    <desc>Created with Sketch.</desc>
    <g id="Page-1" stroke="none" stroke-width="1" fill="none" fill-rule="evenodd">
        <g id="Group-29" fill="#979797" fill-rule="nonzero">
            <path d="M9,4 C6.23857625,4 4,6.23857625 4,9 L4,139 C4,141.761424 6.23857625,144 9,144 L109.1,144 C111.861424,144 114.1,141.761424 114.1,139 L114.1,9 C114.1,6.23857625 111.861424,4 109.1,4 L9,4 Z M9,0 L109.1,0 C114.070563,0 118.1,4.02943725 118.1,9 L118.1,139 C118.1,143.970563 114.070563,148 109.1,148 L9,148 C4.02943725,148 2.27373675e-13,143.970563 2.27373675e-13,139 L2.27373675e-13,9 C2.27373675e-13,4.02943725 4.02943725,0 9,0 Z" id="Path-11-Copy"></path>
            <path d="M18,34.9495632 L99.1650167,34.9495632 L99.1650167,17 L18,17 L18,34.9495632 Z M16,13 L101.165017,13 C102.269586,13 103.165017,13.8954305 103.165017,15 L103.165017,36.9495632 C103.165017,38.0541327 102.269586,38.9495632 101.165017,38.9495632 L16,38.9495632 C14.8954305,38.9495632 14,38.0541327 14,36.9495632 L14,15 C14,13.8954305 14.8954305,13 16,13 Z" id="Path-16-Copy-32"></path>
            <path d="M18,75.9495632 L99.1650167,75.9495632 L99.1650167,54 L18,54 L18,75.9495632 Z M16,50 L101.165017,50 C102.269586,50 103.165017,50.8954305 103.165017,52 L103.165017,77.9495632 C103.165017,79.0541327 102.269586,79.9495632 101.165017,79.9495632 L16,79.9495632 C14.8954305,79.9495632 14,79.0541327 14,77.9495632 L14,52 C14,50.8954305 14.8954305,50 16,50 Z" id="Path-16-Copy-33"></path>
            <path d="M18,101.949563 L99.1650167,101.949563 L99.1650167,80 L18,80 L18,101.949563 Z M16,76 L101.165017,76 C102.269586,76 103.165017,76.8954305 103.165017,78 L103.165017,103.949563 C103.165017,105.054133 102.269586,105.949563 101.165017,105.949563 L16,105.949563 C14.8954305,105.949563 14,105.054133 14,103.949563 L14,78 C14,76.8954305 14.8954305,76 16,76 Z" id="Path-16-Copy-34"></path>
            <path d="M18,127.949563 L99.1650167,127.949563 L99.1650167,106 L18,106 L18,127.949563 Z M16,102 L101.165017,102 C102.269586,102 103.165017,102.895431 103.165017,104 L103.165017,129.949563 C103.165017,131.054133 102.269586,131.949563 101.165017,131.949563 L16,131.949563 C14.8954305,131.949563 14,131.054133 14,129.949563 L14,104 C14,102.895431 14.8954305,102 16,102 Z" id="Path-16-Copy-35"></path>
            <polygon id="Path-17-Copy-2" points="42.5 52 46.5 52 46.5 129.949563 42.5 129.949563"></polygon>
            <polygon id="Path-17-Copy-3" points="71.5 52 75.5 52 75.5 129.949563 71.5 129.949563"></polygon>
        </g>
    </g>
</svg>