<svg width="16" height="16" viewBox="0 0 16 16" fill="none" xmlns="http://www.w3.org/2000/svg">
<path d="M10.7825 8.53247C11.5178 7.95397 12.0545 7.16066 12.3179 6.26293C12.5814 5.36519 12.5584 4.40767 12.2523 3.52357C11.9462 2.63947 11.3722 1.87277 10.6101 1.33011C9.84791 0.787461 8.93559 0.49585 8 0.49585C7.06441 0.49585 6.15208 0.787461 5.38995 1.33011C4.62781 1.87277 4.05376 2.63947 3.74766 3.52357C3.44156 4.40767 3.41863 5.36519 3.68207 6.26293C3.9455 7.16066 4.4822 7.95397 5.2175 8.53247C3.95756 9.03725 2.85821 9.87448 2.03667 10.9549C1.21512 12.0353 0.70217 13.3184 0.552498 14.6675C0.541663 14.766 0.550335 14.8656 0.578017 14.9608C0.605698 15.0559 0.651848 15.1447 0.713831 15.222C0.839012 15.3781 1.02109 15.4781 1.22 15.5C1.41891 15.5218 1.61837 15.4638 1.77449 15.3386C1.93062 15.2135 2.03062 15.0314 2.0525 14.8325C2.21719 13.3664 2.91626 12.0123 4.01616 11.0291C5.11606 10.0458 6.53967 9.50224 8.015 9.50224C9.49032 9.50224 10.9139 10.0458 12.0138 11.0291C13.1137 12.0123 13.8128 13.3664 13.9775 14.8325C13.9979 15.0168 14.0858 15.187 14.2243 15.3102C14.3628 15.4335 14.5421 15.5011 14.7275 15.5H14.81C15.0066 15.4773 15.1863 15.3779 15.3099 15.2234C15.4335 15.0689 15.4911 14.8717 15.47 14.675C15.3196 13.3221 14.8039 12.0357 13.9781 10.9536C13.1524 9.87154 12.0477 9.03458 10.7825 8.53247ZM8 7.99997C7.40665 7.99997 6.82663 7.82402 6.33329 7.49438C5.83994 7.16474 5.45542 6.6962 5.22836 6.14802C5.0013 5.59984 4.94189 4.99664 5.05764 4.4147C5.1734 3.83276 5.45912 3.29821 5.87868 2.87865C6.29823 2.45909 6.83278 2.17337 7.41473 2.05762C7.99667 1.94186 8.59987 2.00127 9.14805 2.22833C9.69623 2.4554 10.1648 2.83991 10.4944 3.33326C10.8241 3.82661 11 4.40663 11 4.99997C11 5.79562 10.6839 6.55868 10.1213 7.12129C9.55871 7.6839 8.79565 7.99997 8 7.99997Z" fill="#457EFF"/>
</svg>
