<!-- Generated by IcoMoon.io -->
<svg version="1.1" xmlns="http://www.w3.org/2000/svg" width="35" height="32" viewBox="0 0 35 32">
<title>ArrowDown</title>
<path d="M1.676 12.8c0.503 0 0.838 0.168 1.173 0.503l14.583 14.583 14.583-14.583c0.67-0.67 1.676-0.67 2.347 0s0.67 1.676 0 2.347l-15.756 15.756c-0.67 0.67-1.676 0.67-2.347 0l-15.756-15.756c-0.67-0.67-0.67-1.676 0-2.347 0.335-0.335 0.67-0.503 1.173-0.503z"></path>
<path d="M16 1.6c0-0.884 0.716-1.6 1.6-1.6s1.6 0.716 1.6 1.6v25.6c0 0.884-0.716 1.6-1.6 1.6s-1.6-0.716-1.6-1.6v-25.6z"></path>
</svg>
