<svg width="18" height="14" viewBox="0 0 18 14" fill="none" xmlns="http://www.w3.org/2000/svg">
<path fill-rule="evenodd" clip-rule="evenodd" d="M6.46967 13.5303C6.76256 13.8232 7.23744 13.8232 7.53033 13.5303C7.82322 13.2374 7.82322 12.7626 7.53033 12.4697L2.81066 7.75L17 7.75C17.4142 7.75 17.75 7.41421 17.75 7C17.75 6.58579 17.4142 6.25 17 6.25L2.81066 6.25L7.53033 1.53033C7.82322 1.23744 7.82322 0.762563 7.53033 0.46967C7.23744 0.176777 6.76256 0.176777 6.46967 0.46967L0.469669 6.46967C0.323223 6.61612 0.25 6.80806 0.25 7C0.25 7.10169 0.270239 7.19866 0.30691 7.28709C0.34351 7.37555 0.397762 7.45842 0.469669 7.53033L6.46967 13.5303Z" fill="#8292B4"/>
</svg>
