<?xml version="1.0" encoding="UTF-8"?>
<svg width="144px" height="121px" viewBox="0 0 144 121" version="1.1" xmlns="http://www.w3.org/2000/svg" xmlns:xlink="http://www.w3.org/1999/xlink">
    <!-- Generator: Sketch 52.5 (67469) - http://www.bohemiancoding.com/sketch -->
    <title>Group 5</title>
    <desc>Created with Sketch.</desc>
    <defs>
        <path d="M46.0849262,51.4537207 C46.2117847,53.7190519 46.7463948,55.5584732 47.6887726,56.9720398 C49.4829149,59.6179466 52.6452697,60.9408801 57.175932,60.9408801 C59.2056687,60.9408801 61.0541512,60.6509221 62.721435,60.0709973 C65.9472665,58.9473931 67.5601581,56.9358092 67.5601581,54.0361853 C67.5601581,51.8614674 66.8805689,50.3120041 65.5213703,49.387749 C64.1440489,48.4816166 61.987486,47.6932931 59.0516168,47.0227551 L53.6420331,45.7994824 C50.1081165,45.0020859 47.6072284,44.1231506 46.1392938,43.1626501 C43.6021229,41.4953664 42.3335565,39.0035395 42.3335565,35.6870947 C42.3335565,32.0988102 43.5749394,29.1539239 46.0577423,26.8523474 C48.5405453,24.550771 52.0562865,23.4 56.6050714,23.4 C60.7914034,23.4 64.34792,24.4103225 67.2747278,26.4309979 C70.2015356,28.4516733 71.6649176,31.6819871 71.6649176,36.1220361 L66.5815399,36.1220361 C66.3097002,33.9835635 65.7297841,32.3434884 64.8417743,31.2017615 C63.1926132,29.1176568 60.3927059,28.0756201 56.4419684,28.0756201 C53.2523821,28.0756201 50.9599014,28.7461481 49.5644574,30.0872241 C48.1690134,31.4283002 47.4713019,32.9868246 47.4713019,34.7628442 C47.4713019,36.7200904 48.2868089,38.1517582 49.9178473,39.0578906 C50.9870836,39.6378154 53.406421,40.3627105 57.175932,41.2325977 L62.7758026,42.510238 C65.4760774,43.1264081 67.5601508,43.9690987 69.0280853,45.038335 C71.5652562,46.9049678 72.8338226,49.6142632 72.8338226,53.1663025 C72.8338226,57.5882289 71.2254617,60.7505837 68.0086914,62.6534619 C64.7919212,64.5563401 61.0541809,65.5077649 56.7953583,65.5077649 C51.8297524,65.5077649 47.9425025,64.2391985 45.1334918,61.7020276 C42.3244812,59.1829793 40.9471805,55.7669112 41.0015485,51.4537207 L46.0849262,51.4537207 Z" id="path-1"></path>
    </defs>
    <g id="Page-1" stroke="none" stroke-width="1" fill="none" fill-rule="evenodd">
        <g id="Group-5">
            <path d="M4,4.4 L4,87.4 L111,87.4 L111,4.4 L4,4.4 Z M2,0.4 L113,0.4 C114.104569,0.4 115,1.2954305 115,2.4 L115,89.4 C115,90.5045695 114.104569,91.4 113,91.4 L2,91.4 C0.8954305,91.4 0,90.5045695 0,89.4 L0,2.4 C0,1.2954305 0.8954305,0.4 2,0.4 Z" id="Rectangle" fill="#000000" fill-rule="nonzero"></path>
            <path d="M140,33.4 L124,33.4 C122.895431,33.4 122,32.5045695 122,31.4 C122,30.2954305 122.895431,29.4 124,29.4 L142,29.4 C143.104569,29.4 144,30.2954305 144,31.4 L144,118.4 C144,119.504569 143.104569,120.4 142,120.4 L31,120.4 C29.8954305,120.4 29,119.504569 29,118.4 L29,102.4 C29,101.295431 29.8954305,100.4 31,100.4 C32.1045695,100.4 33,101.295431 33,102.4 L33,116.4 L140,116.4 L140,33.4 Z" id="Path" fill="#000000" fill-rule="nonzero"></path>
            <g id="S">
                <use fill="#000000" xlink:href="#path-1"></use>
                <use fill="#010101" xlink:href="#path-1"></use>
            </g>
            <polygon id="Path" fill="#000000" fill-rule="nonzero" points="54 16.4 58 16.4 58 24.4 54 24.4"></polygon>
            <polygon id="Path" fill="#000000" fill-rule="nonzero" points="54 63.4 58 63.4 58 72.4 54 72.4"></polygon>
        </g>
    </g>
</svg>