<svg xmlns="http://www.w3.org/2000/svg" width="144" height="144" viewBox="0 0 144 144"><title>test</title><path d="M131.62,143H12.38A12.08,12.08,0,0,1,0,131V37a2,2,0,0,1,2-2H29a2,2,0,0,1,1,.27V3a2,2,0,0,1,2-2H142a2,2,0,0,1,2,2V131A12.08,12.08,0,0,1,131.62,143ZM4,39v92a8.13,8.13,0,0,0,8.38,8H131.62a8.13,8.13,0,0,0,8.38-8V5H34V120a2,2,0,0,1-4,0V38.73A2,2,0,0,1,29,39H4Z"/><path d="M127,85H46a2,2,0,0,1,0-4h81A2,2,0,0,1,127,85Z"/><path d="M127,115H46a2,2,0,0,1,0-4h81A2,2,0,0,1,127,115Z"/><path d="M127,65H46a2,2,0,0,1-2-2V30a2,2,0,0,1,2-2h81a2,2,0,0,1,2,2V63A2,2,0,0,1,127,65ZM48,61h77V32H48V61Z"/></svg>