<svg width="126" height="126" viewBox="0 0 126 126" fill="none" xmlns="http://www.w3.org/2000/svg">
<path d="M63.0011 123.998C54.925 123.998 46.9279 122.407 39.4665 119.316C32.0051 116.226 25.2255 111.696 19.5148 105.985C13.8041 100.274 9.27416 93.4949 6.18355 86.0335C3.09294 78.5721 1.50222 70.575 1.50222 62.4989C1.50222 54.4227 3.09294 46.4257 6.18355 38.9643C9.27416 31.5029 13.8041 24.7233 19.5148 19.0126C25.2255 13.3019 32.0051 8.7719 39.4665 5.68129C46.9279 2.59069 54.925 0.99997 63.0011 0.99997C71.0773 0.99997 79.0744 2.59069 86.5357 5.6813C93.9971 8.77191 100.777 13.3019 106.487 19.0126C112.198 24.7233 116.728 31.5029 119.819 38.9643C122.909 46.4257 124.5 54.4227 124.5 62.4989C124.5 70.575 122.909 78.5721 119.819 86.0335C116.728 93.4949 112.198 100.274 106.487 105.985C100.777 111.696 93.9971 116.226 86.5357 119.316C79.0743 122.407 71.0773 123.998 63.0011 123.998L63.0011 123.998Z" stroke="#D3E1EA" stroke-width="1.99993" stroke-linecap="round"/>
<mask id="mask0_7145_7278" style="mask-type:alpha" maskUnits="userSpaceOnUse" x="61" y="0" width="65" height="125">
<path d="M62.9989 1.00024C71.075 1.00024 79.0721 2.59096 86.5335 5.68156C93.9949 8.77217 100.774 13.3022 106.485 19.0129C112.196 24.7236 116.726 31.5031 119.816 38.9645C122.907 46.4259 124.498 54.423 124.498 62.4992C124.498 70.5753 122.907 78.5724 119.816 86.0338C116.726 93.4952 112.196 100.275 106.485 105.985C100.774 111.696 93.9949 116.226 86.5335 119.317C79.0721 122.407 71.075 123.998 62.9989 123.998" stroke="#D3E1EA" stroke-width="1.99993" stroke-linecap="round"/>
</mask>
<g mask="url(#mask0_7145_7278)">
<path d="M62.9989 0.924238C71.0848 0.924237 79.0915 2.51687 86.5618 5.6112C94.0322 8.70553 100.82 13.241 106.538 18.9585C112.255 24.6761 116.791 31.4639 119.885 38.9342C122.979 46.4046 124.572 54.4113 124.572 62.4972C124.572 70.5831 122.979 78.5898 119.885 86.0602C116.791 93.5305 112.255 100.318 106.538 106.036C100.82 111.753 94.0322 116.289 86.5618 119.383C79.0915 122.478 71.0848 124.07 62.9989 124.07" stroke="#18C1A3" stroke-width="1.85184" stroke-linecap="round"/>
</g>
<mask id="mask1_7145_7278" style="mask-type:alpha" maskUnits="userSpaceOnUse" x="0" y="0" width="65" height="125">
<path d="M63.0011 123.998C54.925 123.998 46.9279 122.407 39.4665 119.316C32.0051 116.226 25.2255 111.696 19.5148 105.985C13.8041 100.274 9.27412 93.4949 6.18351 86.0335C3.0929 78.5721 1.50218 70.575 1.50218 62.4989C1.50218 54.4227 3.0929 46.4257 6.18351 38.9643C9.27412 31.5029 13.8041 24.7233 19.5148 19.0126C25.2255 13.3019 32.0051 8.77191 39.4665 5.6813C46.9279 2.59069 54.925 0.99997 63.0011 0.99997" stroke="#D3E1EA" stroke-width="1.99993" stroke-linecap="round"/>
</mask>
<g mask="url(#mask1_7145_7278)">
<path d="M63.0011 0.926196C54.9152 0.926197 46.9085 2.51883 39.4381 5.61316C31.9678 8.70749 25.18 13.2429 19.4624 18.9605C13.7449 24.6781 9.20942 31.4658 6.11509 38.9362C3.02076 46.4066 1.42813 54.4133 1.42813 62.4992C1.42813 70.585 3.02076 78.5917 6.11509 86.0621C9.20943 93.5325 13.7449 100.32 19.4624 106.038C25.18 111.755 31.9678 116.291 39.4382 119.385C46.9085 122.48 54.9152 124.072 63.0011 124.072" stroke="#18C1A3" stroke-width="1.85184" stroke-linecap="round"/>
</g>
<circle cx="62.9973" cy="62.5032" r="61.2531" fill="#E8F9F6" stroke="#18C1A3" stroke-width="2.50013"/>
<mask id="mask2_7145_7278" style="mask-type:alpha" maskUnits="userSpaceOnUse" x="-3" y="-3" width="131" height="131">
<circle cx="62.9973" cy="62.5032" r="63.7533" fill="white" stroke="#8D9CBD" stroke-width="2.50013"/>
</mask>
<g mask="url(#mask2_7145_7278)">
</g>
<g clip-path="url(#clip0_7145_7278)">
<path d="M83.9725 47.8727C83.6847 47.5826 83.3423 47.3523 82.9651 47.1951C82.5878 47.0379 82.1832 46.957 81.7745 46.957C81.3659 46.957 80.9613 47.0379 80.584 47.1951C80.2068 47.3523 79.8644 47.5826 79.5766 47.8727L56.5138 70.9665L46.8244 61.246C46.5256 60.9574 46.1728 60.7305 45.7863 60.5781C45.3998 60.4258 44.9871 60.3511 44.5717 60.3583C44.1563 60.3655 43.7464 60.4544 43.3654 60.62C42.9844 60.7856 42.6397 61.0246 42.3511 61.3234C42.0625 61.6222 41.8355 61.975 41.6832 62.3615C41.5309 62.748 41.4562 63.1607 41.4634 63.5761C41.4706 63.9915 41.5595 64.4014 41.7251 64.7824C41.8907 65.1634 42.1297 65.5081 42.4285 65.7967L54.3159 77.6841C54.6037 77.9742 54.9461 78.2045 55.3233 78.3617C55.7005 78.5189 56.1052 78.5998 56.5138 78.5998C56.9225 78.5998 57.3271 78.5189 57.7044 78.3617C58.0816 78.2045 58.424 77.9742 58.7118 77.6841L83.9725 52.4234C84.2867 52.1335 84.5375 51.7817 84.709 51.3901C84.8805 50.9985 84.9691 50.5756 84.9691 50.148C84.9691 49.7205 84.8805 49.2976 84.709 48.906C84.5375 48.5144 84.2867 48.1626 83.9725 47.8727Z" fill="#18C1A3"/>
</g>
<defs>
<clipPath id="clip0_7145_7278">
<rect width="74.8954" height="74.8954" fill="white" transform="translate(26.0508 25.5527)"/>
</clipPath>
</defs>
</svg>
