<?xml version="1.0" encoding="UTF-8"?>
<svg width="125px" height="144px" viewBox="0 0 125 144" version="1.1" xmlns="http://www.w3.org/2000/svg" xmlns:xlink="http://www.w3.org/1999/xlink">
    <!-- Generator: Sketch 52.5 (67469) - http://www.bohemiancoding.com/sketch -->
    <title>Group 16</title>
    <desc>Created with Sketch.</desc>
    <g id="Page-1" stroke="none" stroke-width="1" fill="none" fill-rule="evenodd">
        <g id="Group-16" fill="#010101" fill-rule="nonzero">
            <path d="M4.6,92 L0.6,92 L0.6,55.7 C0.6,24.8887076 25.2007919,0 55.9,0 L61.1,0 C91.8349085,0 116.6,24.9252796 116.6,55.7 L116.6,92 L112.6,92 L112.6,55.7 C112.6,27.128666 89.6199758,4 61.1,4 L55.9,4 C27.4204163,4 4.6,27.0874953 4.6,55.7 L4.6,92 Z" id="Path"></path>
            <path d="M24.6,97.9 L24.6,71.1 C24.6,69.4045695 23.1954305,68 21.5,68 L7.7,68 C6.0045695,68 4.6,69.4045695 4.6,71.1 L4.6,97.9 C4.6,99.5954305 6.0045695,101 7.7,101 L21.5,101 C23.1954305,101 24.6,99.5954305 24.6,97.9 Z M28.6,97.9 C28.6,101.804569 25.4045695,105 21.5,105 L7.7,105 C3.7954305,105 0.6,101.804569 0.6,97.9 L0.6,71.1 C0.6,67.1954305 3.7954305,64 7.7,64 L21.5,64 C25.4045695,64 28.6,67.1954305 28.6,71.1 L28.6,97.9 Z" id="Path"></path>
            <path d="M112.6,97.9 L112.6,71.1 C112.6,69.4045695 111.195431,68 109.5,68 L95.7,68 C94.0045695,68 92.6,69.4045695 92.6,71.1 L92.6,97.9 C92.6,99.5954305 94.0045695,101 95.7,101 L109.5,101 C111.195431,101 112.6,99.5954305 112.6,97.9 Z M116.6,97.9 C116.6,101.804569 113.404569,105 109.5,105 L95.7,105 C91.7954305,105 88.6,101.804569 88.6,97.9 L88.6,71.1 C88.6,67.1954305 91.7954305,64 95.7,64 L109.5,64 C113.404569,64 116.6,67.1954305 116.6,71.1 L116.6,97.9 Z" id="Path"></path>
            <path d="M67.6,136.2 L67.6,134.8 C67.6,132.704569 65.8954305,131 63.8,131 L53.4,131 C51.3045695,131 49.6,132.704569 49.6,134.8 L49.6,136.2 C49.6,138.295431 51.3045695,140 53.4,140 L63.8,140 C65.8954305,140 67.6,138.295431 67.6,136.2 Z M71.6,136.2 C71.6,140.504569 68.1045695,144 63.8,144 L53.4,144 C49.0954305,144 45.6,140.504569 45.6,136.2 L45.6,134.8 C45.6,130.495431 49.0954305,127 53.4,127 L63.8,127 C68.1045695,127 71.6,130.495431 71.6,134.8 L71.6,136.2 Z" id="Path"></path>
            <path d="M121.18325,105.688328 L120.6,107.1 L120.6,106.273675 L121.18325,105.688328 Z M120.6,69 C120.6,67.8954305 121.495431,67 122.6,67 C123.704569,67 124.6,67.8954305 124.6,69 L124.6,107.1 C124.6,107.629189 124.390271,108.136808 124.01675,108.511672 L96.2167503,136.411672 C95.8414732,136.788299 95.3316773,137 94.8,137 L69.6,137 C68.4954305,137 67.6,136.104569 67.6,135 C67.6,133.895431 68.4954305,133 69.6,133 L93.9694687,133 L120.6,106.273675 L120.6,69 Z" id="Path"></path>
        </g>
    </g>
</svg>