<svg width="16" height="14" viewBox="0 0 16 14" fill="none" xmlns="http://www.w3.org/2000/svg">
<rect x="1" y="3.58789" width="14.0004" height="9.41302" rx="1" stroke="#8292B4" stroke-width="1.25" stroke-linecap="round" stroke-linejoin="round"/>
<path fill-rule="evenodd" clip-rule="evenodd" d="M1 4.58789C1 4.03561 1.44772 3.58789 2 3.58789H14.0004C14.5527 3.58789 15.0004 4.03561 15.0004 4.58789V5.89206C15.0004 6.34377 14.6984 6.73761 14.2573 6.8348C13.1025 7.08924 10.7439 7.5276 8.20019 7.5276C5.61943 7.5276 3.02172 7.07637 1.76981 6.8238C1.31677 6.7324 1 6.33172 1 5.86955V4.58789Z" stroke="#8292B4" stroke-width="1.25" stroke-linecap="round" stroke-linejoin="round"/>
<path d="M10.8002 3.85407V2C10.8002 1.44771 10.3525 1 9.80022 1L6.20007 1C5.64779 1 5.20007 1.44772 5.20007 2V3.85407" stroke="#8292B4" stroke-width="1.25" stroke-linejoin="round"/>
</svg>
