<svg width="12" height="16" viewBox="0 0 12 16" fill="none" xmlns="http://www.w3.org/2000/svg">
<path d="M9.39338 1.87996C8.78024 1.37569 8.06226 1.01465 7.29182 0.823194C6.52138 0.631737 5.71791 0.61469 4.94004 0.773297C3.90429 0.982512 2.95403 1.49468 2.20983 2.24482C1.46563 2.99496 0.961024 3.94925 0.760042 4.98663C0.613274 5.76445 0.639944 6.56506 0.838151 7.33139C1.03636 8.09771 1.40122 8.81086 1.90671 9.41996C2.37583 9.94934 2.64473 10.6263 2.66671 11.3333V13.3333C2.66671 13.8637 2.87742 14.3724 3.2525 14.7475C3.62757 15.1226 4.13628 15.3333 4.66671 15.3333H7.33338C7.86381 15.3333 8.37252 15.1226 8.74759 14.7475C9.12266 14.3724 9.33338 13.8637 9.33338 13.3333V11.46C9.35575 10.6794 9.64252 9.92958 10.1467 9.3333C11.0301 8.24048 11.4466 6.84318 11.3055 5.44505C11.1644 4.04692 10.4773 2.76096 9.39338 1.86663V1.87996ZM8.00004 13.3333C8.00004 13.5101 7.92981 13.6797 7.80478 13.8047C7.67976 13.9297 7.51019 14 7.33338 14H4.66671C4.4899 14 4.32033 13.9297 4.19531 13.8047C4.07028 13.6797 4.00004 13.5101 4.00004 13.3333V12.6666H8.00004V13.3333ZM9.11338 8.50663C8.44305 9.3017 8.05195 10.2947 8.00004 11.3333H6.66671V9.3333C6.66671 9.15649 6.59647 8.98692 6.47145 8.86189C6.34642 8.73687 6.17685 8.66663 6.00004 8.66663C5.82323 8.66663 5.65366 8.73687 5.52864 8.86189C5.40361 8.98692 5.33338 9.15649 5.33338 9.3333V11.3333H4.00004C3.98245 10.312 3.60467 9.32981 2.93338 8.55996C2.49047 8.0293 2.19264 7.39291 2.06892 6.71286C1.9452 6.03281 1.99981 5.33231 2.22743 4.67965C2.45506 4.02699 2.84792 3.44446 3.36772 2.98885C3.88752 2.53324 4.51652 2.2201 5.19338 2.07996C5.77508 1.96019 6.37615 1.97146 6.95296 2.11294C7.52976 2.25443 8.06782 2.52258 8.52808 2.89793C8.98833 3.27328 9.35922 3.74642 9.61383 4.28298C9.86844 4.81954 10.0004 5.40606 10 5.99996C10.005 6.91321 9.69144 7.79961 9.11338 8.50663Z" fill="#457EFF"/>
</svg>
