<svg id="Layer_1" data-name="Layer 1" xmlns="http://www.w3.org/2000/svg" viewBox="0 0 15 17"><defs><style>.cls-1{fill:#ccc;}</style></defs><title>Calendar</title><path class="cls-1" d="M14,.5H1A.5.5,0,0,0,.5,1V16a.5.5,0,0,0,.5.5H14a.5.5,0,0,0,.5-.5V1A.5.5,0,0,0,14,.5Zm-.5,15H1.5V4.5h12Zm0-12H1.5v-2h12Z"/><path class="cls-1" d="M7,9.42H8.5a.25.25,0,0,0,.25-.25V7.67a.25.25,0,0,0-.25-.25H7a.25.25,0,0,0-.25.25v1.5A.25.25,0,0,0,7,9.42Zm.25-1.5h1v1h-1Z"/><path class="cls-1" d="M10.33,9.42h1.5a.25.25,0,0,0,.25-.25V7.67a.25.25,0,0,0-.25-.25h-1.5a.25.25,0,0,0-.25.25v1.5A.25.25,0,0,0,10.33,9.42Zm.25-1.5h1v1h-1Z"/><path class="cls-1" d="M3.67,9.42h1.5a.25.25,0,0,0,.25-.25V7.67a.25.25,0,0,0-.25-.25H3.67a.25.25,0,0,0-.25.25v1.5A.25.25,0,0,0,3.67,9.42Zm.25-1.5h1v1h-1Z"/><path class="cls-1" d="M7,13.42H8.5a.25.25,0,0,0,.25-.25v-1.5a.25.25,0,0,0-.25-.25H7a.25.25,0,0,0-.25.25v1.5A.25.25,0,0,0,7,13.42Zm.25-1.5h1v1h-1Z"/><path class="cls-1" d="M10.33,13.42h1.5a.25.25,0,0,0,.25-.25v-1.5a.25.25,0,0,0-.25-.25h-1.5a.25.25,0,0,0-.25.25v1.5A.26.26,0,0,0,10.33,13.42Zm.25-1.5h1v1h-1Z"/><path class="cls-1" d="M3.67,13.42h1.5a.26.26,0,0,0,.25-.25v-1.5a.25.25,0,0,0-.25-.25H3.67a.25.25,0,0,0-.25.25v1.5A.25.25,0,0,0,3.67,13.42Zm.25-1.5h1v1h-1Z"/></svg>