<svg width="16" height="16" viewBox="0 0 16 16" fill="none" xmlns="http://www.w3.org/2000/svg">
<mask id="path-1-inside-1_89_8556" fill="white">
<path d="M12.6663 2.66634H11.333V1.99967C11.333 1.82286 11.2628 1.65329 11.1377 1.52827C11.0127 1.40325 10.8432 1.33301 10.6663 1.33301C10.4895 1.33301 10.32 1.40325 10.1949 1.52827C10.0699 1.65329 9.99967 1.82286 9.99967 1.99967V2.66634H5.99967V1.99967C5.99967 1.82286 5.92944 1.65329 5.80441 1.52827C5.67939 1.40325 5.50982 1.33301 5.33301 1.33301C5.1562 1.33301 4.98663 1.40325 4.8616 1.52827C4.73658 1.65329 4.66634 1.82286 4.66634 1.99967V2.66634H3.33301C2.80257 2.66634 2.29387 2.87705 1.91879 3.25213C1.54372 3.6272 1.33301 4.13591 1.33301 4.66634V12.6663C1.33301 13.1968 1.54372 13.7055 1.91879 14.0806C2.29387 14.4556 2.80257 14.6663 3.33301 14.6663H12.6663C13.1968 14.6663 13.7055 14.4556 14.0806 14.0806C14.4556 13.7055 14.6663 13.1968 14.6663 12.6663V4.66634C14.6663 4.13591 14.4556 3.6272 14.0806 3.25213C13.7055 2.87705 13.1968 2.66634 12.6663 2.66634ZM13.333 12.6663C13.333 12.8432 13.2628 13.0127 13.1377 13.1377C13.0127 13.2628 12.8432 13.333 12.6663 13.333H3.33301C3.1562 13.333 2.98663 13.2628 2.8616 13.1377C2.73658 13.0127 2.66634 12.8432 2.66634 12.6663V7.99967H13.333V12.6663ZM13.333 6.66634H2.66634V4.66634C2.66634 4.48953 2.73658 4.31996 2.8616 4.19494C2.98663 4.06991 3.1562 3.99967 3.33301 3.99967H4.66634V4.66634C4.66634 4.84315 4.73658 5.01272 4.8616 5.13775C4.98663 5.26277 5.1562 5.33301 5.33301 5.33301C5.50982 5.33301 5.67939 5.26277 5.80441 5.13775C5.92944 5.01272 5.99967 4.84315 5.99967 4.66634V3.99967H9.99967V4.66634C9.99967 4.84315 10.0699 5.01272 10.1949 5.13775C10.32 5.26277 10.4895 5.33301 10.6663 5.33301C10.8432 5.33301 11.0127 5.26277 11.1377 5.13775C11.2628 5.01272 11.333 4.84315 11.333 4.66634V3.99967H12.6663C12.8432 3.99967 13.0127 4.06991 13.1377 4.19494C13.2628 4.31996 13.333 4.48953 13.333 4.66634V6.66634Z"/>
</mask>
<path d="M12.6663 2.66634H11.333V1.99967C11.333 1.82286 11.2628 1.65329 11.1377 1.52827C11.0127 1.40325 10.8432 1.33301 10.6663 1.33301C10.4895 1.33301 10.32 1.40325 10.1949 1.52827C10.0699 1.65329 9.99967 1.82286 9.99967 1.99967V2.66634H5.99967V1.99967C5.99967 1.82286 5.92944 1.65329 5.80441 1.52827C5.67939 1.40325 5.50982 1.33301 5.33301 1.33301C5.1562 1.33301 4.98663 1.40325 4.8616 1.52827C4.73658 1.65329 4.66634 1.82286 4.66634 1.99967V2.66634H3.33301C2.80257 2.66634 2.29387 2.87705 1.91879 3.25213C1.54372 3.6272 1.33301 4.13591 1.33301 4.66634V12.6663C1.33301 13.1968 1.54372 13.7055 1.91879 14.0806C2.29387 14.4556 2.80257 14.6663 3.33301 14.6663H12.6663C13.1968 14.6663 13.7055 14.4556 14.0806 14.0806C14.4556 13.7055 14.6663 13.1968 14.6663 12.6663V4.66634C14.6663 4.13591 14.4556 3.6272 14.0806 3.25213C13.7055 2.87705 13.1968 2.66634 12.6663 2.66634ZM13.333 12.6663C13.333 12.8432 13.2628 13.0127 13.1377 13.1377C13.0127 13.2628 12.8432 13.333 12.6663 13.333H3.33301C3.1562 13.333 2.98663 13.2628 2.8616 13.1377C2.73658 13.0127 2.66634 12.8432 2.66634 12.6663V7.99967H13.333V12.6663ZM13.333 6.66634H2.66634V4.66634C2.66634 4.48953 2.73658 4.31996 2.8616 4.19494C2.98663 4.06991 3.1562 3.99967 3.33301 3.99967H4.66634V4.66634C4.66634 4.84315 4.73658 5.01272 4.8616 5.13775C4.98663 5.26277 5.1562 5.33301 5.33301 5.33301C5.50982 5.33301 5.67939 5.26277 5.80441 5.13775C5.92944 5.01272 5.99967 4.84315 5.99967 4.66634V3.99967H9.99967V4.66634C9.99967 4.84315 10.0699 5.01272 10.1949 5.13775C10.32 5.26277 10.4895 5.33301 10.6663 5.33301C10.8432 5.33301 11.0127 5.26277 11.1377 5.13775C11.2628 5.01272 11.333 4.84315 11.333 4.66634V3.99967H12.6663C12.8432 3.99967 13.0127 4.06991 13.1377 4.19494C13.2628 4.31996 13.333 4.48953 13.333 4.66634V6.66634Z" fill="white"/>
<path d="M11.333 2.66634H9.98301V4.01634H11.333V2.66634ZM10.6663 1.33301V-0.0169922V1.33301ZM9.99967 2.66634V4.01634H11.3497V2.66634H9.99967ZM5.99967 2.66634H4.64967V4.01634H5.99967V2.66634ZM5.33301 1.33301V-0.0169922V1.33301ZM4.66634 2.66634V4.01634H6.01634V2.66634H4.66634ZM1.33301 4.66634H-0.0169922H1.33301ZM1.33301 12.6663H-0.0169922H1.33301ZM3.33301 14.6663V16.0163V14.6663ZM12.6663 14.6663V16.0163V14.6663ZM14.6663 12.6663H16.0163H14.6663ZM14.6663 4.66634H16.0163H14.6663ZM2.66634 7.99967V6.64967H1.31634V7.99967H2.66634ZM13.333 7.99967H14.683V6.64967H13.333V7.99967ZM13.333 6.66634V8.01634H14.683V6.66634H13.333ZM2.66634 6.66634H1.31634V8.01634H2.66634V6.66634ZM3.33301 3.99967V5.34967V3.99967ZM4.66634 3.99967H6.01634V2.64967H4.66634V3.99967ZM5.99967 3.99967V2.64967H4.64967V3.99967H5.99967ZM9.99967 3.99967H11.3497V2.64967H9.99967V3.99967ZM11.333 3.99967V2.64967H9.98301V3.99967H11.333ZM12.6663 1.31634H11.333V4.01634H12.6663V1.31634ZM12.683 2.66634V1.99967H9.98301V2.66634H12.683ZM12.683 1.99967C12.683 1.46482 12.4705 0.951876 12.0923 0.573676L10.1832 2.48286C10.055 2.35471 9.98301 2.1809 9.98301 1.99967H12.683ZM12.0923 0.573676C11.7141 0.195477 11.2012 -0.0169922 10.6663 -0.0169922V2.68301C10.4851 2.68301 10.3113 2.61101 10.1832 2.48286L12.0923 0.573676ZM10.6663 -0.0169922C10.1315 -0.0169922 9.61854 0.195477 9.24034 0.573676L11.1495 2.48286C11.0214 2.61101 10.8476 2.68301 10.6663 2.68301V-0.0169922ZM9.24034 0.573676C8.86214 0.951874 8.64967 1.46482 8.64967 1.99967H11.3497C11.3497 2.18091 11.2777 2.35471 11.1495 2.48286L9.24034 0.573676ZM8.64967 1.99967V2.66634H11.3497V1.99967H8.64967ZM9.99967 1.31634H5.99967V4.01634H9.99967V1.31634ZM7.34967 2.66634V1.99967H4.64967V2.66634H7.34967ZM7.34967 1.99967C7.34967 1.46482 7.1372 0.951874 6.75901 0.573676L4.84982 2.48286C4.72167 2.35471 4.64967 2.18091 4.64967 1.99967H7.34967ZM6.75901 0.573676C6.38081 0.195477 5.86786 -0.0169922 5.33301 -0.0169922V2.68301C5.15178 2.68301 4.97797 2.61101 4.84982 2.48286L6.75901 0.573676ZM5.33301 -0.0169922C4.79815 -0.0169922 4.28521 0.195477 3.90701 0.573676L5.8162 2.48286C5.68805 2.61101 5.51424 2.68301 5.33301 2.68301V-0.0169922ZM3.90701 0.573676C3.52881 0.951874 3.31634 1.46482 3.31634 1.99967H6.01634C6.01634 2.18091 5.94435 2.35471 5.8162 2.48286L3.90701 0.573676ZM3.31634 1.99967V2.66634H6.01634V1.99967H3.31634ZM4.66634 1.31634H3.33301V4.01634H4.66634V1.31634ZM3.33301 1.31634C2.44453 1.31634 1.59245 1.66929 0.9642 2.29753L2.87339 4.20672C2.99529 4.08482 3.16062 4.01634 3.33301 4.01634V1.31634ZM0.9642 2.29753C0.335953 2.92578 -0.0169922 3.77787 -0.0169922 4.66634H2.68301C2.68301 4.49395 2.75149 4.32862 2.87339 4.20672L0.9642 2.29753ZM-0.0169922 4.66634V12.6663H2.68301V4.66634H-0.0169922ZM-0.0169922 12.6663C-0.0169922 13.5548 0.335953 14.4069 0.9642 15.0351L2.87339 13.126C2.75149 13.0041 2.68301 12.8387 2.68301 12.6663H-0.0169922ZM0.9642 15.0351C1.59245 15.6634 2.44453 16.0163 3.33301 16.0163V13.3163C3.16062 13.3163 2.99529 13.2479 2.87339 13.126L0.9642 15.0351ZM3.33301 16.0163H12.6663V13.3163H3.33301V16.0163ZM12.6663 16.0163C13.5548 16.0163 14.4069 15.6634 15.0351 15.0351L13.126 13.126C13.0041 13.2479 12.8387 13.3163 12.6663 13.3163V16.0163ZM15.0351 15.0351C15.6634 14.4069 16.0163 13.5548 16.0163 12.6663H13.3163C13.3163 12.8387 13.2479 13.0041 13.126 13.126L15.0351 15.0351ZM16.0163 12.6663V4.66634H13.3163V12.6663H16.0163ZM16.0163 4.66634C16.0163 3.77787 15.6634 2.92578 15.0351 2.29753L13.126 4.20672C13.2479 4.32862 13.3163 4.49395 13.3163 4.66634H16.0163ZM15.0351 2.29753C14.4069 1.66929 13.5548 1.31634 12.6663 1.31634V4.01634C12.8387 4.01634 13.0041 4.08482 13.126 4.20672L15.0351 2.29753ZM11.983 12.6663C11.983 12.4851 12.055 12.3113 12.1832 12.1832L14.0923 14.0923C14.4705 13.7141 14.683 13.2012 14.683 12.6663H11.983ZM12.1832 12.1832C12.3113 12.055 12.4851 11.983 12.6663 11.983V14.683C13.2012 14.683 13.7141 14.4705 14.0923 14.0923L12.1832 12.1832ZM12.6663 11.983H3.33301V14.683H12.6663V11.983ZM3.33301 11.983C3.51424 11.983 3.68805 12.055 3.8162 12.1832L1.90701 14.0923C2.28521 14.4705 2.79816 14.683 3.33301 14.683V11.983ZM3.8162 12.1832C3.94435 12.3113 4.01634 12.4851 4.01634 12.6663H1.31634C1.31634 13.2012 1.52881 13.7141 1.90701 14.0923L3.8162 12.1832ZM4.01634 12.6663V7.99967H1.31634V12.6663H4.01634ZM2.66634 9.34967H13.333V6.64967H2.66634V9.34967ZM11.983 7.99967V12.6663H14.683V7.99967H11.983ZM13.333 5.31634H2.66634V8.01634H13.333V5.31634ZM4.01634 6.66634V4.66634H1.31634V6.66634H4.01634ZM4.01634 4.66634C4.01634 4.84757 3.94435 5.02138 3.8162 5.14953L1.90701 3.24034C1.52881 3.61854 1.31634 4.13149 1.31634 4.66634H4.01634ZM3.8162 5.14953C3.68805 5.27768 3.51424 5.34967 3.33301 5.34967V2.64967C2.79815 2.64967 2.28521 2.86214 1.90701 3.24034L3.8162 5.14953ZM3.33301 5.34967H4.66634V2.64967H3.33301V5.34967ZM3.31634 3.99967V4.66634H6.01634V3.99967H3.31634ZM3.31634 4.66634C3.31634 5.2012 3.52881 5.71414 3.90701 6.09234L5.8162 4.18315C5.94435 4.3113 6.01634 4.48511 6.01634 4.66634H3.31634ZM3.90701 6.09234C4.28521 6.47054 4.79815 6.68301 5.33301 6.68301V3.98301C5.51424 3.98301 5.68805 4.055 5.8162 4.18315L3.90701 6.09234ZM5.33301 6.68301C5.86786 6.68301 6.38081 6.47054 6.75901 6.09234L4.84982 4.18315C4.97797 4.055 5.15178 3.98301 5.33301 3.98301V6.68301ZM6.75901 6.09234C7.1372 5.71414 7.34967 5.2012 7.34967 4.66634H4.64967C4.64967 4.48511 4.72167 4.3113 4.84982 4.18315L6.75901 6.09234ZM7.34967 4.66634V3.99967H4.64967V4.66634H7.34967ZM5.99967 5.34967H9.99967V2.64967H5.99967V5.34967ZM8.64967 3.99967V4.66634H11.3497V3.99967H8.64967ZM8.64967 4.66634C8.64967 5.2012 8.86214 5.71414 9.24034 6.09234L11.1495 4.18315C11.2777 4.3113 11.3497 4.48511 11.3497 4.66634H8.64967ZM9.24034 6.09234C9.61854 6.47054 10.1315 6.68301 10.6663 6.68301V3.98301C10.8476 3.98301 11.0214 4.055 11.1495 4.18315L9.24034 6.09234ZM10.6663 6.68301C11.2012 6.68301 11.7141 6.47054 12.0923 6.09234L10.1832 4.18315C10.3113 4.055 10.4851 3.98301 10.6663 3.98301V6.68301ZM12.0923 6.09234C12.4705 5.71414 12.683 5.20119 12.683 4.66634H9.98301C9.98301 4.48511 10.055 4.3113 10.1832 4.18315L12.0923 6.09234ZM12.683 4.66634V3.99967H9.98301V4.66634H12.683ZM11.333 5.34967H12.6663V2.64967H11.333V5.34967ZM12.6663 5.34967C12.4851 5.34967 12.3113 5.27768 12.1832 5.14953L14.0923 3.24034C13.7141 2.86214 13.2012 2.64967 12.6663 2.64967V5.34967ZM12.1832 5.14953C12.055 5.02138 11.983 4.84757 11.983 4.66634H14.683C14.683 4.13149 14.4705 3.61854 14.0923 3.24034L12.1832 5.14953ZM11.983 4.66634V6.66634H14.683V4.66634H11.983Z" fill="#8292B4" mask="url(#path-1-inside-1_89_8556)"/>
</svg>
