<svg width="24" height="24" viewBox="0 0 24 24" fill="none" xmlns="http://www.w3.org/2000/svg">
<path d="M4.85714 1.9C3.23141 1.9 1.9 3.23141 1.9 4.85714V19.1429C1.9 20.7686 3.23141 22.1 4.85714 22.1H12C12.216 22.1 12.4231 22.0142 12.5758 21.8615C12.7285 21.7088 12.8143 21.5017 12.8143 21.2857C12.8143 21.0698 12.7285 20.8626 12.5758 20.7099C12.4231 20.5572 12.216 20.4714 12 20.4714H4.85714C4.10859 20.4714 3.52857 19.8914 3.52857 19.1429V4.85714C3.52857 4.10859 4.10859 3.52857 4.85714 3.52857H14.8571C15.6057 3.52857 16.1857 4.10859 16.1857 4.85714V6.28571C16.1857 6.50168 16.2715 6.70879 16.4242 6.8615C16.5769 7.01421 16.784 7.1 17 7.1C17.216 7.1 17.4231 7.01421 17.5758 6.8615C17.7285 6.70879 17.8143 6.50168 17.8143 6.28571V4.85714C17.8143 3.23141 16.4829 1.9 14.8571 1.9H4.85714Z" fill="#457EFF" stroke="#457EFF" stroke-width="0.2"/>
<path d="M14.0512 21.2863L14.0512 21.2864C14.0514 21.4338 14.0915 21.5785 14.1675 21.705C14.2434 21.8314 14.3523 21.9348 14.4824 22.0042C14.6125 22.0736 14.7591 22.1064 14.9064 22.099C15.0537 22.0916 15.1962 22.0444 15.3187 21.9623C15.3187 21.9623 15.3187 21.9623 15.3188 21.9623L17 20.8374L18.6812 21.9623C18.6813 21.9623 18.6813 21.9623 18.6813 21.9623C18.8038 22.0444 18.9463 22.0916 19.0936 22.099C19.2409 22.1064 19.3875 22.0736 19.5176 22.0042C19.6477 21.9348 19.7566 21.8314 19.8325 21.705C19.9085 21.5785 19.9486 21.4338 19.9488 21.2864V21.2863V16.8668C21.2473 15.9411 22.1 14.4255 22.1 12.7148C22.1 9.90665 19.8082 7.61484 17 7.61484C14.1918 7.61484 11.9 9.90665 11.9 12.7148C11.9 14.4255 12.7527 15.9411 14.0512 16.8668L14.0512 21.2863ZM17 9.24342C18.9257 9.24342 20.4714 10.7892 20.4714 12.7148C20.4714 14.6405 18.9257 16.1863 17 16.1863C15.0743 16.1863 13.5286 14.6405 13.5286 12.7148C13.5286 10.7892 15.0743 9.24342 17 9.24342ZM16.5467 19.1817L15.6798 19.7624V17.6379C16.101 17.7518 16.5434 17.8148 17 17.8148C17.4566 17.8148 17.899 17.7518 18.3202 17.6379V19.7624L17.4533 19.1817C17.4533 19.1817 17.4533 19.1817 17.4533 19.1817C17.3192 19.0919 17.1614 19.0439 17 19.0439C16.8386 19.0439 16.6808 19.0919 16.5467 19.1817Z" fill="#457EFF" stroke="#457EFF" stroke-width="0.2"/>
<path d="M6.28557 5.47227C6.06961 5.47227 5.8625 5.55806 5.70979 5.71076C5.55708 5.86347 5.47129 6.07059 5.47129 6.28655C5.47129 6.50251 5.55708 6.70963 5.70979 6.86234C5.8625 7.01505 6.06961 7.10084 6.28557 7.10084H8.42843C8.64439 7.10084 8.85151 7.01505 9.00422 6.86234C9.15693 6.70963 9.24272 6.50251 9.24272 6.28655C9.24272 6.07059 9.15693 5.86347 9.00422 5.71076C8.85151 5.55806 8.64439 5.47227 8.42843 5.47227H6.28557Z" fill="#457EFF" stroke="#457EFF" stroke-width="0.2"/>
<path d="M6.28557 8.32773C6.06961 8.32773 5.8625 8.41353 5.70979 8.56623C5.55708 8.71894 5.47129 8.92606 5.47129 9.14202C5.47129 9.35798 5.55708 9.5651 5.70979 9.71781C5.8625 9.87052 6.06961 9.95631 6.28557 9.95631H10.5713C10.7873 9.95631 10.9944 9.87052 11.1471 9.71781C11.2998 9.5651 11.3856 9.35798 11.3856 9.14202C11.3856 8.92606 11.2998 8.71894 11.1471 8.56623C10.9944 8.41353 10.7873 8.32773 10.5713 8.32773H6.28557Z" fill="#457EFF" stroke="#457EFF" stroke-width="0.2"/>
<path d="M6.28557 11.1852C6.06961 11.1852 5.8625 11.2709 5.70979 11.4237C5.55708 11.5764 5.47129 11.7835 5.47129 11.9994C5.47129 12.2154 5.55708 12.4225 5.70979 12.5752C5.8625 12.7279 6.06961 12.8137 6.28557 12.8137H8.42843C8.64439 12.8137 8.85151 12.7279 9.00422 12.5752C9.15693 12.4225 9.24272 12.2154 9.24272 11.9994C9.24272 11.7835 9.15693 11.5764 9.00422 11.4237C8.85151 11.2709 8.64439 11.1852 8.42843 11.1852H6.28557Z" fill="#457EFF" stroke="#457EFF" stroke-width="0.2"/>
</svg>
