<svg width="20" height="20" viewBox="0 0 20 20" fill="none" xmlns="http://www.w3.org/2000/svg">
<path fill-rule="evenodd" clip-rule="evenodd" d="M15.8333 2.50004H4.16666C3.24619 2.50004 2.49999 3.24623 2.49999 4.16671V15.8334C2.49999 16.7538 3.24619 17.5 4.16666 17.5H15.8333C16.7538 17.5 17.5 16.7538 17.5 15.8334V4.16671C17.5 3.24623 16.7538 2.50004 15.8333 2.50004ZM4.16666 0.833374C2.32571 0.833374 0.833328 2.32576 0.833328 4.16671V15.8334C0.833328 17.6743 2.32571 19.1667 4.16666 19.1667H15.8333C17.6743 19.1667 19.1667 17.6743 19.1667 15.8334V4.16671C19.1667 2.32576 17.6743 0.833374 15.8333 0.833374H4.16666Z" fill="#8292B4"/>
</svg>
