<svg width="20" height="20" viewBox="0 0 20 20" fill="none" xmlns="http://www.w3.org/2000/svg">
<path fill-rule="evenodd" clip-rule="evenodd" d="M4.83333 0.833374C2.62419 0.833374 0.833328 2.62424 0.833328 4.83338V15.1667C0.833328 17.3758 2.62419 19.1667 4.83333 19.1667H15.1667C17.3758 19.1667 19.1667 17.3758 19.1667 15.1667V4.83337C19.1667 2.62424 17.3758 0.833374 15.1667 0.833374H4.83333ZM15.3387 5.89746C15.4403 5.93977 15.5325 6.00177 15.6099 6.07987C15.6945 6.15791 15.762 6.25262 15.8082 6.35803C15.8544 6.46345 15.8782 6.57729 15.8782 6.69237C15.8782 6.80746 15.8544 6.92129 15.8082 7.02671C15.762 7.13213 15.6945 7.22684 15.6099 7.30487L8.80993 14.1049C8.73246 14.183 8.64029 14.245 8.53874 14.2873C8.43719 14.3296 8.32827 14.3514 8.21826 14.3514C8.10825 14.3514 7.99933 14.3296 7.89778 14.2873C7.79623 14.245 7.70407 14.183 7.6266 14.1049L4.4266 10.9049C4.34616 10.8272 4.28182 10.7344 4.23724 10.6318C4.19266 10.5293 4.16872 10.4189 4.16679 10.3071C4.16485 10.1953 4.18496 10.0842 4.22597 9.98014C4.26697 9.87609 4.32806 9.78114 4.40576 9.70071C4.48346 9.62027 4.57624 9.55593 4.67881 9.51135C4.78137 9.46677 4.89171 9.44283 5.00353 9.4409C5.11535 9.43896 5.22645 9.45907 5.3305 9.50008C5.43454 9.54108 5.5295 9.60217 5.60993 9.67987L8.21826 12.2965L14.4266 6.07987C14.5041 6.00177 14.5962 5.93977 14.6978 5.89746C14.7993 5.85515 14.9083 5.83337 15.0183 5.83337C15.1283 5.83337 15.2372 5.85515 15.3387 5.89746Z" fill="#FF7555"/>
</svg>
