<svg width="12" height="12" viewBox="0 0 12 12" fill="none" xmlns="http://www.w3.org/2000/svg">
<path fill-rule="evenodd" clip-rule="evenodd" d="M0.649908 0.650007C0.825683 0.474445 1.06397 0.375832 1.31241 0.375832C1.56085 0.375832 1.79912 0.474445 1.97491 0.650007L5.99991 4.67501L10.0249 0.650007C10.1108 0.557895 10.2143 0.48402 10.3293 0.432782C10.4443 0.381545 10.5684 0.353995 10.6943 0.35177C10.8202 0.349545 10.9452 0.372707 11.0619 0.419857C11.1787 0.467007 11.2847 0.537182 11.3737 0.626207C11.4628 0.715232 11.5329 0.821283 11.58 0.938008C11.6272 1.05475 11.6504 1.17978 11.6482 1.30566C11.6459 1.43155 11.6184 1.55568 11.5672 1.67068C11.5159 1.78568 11.442 1.88918 11.3499 1.97501L7.32491 6.00001L11.3499 10.025C11.442 10.1109 11.5159 10.2144 11.5672 10.3294C11.6184 10.4444 11.6459 10.5685 11.6482 10.6944C11.6504 10.8203 11.6272 10.9453 11.58 11.062C11.5329 11.1788 11.4628 11.2848 11.3737 11.3738C11.2847 11.4629 11.1787 11.533 11.0619 11.5801C10.9452 11.6273 10.8202 11.6505 10.6943 11.6483C10.5684 11.646 10.4443 11.6185 10.3293 11.5673C10.2143 11.516 10.1108 11.4421 10.0249 11.35L5.99991 7.32501L1.97491 11.35C1.79718 11.5156 1.56212 11.6058 1.31924 11.6015C1.07637 11.5971 0.844645 11.4988 0.67287 11.327C0.501107 11.1553 0.40272 10.9235 0.398433 10.6806C0.394145 10.4378 0.484308 10.2028 0.649908 10.025L4.67491 6.00001L0.649908 1.97501C0.474345 1.79923 0.375732 1.56094 0.375732 1.31251C0.375732 1.06407 0.474345 0.825795 0.649908 0.650007Z" fill="#8292B4"/>
</svg>
