<svg width="42" height="42" viewBox="0 0 42 42" fill="none" xmlns="http://www.w3.org/2000/svg">
<rect x="0.5" y="0.5" width="41" height="41" rx="4.5" fill="white" stroke="#EAF1F5"/>
<mask id="mask0_164_5047" style="mask-type:alpha" maskUnits="userSpaceOnUse" x="1" y="1" width="40" height="40">
<rect x="1.5" y="1.5" width="39" height="39" rx="3.5" fill="white" stroke="white"/>
</mask>
<g mask="url(#mask0_164_5047)">
<rect x="0.5" y="0.5" width="41" height="41" fill="white" stroke="#EAF1F5"/>
<rect x="3" y="3" width="36" height="36" fill="white"/>
<path fill-rule="evenodd" clip-rule="evenodd" d="M26.5888 9.86689C26.4588 9.79854 26.3123 9.75736 26.1568 9.75091C26.1281 9.7497 26.0994 9.7497 26.0708 9.7509C25.8888 9.75839 25.719 9.81347 25.5737 9.90402L20.4738 12.9639C20.1658 13.1488 19.9773 13.4817 19.9773 13.8409V16.277L17.3843 14.9805C17.2543 14.9122 17.1077 14.871 16.9522 14.8645C16.9236 14.8633 16.8949 14.8633 16.8663 14.8645C16.6843 14.872 16.5145 14.9271 16.3691 15.0176L11.2693 18.0776C10.9612 18.2624 10.7727 18.5953 10.7727 18.9545V29.6932C10.2079 29.6932 9.75 30.1511 9.75 30.7159C9.75 31.2807 10.2079 31.7386 10.7727 31.7386H16.9034C16.9053 31.7386 16.9072 31.7387 16.9091 31.7387C16.911 31.7387 16.9129 31.7386 16.9147 31.7386H26.108C26.1099 31.7386 26.1118 31.7387 26.1136 31.7387C26.1155 31.7387 26.1174 31.7386 26.1193 31.7386H31.2273C31.7921 31.7386 32.25 31.2807 32.25 30.7159C32.25 30.1511 31.7921 29.6932 31.2273 29.6932V12.8182C31.2273 12.4308 31.0084 12.0767 30.6619 11.9034L26.5888 9.86689ZM25.0909 12.5791L22.0227 14.42V17.9112C22.023 17.9255 22.023 17.9397 22.0227 17.954V29.6932H25.0909V12.5791ZM27.1364 29.6932V12.4275L29.1818 13.4503V29.6932H27.1364ZM17.9318 29.6932H19.9773V18.5639L17.9318 17.5412V29.6932ZM15.8864 17.6927L12.8182 19.5336V29.6932H15.8864V17.6927Z" fill="#D3E1EA"/>
</g>
</svg>
