<!-- Generated by IcoMoon.io -->
<svg version="1.1" xmlns="http://www.w3.org/2000/svg" width="32" height="32" viewBox="0 0 32 32">
<title>connect</title>
<path d="M2.906 26.141q0-1.391 0.984-2.375t2.359-0.984q0.938 0 1.75 0.5l5.156-4.531q-0.75-0.922-0.75-2.109 0-1.078 0.641-1.969l-4.844-5.547q-0.875 0.625-1.953 0.625-1.375 0-2.359-0.984t-0.984-2.375 0.984-2.367 2.367-0.977 2.367 0.977 0.984 2.367q0 1.219-0.781 2.156l4.797 5.5q0.938-0.766 2.141-0.766 1.156 0 2.078 0.734l5.703-5.344q-0.906-0.969-0.906-2.281 0-1.391 0.984-2.367t2.375-0.977 2.375 0.977 0.984 2.367-0.984 2.375-2.375 0.984q-0.969 0-1.781-0.516l-5.781 5.391q0.688 0.891 0.688 2.016t-0.703 2.031l5.281 5.031q0.969-0.922 2.297-0.922 1.391 0 2.375 0.984t0.984 2.375-0.984 2.375-2.375 0.984-2.375-0.984-0.984-2.375q0-0.953 0.516-1.781l-5.328-5.094q-0.922 0.719-2.063 0.719-1.094 0-1.984-0.641l-5.109 4.484q0.938 0.969 0.938 2.313 0 1.391-0.984 2.375t-2.367 0.984-2.367-0.984-0.984-2.375zM3.75 26.141q0 1.031 0.734 1.766t1.773 0.734 1.773-0.734 0.734-1.766-0.734-1.766-1.773-0.734-1.773 0.734-0.734 1.766zM3.75 6.391q0 1.031 0.734 1.766t1.773 0.734 1.773-0.734 0.734-1.766-0.734-1.766-1.773-0.734-1.773 0.734-0.734 1.766zM13.266 16.633q0 1.039 0.734 1.773t1.766 0.734 1.766-0.734 0.734-1.773-0.734-1.766-1.766-0.727-1.766 0.727-0.734 1.766zM13.938 17.922l0.172-0.219q0.266-0.297 0.797-0.453 0.078-0.031 0.109-0.047 0.016-0.047 0-0.234-0.078-0.125-0.156-0.328-0.141-0.125-0.172-0.297t0.016-0.313q-0.031-0.203-0.031-0.391 0-0.469 0.234-0.734 0.281-0.344 0.813-0.344 0.359 0 0.5 0.172 0.25 0.031 0.391 0.219 0.156 0.219 0.156 0.563 0 0.234-0.063 0.516 0.063 0.141 0.016 0.313-0.047 0.188-0.188 0.313-0.016 0.047-0.086 0.156t-0.070 0.156v0.203l0.047 0.063q0-0.016 0.016-0.008t0.094 0.039q0.5 0.141 0.75 0.438l0.172 0.219-0.203 0.188q-0.359 0.297-1.555 0.297t-1.555-0.297zM14.578 17.859q0.406 0.125 1.125 0.125t1.109-0.125q-0.172-0.125-0.422-0.188-0.188-0.078-0.234-0.125l-0.063-0.047q-0.109-0.125-0.141-0.266v-0.406l0.047-0.063q0.078-0.094 0.141-0.313l0.031-0.109 0.109-0.031q0.016-0.031 0.016-0.063 0.016-0.047 0.016-0.078l-0.078-0.094 0.047-0.109q0.156-0.609-0.016-0.828-0.109-0.156-0.141-0.156h-0.078l-0.125-0.031q-0.016-0.016-0.023-0.008t-0.055 0.023-0.094 0.016q-0.359 0-0.516 0.188-0.203 0.25-0.109 0.859l0.016 0.094-0.047 0.063 0.016 0.063q0 0.047 0.031 0.063l0.063 0.047 0.031 0.078q0.078 0.234 0.156 0.313l0.063 0.063v0.078q0 0.313-0.016 0.375-0.016 0.125-0.125 0.234-0.078 0.078-0.266 0.156-0.281 0.078-0.469 0.203zM23.5 26.141q0 1.031 0.734 1.766t1.766 0.734 1.766-0.734 0.734-1.766-0.734-1.766-1.766-0.734-1.766 0.734-0.734 1.766zM23.5 6.391q0 1.031 0.734 1.766t1.766 0.734 1.766-0.734 0.734-1.766-0.734-1.766-1.766-0.734-1.766 0.734-0.734 1.766z"></path>
</svg>
