<svg id="Layer_1" data-name="Layer 1" xmlns="http://www.w3.org/2000/svg" viewBox="0 0 17 17"><defs><style>.cls-1{fill:#ccc;}</style></defs><title>contact</title><path class="cls-1" d="M15.92,12.22c-.23-.16-2.83-1.89-3.17-2.09a1.76,1.76,0,0,0-1.73.06c-.2.1-.71.39-1.1.62A22.1,22.1,0,0,1,8,9a20.1,20.1,0,0,1-1.77-2L6.8,6a1.74,1.74,0,0,0,0-1.75c-.2-.31-1.91-2.89-2.09-3.14A1.69,1.69,0,0,0,2.53.83C1.91,1.24.47,2.3.5,3.37c.09,2.8,2.72,6,4.91,8.21s5.39,4.83,8.23,4.92c1,0,2.11-1.42,2.52-2A1.62,1.62,0,0,0,15.92,12.22Zm-.59,1.7c-.6.88-1.34,1.58-1.7,1.58-2.47-.08-5.45-2.56-7.51-4.63S1.58,5.81,1.5,3.34c0-.35.68-1.09,1.57-1.68h0a.83.83,0,0,1,.48-.15A.48.48,0,0,1,4,1.65c.17.24,1.88,2.8,2.06,3.08a.84.84,0,0,1-.1.76c-.13.24-.55,1-.76,1.35L5,7.12l.18.26A18.83,18.83,0,0,0,7.24,9.74,18.38,18.38,0,0,0,9.6,11.81l.26.18.27-.16,1.36-.76a.86.86,0,0,1,.74-.09c.29.18,2.86,1.89,3.11,2.06S15.6,13.52,15.33,13.92Z"/></svg>