<svg width="20" height="20" viewBox="0 0 20 20" fill="none" xmlns="http://www.w3.org/2000/svg">
<path d="M9.99967 10.8333C9.77866 10.8333 9.5667 10.9211 9.41042 11.0774C9.25414 11.2337 9.16634 11.4456 9.16634 11.6667V14.1667C9.16634 14.3877 9.25414 14.5996 9.41042 14.7559C9.5667 14.9122 9.77866 15 9.99967 15C10.2207 15 10.4326 14.9122 10.5889 14.7559C10.7452 14.5996 10.833 14.3877 10.833 14.1667V11.6667C10.833 11.4456 10.7452 11.2337 10.5889 11.0774C10.4326 10.9211 10.2207 10.8333 9.99967 10.8333ZM14.1663 7.49999V5.83332C14.1663 4.72825 13.7274 3.66845 12.946 2.88704C12.1646 2.10564 11.1047 1.66666 9.99967 1.66666C8.89461 1.66666 7.8348 2.10564 7.0534 2.88704C6.27199 3.66845 5.83301 4.72825 5.83301 5.83332V7.49999C5.16997 7.49999 4.53408 7.76338 4.06524 8.23222C3.5964 8.70106 3.33301 9.33695 3.33301 9.99999V15.8333C3.33301 16.4964 3.5964 17.1322 4.06524 17.6011C4.53408 18.0699 5.16997 18.3333 5.83301 18.3333H14.1663C14.8294 18.3333 15.4653 18.0699 15.9341 17.6011C16.4029 17.1322 16.6663 16.4964 16.6663 15.8333V9.99999C16.6663 9.33695 16.4029 8.70106 15.9341 8.23222C15.4653 7.76338 14.8294 7.49999 14.1663 7.49999ZM7.49967 5.83332C7.49967 5.17028 7.76307 4.5344 8.23191 4.06556C8.70075 3.59672 9.33663 3.33332 9.99967 3.33332C10.6627 3.33332 11.2986 3.59672 11.7674 4.06556C12.2363 4.5344 12.4997 5.17028 12.4997 5.83332V7.49999H7.49967V5.83332ZM14.9997 15.8333C14.9997 16.0543 14.9119 16.2663 14.7556 16.4226C14.5993 16.5789 14.3874 16.6667 14.1663 16.6667H5.83301C5.61199 16.6667 5.40003 16.5789 5.24375 16.4226C5.08747 16.2663 4.99967 16.0543 4.99967 15.8333V9.99999C4.99967 9.77898 5.08747 9.56702 5.24375 9.41073C5.40003 9.25445 5.61199 9.16666 5.83301 9.16666H14.1663C14.3874 9.16666 14.5993 9.25445 14.7556 9.41073C14.9119 9.56702 14.9997 9.77898 14.9997 9.99999V15.8333Z" fill="#8292B4"/>
</svg>
