<svg width="16" height="16" viewBox="0 0 16 16" fill="none" xmlns="http://www.w3.org/2000/svg">
<path fill-rule="evenodd" clip-rule="evenodd" d="M3.71995 3.71918C3.86057 3.57873 4.0512 3.49984 4.24995 3.49984C4.4487 3.49984 4.63932 3.57873 4.77995 3.71918L7.99995 6.93918L11.22 3.71918C11.2887 3.64549 11.3715 3.58639 11.4635 3.5454C11.5555 3.50441 11.6548 3.48237 11.7555 3.48059C11.8562 3.47881 11.9562 3.49734 12.0496 3.53506C12.143 3.57278 12.2278 3.62892 12.299 3.70014C12.3703 3.77136 12.4264 3.8562 12.4641 3.94958C12.5018 4.04297 12.5204 4.143 12.5186 4.2437C12.5168 4.34441 12.4948 4.44372 12.4538 4.53572C12.4128 4.62772 12.3537 4.71052 12.28 4.77918L9.05995 7.99918L12.28 11.2192C12.3537 11.2879 12.4128 11.3707 12.4538 11.4627C12.4948 11.5547 12.5168 11.654 12.5186 11.7547C12.5204 11.8554 12.5018 11.9554 12.4641 12.0488C12.4264 12.1422 12.3703 12.227 12.299 12.2982C12.2278 12.3695 12.143 12.4256 12.0496 12.4633C11.9562 12.501 11.8562 12.5196 11.7555 12.5178C11.6548 12.516 11.5555 12.494 11.4635 12.453C11.3715 12.412 11.2887 12.3529 11.22 12.2792L7.99995 9.05918L4.77995 12.2792C4.63777 12.4117 4.44972 12.4838 4.25542 12.4804C4.06112 12.4769 3.87574 12.3982 3.73832 12.2608C3.60091 12.1234 3.5222 11.938 3.51877 11.7437C3.51534 11.5494 3.58747 11.3614 3.71995 11.2192L6.93995 7.99918L3.71995 4.77918C3.5795 4.63856 3.50061 4.44793 3.50061 4.24918C3.50061 4.05043 3.5795 3.85981 3.71995 3.71918Z" fill="#8292B4"/>
</svg>
