<svg xmlns="http://www.w3.org/2000/svg" width="184.1" height="149.22" viewBox="0 0 184.1 149.22"><title>Crown 2</title><path d="M145.57,157.31h-107a4.68,4.68,0,0,0,0,9.35h107A4.68,4.68,0,1,0,145.57,157.31Z" transform="translate(0 -17.44)"/><path d="M182.23,54.81a4.65,4.65,0,0,0-5.63,0l-48.46,37L96.34,20c-1.5-3.39-7.05-3.39-8.56,0L55.6,92.66l-48-37.78A4.67,4.67,0,0,0,.32,60.23l33.37,86.23a4.66,4.66,0,0,0,4.36,3h108a4.65,4.65,0,0,0,4.36-3l33.37-86.23A4.66,4.66,0,0,0,182.23,54.81ZM142.85,140.1H41.25L15.19,72.77l39.36,30.95a4.69,4.69,0,0,0,7.17-1.79L92.06,33.42,122,101a4.7,4.7,0,0,0,3.12,2.63,4.64,4.64,0,0,0,4-.82l40-30.52Z" transform="translate(0 -17.44)"/></svg>