<svg id="Layer_1" data-name="Layer 1" xmlns="http://www.w3.org/2000/svg" viewBox="0 0 50 54"><title>Delete</title><path d="M702,411H664a1,1,0,0,1-1-1V365a1,1,0,0,1,2,0v44h36V365a1,1,0,0,1,2,0v45A1,1,0,0,1,702,411Z" transform="translate(-658 -357)"/><path d="M707,366H659a1,1,0,0,1,0-2h48a1,1,0,0,1,0,2Z" transform="translate(-658 -357)"/><path d="M690,365a1,1,0,0,1-1-1v-5H677v5a1,1,0,0,1-2,0v-6a1,1,0,0,1,1-1h14a1,1,0,0,1,1,1v6A1,1,0,0,1,690,365Z" transform="translate(-658 -357)"/><path d="M674,401a1,1,0,0,1-1-1V381a1,1,0,0,1,2,0v19A1,1,0,0,1,674,401Z" transform="translate(-658 -357)"/><path d="M683,401a1,1,0,0,1-1-1V381a1,1,0,0,1,2,0v19A1,1,0,0,1,683,401Z" transform="translate(-658 -357)"/><path d="M692,401a1,1,0,0,1-1-1V381a1,1,0,0,1,2,0v19A1,1,0,0,1,692,401Z" transform="translate(-658 -357)"/></svg>