<?xml version="1.0" encoding="utf-8"?>
<!-- Generator: Adobe Illustrator 21.1.0, SVG Export Plug-In . SVG Version: 6.00 Build 0)  -->
<svg version="1.1" id="Layer_3" xmlns="http://www.w3.org/2000/svg" xmlns:xlink="http://www.w3.org/1999/xlink" x="0px" y="0px"
	 viewBox="0 0 40 40" style="enable-background:new 0 0 40 40;" xml:space="preserve">
<path d="M26.9,23.8c-0.3-0.8-0.8-1.5-1.4-2.1s-1.4-1.2-2.3-1.6c-0.7-0.4-1.6-0.7-2.5-1V9.9c0.2,0.1,0.4,0.1,0.6,0.2
	c0.6,0.3,1,0.7,1.4,1.2s0.7,1.1,0.9,1.8c0.2,0.7,0.3,1.4,0.3,2.2h3.3c0-2.5-0.6-4.4-1.7-5.8S22.8,7.2,20.8,7V5h-2.7v2
	c-1,0.1-1.9,0.4-2.7,0.7s-1.5,0.9-2,1.5c-0.6,0.6-1,1.3-1.3,2.1S11.6,13,11.6,14c0,1.1,0.2,2,0.5,2.8c0.3,0.8,0.8,1.5,1.5,2.2
	c0.6,0.6,1.4,1.2,2.3,1.6c0.6,0.3,1.4,0.6,2.1,0.9v9.4c-0.3,0-0.6-0.1-0.8-0.2c-0.6-0.2-1.1-0.4-1.6-0.8s-0.9-0.9-1.2-1.6
	s-0.5-1.5-0.5-2.5h-3.3c0,1.4,0.2,2.5,0.6,3.5c0.4,1,0.9,1.8,1.6,2.4c0.7,0.6,1.4,1.1,2.3,1.5c0.9,0.3,1.8,0.5,2.7,0.6v2.4h2.7v-2.4
	c1.1-0.1,2-0.3,2.9-0.7s1.6-0.8,2.2-1.4s1.1-1.3,1.4-2.1c0.3-0.8,0.5-1.8,0.5-2.8C27.4,25.5,27.2,24.6,26.9,23.8z M17.6,17.8
	c-0.7-0.3-1.2-0.7-1.6-1.1s-0.7-0.8-0.8-1.3C15,15,15,14.5,15,13.9s0.1-1.2,0.3-1.7s0.5-1,0.8-1.3c0.4-0.4,0.8-0.7,1.4-0.9
	c0.2-0.1,0.4-0.1,0.6-0.2V18C17.9,17.9,17.8,17.9,17.6,17.8z M23.7,28.4c-0.2,0.5-0.6,1-1,1.3c-0.4,0.4-1,0.6-1.6,0.8
	c-0.1,0-0.3,0.1-0.4,0.1v-8.2c0.2,0.1,0.4,0.2,0.6,0.3c0.6,0.3,1.2,0.7,1.6,1.1s0.7,0.8,0.9,1.3s0.3,1,0.3,1.5
	C24.1,27.3,24,27.9,23.7,28.4z"/>
</svg>
