<svg id="Layer_1" data-name="Layer 1" xmlns="http://www.w3.org/2000/svg" viewBox="0 0 54 54"><defs><style>.cls-1{fill:#010101;}</style></defs><title>Download</title><path class="cls-1" d="M42.47,54.22H11.53A11.65,11.65,0,0,1-.11,42.58V28.3a1.25,1.25,0,0,1,2.5,0V42.58a9.15,9.15,0,0,0,9.14,9.14H42.47a9.15,9.15,0,0,0,9.14-9.14V28.42a1.25,1.25,0,0,1,2.5,0V42.58A11.65,11.65,0,0,1,42.47,54.22Z"/><path class="cls-1" d="M27,41a1.26,1.26,0,0,1-.88-.37L15.87,30.38a1.25,1.25,0,1,1,1.77-1.76L27,38l9.36-9.36a1.25,1.25,0,1,1,1.77,1.76L27.88,40.63A1.26,1.26,0,0,1,27,41Z"/><path class="cls-1" d="M27,41a1.25,1.25,0,0,1-1.25-1.25V5.05a1.25,1.25,0,1,1,2.5,0v34.7A1.25,1.25,0,0,1,27,41Z"/></svg>