<?xml version="1.0" encoding="utf-8"?>
<!-- Svg Vector Icons : http://www.onlinewebfonts.com/icon -->
<!DOCTYPE svg PUBLIC "-//W3C//DTD SVG 1.1//EN" "http://www.w3.org/Graphics/SVG/1.1/DTD/svg11.dtd">
<svg version="1.1" xmlns="http://www.w3.org/2000/svg" xmlns:xlink="http://www.w3.org/1999/xlink" x="0px" y="0px" viewBox="0 0 1000 1000" enable-background="new 0 0 1000 1000" xml:space="preserve">
<metadata> Svg Vector Icons : http://www.onlinewebfonts.com/icon </metadata>
<g><path d="M54.5,98.7L54.5,98.7v802.6c0,24.4,19.7,44.2,44.2,44.2h802.6c24.4,0,44.2-19.7,44.2-44.2V98.7c0-24.4-19.7-44.2-44.2-44.2H98.7C74.3,54.5,54.5,74.3,54.5,98.7L54.5,98.7z M10,98.7C10,49.7,49.6,10,98.7,10h802.6c49,0,88.7,39.6,88.7,88.7v802.6c0,49-39.6,88.7-88.7,88.7H98.7c-49,0-88.7-39.6-88.7-88.7V98.7L10,98.7z"/></g>
</svg>