<svg width="20" height="20" viewBox="0 0 20 20" fill="none" xmlns="http://www.w3.org/2000/svg">
<path fill-rule="evenodd" clip-rule="evenodd" d="M4.83301 0.833496C2.62387 0.833496 0.833008 2.62436 0.833008 4.8335V15.1668C0.833008 17.376 2.62387 19.1668 4.83301 19.1668H15.1663C17.3755 19.1668 19.1663 17.376 19.1663 15.1668V4.8335C19.1663 2.62436 17.3755 0.833496 15.1663 0.833496H4.83301ZM15.3384 5.89758C15.44 5.93989 15.5321 6.00189 15.6096 6.07999C15.6942 6.15803 15.7617 6.25274 15.8079 6.35816C15.854 6.46357 15.8779 6.57741 15.8779 6.69249C15.8779 6.80758 15.854 6.92142 15.8079 7.02683C15.7617 7.13225 15.6942 7.22696 15.6096 7.30499L8.80961 14.105C8.73214 14.1831 8.63997 14.2451 8.53842 14.2874C8.43687 14.3297 8.32795 14.3515 8.21794 14.3515C8.10793 14.3515 7.99901 14.3297 7.89746 14.2874C7.79591 14.2451 7.70374 14.1831 7.62628 14.105L4.42628 10.905C4.34584 10.8273 4.2815 10.7345 4.23692 10.6319C4.19234 10.5294 4.1684 10.419 4.16647 10.3072C4.16453 10.1954 4.18464 10.0843 4.22565 9.98026C4.26665 9.87621 4.32774 9.78126 4.40544 9.70083C4.48314 9.62039 4.57592 9.55605 4.67849 9.51147C4.78105 9.46689 4.89139 9.44296 5.00321 9.44102C5.11503 9.43909 5.22613 9.45919 5.33018 9.5002C5.43422 9.5412 5.52917 9.60229 5.60961 9.67999L8.21794 12.2967L14.4263 6.07999C14.5037 6.00189 14.5959 5.93989 14.6975 5.89758C14.799 5.85528 14.9079 5.8335 15.0179 5.8335C15.128 5.8335 15.2369 5.85528 15.3384 5.89758Z" fill="#FF7555"/>
</svg>
