<svg xmlns="http://www.w3.org/2000/svg" width="50.3" height="54" viewBox="0 0 50.3 54"><defs><style>.a{fill:#010101;}</style></defs><title>CJA edit</title><path class="a" d="M2972.86,138.47a1,1,0,0,0,0-1.41L2959.79,124a1,1,0,0,0-1.41,0l-2.37,2.37-6.07-6.07a1,1,0,0,0-1.41,0l-14.23,14.23a1,1,0,1,0,1.41,1.41l13.52-13.52,5.37,5.37-1.17,1.17h0l-26.54,26.54a1,1,0,0,0,0,1.41L2928,158l-5.07,11.13a1,1,0,0,0,.2,1.12l3.43,3.43a1,1,0,0,0,1.12.2l11.13-5.07,1.13,1.13a1,1,0,0,0,1.41,0Zm-13.77-12.36,11.65,11.65-3.54,3.54-11.65-11.65ZM2927.5,171.8l-2.45-2.45,4.47-9.81,7.79,7.79Zm1.51-15.6,25.13-25.13,11.65,11.65-25.12,25.13Z" transform="translate(-2922.85 -120)"/><path class="a" d="M2972.15,172h-30.47a1,1,0,0,0,0,2h30.47A1,1,0,0,0,2972.15,172Z" transform="translate(-2922.85 -120)"/></svg>