<svg width="21" height="20" viewBox="0 0 21 20" fill="none" xmlns="http://www.w3.org/2000/svg">
<path fill-rule="evenodd" clip-rule="evenodd" d="M17.2254 1.81818C16.9516 1.81818 16.6926 1.92501 16.5042 2.10969L8.08691 10.365L7.61887 12.2011L9.52566 11.7336L17.9466 3.47477C18.1343 3.29068 18.2364 3.0448 18.2364 2.79223C18.2364 2.53966 18.1343 2.29378 17.9466 2.10969C17.7583 1.92501 17.4992 1.81818 17.2254 1.81818ZM15.2312 0.811609C15.763 0.289973 16.4807 0 17.2254 0C17.9701 0 18.6878 0.289973 19.2197 0.811609C19.7522 1.33383 20.0546 2.04592 20.0546 2.79223C20.0546 3.53854 19.7522 4.25063 19.2197 4.77286L10.6208 13.2062C10.5043 13.3205 10.3592 13.4013 10.2007 13.4401L6.58014 14.3278C6.26998 14.4039 5.94267 14.3116 5.7179 14.0848C5.49312 13.8579 5.40385 13.5298 5.48273 13.2203L6.38788 9.66945C6.42897 9.50826 6.5135 9.36144 6.63226 9.24496L15.2312 0.811609Z" fill="#457EFF"/>
<path fill-rule="evenodd" clip-rule="evenodd" d="M0 4.54545C0 3.03922 1.22104 1.81818 2.72727 1.81818H9.54545C10.0475 1.81818 10.4545 2.2252 10.4545 2.72727C10.4545 3.22935 10.0475 3.63636 9.54545 3.63636H2.72727C2.2252 3.63636 1.81818 4.04338 1.81818 4.54545V17.2727C1.81818 17.7748 2.2252 18.1818 2.72727 18.1818H15.4545C15.9566 18.1818 16.3636 17.7748 16.3636 17.2727V10C16.3636 9.49792 16.7707 9.09091 17.2727 9.09091C17.7748 9.09091 18.1818 9.49792 18.1818 10V17.2727C18.1818 18.779 16.9608 20 15.4545 20H2.72727C1.22104 20 0 18.779 0 17.2727V4.54545Z" fill="#457EFF"/>
</svg>
