<svg xmlns="http://www.w3.org/2000/svg" width="144" height="144" viewBox="0 0 144 144"><defs><style>.a{fill:#010101;}</style></defs><title>test</title><path class="a" d="M72,85.4A40.62,40.62,0,0,1,31.6,45h4a36.4,36.4,0,1,0,72.79,0h4A40.62,40.62,0,0,1,72,85.4Z"/><path class="a" d="M114.79,46.79a2,2,0,0,1-2-2,40.79,40.79,0,0,0-81.57,0,2,2,0,0,1-4,0,44.79,44.79,0,0,1,89.57,0A2,2,0,0,1,114.79,46.79Z"/><path class="a" d="M130.82,144a2,2,0,0,1-2-2,56.82,56.82,0,1,0-113.64,0,2,2,0,0,1-4,0,60.82,60.82,0,1,1,121.64,0A2,2,0,0,1,130.82,144Z"/><path class="a" d="M121,47H23a2,2,0,0,1,0-4h98A2,2,0,0,1,121,47Z"/><path class="a" d="M62,47a2,2,0,0,1-2-2V21.58L48.37,10.05a2,2,0,0,1,2.82-2.84L63.41,19.33A2,2,0,0,1,64,20.75V45A2,2,0,0,1,62,47Z"/><path class="a" d="M82,47a2,2,0,0,1-2-2V20.75a2,2,0,0,1,.59-1.42L92.81,7.21a2,2,0,0,1,2.82,2.84L84,21.58V45A2,2,0,0,1,82,47Z"/></svg>