<svg id="Layer_1" data-name="Layer 1" xmlns="http://www.w3.org/2000/svg" viewBox="0 0 34.66 32.08"><defs><style>.cls-1{fill:#010101;}</style></defs><title>Experience</title><path class="cls-1" d="M33.61,33.5H4.14a2.61,2.61,0,0,1-2.6-2.6V8.37a2.61,2.61,0,0,1,2.6-2.61H33.61a2.61,2.61,0,0,1,2.6,2.6V30.9A2.66,2.66,0,0,1,33.61,33.5ZM4.14,7.5a.92.92,0,0,0-.86.86V30.9a.92.92,0,0,0,.86.86H33.61a.92.92,0,0,0,.86-.86V8.37a.92.92,0,0,0-.86-.86Z" transform="translate(-1.54 -1.42)"/><rect class="cls-1" x="0.86" y="12.14" width="32.93" height="1.74"/><path class="cls-1" d="M24.95,6.63H23.21V3.2H14.55V6.63H12.81V2.28a.82.82,0,0,1,.77-.86h10.5a.82.82,0,0,1,.86.86Z" transform="translate(-1.54 -1.42)"/><path class="cls-1" d="M24.08,22.23H13.67a.82.82,0,0,1-.86-.86V14.43h1.74V20.5h8.67V14.43h1.74v6.93a.82.82,0,0,1-.76.87Z" transform="translate(-1.54 -1.42)"/></svg>