<svg xmlns="http://www.w3.org/2000/svg" width="144" height="144" viewBox="0 0 144 144"><title>test</title><path d="M62.58,128.3a70.89,70.89,0,0,1-23.46-4,2,2,0,0,1,1.32-3.78,67.07,67.07,0,0,0,62.38-117,2,2,0,0,1,2.4-3.2A71.06,71.06,0,0,1,62.58,128.3Z"/><path d="M62.58,109.47A52.22,52.22,0,1,1,62.58,5,52.22,52.22,0,1,1,62.58,109.47ZM62.58,9a48.22,48.22,0,1,0,28.94,9.64A48.28,48.28,0,0,0,62.58,9Z"/><path d="M84,144H41a2,2,0,0,1,0-4H84A2,2,0,0,1,84,144Z"/><path d="M63,144a2,2,0,0,1-2-2V126a2,2,0,0,1,4,0v16A2,2,0,0,1,63,144Z"/></svg>