<svg width="9" height="13" viewBox="0 0 9 13" fill="none" xmlns="http://www.w3.org/2000/svg">
<path d="M4.51366 12.1467C4.15366 12.1467 3.86699 11.8533 3.86699 11.5V10.54H3.12033C2.76033 10.54 2.47366 10.2467 2.47366 9.89333C2.47366 9.53333 2.76699 9.24667 3.12033 9.24667H3.86033V7.55333C2.02699 7.25333 0.666992 5.67333 0.666992 3.80667C0.666992 1.70667 2.37366 0 4.47366 0C6.57366 0 8.28032 1.70667 8.28032 3.80667C8.28032 5.63333 6.95366 7.20667 5.16033 7.53333V9.23333H5.82699C6.18699 9.23333 6.47366 9.52667 6.47366 9.88C6.47366 10.24 6.18033 10.5267 5.82699 10.5267H5.16033V11.4867C5.16033 11.86 4.86699 12.1467 4.51366 12.1467ZM4.47366 1.3C3.09366 1.3 1.96699 2.42667 1.96699 3.80667C1.96699 5.18667 3.09366 6.31333 4.47366 6.31333C5.85366 6.31333 6.98033 5.18667 6.98033 3.80667C6.98033 2.42667 5.86033 1.3 4.47366 1.3Z" fill="#FFC000"/>
</svg>
