<svg width="14" height="14" viewBox="0 0 14 14" fill="none" xmlns="http://www.w3.org/2000/svg">
<path fill-rule="evenodd" clip-rule="evenodd" d="M0 7.00016C0 3.14036 3.14043 0 7 0C10.8596 0 14 3.14036 14 7.00016C14 10.8596 10.8596 14 7 14C3.14043 14 0 10.8596 0 7.00016ZM10.1657 4.64229C9.89164 4.36822 9.44624 4.36822 9.17086 4.64202L5.94886 7.86527L4.828 6.74411C4.55387 6.46999 4.10826 6.46999 3.83415 6.7441C3.55871 7.01954 3.55871 7.46535 3.83441 7.73948L5.45143 9.35777C5.58599 9.49119 5.76384 9.56332 5.94886 9.56332C6.13297 9.56332 6.31191 9.49096 6.44605 9.35834L10.1657 5.63739C10.4411 5.36201 10.4411 4.91768 10.1657 4.64229Z" fill="#FFC000"/>
</svg>
