<svg width="20" height="20" viewBox="0 0 20 20" fill="none" xmlns="http://www.w3.org/2000/svg">
<path d="M15.8334 1.66666H4.16675C3.50371 1.66666 2.86782 1.93006 2.39898 2.3989C1.93014 2.86774 1.66675 3.50362 1.66675 4.16666V5.14166C1.66663 5.48578 1.73755 5.82622 1.87508 6.14166V6.19166C1.99281 6.45914 2.15957 6.70222 2.36675 6.90833L7.50008 12.0083V17.5C7.4998 17.6416 7.53561 17.781 7.60414 17.9049C7.67267 18.0288 7.77165 18.1333 7.89175 18.2083C8.02437 18.2905 8.17739 18.3338 8.33341 18.3333C8.46387 18.3326 8.59231 18.3012 8.70841 18.2417L12.0417 16.575C12.1792 16.5057 12.2947 16.3998 12.3756 16.2689C12.4565 16.138 12.4996 15.9872 12.5001 15.8333V12.0083L17.6001 6.90833C17.8073 6.70222 17.974 6.45914 18.0917 6.19166V6.14166C18.2408 5.82869 18.3231 5.48815 18.3334 5.14166V4.16666C18.3334 3.50362 18.07 2.86774 17.6012 2.3989C17.1323 1.93006 16.4965 1.66666 15.8334 1.66666ZM11.0751 11.075C10.9978 11.1529 10.9367 11.2452 10.8953 11.3467C10.8538 11.4483 10.8328 11.557 10.8334 11.6667V15.3167L9.16675 16.15V11.6667C9.16738 11.557 9.14636 11.4483 9.10489 11.3467C9.06342 11.2452 9.00232 11.1529 8.92508 11.075L4.50841 6.66666H15.4917L11.0751 11.075ZM16.6667 5H3.33341V4.16666C3.33341 3.94565 3.42121 3.73369 3.57749 3.57741C3.73377 3.42113 3.94573 3.33333 4.16675 3.33333H15.8334C16.0544 3.33333 16.2664 3.42113 16.4227 3.57741C16.579 3.73369 16.6667 3.94565 16.6667 4.16666V5Z" fill="#8D9CBD"/>
</svg>
