<svg xmlns="http://www.w3.org/2000/svg" width="59.99" height="58.01" viewBox="0 0 59.99 58.01"><defs><style>.a{fill:#010101;}</style></defs><title>FilterFilled 3</title><path class="a" d="M37.89,27.59L31.3,34.1a1,1,0,0,0-.3.71V50.33l-8,4.92V34.81a1,1,0,0,0-.3-0.72L2,13.91V10H30a1,1,0,1,0,0-2H1A1,1,0,0,0,0,9V14.3A1,1,0,0,0,.3,15L21,35.23V57a1,1,0,0,0,1.52.86l10-6.15A1,1,0,0,0,33,50.88V35.22L39.3,29A1,1,0,1,0,37.89,27.59Z" transform="translate(0 -0.01)"/><path class="a" d="M45.89,0A14.1,14.1,0,1,0,60,14.11,14.1,14.1,0,0,0,45.89,0Zm0,26.19a12.1,12.1,0,0,1,0-24.2V2A12.09,12.09,0,1,1,45.89,26.2Z" transform="translate(0 -0.01)"/><path class="a" d="M52.34,8.63l-8.85,8.85-4.07-4.07A1,1,0,0,0,38,14.82l4.78,4.78a1,1,0,0,0,1.4,0L53.75,10A1,1,0,0,0,52.34,8.63Z" transform="translate(0 -0.01)"/></svg>