<svg width="147" height="43" viewBox="0 0 147 43" fill="none" xmlns="http://www.w3.org/2000/svg">
<path d="M11.7252 12.7175V15.1768H4.94185V19.3843H11.7252V21.8669H4.94185V28.9999H1.79492V12.7175H11.7252Z" fill="#6A38A0"/>
<path d="M15.8881 13.0788C16.331 13.0788 16.7118 13.2381 17.0304 13.5567C17.3489 13.8753 17.5082 14.256 17.5082 14.6989C17.5082 15.1263 17.3489 15.507 17.0304 15.8411C16.7196 16.1675 16.3388 16.3307 15.8881 16.3307C15.453 16.3307 15.0723 16.1675 14.7459 15.8411C14.4273 15.507 14.2681 15.1263 14.2681 14.6989C14.2681 14.2483 14.4312 13.8675 14.7576 13.5567C15.0839 13.2381 15.4608 13.0788 15.8881 13.0788ZM17.3217 18.1139V28.9999H14.4545V18.1139H17.3217Z" fill="#6A38A0"/>
<path d="M26.6363 17.9041C27.017 17.9041 27.39 17.9896 27.7552 18.1605C28.1282 18.3315 28.5594 18.619 29.0489 19.023L28.0233 21.5289C27.1919 20.9073 26.5236 20.5965 26.0186 20.5965C25.5757 20.5965 25.1366 20.7636 24.7015 21.0977C24.2742 21.424 23.9284 21.8591 23.6642 22.4031C23.4078 22.947 23.2796 23.4909 23.2796 24.0348V28.9999H20.4124V18.1139H23.2796V20.8879H23.3262C23.8468 19.8389 24.3713 19.0813 24.8997 18.6151C25.428 18.1411 26.0069 17.9041 26.6363 17.9041Z" fill="#6A38A0"/>
<path d="M34.051 17.9041C34.6493 17.9041 35.2127 17.9741 35.7411 18.1139C36.2694 18.246 36.8289 18.4597 37.4194 18.755V21.0511C36.8755 20.7014 36.2927 20.4217 35.6711 20.2119C35.0495 19.9943 34.4939 19.8855 34.0044 19.8855C33.5926 19.8855 33.2701 19.9632 33.037 20.1186C32.8039 20.274 32.6874 20.4955 32.6874 20.783C32.6874 20.9462 32.7845 21.1093 32.9788 21.2725C33.173 21.4357 33.7053 21.7348 34.5755 22.17C35.8188 22.7993 36.689 23.3821 37.1863 23.9182C37.6914 24.4466 37.9439 25.0838 37.9439 25.8297C37.9439 26.8787 37.5787 27.7062 36.8483 28.3123C36.1179 28.9106 35.1311 29.2097 33.8879 29.2097C33.1108 29.2097 32.3843 29.1243 31.7083 28.9533C31.0401 28.7824 30.4845 28.5765 30.0416 28.3356V25.9463C31.4403 26.7233 32.6174 27.1118 33.5732 27.1118C34.0627 27.1118 34.459 27.0263 34.762 26.8554C35.065 26.6767 35.2166 26.4436 35.2166 26.1561C35.2166 25.9851 35.1622 25.8297 35.0534 25.6898C34.9446 25.55 34.7814 25.4062 34.5639 25.2586C34.3463 25.111 33.6664 24.7574 32.5242 24.198C31.6462 23.7784 30.9974 23.3238 30.5778 22.8343C30.1582 22.337 29.9484 21.7504 29.9484 21.0744C29.9484 20.1109 30.3252 19.3416 31.0789 18.7666C31.8327 18.1916 32.8234 17.9041 34.051 17.9041Z" fill="#6A38A0"/>
<path d="M43.284 15.2234H43.5171V18.1139H47.2468V20.2818H43.5171V25.3052C43.5171 25.7947 43.6647 26.191 43.96 26.4941C44.2553 26.7971 44.6593 26.9486 45.1722 26.9486C45.8404 26.9486 46.6096 26.7077 47.4799 26.226V28.5221C46.4465 28.9805 45.4752 29.2097 44.5661 29.2097C43.3384 29.2097 42.3788 28.8756 41.6872 28.2074C41.0035 27.5392 40.6616 26.6339 40.6616 25.4917V20.2818H38.9599V19.8156L43.284 15.2234Z" fill="#6A38A0"/>
<path d="M55.7391 17.9041C56.9046 17.9041 57.8332 18.2888 58.5247 19.058C59.224 19.8195 59.5737 20.8257 59.5737 22.0767V28.9999H56.7181V22.3681C56.7181 21.661 56.5472 21.1016 56.2053 20.6897C55.8712 20.2779 55.4127 20.072 54.83 20.072C54.3871 20.072 53.9714 20.2041 53.5829 20.4683C53.1944 20.7247 52.767 21.1559 52.3008 21.762V28.9999H49.4336V18.1139H52.3008V19.6408C52.8292 19.0191 53.3692 18.5762 53.9209 18.3121C54.4803 18.0401 55.0864 17.9041 55.7391 17.9041Z" fill="#D3710C"/>
<path d="M66.394 17.9041C67.7926 17.9041 68.861 18.2033 69.5992 18.8016C70.3374 19.3921 70.7065 20.2196 70.7065 21.2842V26.6106C70.7065 27.0224 70.8735 27.2283 71.2076 27.2283C71.3475 27.2283 71.5418 27.1701 71.7904 27.0535C72.0468 26.9292 72.2605 26.7893 72.4314 26.6339V28.289C71.4291 28.9028 70.5122 29.2097 69.6808 29.2097C69.168 29.2097 68.7717 29.1243 68.492 28.9533C68.22 28.7824 68.0296 28.4793 67.9209 28.0442C66.8253 28.8212 65.7258 29.2097 64.6224 29.2097C63.8376 29.2097 63.1616 28.9456 62.5944 28.4172C62.0349 27.8888 61.7552 27.2555 61.7552 26.5174C61.7552 25.5772 62.0349 24.8351 62.5944 24.2912C63.1538 23.7473 64.1329 23.2733 65.5315 22.8693L67.8509 22.1933V21.6921C67.8509 20.6276 67.206 20.0953 65.9161 20.0953C65.2557 20.0953 64.5991 20.2468 63.9464 20.5499C63.2937 20.8529 62.6993 21.2997 62.1631 21.8902V19.3144C63.352 18.3742 64.7623 17.9041 66.394 17.9041ZM64.6457 26.0861C64.6457 26.4824 64.77 26.801 65.0187 27.0419C65.2751 27.2827 65.5898 27.4032 65.9628 27.4032C66.5921 27.4032 67.2215 27.1157 67.8509 26.5407V23.6735C67.0506 23.9454 66.4212 24.2019 65.9628 24.4427C65.5121 24.6836 65.178 24.9284 64.9604 25.177C64.7506 25.4257 64.6457 25.7287 64.6457 26.0861Z" fill="#D3710C"/>
<path d="M76.9091 18.1139V24.8507C76.9091 25.5578 77.0839 26.0978 77.4335 26.4708C77.791 26.836 78.2611 27.0185 78.8438 27.0185C79.3256 27.0185 79.7879 26.8709 80.2308 26.5757C80.6737 26.2804 81.0311 25.8647 81.3031 25.3285V18.1139H84.1703V28.9999H81.3031V27.5197C80.2697 28.6464 79.1508 29.2097 77.9464 29.2097C76.7809 29.2097 75.8407 28.829 75.1258 28.0675C74.4109 27.306 74.0535 26.3115 74.0535 25.0838V18.1139H76.9091Z" fill="#D3710C"/>
<path d="M90.0349 12.7175V28.9999H87.1677V12.7175H90.0349ZM97.9372 18.1139L93.5198 23.487L98.485 28.9999H94.8485L90.0815 23.487L94.5688 18.1139H97.9372Z" fill="#D3710C"/>
<path d="M105.9 17.9041C106.28 17.9041 106.653 17.9896 107.019 18.1605C107.392 18.3315 107.823 18.619 108.312 19.023L107.287 21.5289C106.455 20.9073 105.787 20.5965 105.282 20.5965C104.839 20.5965 104.4 20.7636 103.965 21.0977C103.538 21.424 103.192 21.8591 102.928 22.4031C102.671 22.947 102.543 23.4909 102.543 24.0348V28.9999H99.6758V18.1139H102.543V20.8879H102.59C103.11 19.8389 103.635 19.0813 104.163 18.6151C104.691 18.1411 105.27 17.9041 105.9 17.9041Z" fill="#D3710C"/>
<path d="M111.31 13.0788C111.753 13.0788 112.133 13.2381 112.452 13.5567C112.771 13.8753 112.93 14.256 112.93 14.6989C112.93 15.1263 112.771 15.507 112.452 15.8411C112.141 16.1675 111.76 16.3307 111.31 16.3307C110.875 16.3307 110.494 16.1675 110.168 15.8411C109.849 15.507 109.69 15.1263 109.69 14.6989C109.69 14.2483 109.853 13.8675 110.179 13.5567C110.506 13.2381 110.882 13.0788 111.31 13.0788ZM112.743 18.1139V28.9999H109.876V18.1139H112.743Z" fill="#D3710C"/>
<path d="M121.35 27.45V29.0742C120.526 29.381 119.72 29.5344 118.932 29.5344C117.633 29.5344 116.595 29.1494 115.819 28.3794C115.049 27.6094 114.664 26.5777 114.664 25.2843C114.664 23.9789 115.04 22.9262 115.792 22.1261C116.544 21.326 117.533 20.926 118.76 20.926C119.188 20.926 119.57 20.9681 119.906 21.0523C120.249 21.1305 120.67 21.2809 121.17 21.5035V23.2541C120.34 22.7247 119.57 22.46 118.86 22.46C118.12 22.46 117.512 22.7217 117.037 23.245C116.562 23.7624 116.324 24.4241 116.324 25.2302C116.324 26.0784 116.58 26.7521 117.091 27.2514C117.608 27.7507 118.303 28.0004 119.176 28.0004C119.807 28.0004 120.532 27.8169 121.35 27.45Z" fill="#656565"/>
<path d="M127.298 21.0704C128.561 21.0704 129.611 21.4794 130.447 22.2976C131.284 23.1097 131.702 24.1323 131.702 25.3655C131.702 26.5626 131.278 27.5582 130.429 28.3523C129.581 29.1403 128.513 29.5344 127.226 29.5344C125.981 29.5344 124.94 29.1343 124.104 28.3342C123.268 27.5282 122.85 26.5235 122.85 25.3204C122.85 24.1053 123.271 23.0946 124.113 22.2885C124.961 21.4764 126.023 21.0704 127.298 21.0704ZM127.208 22.5502C126.42 22.5502 125.773 22.8089 125.268 23.3262C124.763 23.8436 124.51 24.5023 124.51 25.3024C124.51 26.0964 124.769 26.7461 125.286 27.2514C125.803 27.7507 126.468 28.0004 127.28 28.0004C128.086 28.0004 128.745 27.7477 129.256 27.2424C129.774 26.7311 130.032 26.0784 130.032 25.2843C130.032 24.4963 129.765 23.8436 129.229 23.3262C128.694 22.8089 128.02 22.5502 127.208 22.5502Z" fill="#656565"/>
<path d="M140.429 23.3623V29.39H138.778V24.77C138.778 23.8496 138.654 23.2089 138.408 22.848C138.161 22.481 137.731 22.2976 137.117 22.2976C136.774 22.2976 136.459 22.3758 136.17 22.5322C135.887 22.6886 135.562 22.9653 135.195 23.3623V29.39H133.553V21.0884H135.195V22.1803C136.031 21.3441 136.85 20.926 137.65 20.926C138.702 20.926 139.517 21.4253 140.095 22.4239C140.973 21.4133 141.891 20.908 142.847 20.908C143.653 20.908 144.315 21.2027 144.832 21.7923C145.356 22.3818 145.617 23.2811 145.617 24.4903V29.39H143.975V24.4722C143.975 23.7804 143.834 23.251 143.551 22.8841C143.268 22.5171 142.862 22.3337 142.333 22.3337C141.653 22.3337 141.018 22.6766 140.429 23.3623Z" fill="#656565"/>
<path d="M51.4645 39.1L50.7614 37.2875H48.4724L47.7731 39.1H47.1013L49.3356 33.3656H49.9333L52.152 39.1H51.4645ZM50.5622 36.6976L49.8942 34.8969C49.8786 34.85 49.8526 34.7732 49.8161 34.6664C49.7822 34.5596 49.7471 34.4489 49.7106 34.3344C49.6742 34.2198 49.6442 34.1273 49.6208 34.057C49.5947 34.1638 49.5661 34.2705 49.5349 34.3773C49.5062 34.4815 49.4776 34.5791 49.4489 34.6703C49.4203 34.7588 49.3955 34.8344 49.3747 34.8969L48.695 36.6976H50.5622Z" fill="#666666"/>
<path d="M54.2099 41.0219C54.077 41.0219 53.9612 41.0114 53.8622 40.9906C53.7632 40.9724 53.6773 40.9502 53.6044 40.9242V40.3969C53.6851 40.4229 53.7671 40.4424 53.8505 40.4554C53.9338 40.4711 54.0276 40.4789 54.1317 40.4789C54.3088 40.4789 54.452 40.4294 54.5614 40.3304C54.6708 40.2315 54.7255 40.0518 54.7255 39.7914V34.8187H55.3739V39.7758C55.3739 40.0362 55.3322 40.2588 55.2489 40.4437C55.1656 40.6312 55.038 40.7745 54.8661 40.8734C54.6942 40.9724 54.4755 41.0219 54.2099 41.0219ZM54.6669 33.6429C54.6669 33.4971 54.7033 33.3903 54.7763 33.3226C54.8518 33.2523 54.9455 33.2172 55.0575 33.2172C55.1643 33.2172 55.2554 33.2523 55.3309 33.3226C55.4091 33.3903 55.4481 33.4971 55.4481 33.6429C55.4481 33.7862 55.4091 33.8929 55.3309 33.9633C55.2554 34.0336 55.1643 34.0687 55.0575 34.0687C54.9455 34.0687 54.8518 34.0336 54.7763 33.9633C54.7033 33.8929 54.6669 33.7862 54.6669 33.6429Z" fill="#666666"/>
<path d="M60.3403 36.9515C60.3403 37.3031 60.2947 37.6169 60.2036 37.8929C60.1125 38.169 59.9809 38.4021 59.8091 38.5922C59.6372 38.7823 59.4289 38.9281 59.1841 39.0297C58.9419 39.1286 58.6671 39.1781 58.3599 39.1781C58.0734 39.1781 57.8104 39.1286 57.5708 39.0297C57.3338 38.9281 57.1281 38.7823 56.9536 38.5922C56.7817 38.4021 56.6476 38.169 56.5513 37.8929C56.4575 37.6169 56.4106 37.3031 56.4106 36.9515C56.4106 36.4828 56.4901 36.0844 56.6489 35.7562C56.8078 35.4255 57.0343 35.1742 57.3286 35.0023C57.6255 34.8278 57.9783 34.7406 58.3872 34.7406C58.7778 34.7406 59.119 34.8278 59.4106 35.0023C59.7049 35.1768 59.9328 35.4294 60.0942 35.7601C60.2583 36.0883 60.3403 36.4854 60.3403 36.9515ZM57.0825 36.9515C57.0825 37.2953 57.1281 37.5935 57.2192 37.8461C57.3104 38.0987 57.451 38.294 57.6411 38.432C57.8312 38.57 58.076 38.639 58.3755 38.639C58.6724 38.639 58.9158 38.57 59.1059 38.432C59.2987 38.294 59.4406 38.0987 59.5317 37.8461C59.6229 37.5935 59.6684 37.2953 59.6684 36.9515C59.6684 36.6104 59.6229 36.3161 59.5317 36.0687C59.4406 35.8187 59.3 35.626 59.1099 35.4906C58.9197 35.3552 58.6737 35.2875 58.3716 35.2875C57.9263 35.2875 57.5994 35.4346 57.3911 35.7289C57.1854 36.0232 57.0825 36.4307 57.0825 36.9515Z" fill="#666666"/>
<path d="M62.0099 33.0219V34.5414C62.0099 34.7159 62.0046 34.8851 61.9942 35.0492C61.9864 35.2133 61.9799 35.3409 61.9747 35.432H62.0099C62.127 35.2393 62.2963 35.0765 62.5177 34.9437C62.739 34.8109 63.0216 34.7445 63.3653 34.7445C63.9018 34.7445 64.3289 34.9307 64.6466 35.3031C64.9669 35.6729 65.127 36.2237 65.127 36.9554C65.127 37.4372 65.0541 37.8435 64.9083 38.1742C64.7625 38.5049 64.5567 38.7549 64.2911 38.9242C64.0255 39.0935 63.7117 39.1781 63.3497 39.1781C63.0112 39.1781 62.7325 39.1156 62.5138 38.9906C62.2976 38.863 62.1309 38.708 62.0138 38.5258H61.963L61.8302 39.1H61.3614V33.0219H62.0099ZM63.2599 35.2875C62.95 35.2875 62.7039 35.3487 62.5216 35.4711C62.3393 35.5909 62.2078 35.7732 62.127 36.0179C62.0489 36.2601 62.0099 36.5674 62.0099 36.9398V36.975C62.0099 37.514 62.0997 37.9268 62.2794 38.2133C62.4591 38.4971 62.7859 38.639 63.2599 38.639C63.6583 38.639 63.9565 38.4932 64.1544 38.2015C64.3549 37.9099 64.4552 37.4932 64.4552 36.9515C64.4552 36.3995 64.3562 35.9841 64.1583 35.7054C63.963 35.4268 63.6635 35.2875 63.2599 35.2875Z" fill="#666666"/>
<path d="M68.9294 37.9281C68.9294 38.2015 68.8604 38.432 68.7224 38.6195C68.5869 38.8044 68.3916 38.9437 68.1364 39.0375C67.8838 39.1312 67.5817 39.1781 67.2302 39.1781C66.9307 39.1781 66.6716 39.1547 66.4528 39.1078C66.2341 39.0609 66.0427 38.9945 65.8786 38.9086V38.3109C66.0531 38.3969 66.2614 38.475 66.5036 38.5453C66.7458 38.6156 66.9932 38.6508 67.2458 38.6508C67.6156 38.6508 67.8838 38.5909 68.0505 38.4711C68.2171 38.3513 68.3005 38.1885 68.3005 37.9828C68.3005 37.8656 68.2666 37.7627 68.1989 37.6742C68.1338 37.583 68.0231 37.4958 67.8669 37.4125C67.7106 37.3265 67.4945 37.2328 67.2184 37.1312C66.945 37.0271 66.708 36.9242 66.5075 36.8226C66.3096 36.7185 66.1559 36.5922 66.0466 36.4437C65.9398 36.2953 65.8864 36.1026 65.8864 35.8656C65.8864 35.5036 66.0322 35.2263 66.3239 35.0336C66.6182 34.8383 67.0036 34.7406 67.4802 34.7406C67.738 34.7406 67.9789 34.7666 68.2028 34.8187C68.4294 34.8682 68.6403 34.9359 68.8356 35.0219L68.6169 35.5414C68.4398 35.4659 68.251 35.4021 68.0505 35.35C67.85 35.2979 67.6455 35.2719 67.4372 35.2719C67.1377 35.2719 66.9072 35.3213 66.7458 35.4203C66.5869 35.5192 66.5075 35.6547 66.5075 35.8265C66.5075 35.9594 66.544 36.0687 66.6169 36.1547C66.6924 36.2406 66.8122 36.3213 66.9763 36.3969C67.1403 36.4724 67.3565 36.5609 67.6247 36.6625C67.8929 36.7614 68.1247 36.8643 68.32 36.9711C68.5153 37.0752 68.6651 37.2028 68.7692 37.3539C68.876 37.5023 68.9294 37.6937 68.9294 37.9281Z" fill="#666666"/>
<path d="M70.5208 34.8187V39.1H69.8724V34.8187H70.5208ZM70.2044 33.2172C70.3112 33.2172 70.4023 33.2523 70.4778 33.3226C70.5559 33.3903 70.595 33.4971 70.595 33.6429C70.595 33.7862 70.5559 33.8929 70.4778 33.9633C70.4023 34.0336 70.3112 34.0687 70.2044 34.0687C70.0924 34.0687 69.9987 34.0336 69.9231 33.9633C69.8502 33.8929 69.8138 33.7862 69.8138 33.6429C69.8138 33.4971 69.8502 33.3903 69.9231 33.3226C69.9987 33.2523 70.0924 33.2172 70.2044 33.2172Z" fill="#666666"/>
<path d="M73.1786 38.6469C73.2854 38.6469 73.3947 38.6377 73.5067 38.6195C73.6187 38.6013 73.7099 38.5791 73.7802 38.5531V39.057C73.7046 39.0909 73.5992 39.1195 73.4638 39.1429C73.3309 39.1664 73.2007 39.1781 73.0731 39.1781C72.8466 39.1781 72.6408 39.139 72.4559 39.0609C72.271 38.9802 72.1226 38.8448 72.0106 38.6547C71.9013 38.4646 71.8466 38.2015 71.8466 37.8656V35.3265H71.2372V35.0101L71.8505 34.7562L72.1083 33.8265H72.4989V34.8187H73.7528V35.3265H72.4989V37.8461C72.4989 38.1143 72.5601 38.3148 72.6825 38.4476C72.8075 38.5804 72.9729 38.6469 73.1786 38.6469Z" fill="#666666"/>
<path d="M76.1958 34.7406C76.5604 34.7406 76.8729 34.8213 77.1333 34.9828C77.3937 35.1442 77.5929 35.3708 77.7309 35.6625C77.869 35.9515 77.938 36.2901 77.938 36.6781V37.0804H74.9809C74.9888 37.583 75.1138 37.9659 75.3559 38.2289C75.5981 38.4919 75.9393 38.6234 76.3794 38.6234C76.6502 38.6234 76.8898 38.5987 77.0981 38.5492C77.3065 38.4997 77.5226 38.4268 77.7466 38.3304V38.9008C77.5304 38.9971 77.3156 39.0674 77.102 39.1117C76.8911 39.156 76.6411 39.1781 76.352 39.1781C75.9406 39.1781 75.5812 39.0948 75.2739 38.9281C74.9692 38.7588 74.7322 38.5114 74.563 38.1859C74.3937 37.8604 74.3091 37.462 74.3091 36.9906C74.3091 36.5297 74.3859 36.1312 74.5395 35.7953C74.6958 35.4567 74.9145 35.1963 75.1958 35.014C75.4796 34.8317 75.813 34.7406 76.1958 34.7406ZM76.188 35.2719C75.8416 35.2719 75.5656 35.3851 75.3599 35.6117C75.1541 35.8383 75.0317 36.1547 74.9927 36.5609H77.2583C77.2557 36.3057 77.2153 36.0817 77.1372 35.889C77.0617 35.6937 76.9458 35.5427 76.7895 35.4359C76.6333 35.3265 76.4328 35.2719 76.188 35.2719Z" fill="#666666"/>
<path d="M82.8239 35.3265H81.7575V39.1H81.1091V35.3265H80.3513V35.014L81.1091 34.7992V34.514C81.1091 34.1547 81.1625 33.863 81.2692 33.639C81.376 33.4125 81.5309 33.2458 81.7341 33.139C81.9372 33.0323 82.1846 32.9789 82.4763 32.9789C82.6403 32.9789 82.7901 32.9932 82.9255 33.0219C83.0635 33.0505 83.1846 33.083 83.2888 33.1195L83.1208 33.6312C83.0322 33.6026 82.932 33.5765 82.82 33.5531C82.7106 33.5271 82.5987 33.514 82.4841 33.514C82.2367 33.514 82.0531 33.5948 81.9333 33.7562C81.8161 33.9151 81.7575 34.1651 81.7575 34.5062V34.8187H82.8239V35.3265Z" fill="#666666"/>
<path d="M87.2044 36.9515C87.2044 37.3031 87.1588 37.6169 87.0677 37.8929C86.9765 38.169 86.845 38.4021 86.6731 38.5922C86.5013 38.7823 86.2929 38.9281 86.0481 39.0297C85.8059 39.1286 85.5312 39.1781 85.2239 39.1781C84.9375 39.1781 84.6744 39.1286 84.4349 39.0297C84.1979 38.9281 83.9921 38.7823 83.8177 38.5922C83.6458 38.4021 83.5117 38.169 83.4153 37.8929C83.3216 37.6169 83.2747 37.3031 83.2747 36.9515C83.2747 36.4828 83.3541 36.0844 83.513 35.7562C83.6718 35.4255 83.8984 35.1742 84.1927 35.0023C84.4895 34.8278 84.8424 34.7406 85.2513 34.7406C85.6419 34.7406 85.983 34.8278 86.2747 35.0023C86.569 35.1768 86.7968 35.4294 86.9583 35.7601C87.1224 36.0883 87.2044 36.4854 87.2044 36.9515ZM83.9466 36.9515C83.9466 37.2953 83.9921 37.5935 84.0833 37.8461C84.1744 38.0987 84.3151 38.294 84.5052 38.432C84.6953 38.57 84.9401 38.639 85.2395 38.639C85.5364 38.639 85.7799 38.57 85.97 38.432C86.1627 38.294 86.3046 38.0987 86.3958 37.8461C86.4869 37.5935 86.5325 37.2953 86.5325 36.9515C86.5325 36.6104 86.4869 36.3161 86.3958 36.0687C86.3046 35.8187 86.164 35.626 85.9739 35.4906C85.7838 35.3552 85.5377 35.2875 85.2356 35.2875C84.7903 35.2875 84.4635 35.4346 84.2552 35.7289C84.0494 36.0232 83.9466 36.4307 83.9466 36.9515Z" fill="#666666"/>
<path d="M90.1708 34.7406C90.2567 34.7406 90.3466 34.7458 90.4403 34.7562C90.5341 34.764 90.6174 34.7758 90.6903 34.7914L90.6083 35.3929C90.538 35.3747 90.4599 35.3604 90.3739 35.35C90.288 35.3396 90.2072 35.3344 90.1317 35.3344C89.9599 35.3344 89.7971 35.3695 89.6434 35.4398C89.4924 35.5075 89.3596 35.6065 89.245 35.7367C89.1304 35.8643 89.0406 36.0192 88.9755 36.2015C88.9104 36.3812 88.8778 36.5817 88.8778 36.8031V39.1H88.2255V34.8187H88.7645L88.8349 35.6078H88.8622C88.9507 35.4489 89.0575 35.3044 89.1825 35.1742C89.3075 35.0414 89.452 34.9359 89.6161 34.8578C89.7828 34.7797 89.9677 34.7406 90.1708 34.7406Z" fill="#666666"/>
<path d="M95.0919 39.1781C94.7065 39.1781 94.3666 39.0987 94.0723 38.9398C93.7781 38.781 93.5489 38.5388 93.3848 38.2133C93.2208 37.8877 93.1388 37.4776 93.1388 36.9828C93.1388 36.4646 93.2247 36.0414 93.3966 35.7133C93.571 35.3825 93.8106 35.1377 94.1153 34.9789C94.42 34.82 94.7664 34.7406 95.1544 34.7406C95.3679 34.7406 95.5737 34.7627 95.7716 34.807C95.9721 34.8487 96.1362 34.9021 96.2638 34.9672L96.0684 35.5101C95.9382 35.458 95.7872 35.4112 95.6153 35.3695C95.446 35.3278 95.2872 35.307 95.1388 35.307C94.8419 35.307 94.5945 35.3708 94.3966 35.4984C94.2013 35.626 94.0541 35.8135 93.9552 36.0609C93.8588 36.3083 93.8106 36.613 93.8106 36.975C93.8106 37.3213 93.8575 37.6169 93.9513 37.8617C94.0476 38.1065 94.1895 38.294 94.377 38.4242C94.5671 38.5518 94.8041 38.6156 95.088 38.6156C95.3145 38.6156 95.519 38.5922 95.7013 38.5453C95.8835 38.4958 96.0489 38.4385 96.1973 38.3734V38.9515C96.0541 39.0245 95.894 39.0804 95.7169 39.1195C95.5424 39.1586 95.3341 39.1781 95.0919 39.1781Z" fill="#666666"/>
<path d="M98.7145 34.7484C99.225 34.7484 99.6039 34.863 99.8513 35.0922C100.099 35.3213 100.222 35.6872 100.222 36.1898V39.1H99.7497L99.6247 38.4672H99.5934C99.4737 38.6234 99.3487 38.7549 99.2184 38.8617C99.0882 38.9659 98.9372 39.0453 98.7653 39.1C98.596 39.1521 98.3877 39.1781 98.1403 39.1781C97.8799 39.1781 97.6481 39.1325 97.445 39.0414C97.2445 38.9502 97.0856 38.8122 96.9684 38.6273C96.8539 38.4424 96.7966 38.208 96.7966 37.9242C96.7966 37.4971 96.9658 37.169 97.3044 36.9398C97.6429 36.7107 98.1585 36.5857 98.8513 36.5648L99.5895 36.5336V36.2719C99.5895 35.9021 99.5101 35.6429 99.3513 35.4945C99.1924 35.3461 98.9684 35.2719 98.6794 35.2719C98.4554 35.2719 98.2419 35.3044 98.0388 35.3695C97.8356 35.4346 97.6429 35.5114 97.4606 35.6L97.2614 35.1078C97.4541 35.0088 97.6755 34.9242 97.9255 34.8539C98.1755 34.7836 98.4385 34.7484 98.7145 34.7484ZM99.5817 36.9906L98.9294 37.0179C98.3955 37.0388 98.0192 37.126 97.8005 37.2797C97.5817 37.4333 97.4724 37.6508 97.4724 37.932C97.4724 38.1768 97.5466 38.3578 97.695 38.475C97.8434 38.5922 98.0401 38.6508 98.2849 38.6508C98.6651 38.6508 98.9763 38.5453 99.2184 38.3344C99.4606 38.1234 99.5817 37.807 99.5817 37.3851V36.9906Z" fill="#666666"/>
<path d="M106.107 34.7406C106.578 34.7406 106.934 34.8643 107.173 35.1117C107.413 35.3565 107.533 35.751 107.533 36.2953V39.1H106.892V36.3265C106.892 35.9802 106.816 35.7211 106.665 35.5492C106.517 35.3747 106.296 35.2875 106.001 35.2875C105.587 35.2875 105.286 35.4073 105.099 35.6469C104.911 35.8864 104.818 36.2393 104.818 36.7054V39.1H104.173V36.3265C104.173 36.0948 104.139 35.9021 104.072 35.7484C104.006 35.5948 103.908 35.4802 103.775 35.4047C103.644 35.3265 103.479 35.2875 103.279 35.2875C102.995 35.2875 102.767 35.3461 102.595 35.4633C102.423 35.5804 102.298 35.7549 102.22 35.9867C102.144 36.2159 102.107 36.4984 102.107 36.8344V39.1H101.458V34.8187H101.982L102.079 35.4242H102.115C102.2 35.2758 102.309 35.1508 102.439 35.0492C102.569 34.9476 102.715 34.8708 102.876 34.8187C103.038 34.7666 103.21 34.7406 103.392 34.7406C103.717 34.7406 103.99 34.8018 104.208 34.9242C104.43 35.044 104.59 35.2276 104.689 35.475H104.724C104.865 35.2276 105.057 35.044 105.302 34.9242C105.547 34.8018 105.815 34.7406 106.107 34.7406Z" fill="#666666"/>
<path d="M110.776 34.7406C111.31 34.7406 111.736 34.9242 112.054 35.2914C112.371 35.6586 112.53 36.2107 112.53 36.9476C112.53 37.4346 112.457 37.8435 112.311 38.1742C112.166 38.5049 111.96 38.7549 111.694 38.9242C111.431 39.0935 111.12 39.1781 110.761 39.1781C110.534 39.1781 110.335 39.1482 110.163 39.0883C109.991 39.0284 109.844 38.9476 109.722 38.8461C109.599 38.7445 109.498 38.6338 109.417 38.514H109.37C109.378 38.6156 109.387 38.738 109.397 38.8812C109.41 39.0245 109.417 39.1495 109.417 39.2562V41.014H108.765V34.8187H109.3L109.386 35.4515H109.417C109.5 35.3213 109.602 35.2028 109.722 35.0961C109.841 34.9867 109.987 34.9008 110.159 34.8383C110.334 34.7732 110.539 34.7406 110.776 34.7406ZM110.663 35.2875C110.366 35.2875 110.127 35.3448 109.944 35.4594C109.765 35.5739 109.633 35.7458 109.55 35.975C109.466 36.2015 109.422 36.4867 109.417 36.8304V36.9554C109.417 37.3174 109.456 37.6234 109.534 37.8734C109.615 38.1234 109.746 38.3135 109.929 38.4437C110.113 38.5739 110.361 38.639 110.671 38.639C110.936 38.639 111.158 38.5674 111.335 38.4242C111.512 38.281 111.643 38.0817 111.729 37.8265C111.818 37.5687 111.862 37.2732 111.862 36.9398C111.862 36.4346 111.763 36.0336 111.565 35.7367C111.37 35.4372 111.069 35.2875 110.663 35.2875Z" fill="#666666"/>
<path d="M117.098 34.8187V39.1H116.567L116.473 38.4984H116.438C116.349 38.6469 116.235 38.7719 116.094 38.8734C115.954 38.975 115.795 39.0505 115.618 39.1C115.443 39.1521 115.257 39.1781 115.059 39.1781C114.721 39.1781 114.437 39.1234 114.208 39.014C113.978 38.9047 113.805 38.7354 113.688 38.5062C113.573 38.2771 113.516 37.9828 113.516 37.6234V34.8187H114.172V37.5765C114.172 37.9333 114.253 38.2002 114.415 38.3773C114.576 38.5518 114.822 38.639 115.153 38.639C115.471 38.639 115.723 38.5791 115.911 38.4594C116.101 38.3396 116.237 38.1638 116.321 37.932C116.404 37.6976 116.446 37.4112 116.446 37.0726V34.8187H117.098Z" fill="#666666"/>
<path d="M121.139 37.9281C121.139 38.2015 121.07 38.432 120.932 38.6195C120.796 38.8044 120.601 38.9437 120.346 39.0375C120.093 39.1312 119.791 39.1781 119.44 39.1781C119.14 39.1781 118.881 39.1547 118.662 39.1078C118.443 39.0609 118.252 38.9945 118.088 38.9086V38.3109C118.262 38.3969 118.471 38.475 118.713 38.5453C118.955 38.6156 119.203 38.6508 119.455 38.6508C119.825 38.6508 120.093 38.5909 120.26 38.4711C120.427 38.3513 120.51 38.1885 120.51 37.9828C120.51 37.8656 120.476 37.7627 120.408 37.6742C120.343 37.583 120.233 37.4958 120.076 37.4125C119.92 37.3265 119.704 37.2328 119.428 37.1312C119.154 37.0271 118.917 36.9242 118.717 36.8226C118.519 36.7185 118.365 36.5922 118.256 36.4437C118.149 36.2953 118.096 36.1026 118.096 35.8656C118.096 35.5036 118.242 35.2263 118.533 35.0336C118.828 34.8383 119.213 34.7406 119.69 34.7406C119.947 34.7406 120.188 34.7666 120.412 34.8187C120.639 34.8682 120.85 34.9359 121.045 35.0219L120.826 35.5414C120.649 35.4659 120.46 35.4021 120.26 35.35C120.059 35.2979 119.855 35.2719 119.647 35.2719C119.347 35.2719 119.117 35.3213 118.955 35.4203C118.796 35.5192 118.717 35.6547 118.717 35.8265C118.717 35.9594 118.753 36.0687 118.826 36.1547C118.902 36.2406 119.022 36.3213 119.186 36.3969C119.35 36.4724 119.566 36.5609 119.834 36.6625C120.102 36.7614 120.334 36.8643 120.529 36.9711C120.725 37.0752 120.874 37.2028 120.979 37.3539C121.085 37.5023 121.139 37.6937 121.139 37.9281Z" fill="#666666"/>
<path d="M124.708 33.0219V34.8383C124.708 34.9424 124.706 35.0479 124.7 35.1547C124.695 35.2588 124.686 35.3552 124.673 35.4437H124.716C124.805 35.2927 124.917 35.1664 125.052 35.0648C125.19 34.9607 125.346 34.8825 125.521 34.8304C125.695 34.7758 125.88 34.7484 126.075 34.7484C126.419 34.7484 126.706 34.8031 126.935 34.9125C127.167 35.0219 127.34 35.1911 127.454 35.4203C127.572 35.6495 127.63 35.9463 127.63 36.3109V39.1H126.99V36.3539C126.99 35.9971 126.908 35.7302 126.743 35.5531C126.582 35.376 126.333 35.2875 125.997 35.2875C125.68 35.2875 125.426 35.3487 125.236 35.4711C125.048 35.5909 124.913 35.7679 124.829 36.0023C124.749 36.2367 124.708 36.5232 124.708 36.8617V39.1H124.06V33.0219H124.708Z" fill="#666666"/>
<path d="M129.515 34.8187V39.1H128.866V34.8187H129.515ZM129.198 33.2172C129.305 33.2172 129.396 33.2523 129.472 33.3226C129.55 33.3903 129.589 33.4971 129.589 33.6429C129.589 33.7862 129.55 33.8929 129.472 33.9633C129.396 34.0336 129.305 34.0687 129.198 34.0687C129.086 34.0687 128.992 34.0336 128.917 33.9633C128.844 33.8929 128.808 33.7862 128.808 33.6429C128.808 33.4971 128.844 33.3903 128.917 33.3226C128.992 33.2523 129.086 33.2172 129.198 33.2172Z" fill="#666666"/>
<path d="M132.735 34.7406C132.821 34.7406 132.911 34.7458 133.004 34.7562C133.098 34.764 133.181 34.7758 133.254 34.7914L133.172 35.3929C133.102 35.3747 133.024 35.3604 132.938 35.35C132.852 35.3396 132.771 35.3344 132.696 35.3344C132.524 35.3344 132.361 35.3695 132.208 35.4398C132.056 35.5075 131.924 35.6065 131.809 35.7367C131.694 35.8643 131.605 36.0192 131.54 36.2015C131.474 36.3812 131.442 36.5817 131.442 36.8031V39.1H130.79V34.8187H131.329L131.399 35.6078H131.426C131.515 35.4489 131.622 35.3044 131.747 35.1742C131.872 35.0414 132.016 34.9359 132.18 34.8578C132.347 34.7797 132.532 34.7406 132.735 34.7406Z" fill="#666666"/>
<path d="M134.611 34.8187V39.1H133.963V34.8187H134.611ZM134.295 33.2172C134.402 33.2172 134.493 33.2523 134.568 33.3226C134.647 33.3903 134.686 33.4971 134.686 33.6429C134.686 33.7862 134.647 33.8929 134.568 33.9633C134.493 34.0336 134.402 34.0687 134.295 34.0687C134.183 34.0687 134.089 34.0336 134.014 33.9633C133.941 33.8929 133.904 33.7862 133.904 33.6429C133.904 33.4971 133.941 33.3903 134.014 33.3226C134.089 33.2523 134.183 33.2172 134.295 33.2172Z" fill="#666666"/>
<path d="M137.914 34.7406C138.422 34.7406 138.806 34.8656 139.066 35.1156C139.327 35.363 139.457 35.7614 139.457 36.3109V39.1H138.816V36.3539C138.816 35.9971 138.734 35.7302 138.57 35.5531C138.409 35.376 138.16 35.2875 137.824 35.2875C137.35 35.2875 137.017 35.4216 136.824 35.6898C136.631 35.958 136.535 36.3474 136.535 36.8578V39.1H135.886V34.8187H136.41L136.508 35.4359H136.543C136.634 35.2849 136.75 35.1586 136.89 35.057C137.031 34.9528 137.188 34.8747 137.363 34.8226C137.537 34.7679 137.721 34.7406 137.914 34.7406Z" fill="#666666"/>
<path d="M141.888 41.0219C141.325 41.0219 140.892 40.9164 140.587 40.7054C140.283 40.4971 140.13 40.2041 140.13 39.8265C140.13 39.5583 140.215 39.3291 140.384 39.139C140.556 38.9489 140.793 38.8226 141.095 38.7601C140.983 38.708 140.887 38.6299 140.806 38.5258C140.728 38.4216 140.689 38.3018 140.689 38.1664C140.689 38.0101 140.732 37.8734 140.818 37.7562C140.906 37.6364 141.04 37.5219 141.22 37.4125C140.996 37.3213 140.814 37.1677 140.673 36.9515C140.535 36.7328 140.466 36.4789 140.466 36.1898C140.466 35.8825 140.53 35.6208 140.658 35.4047C140.785 35.1859 140.97 35.0192 141.212 34.9047C141.454 34.7901 141.747 34.7328 142.091 34.7328C142.167 34.7328 142.242 34.7367 142.318 34.7445C142.396 34.7497 142.47 34.7588 142.54 34.7719C142.611 34.7823 142.672 34.7953 142.724 34.8109H144.193V35.2289L143.404 35.3265C143.482 35.4281 143.547 35.5505 143.599 35.6937C143.651 35.837 143.677 35.9958 143.677 36.1703C143.677 36.5974 143.533 36.9372 143.243 37.1898C142.954 37.4398 142.557 37.5648 142.052 37.5648C141.932 37.5648 141.81 37.5544 141.685 37.5336C141.557 37.6039 141.46 37.682 141.392 37.7679C141.327 37.8539 141.294 37.9528 141.294 38.0648C141.294 38.1482 141.319 38.2146 141.368 38.264C141.421 38.3135 141.495 38.35 141.591 38.3734C141.687 38.3942 141.803 38.4047 141.939 38.4047H142.693C143.159 38.4047 143.516 38.5023 143.763 38.6976C144.013 38.8929 144.138 39.1781 144.138 39.5531C144.138 40.0271 143.945 40.3903 143.56 40.6429C143.174 40.8955 142.617 41.0219 141.888 41.0219ZM141.908 40.514C142.262 40.514 142.555 40.4776 142.786 40.4047C143.021 40.3344 143.195 40.2315 143.31 40.0961C143.427 39.9633 143.486 39.8044 143.486 39.6195C143.486 39.4476 143.447 39.3174 143.368 39.2289C143.29 39.1429 143.176 39.0857 143.025 39.057C142.874 39.0258 142.689 39.0101 142.47 39.0101H141.728C141.535 39.0101 141.367 39.0401 141.224 39.1C141.081 39.1599 140.97 39.2484 140.892 39.3656C140.816 39.4828 140.779 39.6286 140.779 39.8031C140.779 40.0349 140.876 40.2107 141.072 40.3304C141.267 40.4528 141.546 40.514 141.908 40.514ZM142.075 37.0922C142.385 37.0922 142.618 37.014 142.775 36.8578C142.931 36.7015 143.009 36.4737 143.009 36.1742C143.009 35.8539 142.93 35.6143 142.771 35.4554C142.612 35.294 142.378 35.2133 142.068 35.2133C141.771 35.2133 141.542 35.2966 141.38 35.4633C141.221 35.6273 141.142 35.8682 141.142 36.1859C141.142 36.4776 141.223 36.7015 141.384 36.8578C141.546 37.014 141.776 37.0922 142.075 37.0922Z" fill="#666666"/>
<path d="M145.522 37.514H145.097L144.917 33.389H145.702L145.522 37.514ZM144.839 38.6937C144.839 38.5114 144.883 38.3825 144.972 38.307C145.06 38.2289 145.171 38.1898 145.304 38.1898C145.434 38.1898 145.543 38.2289 145.632 38.307C145.723 38.3825 145.768 38.5114 145.768 38.6937C145.768 38.8734 145.723 39.0049 145.632 39.0883C145.543 39.169 145.434 39.2094 145.304 39.2094C145.171 39.2094 145.06 39.169 144.972 39.0883C144.883 39.0049 144.839 38.8734 144.839 38.6937Z" fill="#666666"/>
<path d="M111.99 29.2431C112.626 29.2431 113.14 28.7283 113.14 28.0931C113.14 27.458 112.626 26.9431 111.99 26.9431C111.355 26.9431 110.84 27.458 110.84 28.0931C110.84 28.7283 111.355 29.2431 111.99 29.2431Z" fill="#656565" stroke="white" stroke-width="0.8"/>
<path fill-rule="evenodd" clip-rule="evenodd" d="M11.568 3.04803C11.535 3.09857 11.5012 3.14726 11.4692 3.19688C11.5725 3.19688 11.6265 3.14543 11.717 3.13073C11.7655 3.21434 11.6201 3.22812 11.6173 3.31449C11.7088 3.32367 11.813 3.20515 11.8651 3.28141C11.8825 3.34848 11.7444 3.38799 11.717 3.46517C11.7444 3.47528 11.8843 3.45782 11.9639 3.46517C12.1084 3.92457 11.7243 4.27648 11.354 4.30955C10.7751 4.36101 10.2932 3.75827 10.6782 3.26671C10.8382 3.05814 11.204 2.92307 11.568 3.04803Z" fill="#ED1B24"/>
<path fill-rule="evenodd" clip-rule="evenodd" d="M16.3651 9.97124C16.3441 10.0273 16.2197 9.98686 16.1502 9.97124C15.672 9.8665 15.1224 9.70663 14.6505 9.55686C13.5669 9.21231 12.5473 8.79425 11.749 8.09963C11.3275 7.73211 10.8995 7.19093 10.958 6.40995C10.9846 6.2477 11.0222 6.08746 11.0705 5.93033C11.0988 5.79343 11.0915 5.6795 11.1199 5.56281C11.2954 4.86543 11.8322 4.3215 12.3727 3.92366C12.9945 3.46425 13.7727 3.03333 14.763 3.06181C14.5216 3.21617 14.2436 3.33746 14.0214 3.50927C14.3213 3.44679 14.7017 3.36226 15.0437 3.44312C14.1924 3.90252 13.3264 4.34906 12.8015 5.19896C12.6388 5.46174 12.4632 5.87061 12.5053 6.22527C12.5272 6.41638 12.6561 6.63506 12.7686 6.82157C13.5084 8.04818 14.7978 8.76209 16.1475 9.35564C15.5558 9.26376 14.9587 9.04049 14.3835 8.87511C14.3707 8.87511 14.3671 8.85857 14.3515 8.85857C14.8901 9.26364 15.4776 9.59861 16.0999 9.85547C16.1914 9.89039 16.3002 9.88855 16.3651 9.97124ZM13.8266 3.64434C13.7352 3.6719 13.6501 3.77297 13.5623 3.8428C13.0576 4.24616 12.4943 4.83327 12.4422 5.61518C12.4218 5.71565 12.433 5.81998 12.4742 5.91379C12.5738 5.23847 12.9771 4.81674 13.3813 4.4437C13.7855 4.07066 14.3113 3.76654 14.8197 3.47895C14.4819 3.4791 14.1464 3.53497 13.8266 3.64434ZM11.7819 8.03348C12.7951 8.93207 14.4292 9.4512 15.8256 9.8224C15.853 9.8224 15.8658 9.8031 15.8256 9.80586C15.3587 9.58238 14.9072 9.32792 14.474 9.04417C14.3323 8.95229 14.1997 8.81722 14.0616 8.74556C13.983 8.70605 13.8787 8.69594 13.7983 8.66286C13.5514 8.56363 13.3237 8.44602 13.0896 8.33117C12.1587 7.8782 11.3064 7.32692 11.0568 6.17841C10.9032 7.05127 11.3238 7.62645 11.7819 8.03348Z" fill="#006CB7"/>
<path d="M16.2853 4.57892H17.5936V5.18615C17.7893 4.93811 17.9872 4.76144 18.1874 4.65614C18.3876 4.5485 18.6316 4.49468 18.9192 4.49468C19.3082 4.49468 19.6119 4.61285 19.8306 4.84919C20.0515 5.08319 20.162 5.44589 20.162 5.93729V8.30653H18.7501V6.2567C18.7501 6.0227 18.7075 5.85773 18.6223 5.76179C18.5372 5.66351 18.4175 5.61437 18.2633 5.61437C18.093 5.61437 17.955 5.67989 17.8491 5.81093C17.7432 5.94197 17.6903 6.17714 17.6903 6.51644V8.30653H16.2853V4.57892Z" fill="#53A9DC"/>
<path d="M22.2815 5.78636L20.9387 5.64245C20.9893 5.40377 21.0618 5.21657 21.1562 5.08085C21.2528 4.94279 21.3909 4.82345 21.5704 4.72283C21.6993 4.65029 21.8765 4.59413 22.102 4.55435C22.3275 4.51457 22.5715 4.49468 22.8338 4.49468C23.255 4.49468 23.5933 4.51925 23.8487 4.56839C24.1042 4.61519 24.3171 4.71464 24.4874 4.86674C24.607 4.97204 24.7014 5.1218 24.7704 5.31602C24.8395 5.5079 24.874 5.69159 24.874 5.86709V7.51328C24.874 7.68878 24.8844 7.82684 24.9051 7.92745C24.9281 8.02573 24.9764 8.15209 25.0501 8.30653H23.7314C23.6784 8.21059 23.6439 8.13805 23.6278 8.08891C23.6117 8.03744 23.5956 7.95788 23.5795 7.85024C23.3954 8.03041 23.2124 8.15911 23.0306 8.23633C22.7821 8.33929 22.4932 8.39077 22.1641 8.39077C21.7269 8.39077 21.3943 8.28781 21.1665 8.08189C20.941 7.87598 20.8282 7.62209 20.8282 7.32023C20.8282 7.03709 20.9099 6.80426 21.0733 6.62174C21.2367 6.43922 21.5382 6.3035 21.9777 6.21458C22.5048 6.10694 22.8465 6.03206 23.003 5.98994C23.1595 5.94548 23.3252 5.88815 23.5001 5.81795C23.5001 5.64245 23.4644 5.5196 23.3931 5.4494C23.3217 5.3792 23.1963 5.3441 23.0168 5.3441C22.7867 5.3441 22.6141 5.38154 22.499 5.45642C22.4092 5.51492 22.3368 5.6249 22.2815 5.78636ZM23.5001 6.5375C23.3068 6.6077 23.1054 6.66971 22.896 6.72353C22.6106 6.80075 22.43 6.8768 22.354 6.95168C22.2758 7.0289 22.2366 7.11665 22.2366 7.21493C22.2366 7.32725 22.2746 7.41968 22.3506 7.49222C22.4288 7.56242 22.5427 7.59752 22.6923 7.59752C22.8488 7.59752 22.9938 7.55891 23.1273 7.48169C23.2631 7.40447 23.3586 7.31087 23.4138 7.20089C23.4713 7.08857 23.5001 6.94349 23.5001 6.76565V6.5375Z" fill="#53A9DC"/>
<path d="M29.5791 8.30653H28.2674V7.70282C28.0718 7.95085 27.8738 8.12752 27.6736 8.23282C27.4757 8.33812 27.2318 8.39077 26.9418 8.39077C26.5552 8.39077 26.2514 8.27377 26.0304 8.03977C25.8118 7.80344 25.7025 7.44074 25.7025 6.95168V4.57892H27.1144V6.62876C27.1144 6.86276 27.157 7.0289 27.2421 7.12718C27.3273 7.22546 27.4469 7.2746 27.6011 7.2746C27.7691 7.2746 27.9061 7.20908 28.0119 7.07804C28.1201 6.947 28.1742 6.71183 28.1742 6.37253V4.57892H29.5791V8.30653Z" fill="#53A9DC"/>
<path d="M30.4318 3.16089H31.8678V5.81444L32.9173 4.57892H34.6467L33.3315 5.88464L34.7227 8.30653H33.1382L32.396 6.81128L31.8678 7.33778V8.30653H30.4318V3.16089Z" fill="#53A9DC"/>
<path d="M35.1611 4.57892H36.4763V5.18966C36.6029 4.92524 36.7329 4.74389 36.8664 4.64561C37.0022 4.54499 37.169 4.49468 37.367 4.49468C37.5741 4.49468 37.8008 4.5602 38.047 4.69124L37.6121 5.70914C37.4464 5.63894 37.3152 5.60384 37.2185 5.60384C37.0344 5.60384 36.8917 5.68106 36.7905 5.8355C36.6455 6.05312 36.573 6.46028 36.573 7.05698V8.30653H35.1611V4.57892Z" fill="#53A9DC"/>
<path d="M38.3404 3.16089H39.7454V4.13316H38.3404V3.16089ZM38.3404 4.57892H39.7454V8.30653H38.3404V4.57892Z" fill="#53A9DC"/>
<path d="M44.5725 6.86122L45.9125 7.01418C45.8387 7.29459 45.7175 7.53793 45.549 7.74418C45.3805 7.94812 45.1646 8.10686 44.9015 8.22042C44.6406 8.33398 44.3082 8.39076 43.9042 8.39076C43.5141 8.39076 43.1886 8.35483 42.9278 8.28299C42.6692 8.20883 42.4465 8.09064 42.2595 7.92842C42.0725 7.76388 41.9259 7.57153 41.8197 7.35137C41.7136 7.13121 41.6605 6.83921 41.6605 6.47536C41.6605 6.0953 41.7251 5.77896 41.8544 5.52636C41.949 5.34096 42.0783 5.17526 42.2422 5.02926C42.4061 4.88094 42.5746 4.77086 42.7477 4.69902C43.0224 4.58546 43.3745 4.52869 43.8038 4.52869C44.404 4.52869 44.8611 4.63645 45.175 4.85197C45.4913 5.0675 45.7129 5.38268 45.8398 5.7975L44.5136 5.97479C44.4721 5.8172 44.3959 5.69901 44.2851 5.62022C44.1766 5.5391 44.03 5.49855 43.8454 5.49855C43.6122 5.49855 43.4229 5.58314 43.2775 5.75231C43.1344 5.91917 43.0628 6.17293 43.0628 6.5136C43.0628 6.81719 43.1344 7.04778 43.2775 7.20537C43.4206 7.36296 43.603 7.44175 43.8246 7.44175C44.0093 7.44175 44.1639 7.39424 44.2886 7.29923C44.4155 7.20421 44.5102 7.05821 44.5725 6.86122Z" fill="#006CB7"/>
<path d="M46.3869 6.46841C46.3869 5.90527 46.5762 5.44177 46.9548 5.07793C47.3334 4.71177 47.8447 4.52869 48.4887 4.52869C49.2251 4.52869 49.7814 4.74305 50.1577 5.17179C50.4601 5.51709 50.6113 5.94234 50.6113 6.44755C50.6113 7.01534 50.4231 7.48115 50.0469 7.84499C49.6729 8.20652 49.1547 8.38728 48.4922 8.38728C47.9012 8.38728 47.4234 8.23664 47.0587 7.93537C46.6108 7.56226 46.3869 7.07327 46.3869 6.46841ZM47.7996 6.46494C47.7996 6.79402 47.8654 7.03735 47.997 7.19494C48.1309 7.35253 48.2983 7.43132 48.4991 7.43132C48.7022 7.43132 48.8684 7.35369 48.9977 7.19842C49.1293 7.04314 49.1951 6.79402 49.1951 6.45103C49.1951 6.13122 49.1293 5.89368 48.9977 5.73841C48.8661 5.58082 48.7034 5.50203 48.5095 5.50203C48.304 5.50203 48.1344 5.58198 48.0005 5.74188C47.8666 5.89947 47.7996 6.14049 47.7996 6.46494Z" fill="#006CB7"/>
<path d="M51.3003 4.61212H52.6161V5.15093C52.8054 4.92613 52.9958 4.76623 53.1874 4.67121C53.3814 4.57619 53.6145 4.52869 53.8869 4.52869C54.1801 4.52869 54.412 4.58083 54.5829 4.68512C54.7537 4.7894 54.8934 4.94467 55.0018 5.15093C55.2235 4.90991 55.4254 4.74653 55.6078 4.66078C55.7902 4.57272 56.0152 4.52869 56.283 4.52869C56.6777 4.52869 56.9859 4.64688 57.2075 4.88326C57.4291 5.11732 57.5399 5.48464 57.5399 5.98522V8.30385H56.1272V6.20074C56.1272 6.03389 56.0949 5.9099 56.0302 5.82879C55.9356 5.70133 55.8179 5.6376 55.6771 5.6376C55.5108 5.6376 55.377 5.69785 55.2754 5.81836C55.1738 5.93887 55.123 6.13238 55.123 6.39889V8.30385H53.7103V6.27027C53.7103 6.10804 53.7011 5.99796 53.6826 5.94003C53.6526 5.84733 53.6006 5.77317 53.5268 5.71755C53.4529 5.65961 53.3663 5.63064 53.2671 5.63064C53.1055 5.63064 52.9728 5.69206 52.8689 5.81488C52.765 5.93771 52.7131 6.13933 52.7131 6.41974V8.30385H51.3003V4.61212Z" fill="#006CB7"/>
<path d="M41.501 7.66664C41.501 8.06657 41.1794 8.39078 40.7828 8.39078C40.3862 8.39078 40.0646 8.06657 40.0646 7.66664C40.0646 7.26671 40.3862 6.9425 40.7828 6.9425C41.1794 6.9425 41.501 7.26671 41.501 7.66664Z" fill="#ED1B24"/>
<path d="M7.84076 9L7.13763 7.1875H4.84857L4.14935 9H3.47748L5.71185 3.26562H6.30951L8.52826 9H7.84076ZM6.93842 6.59766L6.27045 4.79688C6.25482 4.75 6.22878 4.67318 6.19232 4.56641C6.15847 4.45964 6.12331 4.34896 6.08685 4.23438C6.05039 4.11979 6.02045 4.02734 5.99701 3.95703C5.97097 4.0638 5.94232 4.17057 5.91107 4.27734C5.88243 4.38151 5.85378 4.47917 5.82513 4.57031C5.79649 4.65885 5.77175 4.73438 5.75092 4.79688L5.07123 6.59766H6.93842Z" fill="#666666"/>
<path d="M62.847 3.79297C62.5319 3.79297 62.248 3.84766 61.9954 3.95703C61.7454 4.0638 61.5319 4.22005 61.3548 4.42578C61.1803 4.62891 61.0462 4.875 60.9525 5.16406C60.8587 5.45312 60.8118 5.77865 60.8118 6.14062C60.8118 6.61979 60.886 7.03646 61.0345 7.39062C61.1855 7.74219 61.4095 8.01432 61.7064 8.20703C62.0058 8.39974 62.3795 8.49609 62.8275 8.49609C63.0827 8.49609 63.3222 8.47526 63.5462 8.43359C63.7728 8.38932 63.9928 8.33464 64.2064 8.26953V8.84766C63.998 8.92578 63.7793 8.98307 63.5501 9.01953C63.3209 9.05859 63.0488 9.07812 62.7337 9.07812C62.153 9.07812 61.6673 8.95833 61.2767 8.71875C60.8887 8.47656 60.597 8.13542 60.4017 7.69531C60.209 7.25521 60.1126 6.73568 60.1126 6.13672C60.1126 5.70443 60.1725 5.3099 60.2923 4.95312C60.4147 4.59375 60.5918 4.28385 60.8235 4.02344C61.0579 3.76302 61.3444 3.5625 61.6829 3.42188C62.0241 3.27865 62.4147 3.20703 62.8548 3.20703C63.1439 3.20703 63.4225 3.23568 63.6907 3.29297C63.959 3.35026 64.2012 3.43229 64.4173 3.53906L64.1517 4.10156C63.9694 4.01823 63.7689 3.94661 63.5501 3.88672C63.334 3.82422 63.0996 3.79297 62.847 3.79297Z" fill="#666666"/>
<path d="M68.9384 6.85156C68.9384 7.20312 68.8928 7.51693 68.8017 7.79297C68.7105 8.06901 68.579 8.30208 68.4071 8.49219C68.2353 8.68229 68.0269 8.82812 67.7821 8.92969C67.54 9.02865 67.2652 9.07812 66.9579 9.07812C66.6715 9.07812 66.4084 9.02865 66.1689 8.92969C65.9319 8.82812 65.7262 8.68229 65.5517 8.49219C65.3798 8.30208 65.2457 8.06901 65.1493 7.79297C65.0556 7.51693 65.0087 7.20312 65.0087 6.85156C65.0087 6.38281 65.0881 5.98438 65.247 5.65625C65.4058 5.32552 65.6324 5.07422 65.9267 4.90234C66.2235 4.72786 66.5764 4.64062 66.9853 4.64062C67.3759 4.64062 67.717 4.72786 68.0087 4.90234C68.303 5.07682 68.5308 5.32943 68.6923 5.66016C68.8564 5.98828 68.9384 6.38542 68.9384 6.85156ZM65.6806 6.85156C65.6806 7.19531 65.7262 7.49349 65.8173 7.74609C65.9084 7.9987 66.0491 8.19401 66.2392 8.33203C66.4293 8.47005 66.6741 8.53906 66.9735 8.53906C67.2704 8.53906 67.5139 8.47005 67.704 8.33203C67.8967 8.19401 68.0387 7.9987 68.1298 7.74609C68.2209 7.49349 68.2665 7.19531 68.2665 6.85156C68.2665 6.51042 68.2209 6.21615 68.1298 5.96875C68.0387 5.71875 67.898 5.52604 67.7079 5.39062C67.5178 5.25521 67.2717 5.1875 66.9696 5.1875C66.5243 5.1875 66.1975 5.33464 65.9892 5.62891C65.7834 5.92318 65.6806 6.33073 65.6806 6.85156Z" fill="#666666"/>
<path d="M74.6079 4.64062C75.0793 4.64062 75.4347 4.76432 75.6743 5.01172C75.9139 5.25651 76.0337 5.65104 76.0337 6.19531V9H75.3931V6.22656C75.3931 5.88021 75.3176 5.62109 75.1665 5.44922C75.0181 5.27474 74.7967 5.1875 74.5025 5.1875C74.0884 5.1875 73.7876 5.30729 73.6001 5.54688C73.4126 5.78646 73.3189 6.13932 73.3189 6.60547V9H72.6743V6.22656C72.6743 5.99479 72.6405 5.80208 72.5728 5.64844C72.5077 5.49479 72.4087 5.38021 72.2759 5.30469C72.1457 5.22656 71.9803 5.1875 71.7798 5.1875C71.4959 5.1875 71.2681 5.24609 71.0962 5.36328C70.9243 5.48047 70.7993 5.65495 70.7212 5.88672C70.6457 6.11589 70.6079 6.39844 70.6079 6.73438V9H69.9595V4.71875H70.4829L70.5806 5.32422H70.6157C70.7017 5.17578 70.8097 5.05078 70.94 4.94922C71.0702 4.84766 71.216 4.77083 71.3775 4.71875C71.5389 4.66667 71.7108 4.64062 71.8931 4.64062C72.2186 4.64062 72.4907 4.70182 72.7095 4.82422C72.9308 4.94401 73.091 5.1276 73.19 5.375H73.2251C73.3657 5.1276 73.5584 4.94401 73.8032 4.82422C74.048 4.70182 74.3163 4.64062 74.6079 4.64062Z" fill="#666666"/>
<path d="M79.2775 4.64062C79.8113 4.64062 80.2371 4.82422 80.5548 5.19141C80.8725 5.55859 81.0314 6.11068 81.0314 6.84766C81.0314 7.33464 80.9584 7.74349 80.8126 8.07422C80.6668 8.40495 80.461 8.65495 80.1954 8.82422C79.9324 8.99349 79.6212 9.07812 79.2618 9.07812C79.0353 9.07812 78.836 9.04818 78.6642 8.98828C78.4923 8.92839 78.3452 8.84766 78.2228 8.74609C78.1004 8.64453 77.9988 8.53385 77.9181 8.41406H77.8712C77.879 8.51562 77.8881 8.63802 77.8985 8.78125C77.9116 8.92448 77.9181 9.04948 77.9181 9.15625V10.9141H77.2657V4.71875H77.8009L77.8868 5.35156H77.9181C78.0014 5.22135 78.103 5.10286 78.2228 4.99609C78.3426 4.88672 78.4884 4.80078 78.6603 4.73828C78.8347 4.67318 79.0405 4.64062 79.2775 4.64062ZM79.1642 5.1875C78.8673 5.1875 78.6277 5.24479 78.4454 5.35938C78.2657 5.47396 78.1342 5.64583 78.0509 5.875C77.9676 6.10156 77.9233 6.38672 77.9181 6.73047V6.85547C77.9181 7.21745 77.9571 7.52344 78.0353 7.77344C78.116 8.02344 78.2475 8.21354 78.4298 8.34375C78.6147 8.47396 78.8621 8.53906 79.172 8.53906C79.4376 8.53906 79.659 8.46745 79.836 8.32422C80.0131 8.18099 80.1446 7.98177 80.2306 7.72656C80.3191 7.46875 80.3634 7.17318 80.3634 6.83984C80.3634 6.33464 80.2644 5.93359 80.0665 5.63672C79.8712 5.33724 79.5704 5.1875 79.1642 5.1875Z" fill="#666666"/>
<path d="M83.6657 4.64844C84.1762 4.64844 84.5551 4.76302 84.8025 4.99219C85.0498 5.22135 85.1735 5.58724 85.1735 6.08984V9H84.7009L84.5759 8.36719H84.5446C84.4248 8.52344 84.2998 8.65495 84.1696 8.76172C84.0394 8.86589 83.8884 8.94531 83.7165 9C83.5472 9.05208 83.3389 9.07812 83.0915 9.07812C82.8311 9.07812 82.5993 9.03255 82.3962 8.94141C82.1957 8.85026 82.0368 8.71224 81.9196 8.52734C81.8051 8.34245 81.7478 8.10807 81.7478 7.82422C81.7478 7.39714 81.917 7.06901 82.2556 6.83984C82.5941 6.61068 83.1097 6.48568 83.8025 6.46484L84.5407 6.43359V6.17188C84.5407 5.80208 84.4613 5.54297 84.3025 5.39453C84.1436 5.24609 83.9196 5.17188 83.6306 5.17188C83.4066 5.17188 83.1931 5.20443 82.99 5.26953C82.7868 5.33464 82.5941 5.41146 82.4118 5.5L82.2126 5.00781C82.4053 4.90885 82.6267 4.82422 82.8767 4.75391C83.1267 4.68359 83.3897 4.64844 83.6657 4.64844ZM84.5329 6.89062L83.8806 6.91797C83.3467 6.9388 82.9704 7.02604 82.7517 7.17969C82.5329 7.33333 82.4235 7.55078 82.4235 7.83203C82.4235 8.07682 82.4978 8.25781 82.6462 8.375C82.7946 8.49219 82.9913 8.55078 83.236 8.55078C83.6163 8.55078 83.9275 8.44531 84.1696 8.23438C84.4118 8.02344 84.5329 7.70703 84.5329 7.28516V6.89062Z" fill="#666666"/>
<path d="M88.4368 4.64062C88.9446 4.64062 89.3288 4.76562 89.5892 5.01562C89.8496 5.26302 89.9798 5.66146 89.9798 6.21094V9H89.3392V6.25391C89.3392 5.89714 89.2571 5.63021 89.0931 5.45312C88.9316 5.27604 88.6829 5.1875 88.347 5.1875C87.873 5.1875 87.5397 5.32161 87.347 5.58984C87.1543 5.85807 87.0579 6.2474 87.0579 6.75781V9H86.4095V4.71875H86.9329L87.0306 5.33594H87.0657C87.1569 5.1849 87.2728 5.05859 87.4134 4.95703C87.554 4.85286 87.7116 4.77474 87.886 4.72266C88.0605 4.66797 88.2441 4.64062 88.4368 4.64062Z" fill="#666666"/>
<path d="M90.54 4.71875H91.2353L92.1806 7.20312C92.2353 7.34896 92.286 7.48958 92.3329 7.625C92.3798 7.75781 92.4215 7.88542 92.4579 8.00781C92.4944 8.13021 92.523 8.2487 92.5439 8.36328H92.5712C92.6077 8.23307 92.6597 8.0625 92.7275 7.85156C92.7952 7.63802 92.8681 7.42057 92.9462 7.19922L93.8407 4.71875H94.54L92.6767 9.62891C92.5777 9.89193 92.4618 10.1211 92.329 10.3164C92.1988 10.5117 92.04 10.6615 91.8525 10.7656C91.665 10.8724 91.4384 10.9258 91.1728 10.9258C91.0504 10.9258 90.9423 10.918 90.8485 10.9023C90.7548 10.8893 90.6741 10.8737 90.6064 10.8555V10.3359C90.6637 10.349 90.7327 10.3607 90.8134 10.3711C90.8967 10.3815 90.9827 10.3867 91.0712 10.3867C91.2327 10.3867 91.372 10.3555 91.4892 10.293C91.609 10.2331 91.7118 10.1445 91.7978 10.0273C91.8837 9.91016 91.9579 9.77083 92.0204 9.60938L92.2548 9.00781L90.54 4.71875Z" fill="#666666"/>
</svg>
