<svg xmlns="http://www.w3.org/2000/svg" width="144" height="144" viewBox="0 0 144 144"><defs><style>.a{fill:#010101;}</style></defs><title>test</title><path class="a" d="M72.23,55.33C45.73,55.33,25,43.18,25,27.67S45.73,0,72.23,0,119.5,12.15,119.5,27.67,98.74,55.33,72.23,55.33ZM72.23,4C48.38,4,29,14.62,29,27.67S48.38,51.33,72.23,51.33,115.5,40.72,115.5,27.67,96.09,4,72.23,4Z"/><path class="a" d="M72,144c-26.36,0-47-12.15-47-27.67V53a2,2,0,0,1,4,0v63.33c0,13,19.29,23.67,43,23.67s43-10.62,43-23.67V52a2,2,0,0,1,4,0v64.33C119,131.85,98.36,144,72,144Z"/><path class="a" d="M79,114.92a2,2,0,0,1-2-2V68a2,2,0,0,1,4,0v42.72c20-2.19,34.85-12,34.85-23.35a2,2,0,0,1,4,0c0,14.06-17.11,25.64-40.69,27.54H79Z"/><path class="a" d="M72,70.27C42.21,70.27,18,55.34,18,37c0-7.25,3.66-14.11,10.58-19.86a2,2,0,0,1,2.55,3.08C25.13,25.18,22,31,22,37c0,16.14,22.44,29.27,50,29.27S122,53.14,122,37c0-5.68-2.84-11.21-8.22-16a2,2,0,0,1,2.66-3c6.25,5.56,9.56,12.12,9.56,19C126,55.34,101.79,70.27,72,70.27Z"/></svg>