<?xml version="1.0" encoding="UTF-8"?>
<svg width="35px" height="36px" viewBox="0 0 35 36" version="1.1" xmlns="http://www.w3.org/2000/svg" xmlns:xlink="http://www.w3.org/1999/xlink">
    <!-- Generator: Sketch 50.2 (55047) - http://www.bohemiancoding.com/sketch -->
    <title>Artboard 1 Copy 11</title>
    <desc>Created with Sketch.</desc>
    <defs></defs>
    <g id="Artboard-1-Copy-11" stroke="none" stroke-width="1" fill="none" fill-rule="evenodd">
        <g id="Group" transform="translate(2.000000, 0.000000)" fill="#666666" fill-rule="nonzero">
            <path d="M6,21 C5.44771525,21 5,21.4477153 5,22 L5,34 C5,34.5522847 5.44771525,35 6,35 L25,35 C25.5522847,35 26,34.5522847 26,34 L26,22 C26,21.4477153 25.5522847,21 25,21 L6,21 Z M5.00088501,20.2670527 C5.29485829,20.0971991 5.63607811,20 6,20 L25,20 C25.3661467,20 25.709313,20.0983912 26.0045013,20.2701761 L26.0045013,14.0036151 C26.0045013,8.4807676 21.5273488,4.0036151 16.0045013,4.0036151 L15.000885,4.0036151 C9.47803751,4.0036151 5.00088501,8.4807676 5.00088501,14.0036151 L5.00088501,20.2670527 Z M27,22.1479466 L27,34 C27,35.1045695 26.1045695,36 25,36 L6,36 C4.8954305,36 4,35.1045695 4,34 L4,22 C4,21.9799043 4.00029638,21.9598779 4.00088501,21.9399248 L4.00088501,14.0036151 C4.00088501,7.92848285 8.92575276,3.0036151 15.000885,3.0036151 L16.0045013,3.0036151 C22.0796336,3.0036151 27.0045013,7.92848285 27.0045013,14.0036151 L27.0045013,22.1479466 L27,22.1479466 Z M23.0045013,16.0012054 L23.0045013,14.5054233 C23.0045013,10.362289 19.6458274,7.0036151 15.5026932,7.0036151 C11.3595589,7.0036151 8.00088501,10.362289 8.00088501,14.5054233 L8.00088501,16.0012054 L7.00088501,16.0012054 L7.00088501,14.5054233 C7.00088501,9.81000427 10.8072742,6.0036151 15.5026932,6.0036151 C20.1981122,6.0036151 24.0045013,9.81000427 24.0045013,14.5054233 L24.0045013,16.0012054 L23.0045013,16.0012054 Z M3.99905396,25.0054602 L3.99905396,24.0054602 L27.0001984,24.0054602 L27.0001984,25.0054602 L3.99905396,25.0054602 Z M17.0117054,24.9916146 L18.0117054,24.9916146 L18.0117054,27.3018292 C18.0117054,27.6884286 17.6983047,28.0018292 17.3117054,28.0018292 L13.7004021,28.0018292 C13.3138028,28.0018292 13.0004021,27.6884286 13.0004021,27.3018292 L13.0004021,24.9916146 L14.0004021,24.9916146 L14.0004021,27.0018292 L17.0117054,27.0018292 L17.0117054,24.9916146 Z M12,3.98922271 L12,2.5 C12,1.11928813 13.1192881,0 14.5,0 L16.5052553,0 C17.8859671,8.8817842e-16 19.0052553,1.11928813 19.0052553,2.5 L19.0052553,3.98922271 L18.0052553,3.98922271 L18.0052553,2.5 C18.0052553,1.67157288 17.3336824,1 16.5052553,1 L14.5,1 C13.6715729,1 13,1.67157288 13,2.5 L13,3.98922271 L12,3.98922271 Z M26,22 L28.519082,22 C29.3475091,22 30.019082,22.6715729 30.019082,23.5 L30.019082,28.5117074 C30.019082,29.3401345 29.3475091,30.0117074 28.519082,30.0117074 L26,30.0117074 L26,29.0117074 L28.519082,29.0117074 C28.7952243,29.0117074 29.019082,28.7878497 29.019082,28.5117074 L29.019082,23.5 C29.019082,23.2238576 28.7952243,23 28.519082,23 L26,23 L26,22 Z M4.95317109,21.9902782 L4.95317109,22.9902782 L2.48309531,22.9902782 C2.20695293,22.9902782 1.98309531,23.2141358 1.98309531,23.4902782 L1.98309531,28.5019856 C1.98309531,28.778128 2.20695293,29.0019856 2.48309531,29.0019856 L4.95317109,29.0019856 L4.95317109,30.0019856 L2.48309531,30.0019856 C1.65466818,30.0019856 0.983095307,29.3304127 0.983095307,28.5019856 L0.983095307,23.4902782 C0.983095307,22.661851 1.65466818,21.9902782 2.48309531,21.9902782 L4.95317109,21.9902782 Z" id="Combined-Shape"></path>
        </g>
    </g>
</svg>