<?xml version="1.0" encoding="UTF-8"?>
<svg width="137px" height="100px" viewBox="0 0 137 100" version="1.1" xmlns="http://www.w3.org/2000/svg" xmlns:xlink="http://www.w3.org/1999/xlink">
    <!-- Generator: Sketch 52.5 (67469) - http://www.bohemiancoding.com/sketch -->
    <title>Group 23</title>
    <desc>Created with Sketch.</desc>
    <g id="Page-1" stroke="none" stroke-width="1" fill="none" fill-rule="evenodd">
        <g id="Group-23" fill="#333333" fill-rule="nonzero">
            <path d="M4,80.0003912 C4,81.1049607 3.1045695,82.0003912 2,82.0003912 C0.8954305,82.0003912 -2.84217094e-14,81.1049607 -2.84217094e-14,80.0003912 L-2.84217094e-14,27.7963095 C-2.84217094e-14,26.9825394 0.49306178,26.2499075 1.24694244,25.9434997 C1.62678424,25.7891164 2.00485615,25.6354548 2.38115821,25.4825146 C2.69180418,25.2293382 3.07279554,25.0747092 3.47146051,25.0393902 C36.7486892,11.5149364 55.9291334,3.73743867 61.0254252,1.70180161 C66.7078407,-0.567953744 72.3782352,-0.567953744 77.9151366,1.70592366 L135.752114,25.1789297 C137.393634,25.8451367 137.422527,28.1589678 135.798155,28.865957 C106.102279,41.7907446 87.7747136,49.8547277 80.8389401,53.0472806 C73.3521917,56.4934485 65.8463241,56.4934485 58.5380813,53.0648192 L4,29.3665046 L4,80.0003912 Z M60.1844113,49.4197794 C66.4730417,52.3692822 72.7455308,52.3692822 79.166411,49.413736 C85.7907191,46.3645513 102.675597,38.9286324 129.841185,27.0968649 L76.4032493,5.40918279 C71.8263853,3.52958586 67.2329659,3.52958586 62.5091783,5.41643171 C57.6284203,7.36597702 39.7615133,14.6096606 8.91962234,27.1429786 L60.1844113,49.4197794 Z" id="Path-2"></path>
            <path d="M110,38 C110,36.8954305 110.895431,36 112,36 C113.104569,36 114,36.8954305 114,38 L114,85.7487319 C114,86.3933706 113.689281,86.9984877 113.165388,87.3741149 C102.680433,94.891756 88.5380895,99.0484275 70.7701315,99.8925222 C52.9478169,100.739199 36.9736863,96.5823369 22.9087388,87.4247835 C22.3418916,87.0557147 22,86.4251396 22,85.7487319 L22,38 C22,36.8954305 22.8954305,36 24,36 C25.1045695,36 26,36.8954305 26,38 L26,84.6552632 C39.1262591,92.9398833 53.9673815,96.6862519 70.5803193,95.8970283 C87.1528017,95.1097266 100.282973,91.3653454 110,84.7083103 L110,38 Z" id="Path-3"></path>
            <path d="M4,89.9182385 C4,91.022808 3.1045695,91.9182385 2,91.9182385 C0.8954305,91.9182385 0,91.022808 0,89.9182385 L0,87 C0,85.8954305 0.8954305,85 2,85 C3.1045695,85 4,85.8954305 4,87 L4,89.9182385 Z" id="Path-4"></path>
        </g>
    </g>
</svg>