<svg width="16" height="13" viewBox="0 0 16 13" fill="none" xmlns="http://www.w3.org/2000/svg">
<path d="M11.4199 12.14C9.31995 12.14 7.61328 10.4333 7.61328 8.33333C7.61328 6.48667 8.95995 4.91333 10.7733 4.6V2.2L10.0466 2.92667C9.92661 3.04667 9.75995 3.12 9.58661 3.12C9.41328 3.12 9.25328 3.05333 9.12661 2.92667C8.87328 2.67333 8.87328 2.26 9.12661 2.00667L10.9799 0.18C11.0733 0.0733333 11.2466 0 11.4199 0C11.5999 0 11.7666 0.0733333 11.8933 0.206667L13.7133 2.00667C13.8333 2.12667 13.8999 2.29333 13.8999 2.46667C13.8999 2.64 13.8333 2.8 13.7133 2.92667C13.5933 3.04667 13.4266 3.12 13.2533 3.12C13.0799 3.12 12.9199 3.05333 12.7933 2.92667L12.0733 2.2V4.6C13.8866 4.91333 15.2333 6.48667 15.2333 8.33333C15.2266 10.4333 13.5199 12.14 11.4199 12.14ZM11.4199 5.82C10.0399 5.82 8.91328 6.94667 8.91328 8.32667C8.91328 9.70667 10.0399 10.8333 11.4199 10.8333C12.7999 10.8333 13.9266 9.70667 13.9266 8.32667C13.9266 6.94667 12.8066 5.82 11.4199 5.82Z" fill="#FFC000"/>
<path d="M4.51366 12.1467C4.15366 12.1467 3.86699 11.8533 3.86699 11.5V10.54H3.12033C2.76033 10.54 2.47366 10.2467 2.47366 9.89333C2.47366 9.53333 2.76699 9.24667 3.12033 9.24667H3.86033V7.55333C2.02699 7.25333 0.666992 5.67333 0.666992 3.80667C0.666992 1.70667 2.37366 0 4.47366 0C6.57366 0 8.28033 1.70667 8.28033 3.80667C8.28033 5.63333 6.95366 7.20667 5.16033 7.53333V9.23333H5.82699C6.18699 9.23333 6.47366 9.52667 6.47366 9.88C6.47366 10.24 6.18033 10.5267 5.82699 10.5267H5.16033V11.4867C5.16033 11.86 4.86699 12.1467 4.51366 12.1467ZM4.47366 1.3C3.09366 1.3 1.96699 2.42667 1.96699 3.80667C1.96699 5.18667 3.09366 6.31333 4.47366 6.31333C5.85366 6.31333 6.98033 5.18667 6.98033 3.80667C6.98033 2.42667 5.86033 1.3 4.47366 1.3Z" fill="#FFC000"/>
<path d="M8.08052 3.80662C8.08052 1.81995 6.46052 0.199951 4.47385 0.199951C2.48719 0.199951 0.867188 1.81995 0.867188 3.80662C0.867188 5.65328 2.26719 7.16662 4.06052 7.37328V9.43328H3.12052C2.87385 9.43995 2.66719 9.63995 2.66719 9.88662C2.66719 10.1333 2.86719 10.34 3.12052 10.34H4.06052V11.5C4.06052 11.7466 4.26052 11.9533 4.51385 11.9533C4.76052 11.9533 4.96719 11.7533 4.96719 11.5V10.34H5.83385C6.08052 10.34 6.28719 10.14 6.28719 9.88662C6.28719 9.63328 6.08719 9.43328 5.83385 9.43328H4.96719V7.36662C6.72052 7.12662 8.08052 5.63328 8.08052 3.80662ZM1.76719 3.80662C1.76719 2.31328 2.98052 1.09995 4.47385 1.09995C5.96719 1.09995 7.18052 2.31328 7.18052 3.80662C7.18052 5.29995 5.96719 6.51328 4.47385 6.51328C2.98052 6.51328 1.76719 5.29995 1.76719 3.80662Z" fill="#FFC000"/>
</svg>
