<?xml version="1.0" encoding="UTF-8"?>
<svg width="130px" height="146px" viewBox="0 0 130 146" version="1.1" xmlns="http://www.w3.org/2000/svg" xmlns:xlink="http://www.w3.org/1999/xlink">
    <!-- Generator: Sketch 52.5 (67469) - http://www.bohemiancoding.com/sketch -->
    <title>Group 28</title>
    <desc>Created with Sketch.</desc>
    <g id="Page-1" stroke="none" stroke-width="1" fill="none" fill-rule="evenodd">
        <g id="Group-28" fill="#979797" fill-rule="nonzero">
            <path d="M4,95 L4,102 L126,102 L126,95 L4,95 Z M2,91 L128,91 C129.104569,91 130,91.8954305 130,93 L130,104 C130,105.104569 129.104569,106 128,106 L2,106 C0.8954305,106 0,105.104569 0,104 L0,93 C0,91.8954305 0.8954305,91 2,91 Z" id="Path-16-Copy-18"></path>
            <path d="M14,106 L14,131 L28,131 L28,106 L14,106 Z M12,102 L30,102 C31.1045695,102 32,102.895431 32,104 L32,133 C32,134.104569 31.1045695,135 30,135 L12,135 C10.8954305,135 10,134.104569 10,133 L10,104 C10,102.895431 10.8954305,102 12,102 Z" id="Path-16-Copy-19"></path>
            <path d="M31,106 L31,131 L45,131 L45,106 L31,106 Z M29,102 L47,102 C48.1045695,102 49,102.895431 49,104 L49,133 C49,134.104569 48.1045695,135 47,135 L29,135 C27.8954305,135 27,134.104569 27,133 L27,104 C27,102.895431 27.8954305,102 29,102 Z" id="Path-16-Copy-20"></path>
            <path d="M31,76 L31,90 L45,90 L45,76 L31,76 Z M29,72 L47,72 C48.1045695,72 49,72.8954305 49,74 L49,92 C49,93.1045695 48.1045695,94 47,94 L29,94 C27.8954305,94 27,93.1045695 27,92 L27,74 C27,72.8954305 27.8954305,72 29,72 Z" id="Path-16-Copy-21"></path>
            <path d="M49,76 L49,90 L63,90 L63,76 L49,76 Z M47,72 L65,72 C66.1045695,72 67,72.8954305 67,74 L67,92 C67,93.1045695 66.1045695,94 65,94 L47,94 C45.8954305,94 45,93.1045695 45,92 L45,74 C45,72.8954305 45.8954305,72 47,72 Z" id="Path-16-Copy-22"></path>
            <path d="M66,76 L66,90 L80,90 L80,76 L66,76 Z M64,72 L82,72 C83.1045695,72 84,72.8954305 84,74 L84,92 C84,93.1045695 83.1045695,94 82,94 L64,94 C62.8954305,94 62,93.1045695 62,92 L62,74 C62,72.8954305 62.8954305,72 64,72 Z" id="Path-16-Copy-23"></path>
            <path d="M84,76 L84,90 L98,90 L98,76 L84,76 Z M82,72 L100,72 C101.104569,72 102,72.8954305 102,74 L102,92 C102,93.1045695 101.104569,94 100,94 L82,94 C80.8954305,94 80,93.1045695 80,92 L80,74 C80,72.8954305 80.8954305,72 82,72 Z" id="Path-16-Copy-24"></path>
            <path d="M49,106 L49,131 L63,131 L63,106 L49,106 Z M47,102 L65,102 C66.1045695,102 67,102.895431 67,104 L67,133 C67,134.104569 66.1045695,135 65,135 L47,135 C45.8954305,135 45,134.104569 45,133 L45,104 C45,102.895431 45.8954305,102 47,102 Z" id="Path-16-Copy-25"></path>
            <path d="M66,106 L66,131 L80,131 L80,106 L66,106 Z M64,102 L82,102 C83.1045695,102 84,102.895431 84,104 L84,133 C84,134.104569 83.1045695,135 82,135 L64,135 C62.8954305,135 62,134.104569 62,133 L62,104 C62,102.895431 62.8954305,102 64,102 Z" id="Path-16-Copy-26"></path>
            <path d="M83,106 L83,131 L97,131 L97,106 L83,106 Z M81,102 L99,102 C100.104569,102 101,102.895431 101,104 L101,133 C101,134.104569 100.104569,135 99,135 L81,135 C79.8954305,135 79,134.104569 79,133 L79,104 C79,102.895431 79.8954305,102 81,102 Z" id="Path-16-Copy-27"></path>
            <path d="M101,106 L101,131 L115,131 L115,106 L101,106 Z M99,102 L117,102 C118.104569,102 119,102.895431 119,104 L119,133 C119,134.104569 118.104569,135 117,135 L99,135 C97.8954305,135 97,134.104569 97,133 L97,104 C97,102.895431 97.8954305,102 99,102 Z" id="Path-16-Copy-28"></path>
            <path d="M4,135 L4,142 L126,142 L126,135 L4,135 Z M2,131 L128,131 C129.104569,131 130,131.895431 130,133 L130,144 C130,145.104569 129.104569,146 128,146 L2,146 C0.8954305,146 0,145.104569 0,144 L0,133 C0,131.895431 0.8954305,131 2,131 Z" id="Path-16-Copy-29"></path>
            <path d="M21,65 L21,72 L108,72 L108,65 L21,65 Z M19,61 L110,61 C111.104569,61 112,61.8954305 112,63 L112,74 C112,75.1045695 111.104569,76 110,76 L19,76 C17.8954305,76 17,75.1045695 17,74 L17,63 C17,61.8954305 17.8954305,61 19,61 Z" id="Path-16-Copy-30"></path>
            <path d="M67,4 L67,16 L92,16 L92,4 L67,4 Z M65,0 L94,0 C95.1045695,0 96,0.8954305 96,2 L96,18 C96,19.1045695 95.1045695,20 94,20 L65,20 C63.8954305,20 63,19.1045695 63,18 L63,2 C63,0.8954305 63.8954305,0 65,0 Z" id="Path-16-Copy-31"></path>
            <path d="M34.1141326,62.5000264 L30.2392107,63.4924879 C29.1885947,59.39051 31.4891519,51.1562649 36.0378326,44.7486214 C42.1280156,36.1694917 51.5024992,31 63.8643812,31 C76.2523953,31 85.7496186,36.0621328 91.9091715,44.4634066 C96.6462034,50.9244441 98.9263958,59.164538 97.6698401,63.5507954 L93.8245185,62.4492046 C94.6962884,59.4061189 92.7511485,52.3768283 88.6832986,46.8285164 C83.2598802,39.4312875 74.9462052,35 63.8643812,35 C52.8410693,35 44.6617355,39.510435 39.2995438,47.0640566 C35.3740457,52.5938342 33.3930003,59.6844698 34.1141326,62.5000264 Z" id="Path-18-Copy"></path>
            <polygon id="Path-19-Copy" points="62.5 2 66.5 2 66.5 33 62.5 33"></polygon>
        </g>
    </g>
</svg>