<?xml version="1.0" encoding="UTF-8"?>
<svg width="34px" height="38px" viewBox="0 0 34 38" version="1.1" xmlns="http://www.w3.org/2000/svg" xmlns:xlink="http://www.w3.org/1999/xlink">
    <!-- Generator: Sketch 50.2 (55047) - http://www.bohemiancoding.com/sketch -->
    <title>government_jobs</title>
    <desc>Created with Sketch.</desc>
    <defs></defs>
    <g id="Page-1" stroke="none" stroke-width="1" fill="none" fill-rule="evenodd">
        <g id="Artboard-1-Copy-7" transform="translate(-6.000000, -5.000000)" fill="#666666" fill-rule="nonzero">
            <g id="government_jobs" transform="translate(5.000000, 4.000000)">
                <g id="Group-7-Copy" transform="translate(0.922362, 0.494882)">
                    <path d="M1.08618786,24.5051786 L1.08618786,26.5095165 L32.0843101,26.5095165 L32.0843101,24.5051786 L1.08618786,24.5051786 Z M17.0782896,8.74841747 C21.6696254,8.84166875 25.0273558,11.5338662 25.3169277,15.506952 L28.0810922,15.506952 C28.6333769,15.506952 29.0810922,15.9546673 29.0810922,16.506952 L29.0810922,18.5114677 C29.0810922,19.0637524 28.6333769,19.5114677 28.0810922,19.5114677 L25.0829075,19.5114677 L25.0829075,23.5051786 L32.0843101,23.5051786 C32.6365949,23.5051786 33.0843101,23.9528939 33.0843101,24.5051786 L33.0843101,26.5095165 C33.0843101,27.0618013 32.6365949,27.5095165 32.0843101,27.5095165 L29.0829075,27.5095165 L29.0829075,33.5051786 L32.0843101,33.5051786 C32.6365949,33.5051786 33.0843101,33.9528939 33.0843101,34.5051786 L33.0843101,36.5095165 C33.0843101,37.0618013 32.6365949,37.5095165 32.0843101,37.5095165 L1.08618786,37.5095165 C0.533903108,37.5095165 0.0861878581,37.0618013 0.0861878581,36.5095165 L0.0861878581,34.5051786 C0.0861878581,33.9528939 0.533903108,33.5051786 1.08618786,33.5051786 L4.09018557,33.5051786 L4.09018557,27.5095165 L1.08618786,27.5095165 C0.533903108,27.5095165 0.0861878581,27.0618013 0.0861878581,26.5095165 L0.0861878581,24.5051786 C0.0861878581,23.9528939 0.533903108,23.5051786 1.08618786,23.5051786 L8.09018557,23.5051786 L8.09018557,19.5114677 L5.08052228,19.5114677 C4.52823753,19.5114677 4.08052228,19.0637524 4.08052228,18.5114677 L4.08052228,16.506952 C4.08052228,15.9546673 4.52823753,15.506952 5.08052228,15.506952 L8.34276842,15.506952 C8.62177929,11.6814947 11.7471442,9.04312453 16.0782907,8.76944763 L16.0778937,1.50607888 C16.0778937,0.953794131 16.5256089,0.506078881 17.0778937,0.506078881 L23.0837509,0.51191121 C23.6357103,0.51237074 24.0829183,0.959951214 24.0829183,1.51184135 L24.0833348,4.50749795 C24.0833348,5.0597827 23.6356195,5.50749795 23.0833348,5.50749795 L17.0781124,5.50749795 L17.0782896,8.74841747 Z M9.34614314,15.506952 L24.3135588,15.506952 C24.0200335,12.060022 21.0243172,9.7459156 16.8311251,9.7459156 C12.6373935,9.7459156 9.63988334,12.0604299 9.34614314,15.506952 Z M4.09018557,34.5051786 L1.08618786,34.5051786 L1.08618786,36.5095165 L32.0843101,36.5095165 L32.0843101,34.5051786 L29.0829075,34.5051786 L24.0901856,34.5055219 L20.0901856,34.5055219 L16.0901856,34.5055219 L13.0829075,34.5055219 L9.08290752,34.5055219 L4.09018557,34.5055219 Z M5.08052228,16.506952 L5.08052228,18.5114677 L28.0810922,18.5114677 L28.0810922,16.506952 L5.08052228,16.506952 Z M13.0901856,23.5055219 L16.0829075,23.5055219 L16.0829075,19.5124835 L13.0901856,19.5124835 L13.0901856,23.5055219 Z M17.0901856,23.5055219 L20.0829075,23.5055219 L20.0829075,19.5124835 L17.0901856,19.5124835 L17.0901856,23.5055219 Z M21.0901856,23.5055219 L24.0829075,23.5055219 L24.0829075,19.5124835 L21.0901856,19.5124835 L21.0901856,23.5055219 Z M9.09018557,23.5055219 L12.0829075,23.5055219 L12.0829075,19.5124835 L9.09018557,19.5124835 L9.09018557,23.5055219 Z M13.0901856,33.5055219 L16.0829075,33.5055219 L16.0829075,27.5124835 L13.0901856,27.5124835 L13.0901856,33.5055219 Z M17.0901856,33.5055219 L20.0829075,33.5055219 L20.0829075,27.5124835 L17.0901856,27.5124835 L17.0901856,33.5055219 Z M21.0901856,33.5055219 L24.0829075,33.5055219 L24.0829075,27.5124835 L21.0901856,27.5124835 L21.0901856,33.5055219 Z M25.0901856,33.5055219 L28.0829075,33.5055219 L28.0829075,27.5124835 L25.0901856,27.5124835 L25.0901856,33.5055219 Z M9.09018557,33.5055219 L12.0829075,33.5055219 L12.0829075,27.5124835 L9.09018557,27.5124835 L9.09018557,33.5055219 Z M5.09018557,33.5055219 L8.08290752,33.5055219 L8.08290752,27.5124835 L5.09018557,27.5124835 L5.09018557,33.5055219 Z M17.0780577,4.50749795 L23.0833348,4.50749795 L23.0829183,1.51191086 L17.0778937,1.50606521 L17.0780577,4.50749795 Z" id="Combined-Shape"></path>
                </g>
            </g>
        </g>
    </g>
</svg>