<svg width="12" height="12" viewBox="0 0 12 12" fill="none" xmlns="http://www.w3.org/2000/svg">
<path fill-rule="evenodd" clip-rule="evenodd" d="M0 6.00013C0 2.69174 2.6918 0 6 0C9.3082 0 12 2.69174 12 6.00013C12 9.30826 9.3082 12 6 12C2.6918 12 0 9.30826 0 6.00013ZM8.71347 3.9791C8.47855 3.74419 8.09677 3.74419 7.86074 3.97888L5.09902 6.74166L4.13829 5.78067C3.90332 5.5457 3.52137 5.5457 3.28641 5.78066C3.05032 6.01675 3.05032 6.39887 3.28664 6.63384L4.67265 8.02095C4.78799 8.1353 4.94044 8.19713 5.09903 8.19713C5.25683 8.19713 5.41021 8.13511 5.52519 8.02143L8.71348 4.83205C8.94952 4.59601 8.94952 4.21515 8.71347 3.9791Z" fill="#18C1A3"/>
</svg>
