<svg width="6" height="10" viewBox="0 0 6 10" fill="none" xmlns="http://www.w3.org/2000/svg">
<path d="M5.36003 4.52661L1.5867 0.759943C1.52472 0.697457 1.45099 0.647861 1.36975 0.614016C1.28851 0.58017 1.20137 0.562744 1.11336 0.562744C1.02535 0.562744 0.938217 0.58017 0.856977 0.614016C0.775738 0.647861 0.702004 0.697457 0.640029 0.759943C0.515861 0.884851 0.446167 1.05382 0.446167 1.22994C0.446167 1.40607 0.515861 1.57503 0.640029 1.69994L3.94003 5.03328L0.640029 8.33327C0.515861 8.45818 0.446167 8.62715 0.446167 8.80328C0.446167 8.9794 0.515861 9.14837 0.640029 9.27327C0.701772 9.33627 0.775402 9.38638 0.856652 9.42071C0.937902 9.45504 1.02516 9.47291 1.11336 9.47327C1.20157 9.47291 1.28882 9.45504 1.37007 9.42071C1.45132 9.38638 1.52495 9.33627 1.5867 9.27327L5.36003 5.50661C5.4277 5.44418 5.4817 5.36841 5.51864 5.28408C5.55558 5.19975 5.57465 5.10868 5.57465 5.01661C5.57465 4.92454 5.55558 4.83347 5.51864 4.74914C5.4817 4.66481 5.4277 4.58904 5.36003 4.52661Z" fill="#8292B4"/>
</svg>
