<svg width="93" height="93" viewBox="0 0 93 93" fill="none" xmlns="http://www.w3.org/2000/svg">
<circle cx="46.5" cy="46.5" r="45.2499" fill="#EAF1F5" stroke="#D3E1EA" stroke-width="2.50013"/>
<path d="M64 68V63.3333C64 60.858 63.0167 58.484 61.2663 56.7337C59.516 54.9833 57.142 54 54.6667 54H38.3333C35.858 54 33.484 54.9833 31.7337 56.7337C29.9833 58.484 29 60.858 29 63.3333V68" stroke="#AAB6CE" stroke-width="3.6" stroke-linecap="round" stroke-linejoin="round"/>
<path d="M46.5 45C51.7467 45 56 40.7467 56 35.5C56 30.2533 51.7467 26 46.5 26C41.2533 26 37 30.2533 37 35.5C37 40.7467 41.2533 45 46.5 45Z" stroke="#AAB6CE" stroke-width="3.6" stroke-linecap="round" stroke-linejoin="round"/>
</svg>
