<svg width="16" height="16" viewBox="0 0 16 16" fill="none" xmlns="http://www.w3.org/2000/svg">
<path fill-rule="evenodd" clip-rule="evenodd" d="M1.66699 6.74238C1.66699 6.48415 1.78524 6.24014 1.98792 6.08013L7.4775 1.74625C7.78404 1.50425 8.21661 1.50425 8.52315 1.74625L14.0127 6.08013C14.2154 6.24014 14.3337 6.48415 14.3337 6.74238V13.8231C14.3337 14.2891 13.9559 14.6668 13.4899 14.6668H10.8441C10.3781 14.6668 10.0003 14.2891 10.0003 13.8231V8.84391C10.0003 8.37792 9.62257 8.00016 9.15658 8.00016H6.84408C6.37809 8.00016 6.00033 8.37792 6.00033 8.84391V13.8231C6.00033 14.2891 5.62257 14.6668 5.15658 14.6668H2.51074C2.04475 14.6668 1.66699 14.2891 1.66699 13.8231V6.74238Z" stroke="#445578" stroke-width="1.5"/>
</svg>
