<svg width="14" height="14" viewBox="0 0 14 14" fill="none" xmlns="http://www.w3.org/2000/svg">
<path d="M6.99998 6.33333C6.82317 6.33333 6.6536 6.40357 6.52858 6.52859C6.40355 6.65361 6.33332 6.82318 6.33332 7V9.66666C6.33332 9.84347 6.40355 10.013 6.52858 10.1381C6.6536 10.2631 6.82317 10.3333 6.99998 10.3333C7.17679 10.3333 7.34636 10.2631 7.47139 10.1381C7.59641 10.013 7.66665 9.84347 7.66665 9.66666V7C7.66665 6.82318 7.59641 6.65361 7.47139 6.52859C7.34636 6.40357 7.17679 6.33333 6.99998 6.33333ZM7.25332 3.72C7.09101 3.65332 6.90896 3.65332 6.74665 3.72C6.66481 3.75172 6.59005 3.7993 6.52665 3.85999C6.46776 3.9248 6.42041 3.99921 6.38665 4.07999C6.34933 4.15911 6.33106 4.24588 6.33332 4.33333C6.33281 4.42107 6.34963 4.50804 6.3828 4.58927C6.41598 4.67049 6.46486 4.74437 6.52665 4.80666C6.59145 4.86555 6.66586 4.9129 6.74665 4.94666C6.84765 4.98816 6.95729 5.00421 7.06595 4.9934C7.1746 4.9826 7.27894 4.94528 7.36979 4.88471C7.46064 4.82414 7.53523 4.74218 7.58699 4.64604C7.63875 4.5499 7.66611 4.44252 7.66665 4.33333C7.66419 4.15682 7.59514 3.98775 7.47332 3.85999C7.40991 3.7993 7.33515 3.75172 7.25332 3.72ZM6.99998 0.333328C5.68144 0.333328 4.39251 0.724321 3.29618 1.45686C2.19985 2.18941 1.34537 3.2306 0.840786 4.44877C0.336202 5.66695 0.204179 7.00739 0.461414 8.3006C0.718649 9.5938 1.35359 10.7817 2.28594 11.714C3.21829 12.6464 4.40617 13.2813 5.69938 13.5386C6.99259 13.7958 8.33303 13.6638 9.55121 13.1592C10.7694 12.6546 11.8106 11.8001 12.5431 10.7038C13.2757 9.60747 13.6666 8.31854 13.6666 7C13.6666 6.12452 13.4942 5.25761 13.1592 4.44877C12.8241 3.63993 12.3331 2.90501 11.714 2.28595C11.095 1.66689 10.36 1.17583 9.55121 0.840798C8.74237 0.505767 7.87546 0.333328 6.99998 0.333328ZM6.99998 12.3333C5.94515 12.3333 4.914 12.0205 4.03694 11.4345C3.15988 10.8485 2.47629 10.0155 2.07263 9.04097C1.66896 8.06643 1.56334 6.99408 1.76913 5.95951C1.97492 4.92495 2.48287 3.97464 3.22875 3.22876C3.97463 2.48288 4.92494 1.97493 5.9595 1.76914C6.99407 1.56335 8.06642 1.66897 9.04096 2.07264C10.0155 2.47631 10.8485 3.15989 11.4345 4.03695C12.0205 4.91402 12.3333 5.94516 12.3333 7C12.3333 8.41448 11.7714 9.77104 10.7712 10.7712C9.77102 11.7714 8.41447 12.3333 6.99998 12.3333Z" fill="#445578"/>
</svg>
