<?xml version="1.0" encoding="utf-8"?>
<!-- Generator: Adobe Illustrator 21.0.0, SVG Export Plug-In . SVG Version: 6.00 Build 0)  -->
<svg version="1.1" id="Layer_1" xmlns="http://www.w3.org/2000/svg" xmlns:xlink="http://www.w3.org/1999/xlink" x="0px" y="0px"
	 viewBox="0 0 54 54" style="enable-background:new 0 0 54 54;" xml:space="preserve">
<style type="text/css">
	.st0{fill:#010101;}
</style>
<g>
	<g>
		<path class="st0" d="M53,7H1C0.4,7,0,6.6,0,6s0.4-1,1-1h52c0.6,0,1,0.4,1,1S53.6,7,53,7z"/>
	</g>
	<g>
		<path class="st0" d="M37,21H1c-0.6,0-1-0.4-1-1s0.4-1,1-1h36c0.6,0,1,0.4,1,1S37.6,21,37,21z"/>
	</g>
	<g>
		<path class="st0" d="M53,35H1c-0.6,0-1-0.4-1-1s0.4-1,1-1h52c0.6,0,1,0.4,1,1S53.6,35,53,35z"/>
	</g>
	<g>
		<path class="st0" d="M32,49H1c-0.6,0-1-0.4-1-1s0.4-1,1-1h31c0.6,0,1,0.4,1,1S32.6,49,32,49z"/>
	</g>
</g>
</svg>
