<svg width="16" height="16" viewBox="0 0 16 16" fill="none" xmlns="http://www.w3.org/2000/svg">
<path d="M12.6663 4H10.6663V3.33333C10.6663 2.97971 10.5259 2.64057 10.2758 2.39052C10.0258 2.14048 9.68663 2 9.33301 2H6.66634C6.31272 2 5.97358 2.14048 5.72353 2.39052C5.47348 2.64057 5.33301 2.97971 5.33301 3.33333V4H3.33301C2.80257 4 2.29387 4.21071 1.91879 4.58579C1.54372 4.96086 1.33301 5.46957 1.33301 6V12C1.33301 12.5304 1.54372 13.0391 1.91879 13.4142C2.29387 13.7893 2.80257 14 3.33301 14H12.6663C13.1968 14 13.7055 13.7893 14.0806 13.4142C14.4556 13.0391 14.6663 12.5304 14.6663 12V6C14.6663 5.46957 14.4556 4.96086 14.0806 4.58579C13.7055 4.21071 13.1968 4 12.6663 4ZM6.66634 3.33333H9.33301V4H6.66634V3.33333ZM13.333 12C13.333 12.1768 13.2628 12.3464 13.1377 12.4714C13.0127 12.5964 12.8432 12.6667 12.6663 12.6667H3.33301C3.1562 12.6667 2.98663 12.5964 2.8616 12.4714C2.73658 12.3464 2.66634 12.1768 2.66634 12V8.26L5.78634 9.33333C5.85713 9.34294 5.92889 9.34294 5.99967 9.33333H9.99967C10.072 9.332 10.1437 9.32078 10.213 9.3L13.333 8.26V12ZM13.333 6.85333L9.89301 8H6.10634L2.66634 6.85333V6C2.66634 5.82319 2.73658 5.65362 2.8616 5.5286C2.98663 5.40357 3.1562 5.33333 3.33301 5.33333H12.6663C12.8432 5.33333 13.0127 5.40357 13.1377 5.5286C13.2628 5.65362 13.333 5.82319 13.333 6V6.85333Z" fill="#445578"/>
</svg>
