<svg width="14" height="14" viewBox="0 0 14 14" fill="none" xmlns="http://www.w3.org/2000/svg">
<path d="M12.2666 7.44C12.1598 7.31834 12.1008 7.16194 12.1008 7C12.1008 6.83806 12.1598 6.68166 12.2666 6.56L13.12 5.6C13.214 5.49511 13.2724 5.36314 13.2868 5.22301C13.3011 5.08287 13.2708 4.94179 13.2 4.82L11.8666 2.51333C11.7966 2.39168 11.6899 2.29525 11.5618 2.23779C11.4337 2.18033 11.2908 2.16477 11.1533 2.19333L9.89997 2.44667C9.74049 2.47962 9.57447 2.45306 9.43323 2.372C9.29199 2.29094 9.1853 2.16099 9.1333 2.00667L8.72664 0.786668C8.68191 0.654254 8.59671 0.539245 8.48306 0.457896C8.36941 0.376547 8.23307 0.332974 8.09331 0.333335H5.42664C5.28126 0.325747 5.13739 0.365952 5.01701 0.447811C4.89664 0.529669 4.80636 0.648681 4.75997 0.786668L4.38664 2.00667C4.33464 2.16099 4.22795 2.29094 4.08671 2.372C3.94547 2.45306 3.77945 2.47962 3.61997 2.44667L2.3333 2.19333C2.20301 2.17492 2.07017 2.19548 1.95154 2.25243C1.8329 2.30937 1.73377 2.40015 1.66664 2.51333L0.333305 4.82C0.260745 4.94043 0.22812 5.08072 0.240093 5.22082C0.252067 5.36091 0.308026 5.49363 0.399971 5.6L1.24664 6.56C1.35352 6.68166 1.41246 6.83806 1.41246 7C1.41246 7.16194 1.35352 7.31834 1.24664 7.44L0.399971 8.4C0.308026 8.50637 0.252067 8.63909 0.240093 8.77919C0.22812 8.91928 0.260745 9.05957 0.333305 9.18L1.66664 11.4867C1.7367 11.6083 1.84338 11.7048 1.97147 11.7622C2.09956 11.8197 2.24252 11.8352 2.37997 11.8067L3.6333 11.5533C3.79278 11.5204 3.95881 11.5469 4.10005 11.628C4.24129 11.7091 4.34797 11.839 4.39997 11.9933L4.80664 13.2133C4.85302 13.3513 4.9433 13.4703 5.06368 13.5522C5.18406 13.634 5.32793 13.6743 5.4733 13.6667H8.13997C8.27973 13.667 8.41608 13.6235 8.52972 13.5421C8.64337 13.4608 8.72858 13.3457 8.7733 13.2133L9.17997 11.9933C9.23197 11.839 9.33866 11.7091 9.4799 11.628C9.62114 11.5469 9.78716 11.5204 9.94664 11.5533L11.2 11.8067C11.3374 11.8352 11.4804 11.8197 11.6085 11.7622C11.7366 11.7048 11.8432 11.6083 11.9133 11.4867L13.2466 9.18C13.3174 9.05821 13.3478 8.91713 13.3334 8.777C13.3191 8.63687 13.2607 8.50489 13.1666 8.4L12.2666 7.44ZM11.2733 8.33333L11.8066 8.93333L10.9533 10.4133L10.1666 10.2533C9.68649 10.1552 9.18702 10.2367 8.76303 10.4825C8.33905 10.7283 8.02007 11.1212 7.86664 11.5867L7.61331 12.3333H5.90664L5.66664 11.5733C5.51321 11.1079 5.19423 10.715 4.77024 10.4692C4.34626 10.2234 3.84679 10.1419 3.36664 10.24L2.57997 10.4L1.7133 8.92667L2.24664 8.32667C2.57461 7.95999 2.75593 7.48529 2.75593 6.99333C2.75593 6.50138 2.57461 6.02668 2.24664 5.66L1.7133 5.06L2.56664 3.59333L3.3533 3.75333C3.83345 3.85148 4.33292 3.76992 4.75691 3.52413C5.18089 3.27835 5.49987 2.88544 5.6533 2.42L5.90664 1.66667H7.61331L7.86664 2.42667C8.02007 2.89211 8.33905 3.28501 8.76303 3.5308C9.18702 3.77659 9.68649 3.85815 10.1666 3.76L10.9533 3.6L11.8066 5.08L11.2733 5.68C10.949 6.04584 10.77 6.51779 10.77 7.00667C10.77 7.49555 10.949 7.96749 11.2733 8.33333ZM6.75997 4.33333C6.23255 4.33333 5.71698 4.48973 5.27845 4.78275C4.83992 5.07577 4.49813 5.49224 4.29629 5.97951C4.09446 6.46678 4.04165 7.00296 4.14454 7.52024C4.24744 8.03752 4.50141 8.51268 4.87435 8.88562C5.24729 9.25856 5.72245 9.51253 6.23973 9.61543C6.75701 9.71832 7.29319 9.66551 7.78046 9.46368C8.26773 9.26185 8.68421 8.92005 8.97722 8.48152C9.27024 8.04299 9.42664 7.52742 9.42664 7C9.42664 6.29276 9.14569 5.61448 8.64559 5.11438C8.14549 4.61429 7.46722 4.33333 6.75997 4.33333ZM6.75997 8.33333C6.49626 8.33333 6.23848 8.25514 6.01921 8.10863C5.79995 7.96212 5.62905 7.75388 5.52813 7.51025C5.42722 7.26661 5.40081 6.99852 5.45226 6.73988C5.50371 6.48124 5.63069 6.24366 5.81716 6.05719C6.00363 5.87072 6.24121 5.74373 6.49985 5.69229C6.75849 5.64084 7.02658 5.66724 7.27022 5.76816C7.51385 5.86908 7.72209 6.03998 7.8686 6.25924C8.01511 6.47851 8.09331 6.73629 8.09331 7C8.09331 7.35362 7.95283 7.69276 7.70278 7.94281C7.45273 8.19286 7.11359 8.33333 6.75997 8.33333Z" fill="#445578"/>
</svg>
