<svg width="24" height="24" viewBox="0 0 24 24" fill="none" xmlns="http://www.w3.org/2000/svg">
<path d="M3 8H21C21.2652 8 21.5196 7.89464 21.7071 7.70711C21.8946 7.51957 22 7.26522 22 7C22 6.73478 21.8946 6.48043 21.7071 6.29289C21.5196 6.10536 21.2652 6 21 6H3C2.73478 6 2.48043 6.10536 2.29289 6.29289C2.10536 6.48043 2 6.73478 2 7C2 7.26522 2.10536 7.51957 2.29289 7.70711C2.48043 7.89464 2.73478 8 3 8Z" fill="#8292B4"/>
<path d="M3 13.4H21C21.2652 13.4 21.5196 13.2946 21.7071 13.1071C21.8946 12.9196 22 12.6652 22 12.4C22 12.1348 21.8946 11.8804 21.7071 11.6929C21.5196 11.5054 21.2652 11.4 21 11.4H3C2.73478 11.4 2.48043 11.5054 2.29289 11.6929C2.10536 11.8804 2 12.1348 2 12.4C2 12.6652 2.10536 12.9196 2.29289 13.1071C2.48043 13.2946 2.73478 13.4 3 13.4Z" fill="#8292B4"/>
<path d="M3 18.8H15C15.2652 18.8 15.5196 18.6946 15.7071 18.5071C15.8946 18.3196 16 18.0652 16 17.8C16 17.5348 15.8946 17.2804 15.7071 17.0929C15.5196 16.9053 15.2652 16.8 15 16.8H3C2.73478 16.8 2.48043 16.9053 2.29289 17.0929C2.10536 17.2804 2 17.5348 2 17.8C2 18.0652 2.10536 18.3196 2.29289 18.5071C2.48043 18.6946 2.73478 18.8 3 18.8Z" fill="#8292B4"/>
</svg>
