<svg width="16" height="16" viewBox="0 0 16 16" fill="none" xmlns="http://www.w3.org/2000/svg">
<path d="M14.3269 6.79322L13.6602 6.42656L7.66024 3.09322H7.58691C7.54604 3.07594 7.50363 3.06255 7.46024 3.05322H7.33358H7.21358C7.16803 3.06256 7.12341 3.07594 7.08024 3.09322H7.00691L1.00691 6.42656C0.904312 6.4847 0.818973 6.56902 0.7596 6.67091C0.700227 6.77281 0.668945 6.88863 0.668945 7.00656C0.668945 7.12449 0.700227 7.2403 0.7596 7.3422C0.818973 7.44409 0.904312 7.52841 1.00691 7.58656L2.66691 8.50656V11.6666C2.66691 12.197 2.87762 12.7057 3.2527 13.0808C3.62777 13.4558 4.13648 13.6666 4.66691 13.6666H10.0002C10.5307 13.6666 11.0394 13.4558 11.4145 13.0808C11.7895 12.7057 12.0002 12.197 12.0002 11.6666V8.50656L13.3336 7.75989V9.66656C13.3336 9.84337 13.4038 10.0129 13.5288 10.138C13.6539 10.263 13.8234 10.3332 14.0002 10.3332C14.1771 10.3332 14.3466 10.263 14.4716 10.138C14.5967 10.0129 14.6669 9.84337 14.6669 9.66656V7.37322C14.6667 7.25509 14.6351 7.13914 14.5754 7.03723C14.5156 6.93531 14.4299 6.85111 14.3269 6.79322ZM10.6669 11.6666C10.6669 11.8434 10.5967 12.0129 10.4716 12.138C10.3466 12.263 10.1771 12.3332 10.0002 12.3332H4.66691C4.4901 12.3332 4.32053 12.263 4.19551 12.138C4.07048 12.0129 4.00024 11.8434 4.00024 11.6666V9.24656L7.00691 10.9132L7.10691 10.9532H7.16691C7.22225 10.9602 7.27824 10.9602 7.33358 10.9532C7.38891 10.9602 7.44491 10.9602 7.50024 10.9532H7.56024C7.59564 10.9458 7.62947 10.9322 7.66024 10.9132L10.6669 9.24656V11.6666ZM7.33358 9.57322L2.70691 6.99989L7.33358 4.42656L11.9602 6.99989L7.33358 9.57322Z" fill="#445578"/>
</svg>
