<svg width="16" height="16" viewBox="0 0 16 16" fill="none" xmlns="http://www.w3.org/2000/svg">
<path d="M9.33301 5.3335H9.99967C10.1765 5.3335 10.3461 5.26326 10.4711 5.13823C10.5961 5.01321 10.6663 4.84364 10.6663 4.66683C10.6663 4.49002 10.5961 4.32045 10.4711 4.19543C10.3461 4.0704 10.1765 4.00016 9.99967 4.00016H9.33301C9.1562 4.00016 8.98663 4.0704 8.8616 4.19543C8.73658 4.32045 8.66634 4.49002 8.66634 4.66683C8.66634 4.84364 8.73658 5.01321 8.8616 5.13823C8.98663 5.26326 9.1562 5.3335 9.33301 5.3335ZM9.33301 8.00016H9.99967C10.1765 8.00016 10.3461 7.92992 10.4711 7.8049C10.5961 7.67988 10.6663 7.51031 10.6663 7.3335C10.6663 7.15669 10.5961 6.98712 10.4711 6.86209C10.3461 6.73707 10.1765 6.66683 9.99967 6.66683H9.33301C9.1562 6.66683 8.98663 6.73707 8.8616 6.86209C8.73658 6.98712 8.66634 7.15669 8.66634 7.3335C8.66634 7.51031 8.73658 7.67988 8.8616 7.8049C8.98663 7.92992 9.1562 8.00016 9.33301 8.00016ZM5.99967 5.3335H6.66634C6.84315 5.3335 7.01272 5.26326 7.13775 5.13823C7.26277 5.01321 7.33301 4.84364 7.33301 4.66683C7.33301 4.49002 7.26277 4.32045 7.13775 4.19543C7.01272 4.0704 6.84315 4.00016 6.66634 4.00016H5.99967C5.82286 4.00016 5.65329 4.0704 5.52827 4.19543C5.40325 4.32045 5.33301 4.49002 5.33301 4.66683C5.33301 4.84364 5.40325 5.01321 5.52827 5.13823C5.65329 5.26326 5.82286 5.3335 5.99967 5.3335ZM5.99967 8.00016H6.66634C6.84315 8.00016 7.01272 7.92992 7.13775 7.8049C7.26277 7.67988 7.33301 7.51031 7.33301 7.3335C7.33301 7.15669 7.26277 6.98712 7.13775 6.86209C7.01272 6.73707 6.84315 6.66683 6.66634 6.66683H5.99967C5.82286 6.66683 5.65329 6.73707 5.52827 6.86209C5.40325 6.98712 5.33301 7.15669 5.33301 7.3335C5.33301 7.51031 5.40325 7.67988 5.52827 7.8049C5.65329 7.92992 5.82286 8.00016 5.99967 8.00016ZM13.9997 13.3335H13.333V2.00016C13.333 1.82335 13.2628 1.65378 13.1377 1.52876C13.0127 1.40373 12.8432 1.3335 12.6663 1.3335H3.33301C3.1562 1.3335 2.98663 1.40373 2.8616 1.52876C2.73658 1.65378 2.66634 1.82335 2.66634 2.00016V13.3335H1.99967C1.82286 13.3335 1.65329 13.4037 1.52827 13.5288C1.40325 13.6538 1.33301 13.8234 1.33301 14.0002C1.33301 14.177 1.40325 14.3465 1.52827 14.4716C1.65329 14.5966 1.82286 14.6668 1.99967 14.6668H13.9997C14.1765 14.6668 14.3461 14.5966 14.4711 14.4716C14.5961 14.3465 14.6663 14.177 14.6663 14.0002C14.6663 13.8234 14.5961 13.6538 14.4711 13.5288C14.3461 13.4037 14.1765 13.3335 13.9997 13.3335ZM8.66634 13.3335H7.33301V10.6668H8.66634V13.3335ZM11.9997 13.3335H9.99967V10.0002C9.99967 9.82335 9.92944 9.65378 9.80441 9.52876C9.67939 9.40373 9.50982 9.3335 9.33301 9.3335H6.66634C6.48953 9.3335 6.31996 9.40373 6.19494 9.52876C6.06991 9.65378 5.99967 9.82335 5.99967 10.0002V13.3335H3.99967V2.66683H11.9997V13.3335Z" fill="#445578"/>
</svg>
