<svg width="16" height="16" viewBox="0 0 16 16" fill="none" xmlns="http://www.w3.org/2000/svg">
<path d="M14.1997 6.72019C14.0123 6.49529 13.7779 6.31425 13.513 6.18984C13.2481 6.06543 12.959 6.00069 12.6663 6.00019H9.62634L9.99967 5.04686C10.155 4.62945 10.2067 4.1806 10.1504 3.73881C10.0941 3.29702 9.93147 2.87548 9.67647 2.51035C9.42146 2.14521 9.08169 1.84739 8.6863 1.64242C8.29091 1.43745 7.8517 1.33146 7.40634 1.33353C7.2781 1.33379 7.15266 1.37104 7.04505 1.44081C6.93745 1.51057 6.85225 1.60989 6.79967 1.72686L4.89967 6.00019H3.33301C2.80257 6.00019 2.29387 6.21091 1.91879 6.58598C1.54372 6.96105 1.33301 7.46976 1.33301 8.00019V12.6669C1.33301 13.1973 1.54372 13.706 1.91879 14.0811C2.29387 14.4561 2.80257 14.6669 3.33301 14.6669H11.8197C12.2875 14.6667 12.7406 14.5025 13.0999 14.2029C13.4592 13.9032 13.7021 13.4871 13.7863 13.0269L14.633 8.36019C14.6854 8.07178 14.6737 7.77538 14.5988 7.49198C14.5239 7.20857 14.3877 6.9451 14.1997 6.72019ZM4.66634 13.3335H3.33301C3.1562 13.3335 2.98663 13.2633 2.8616 13.1383C2.73658 13.0132 2.66634 12.8437 2.66634 12.6669V8.00019C2.66634 7.82338 2.73658 7.65381 2.8616 7.52879C2.98663 7.40376 3.1562 7.33353 3.33301 7.33353H4.66634V13.3335ZM13.333 8.12019L12.4863 12.7869C12.4579 12.9422 12.3754 13.0824 12.2533 13.1825C12.1312 13.2826 11.9775 13.3361 11.8197 13.3335H5.99967V6.80686L7.81301 2.72686C7.99966 2.78128 8.17301 2.8738 8.32211 2.99858C8.47121 3.12337 8.59282 3.2777 8.67927 3.45185C8.76572 3.62601 8.81513 3.81619 8.82438 4.01039C8.83363 4.2046 8.80252 4.39861 8.73301 4.58019L8.37967 5.53353C8.30439 5.73503 8.27897 5.95176 8.30559 6.16521C8.33221 6.37867 8.41009 6.58251 8.53256 6.75935C8.65504 6.93619 8.81848 7.08077 9.00895 7.18075C9.19941 7.28073 9.41123 7.33315 9.62634 7.33353H12.6663C12.7643 7.33337 12.8611 7.35479 12.9498 7.39627C13.0385 7.43775 13.117 7.49827 13.1797 7.57353C13.2439 7.64774 13.2909 7.73522 13.3174 7.82972C13.344 7.92422 13.3493 8.0234 13.333 8.12019Z" fill="#445578"/>
</svg>
