<svg id="Layer_1" data-name="Layer 1" xmlns="http://www.w3.org/2000/svg" viewBox="0 0 40 40"><title>HBAboutus</title><path d="M683,404a20,20,0,1,1,20-20A20,20,0,0,1,683,404Zm0-38a18,18,0,1,0,18,18A18,18,0,0,0,683,366Z" transform="translate(-663 -364)"/><path d="M677.57,379.87c-.07-3.34,2.07-5.85,5.46-5.85,3,0,5.14,1.78,5.14,4.87a5.46,5.46,0,0,1-2.1,4.14c-1,1-2.12,1.95-2.12,3.61v1h-2.07v-1.15c.17-4.07,4.29-4.17,4.09-7.75a2.78,2.78,0,0,0-2.95-2.85c-2.34,0-3.39,1.78-3.39,4Zm4,9.26h2.7v2.71h-2.7Z" transform="translate(-663 -364)" style="fill:#231f20"/></svg>