<svg xmlns="http://www.w3.org/2000/svg" width="40" height="40" viewBox="0 0 40 40"><defs><style>.a{fill:#010101;}</style></defs><title>icons</title><path class="a" d="M33.5,0H6.5C2.78,0,0,3.82,0,7.24V24c0,3.47,2.74,6,6.5,6H23.12l9.17,9.39a1,1,0,0,0,1.72-.7V30c3.51-.21,6-2.66,6-6V7.24C40,3.82,37.22,0,33.5,0ZM38,24c0,2.35-1.85,4-4.5,4H33a1,1,0,0,0-1,1v7.23L24.25,28.3a1,1,0,0,0-.72-0.3H6.5C3.85,28,2,26.36,2,24V7.24C2,4.82,4,2,6.5,2h27C36,2,38,4.82,38,7.24V24Z"/><rect class="a" x="11" y="11" width="18" height="2"/><rect class="a" x="11" y="17" width="18" height="2"/></svg>