<?xml version="1.0" encoding="UTF-8"?>
<svg width="109px" height="137px" viewBox="0 0 109 137" version="1.1" xmlns="http://www.w3.org/2000/svg" xmlns:xlink="http://www.w3.org/1999/xlink">
    <!-- Generator: Sketch 52.5 (67469) - http://www.bohemiancoding.com/sketch -->
    <title>Group 25</title>
    <desc>Created with Sketch.</desc>
    <g id="Page-1" stroke="none" stroke-width="1" fill="none" fill-rule="evenodd">
        <g id="Group-25" fill="#000000" fill-rule="nonzero">
            <path d="M66,86 C42.2517558,86 23,66.7482442 23,43 C23,19.2517558 42.2517558,0 66,0 C89.7482442,0 109,19.2517558 109,43 C109,66.7482442 89.7482442,86 66,86 Z M66,82 C87.5391052,82 105,64.5391052 105,43 C105,21.4608948 87.5391052,4 66,4 C44.4608948,4 27,21.4608948 27,43 C27,64.5391052 44.4608948,82 66,82 Z" id="Oval-Copy-4"></path>
            <path d="M26.7461734,133.015462 C27.5228318,133.800876 27.5157338,135.067186 26.7303196,135.843845 C25.9449054,136.620503 24.6785953,136.613405 23.9019369,135.827991 L0.577881732,112.240987 C-0.180803811,111.473748 -0.19411284,110.243006 0.547803649,109.45954 L36.3760386,71.6248179 C37.1355307,70.822792 38.4013911,70.7883116 39.203417,71.5478036 C40.0054429,72.3072957 40.0399234,73.5731562 39.2804313,74.3751821 L4.78294677,110.804628 L26.7461734,133.015462 Z" id="Path-9-Copy"></path>
            <path d="M18.5821302,93.4105479 C17.8031062,92.62748 17.8063843,91.3611543 18.5894521,90.5821302 C19.37252,89.8031062 20.6388457,89.8063843 21.4178698,90.5894521 L40.7984365,110.07062 C41.5774606,110.853687 41.5741825,112.120013 40.7911146,112.899037 C40.0080468,113.678061 38.741721,113.674783 37.962697,112.891715 L18.5821302,93.4105479 Z" id="Path-10-Copy"></path>
        </g>
    </g>
</svg>