<svg xmlns="http://www.w3.org/2000/svg" width="40" height="40" viewBox="0 0 40 40"><defs><style>.a{fill:#010101;}</style></defs><title>icons</title><path class="a" d="M37.29,15.58A6.24,6.24,0,0,0,33.23,14H22.48L24.3,3.36,20.87-.35,6,14.53V35.66A4.15,4.15,0,0,0,10.15,40H28a4.34,4.34,0,0,0,3.73-2.14h0l0.12-.26L32,37.32l5.45-11.89c0.28-.45,1.25-2.29,1.25-6.26A4.85,4.85,0,0,0,37.29,15.58Zm-1.57,8.78L30.5,35.72H30.42l-0.27.74A2.34,2.34,0,0,1,28,38H10.15A2.18,2.18,0,0,1,8,35.66V15.36L20.82,2.54,22.16,4,20.11,16H33V15l0.12,1c0.35,0,3.55.1,3.55,3.16C36.67,22.89,35.73,24.36,35.73,24.36Z"/><path class="a" d="M2,14a1,1,0,0,0-1,1V39a1,1,0,0,0,2,0V15A1,1,0,0,0,2,14Z"/></svg>