<svg xmlns="http://www.w3.org/2000/svg" width="40" height="40" viewBox="0 0 40 40"><defs><style>.a{fill:#010101;}</style></defs><title>icons</title><path class="a" d="M39.48,34.87L27.54,28.39A18.1,18.1,0,0,0,32,16.12C32,7.39,26.6.3,20,.3S8,7.39,8,16.12a18.1,18.1,0,0,0,4.43,12.27L0.52,34.87a1,1,0,0,0-.52.88V39a1,1,0,0,0,1,1H39a1,1,0,0,0,1-1V35.75A1,1,0,0,0,39.48,34.87ZM10,16.12C10,8.5,14.51,2.3,20,2.3S30,8.5,30,16.12c0,4.93-1.88,9.26-4.69,11.7l-0.06,0A8,8,0,0,1,20,29.93C14.51,29.93,10,23.74,10,16.12ZM38,38H2V36.34l12-6.53a9.77,9.77,0,0,0,6,2.13,9.77,9.77,0,0,0,6-2.13l12,6.53V38Z"/></svg>