<svg xmlns="http://www.w3.org/2000/svg" viewBox="0 0 23 22.96"><defs><style>.cls-1{fill:#fff;}</style></defs><title>Recruiter Zone Icon</title><g id="Layer_2" data-name="Layer 2"><g id="Layer_1-2" data-name="Layer 1"><path class="cls-1" d="M20.5,23H.5a.5.5,0,0,1-.5-.5v-20A.5.5,0,0,1,.5,2H11.94a.5.5,0,0,1,.5.5.51.51,0,0,1-.5.5H1V22H20V11.19a.5.5,0,1,1,1,0V22.46A.5.5,0,0,1,20.5,23Z"/><path class="cls-1" d="M22.5,9.44a.5.5,0,0,1-.5-.5V1H14.06a.5.5,0,0,1,0-1H22.5a.5.5,0,0,1,.5.5V8.94A.5.5,0,0,1,22.5,9.44Z"/><path class="cls-1" d="M8.56,14.94a.49.49,0,0,1-.35-.15.5.5,0,0,1,0-.71L22.15.15a.48.48,0,0,1,.7,0,.48.48,0,0,1,0,.7L8.92,14.79A.51.51,0,0,1,8.56,14.94Z"/></g></g></svg>