<svg xmlns="http://www.w3.org/2000/svg" width="40" height="40" viewBox="0 0 40 40"><defs><style>.a{fill:#010101;}</style></defs><title>icons</title><path class="a" d="M19.38,26.06A19.57,19.57,0,0,0,24,18.53a1,1,0,0,0,0-.29V14.17a9.5,9.5,0,1,0-19,0v4.07a1,1,0,0,0,0,.29,19.57,19.57,0,0,0,4.57,7.53C0,29,0,31.71,0,32.63V38a1,1,0,0,0,1,1H28a1,1,0,0,0,1-1V32.63C29,31.71,29,29,19.38,26.06ZM27,37H2V32.63c0-1.13,2.61-3.15,10-5.17a1,1,0,0,0,.31-1.79c-3.37-2.34-5-6.78-5.28-7.6V14.17a7.5,7.5,0,1,1,15,0v3.91c-0.28.82-1.91,5.25-5.28,7.6A1,1,0,0,0,17,27.47c7.36,2,10,4,10,5.17V37Z"/><path class="a" d="M30.38,23A19.58,19.58,0,0,0,35,15.46a1,1,0,0,0,0-.29V11.1a9.74,9.74,0,0,0-9.74-9.73,9.48,9.48,0,0,0-4.14,1.18A1,1,0,0,0,22,4.35a7.69,7.69,0,0,1,3.28-1A7.74,7.74,0,0,1,33,11.1V15c-0.28.82-1.91,5.25-5.28,7.6A1,1,0,0,0,28,24.4c7.36,2,10,4,10,5.17V34H32a1,1,0,0,0,0,2h7a1,1,0,0,0,1-1V29.56C40,28.64,40,25.93,30.38,23Z"/></svg>