<svg xmlns="http://www.w3.org/2000/svg" width="40" height="40" viewBox="0 0 40 40"><defs><style>.a{fill:#010101;}</style></defs><title>icons</title><path class="a" d="M39.37,8.69a1,1,0,0,0-1.1.24L34.44,13H27V5.63l4.13-3.9A1,1,0,0,0,30.45,0H22.63a1,1,0,0,0-.73.31l-6.63,7A1,1,0,0,0,15,8v9.07L1.42,30.57a4.61,4.61,0,0,0,0,6.51l1.34,1.36A4.32,4.32,0,0,0,5.8,39.69a4.86,4.86,0,0,0,3.43-1.44L22.29,25h9.93a1,1,0,0,0,.69-0.27l6.78-6.41A1,1,0,0,0,40,17.58v-8A1,1,0,0,0,39.37,8.69ZM38,17.15L31.82,23h-10a1,1,0,0,0-.71.3L7.81,36.84A2.61,2.61,0,0,1,4.14,37L2.8,35.67a2.61,2.61,0,0,1,0-3.69L16.71,18.19A1,1,0,0,0,17,17.48V8.39L23.06,2h4.87L25.31,4.47A1,1,0,0,0,25,5.2V14a1,1,0,0,0,1,1h8.87a1,1,0,0,0,.73-0.31L38,12.14v5Z"/></svg>