<svg id="Layer_2" data-name="Layer 2" xmlns="http://www.w3.org/2000/svg" viewBox="0 0 28.43 35.78"><title>interviewpro-icon1</title><path d="M34,37.39H5.56V37c0-8.79,6.38-15.94,14.22-15.94S34,28.21,34,37ZM6.34,36.61H33.21C33,28.43,27.07,21.83,19.78,21.83S6.53,28.43,6.34,36.61Z" transform="translate(-5.56 -1.61)"/><path d="M20,21.83a8.95,8.95,0,1,1,8.94-8.94A8.95,8.95,0,0,1,20,21.83ZM20,4.72a8.17,8.17,0,1,0,8.17,8.17A8.19,8.19,0,0,0,20,4.72Z" transform="translate(-5.56 -1.61)"/><path d="M20,24.17v-.78a10.5,10.5,0,1,0-10.5-10.5H8.67A11.28,11.28,0,1,1,20,24.17Z" transform="translate(-5.56 -1.61)"/><rect x="10.5" y="21" width="4.67" height="2.33" rx="0.91" ry="0.91"/><rect x="2.33" y="10.5" width="3.89" height="4.67" rx="1.07" ry="1.07"/></svg>