<?xml version="1.0" encoding="UTF-8"?>
<svg width="144px" height="107px" viewBox="0 0 144 107" version="1.1" xmlns="http://www.w3.org/2000/svg" xmlns:xlink="http://www.w3.org/1999/xlink">
    <!-- Generator: Sketch 52.5 (67469) - http://www.bohemiancoding.com/sketch -->
    <title>Group 3</title>
    <desc>Created with Sketch.</desc>
    <g id="Page-1" stroke="none" stroke-width="1" fill="none" fill-rule="evenodd">
        <g id="Group-3" fill="#000000" fill-rule="nonzero">
            <path d="M82.2122921,13.4018295 C84.3128806,11.5705472 86.5902989,9.73951731 88.9688905,8.02693132 C92.3748364,5.57465028 95.7047793,3.57091773 98.8737717,2.17131507 C102.060824,0.763736345 105.012679,0 107.7,0 C125.904569,0 140.7,14.7954305 140.7,33 C140.7,41.5071449 137.451721,49.4473827 131.633833,55.594318 L82.2338331,106.394318 C81.4485131,107.201894 80.1514869,107.201894 79.3661669,106.394318 L29.934413,55.5609022 C24.2198453,49.4067523 21,41.4681683 21,33 C21,14.7954305 35.7954305,0 54,0 C56.6647872,0 59.5837502,0.739705566 62.7283385,2.10506411 C65.9563308,3.5066361 69.3484732,5.5342967 72.8168006,8.02563049 C75.2012661,9.73841556 77.4825649,11.5696785 79.5854365,13.4012118 C80.0544024,13.809666 80.4933313,14.1998639 80.8997296,14.5679765 C81.3056683,14.200054 81.7440237,13.8100636 82.2122921,13.4018295 Z M128.747413,52.8252304 C133.852509,47.4311672 136.7,40.4706329 136.7,33 C136.7,17.0045695 123.695431,4 107.7,4 C105.641761,4 103.208773,4.62948937 100.489799,5.83033879 C97.6061348,7.10392486 94.5040797,8.97053008 91.3061095,11.2730687 C89.0362636,12.9073577 86.8535256,14.6622653 84.8408329,16.4169205 C84.1370194,17.0305015 83.5055335,17.5994825 82.9564848,18.1088208 C82.6306153,18.4111216 82.4070584,18.6239666 82.2958495,18.7323422 C81.5191848,19.4892193 80.2808152,19.4892193 79.5041505,18.7323422 C79.3930426,18.6240651 79.1695422,18.4113179 78.8436365,18.1091144 C78.2944684,17.5998859 77.6626735,17.031013 76.9583135,16.4175382 C74.9439976,14.663134 72.7581089,12.9084594 70.4831994,11.2743695 C67.2280683,8.93617678 64.0696764,7.04824106 61.1352533,5.77413479 C58.4535194,4.60974444 56.0473979,4 54,4 C38.0045695,4 25,17.0045695 25,33 C25,40.4421766 27.8275282,47.413496 32.8338331,52.805682 L80.8000037,102.131218 L128.747413,52.8252304 Z" id="Path"></path>
            <path d="M142,41.4000569 C143.104569,41.4000569 144,42.2954874 144,43.4000569 C144,44.5046264 143.104569,45.4000569 142,45.4000569 L110.6,45.4000569 C109.988585,45.4000569 109.410757,45.1203853 109.031434,44.6408631 L100.21915,33.5008058 L83.0110647,61.9355556 C82.2255987,63.2334647 80.3376327,63.2185422 79.5727809,61.9083794 L69.3517062,44.4000569 L2,44.4000569 C0.8954305,44.4000569 0,43.5046264 0,42.4000569 C0,41.2954874 0.8954305,40.4000569 2,40.4000569 L70.5,40.4000569 C71.2110942,40.4000569 71.868713,40.7776267 72.2272191,41.3917344 L81.3309362,56.9860647 L98.2889353,28.9645582 C99.0112897,27.7709352 100.702991,27.6650333 101.568566,28.7592508 L111.56801,41.4000569 L142,41.4000569 Z" id="Path"></path>
        </g>
    </g>
</svg>