<svg width="18" height="18" viewBox="0 0 18 18" fill="none" xmlns="http://www.w3.org/2000/svg">
<path d="M8.11674 4.06674C8.40904 4.02193 8.70436 3.99965 9.00007 4.00007C11.6501 4.00007 14.1417 5.90841 15.5917 9.00007C15.37 9.47057 15.1195 9.92698 14.8417 10.3667C14.7536 10.5032 14.7072 10.6626 14.7084 10.8251C14.7103 11.0069 14.7716 11.1832 14.883 11.327C14.9944 11.4707 15.1497 11.5741 15.3254 11.6213C15.501 11.6685 15.6873 11.657 15.8557 11.5885C16.0242 11.5199 16.1656 11.3982 16.2584 11.2417C16.6467 10.6317 16.9839 9.99062 17.2667 9.32507C17.3114 9.22109 17.3345 9.10909 17.3345 8.99591C17.3345 8.88272 17.3114 8.77072 17.2667 8.66674C15.5834 4.75841 12.4167 2.33341 9.00007 2.33341C8.60896 2.33144 8.21848 2.36491 7.83341 2.43341C7.72397 2.45201 7.61927 2.49199 7.52529 2.55105C7.4313 2.61012 7.34987 2.68712 7.28564 2.77766C7.22142 2.86819 7.17565 2.9705 7.15096 3.07872C7.12627 3.18694 7.12314 3.29897 7.14174 3.40841C7.16034 3.51784 7.20032 3.62254 7.25939 3.71653C7.31845 3.81051 7.39545 3.89194 7.48599 3.95617C7.57653 4.0204 7.67883 4.06616 7.78705 4.09085C7.89528 4.11554 8.0073 4.11868 8.11674 4.10007V4.06674ZM2.09174 0.908406C2.01404 0.830708 1.9218 0.769074 1.82028 0.727023C1.71876 0.684973 1.60996 0.66333 1.50007 0.66333C1.39019 0.66333 1.28138 0.684973 1.17987 0.727023C1.07835 0.769074 0.986105 0.830708 0.908406 0.908406C0.751487 1.06533 0.66333 1.27816 0.66333 1.50007C0.66333 1.72199 0.751487 1.93482 0.908406 2.09174L3.49174 4.66674C2.31305 5.80135 1.37495 7.16173 0.733406 8.66674C0.68752 8.77188 0.663836 8.88536 0.663836 9.00007C0.663836 9.11479 0.68752 9.22827 0.733406 9.33341C2.41674 13.2417 5.58341 15.6667 9.00007 15.6667C10.4977 15.6564 11.9599 15.2105 13.2084 14.3834L15.9084 17.0917C15.9859 17.1698 16.078 17.2318 16.1796 17.2741C16.2811 17.3165 16.3901 17.3382 16.5001 17.3382C16.6101 17.3382 16.719 17.3165 16.8206 17.2741C16.9221 17.2318 17.0143 17.1698 17.0917 17.0917C17.1698 17.0143 17.2318 16.9221 17.2741 16.8206C17.3165 16.719 17.3382 16.6101 17.3382 16.5001C17.3382 16.3901 17.3165 16.2811 17.2741 16.1796C17.2318 16.078 17.1698 15.9859 17.0917 15.9084L2.09174 0.908406ZM7.39174 8.56674L9.43341 10.6084C9.29256 10.6488 9.14658 10.6684 9.00007 10.6667C8.55804 10.6667 8.13412 10.4911 7.82156 10.1786C7.509 9.86602 7.33341 9.4421 7.33341 9.00007C7.3317 8.85356 7.35135 8.70758 7.39174 8.56674ZM9.00007 14.0001C6.35007 14.0001 3.85841 12.0917 2.41674 9.00007C2.95515 7.81153 3.7193 6.73889 4.66674 5.84174L6.14174 7.33341C5.79528 7.96574 5.66319 8.69336 5.76529 9.40712C5.86739 10.1209 6.19817 10.7823 6.70801 11.2921C7.21785 11.802 7.87927 12.1328 8.59303 12.2349C9.30679 12.337 10.0344 12.2049 10.6667 11.8584L11.9917 13.1667C11.0843 13.7008 10.0529 13.9881 9.00007 14.0001Z" fill="#2885D6"/>
</svg>
