<svg xmlns="http://www.w3.org/2000/svg" width="144" height="144" viewBox="0 0 144 144"><defs><style>.a{fill:#010101;}</style></defs><title>test</title><path class="a" d="M127.33,93.76a2,2,0,0,1-2-2,53.33,53.33,0,0,0-106.66,0,2,2,0,0,1-4,0,57.33,57.33,0,0,1,114.66,0A2,2,0,0,1,127.33,93.76Z"/><path class="a" d="M135,94H9a2,2,0,0,1,0-4H135A2,2,0,0,1,135,94Z"/><path class="a" d="M142,125H2a2,2,0,0,1,0-4H142A2,2,0,0,1,142,125Z"/><path class="a" d="M134,125H10a2,2,0,0,1-2-2V100a2,2,0,0,1,2-2H134a2,2,0,0,1,2,2v23A2,2,0,0,1,134,125ZM12,121H132V102H12v19Z"/><path class="a" d="M89,23H55a2,2,0,0,1,0-4H89A2,2,0,0,1,89,23Z"/><path class="a" d="M72,38a2,2,0,0,1-2-2V21a2,2,0,0,1,4,0V36A2,2,0,0,1,72,38Z"/></svg>