<svg id="Layer_1" data-name="Layer 1" xmlns="http://www.w3.org/2000/svg" viewBox="0 0 13 16"><defs><style>.cls-1{fill:#d0021b;}</style></defs><title>Hot</title><path class="cls-1" d="M12.66,6.57a6.14,6.14,0,0,1-.88-2.66.48.48,0,0,0-.27-.42.51.51,0,0,0-.49,0,4,4,0,0,0-1.68,2.7A9.82,9.82,0,0,1,8.52.89.48.48,0,0,0,8.33.41a.49.49,0,0,0-.51,0A7.27,7.27,0,0,0,4,8.12,4.09,4.09,0,0,1,3.2,5.73a.5.5,0,0,0-.31-.47.49.49,0,0,0-.54.13A6.52,6.52,0,1,0,13.68,9.77,6.18,6.18,0,0,0,12.66,6.57ZM7.18,15.34A5.56,5.56,0,0,1,1.65,9.77,5.67,5.67,0,0,1,2.38,7a4.17,4.17,0,0,0,2.1,2.8A.49.49,0,0,0,5,9.73a.46.46,0,0,0,.14-.52C5.09,9,3.62,4.38,7.47,1.72A9.7,9.7,0,0,0,9.53,8.3a.49.49,0,0,0,.84-.45A3.4,3.4,0,0,1,11,4.9a6.25,6.25,0,0,0,.9,2.22,5.24,5.24,0,0,1,.86,2.65A5.56,5.56,0,0,1,7.18,15.34Z" transform="translate(-0.68 -0.32)"/></svg>