<svg xmlns="http://www.w3.org/2000/svg" width="144" height="144" viewBox="0 0 144 144"><defs><style>.a{fill:#010101;}</style></defs><title>test</title><path class="a" d="M140.76,102H3.24a2,2,0,0,1-1.91-2.59l21.75-70A2,2,0,0,1,25,28H50a2,2,0,0,1,0,4H26.46L6,98H138l-20.5-66H94a2,2,0,0,1,0-4h25a2,2,0,0,1,1.91,1.41l21.75,70A2,2,0,0,1,140.76,102Z"/><path class="a" d="M141,131H3a2,2,0,0,1-2-2V100a2,2,0,0,1,2-2H141a2,2,0,0,1,2,2v29A2,2,0,0,1,141,131ZM5,127H139V102H5v25Z"/><path class="a" d="M118,32H94a2,2,0,0,1,0-4h22V4H27V28H50a2,2,0,0,1,0,4H25a2,2,0,0,1-2-2V2a2,2,0,0,1,2-2h93a2,2,0,0,1,2,2V30A2,2,0,0,1,118,32Z"/><path class="a" d="M94,44H50a2,2,0,0,1-2-2V20a2,2,0,0,1,2-2H94a2,2,0,0,1,2,2V42A2,2,0,0,1,94,44ZM52,40H92V22H52V40Z"/><path class="a" d="M130,67H14a2,2,0,0,1,0-4H130A2,2,0,0,1,130,67Z"/><path class="a" d="M14,144a2,2,0,0,1-2-2V130a2,2,0,0,1,4,0v12A2,2,0,0,1,14,144Z"/><path class="a" d="M130,144a2,2,0,0,1-2-2V130a2,2,0,0,1,4,0v12A2,2,0,0,1,130,144Z"/></svg>