<svg xmlns="http://www.w3.org/2000/svg" width="32.67" height="40" viewBox="0 0 32.67 40"><defs><style>.a{fill:#010101;}</style></defs><title>HOT JOBS</title><path class="a" d="M1670,440a16.33,16.33,0,0,1-12.15-27.25,1,1,0,0,1,1.74.7,10.64,10.64,0,0,0,2.53,6.8c-0.74-4.78-.83-14.71,9.62-20.14a1,1,0,0,1,1.45,1.06,24.46,24.46,0,0,0,2.47,14.37,9.69,9.69,0,0,1,4.27-7.47,1,1,0,0,1,1.57.78,15.14,15.14,0,0,0,2.26,6.86,15.29,15.29,0,0,1,2.57,8A16.35,16.35,0,0,1,1670,440Zm-12.13-24a14.22,14.22,0,1,0,26.13,7.64h0a12.42,12.42,0,0,0-2.06-6.83,15.76,15.76,0,0,1-2.28-6c-3.21,3.38-1.82,8-1.8,8a1,1,0,0,1-1.69.94c-5.1-6-5.38-13.44-5.17-17-10.47,6.78-6.56,18.93-6.38,19.47a1,1,0,0,1-1.4,1.21A10.5,10.5,0,0,1,1657.87,416Z" transform="translate(-1653.67 -399.99)"/></svg>