<?xml version="1.0" encoding="UTF-8"?>
<svg width="58px" height="144px" viewBox="0 0 58 144" version="1.1" xmlns="http://www.w3.org/2000/svg" xmlns:xlink="http://www.w3.org/1999/xlink">
    <!-- Generator: Sketch 52.5 (67469) - http://www.bohemiancoding.com/sketch -->
    <title>Search HR 2</title>
    <desc>Created with Sketch.</desc>
    <g id="Page-1" stroke="none" stroke-width="1" fill="none" fill-rule="evenodd">
        <g id="Search-HR-2" fill="#010101" fill-rule="nonzero">
            <g id="Search-HR">
                <path d="M55.1,0 C56.4282081,0 57.3874536,1.27082729 57.0234104,2.54817196 L45.6234104,42.548172 C45.3785281,43.4074079 44.5934505,44 43.7,44 L14.3,44 C13.4065495,44 12.6214719,43.4074079 12.3765896,42.548172 L0.976589617,2.54817196 C0.612546386,1.27082729 1.57179185,0 2.9,0 L55.1,0 Z M52.4503606,4 L5.54963939,4 L15.8096394,40 L42.1903606,40 L52.4503606,4 Z" id="Path"></path>
                <path d="M30.3863278,143.44156 C29.6120763,144.186147 28.3879237,144.186147 27.6136722,143.44156 L1.51367219,118.34156 C1.04535875,117.89119 0.825005741,117.241394 0.922770861,116.59906 L12.3227709,41.6990599 C12.4714893,40.7219534 13.3116406,40 14.3,40 L43.7,40 C44.6883594,40 45.5285107,40.7219534 45.6772291,41.6990599 L57.0772291,116.59906 C57.1749943,117.241394 56.9546413,117.89119 56.4863278,118.34156 L30.3863278,143.44156 Z M29,139.225228 L52.966868,116.176631 L41.9813728,44 L16.0186272,44 L5.03313199,116.176631 L29,139.225228 Z" id="Path"></path>
                <polygon id="Path" points="4.97238621 119.520343 2.62761379 116.279657 48.9276138 82.7796573 51.2723862 86.0203427"></polygon>
                <polygon id="Path" points="9.87019558 85.3219255 7.52980442 82.0780745 45.2298044 54.8780745 47.5701956 58.1219255"></polygon>
            </g>
        </g>
    </g>
</svg>