<?xml version="1.0" encoding="UTF-8"?>
<svg width="140px" height="144px" viewBox="0 0 140 144" version="1.1" xmlns="http://www.w3.org/2000/svg" xmlns:xlink="http://www.w3.org/1999/xlink">
    <!-- Generator: Sketch 52.5 (67469) - http://www.bohemiancoding.com/sketch -->
    <title>Group 8</title>
    <desc>Created with Sketch.</desc>
    <g id="Page-1" stroke="none" stroke-width="1" fill="none" fill-rule="evenodd">
        <g id="Group-8" fill="#000000" fill-rule="nonzero">
            <path d="M2,144 C0.8954305,144 0,143.104569 0,142 C0,140.895431 0.8954305,140 2,140 L138,140 C139.104569,140 140,140.895431 140,142 C140,143.104569 139.104569,144 138,144 L2,144 Z" id="Path"></path>
            <path d="M16,67 C16,65.8954305 16.8954305,65 18,65 C19.1045695,65 20,65.8954305 20,67 L20,126 C20,127.104569 19.1045695,128 18,128 C16.8954305,128 16,127.104569 16,126 L16,67 Z" id="Path"></path>
            <path d="M29,67 C29,65.8954305 29.8954305,65 31,65 C32.1045695,65 33,65.8954305 33,67 L33,126 C33,127.104569 32.1045695,128 31,128 C29.8954305,128 29,127.104569 29,126 L29,67 Z" id="Path"></path>
            <path d="M62,67 C62,65.8954305 62.8954305,65 64,65 C65.1045695,65 66,65.8954305 66,67 L66,126 C66,127.104569 65.1045695,128 64,128 C62.8954305,128 62,127.104569 62,126 L62,67 Z" id="Path"></path>
            <path d="M74,67 C74,65.8954305 74.8954305,65 76,65 C77.1045695,65 78,65.8954305 78,67 L78,126 C78,127.104569 77.1045695,128 76,128 C74.8954305,128 74,127.104569 74,126 L74,67 Z" id="Path"></path>
            <path d="M107,67 C107,65.8954305 107.895431,65 109,65 C110.104569,65 111,65.8954305 111,67 L111,126 C111,127.104569 110.104569,128 109,128 C107.895431,128 107,127.104569 107,126 L107,67 Z" id="Path"></path>
            <path d="M120,67 C120,65.8954305 120.895431,65 122,65 C123.104569,65 124,65.8954305 124,67 L124,126 C124,127.104569 123.104569,128 122,128 C120.895431,128 120,127.104569 120,126 L120,67 Z" id="Path"></path>
            <path d="M137.962383,48.2697594 C139.550335,49.3982894 138.75192,51.9 136.803799,51.9 L2.00379918,51.9 C0.0556788247,51.9 -0.74273671,49.3982894 0.845215736,48.2697594 L68.2452157,0.369759406 C68.9389328,-0.123253135 69.8686656,-0.123253135 70.5623826,0.369759406 L137.962383,48.2697594 Z M69.4037992,4.45362557 L8.27048735,47.9 L130.537111,47.9 L69.4037992,4.45362557 Z" id="Path"></path>
        </g>
    </g>
</svg>