<?xml version="1.0" encoding="UTF-8"?>
<svg width="140px" height="114px" viewBox="0 0 140 114" version="1.1" xmlns="http://www.w3.org/2000/svg" xmlns:xlink="http://www.w3.org/1999/xlink">
    <!-- Generator: Sketch 52.5 (67469) - http://www.bohemiancoding.com/sketch -->
    <title>Group 10 Copy 2</title>
    <desc>Created with Sketch.</desc>
    <g id="Page-1" stroke="none" stroke-width="1" fill="none" fill-rule="evenodd">
        <g id="Group-10-Copy-2" fill="#000000" fill-rule="nonzero">
            <g id="Group-10-Copy">
                <g id="Group-8-Copy" transform="translate(0.000000, 35.000000)">
                    <path d="M2,79 C0.8954305,79 0,78.1045695 0,77 C0,75.8954305 0.8954305,75 2,75 L138,75 C139.104569,75 140,75.8954305 140,77 C140,78.1045695 139.104569,79 138,79 L2,79 Z" id="Path"></path>
                    <path d="M16,2 C16,0.8954305 16.8954305,0 18,0 C19.1045695,0 20,0.8954305 20,2 L20,61 C20,62.1045695 19.1045695,63 18,63 C16.8954305,63 16,62.1045695 16,61 L16,2 Z" id="Path"></path>
                    <path d="M29,2 C29,0.8954305 29.8954305,0 31,0 C32.1045695,0 33,0.8954305 33,2 L33,61 C33,62.1045695 32.1045695,63 31,63 C29.8954305,63 29,62.1045695 29,61 L29,2 Z" id="Path"></path>
                    <path d="M62,2 C62,0.8954305 62.8954305,0 64,0 C65.1045695,0 66,0.8954305 66,2 L66,61 C66,62.1045695 65.1045695,63 64,63 C62.8954305,63 62,62.1045695 62,61 L62,2 Z" id="Path"></path>
                    <path d="M74,2 C74,0.8954305 74.8954305,0 76,0 C77.1045695,0 78,0.8954305 78,2 L78,61 C78,62.1045695 77.1045695,63 76,63 C74.8954305,63 74,62.1045695 74,61 L74,2 Z" id="Path"></path>
                    <path d="M107,2 C107,0.8954305 107.895431,0 109,0 C110.104569,0 111,0.8954305 111,2 L111,61 C111,62.1045695 110.104569,63 109,63 C107.895431,63 107,62.1045695 107,61 L107,2 Z" id="Path"></path>
                    <path d="M120,2 C120,0.8954305 120.895431,0 122,0 C123.104569,0 124,0.8954305 124,2 L124,61 C124,62.1045695 123.104569,63 122,63 C120.895431,63 120,62.1045695 120,61 L120,2 Z" id="Path"></path>
                </g>
                <path d="M9,19 L130,19 L130,4 L9,4 L9,19 Z M6.80662656,0 L132.193373,0 C133.191146,0 134,0.905041267 134,2.02146625 L134,20.9785338 C134,22.0949587 133.191146,23 132.193373,23 L6.80662656,23 C5.80885426,23 5,22.0949587 5,20.9785338 L5,2.02146625 C5,0.905041267 5.80885426,0 6.80662656,0 Z" id="Path-2"></path>
            </g>
        </g>
    </g>
</svg>