<svg xmlns="http://www.w3.org/2000/svg" width="144" height="144" viewBox="0 0 144 144"><title>test</title><path d="M140,144H4a2,2,0,0,1,0-4H140A2,2,0,0,1,140,144Z"/><path d="M20,128a2,2,0,0,1-2-2V67a2,2,0,0,1,4,0v59A2,2,0,0,1,20,128Z"/><path d="M33,128a2,2,0,0,1-2-2V67a2,2,0,0,1,4,0v59A2,2,0,0,1,33,128Z"/><path d="M66,128a2,2,0,0,1-2-2V67a2,2,0,0,1,4,0v59A2,2,0,0,1,66,128Z"/><path d="M78,128a2,2,0,0,1-2-2V67a2,2,0,0,1,4,0v59A2,2,0,0,1,78,128Z"/><path d="M111,128a2,2,0,0,1-2-2V67a2,2,0,0,1,4,0v59A2,2,0,0,1,111,128Z"/><path d="M124,128a2,2,0,0,1-2-2V67a2,2,0,0,1,4,0v59A2,2,0,0,1,124,128Z"/><path d="M139.38,52H4.62a2,2,0,0,1-1.16-3.63L70.84,0.43a2,2,0,0,1,2.32,0l67.38,47.94A2,2,0,0,1,139.38,52ZM10.88,48H133.12L72,4.52Z"/></svg>