<?xml version="1.0" encoding="UTF-8"?>
<svg width="118px" height="144px" viewBox="0 0 118 144" version="1.1" xmlns="http://www.w3.org/2000/svg" xmlns:xlink="http://www.w3.org/1999/xlink">
    <!-- Generator: Sketch 52.5 (67469) - http://www.bohemiancoding.com/sketch -->
    <title>Group 22</title>
    <desc>Created with Sketch.</desc>
    <g id="Page-1" stroke="none" stroke-width="1" fill="none" fill-rule="evenodd">
        <g id="Group-22" fill="#333333">
            <path d="M88.365555,3.59539514 C87.4845043,2.92919439 87.310334,1.67489926 87.9765347,0.79384856 C88.6427355,-0.0872021389 89.8970306,-0.261372432 90.7780813,0.404828322 C107.787483,13.2663768 118.000545,33.4576021 118.000545,55.2905381 C118.000545,93.2063624 87.487501,124.000112 49.8329716,124.000112 C42.1132644,124.000112 34.509543,122.667986 27.3314605,120.119789 C26.2905354,119.750264 25.7462583,118.606868 26.1157836,117.565943 C26.4853088,116.525018 27.6287046,115.980741 28.6696296,116.350266 C35.4216526,118.747213 42.5731481,120.000112 49.8329716,120.000112 C85.2701209,120.000112 114.000545,91.0053815 114.000545,55.2905381 C114.000545,34.7210204 104.382795,15.7067271 88.365555,3.59539514 Z" id="Path" fill-rule="nonzero"></path>
            <path d="M97,56.5 C97,41.706755 90.0138983,28.0339561 78.3806773,19.2613546 C70.3953682,13.2723727 60.7215655,10 50.5,10 C24.7799768,10 4,30.8085993 4,56.5 C4,76.4438406 16.6383031,93.9940893 35.1163725,100.404849 C40.0460784,102.111285 45.2380436,103 50.5,103 C76.1573827,103 97,82.1573827 97,56.5 Z M101,56.5 C101,84.3665217 78.3665217,107 50.5,107 C44.7886915,107 39.1548446,106.035648 33.806606,104.184334 C13.7260889,97.2176239 0,78.1568156 0,56.5 C0,28.6006919 22.5696043,6 50.5,6 C61.5933573,6 72.1078991,9.55677095 80.7848616,16.0645014 C93.4129535,25.5873248 101,40.4362586 101,56.5 Z" id="Path" fill-rule="nonzero"></path>
            <path d="M7,144 C5.8954305,144 5,143.104569 5,142 C5,140.895431 5.8954305,140 7,140 L96.9262723,140 C98.0308418,140 98.9262723,140.895431 98.9262723,142 C98.9262723,143.104569 98.0308418,144 96.9262723,144 L7,144 Z" id="Path" fill-rule="nonzero"></path>
            <path d="M53,140 C53,141.104569 52.1045695,142 51,142 C49.8954305,142 49,141.104569 49,140 L49,125 C49,123.895431 49.8954305,123 51,123 C52.1045695,123 53,123.895431 53,125 L53,140 Z" id="Path" fill-rule="nonzero"></path>
            <circle id="Oval" cx="34" cy="24" r="4"></circle>
            <path d="M24.4649644,30.7183949 C25.1728026,29.8704333 26.4340275,29.7568408 27.2819892,30.4646789 C28.1299508,31.1725171 28.2435433,32.433742 27.5357051,33.2817036 C14.4744395,48.928574 13.5737742,64.2570815 24.7464108,79.8343985 C25.3901819,80.7319688 25.184437,81.981473 24.2868667,82.6252441 C23.3892963,83.2690152 22.1397922,83.0632703 21.4960211,82.1657 C9.23889787,65.0763503 10.2576452,47.7381912 24.4649644,30.7183949 Z" id="Path-5" fill-rule="nonzero"></path>
        </g>
    </g>
</svg>