<svg width="18" height="18" viewBox="0 0 18 18" fill="none" xmlns="http://www.w3.org/2000/svg">
<path d="M9 14.25C9.14834 14.25 9.29334 14.206 9.41668 14.1236C9.54002 14.0412 9.63614 13.9241 9.69291 13.787C9.74968 13.65 9.76453 13.4992 9.73559 13.3537C9.70665 13.2082 9.63522 13.0746 9.53033 12.9697C9.42544 12.8648 9.2918 12.7934 9.14632 12.7644C9.00083 12.7355 8.85003 12.7503 8.71299 12.8071C8.57594 12.8639 8.45881 12.96 8.3764 13.0833C8.29399 13.2067 8.25 13.3517 8.25 13.5C8.25 13.6989 8.32902 13.8897 8.46967 14.0303C8.61032 14.171 8.80109 14.25 9 14.25ZM12.75 14.25C12.8983 14.25 13.0433 14.206 13.1667 14.1236C13.29 14.0412 13.3861 13.9241 13.4429 13.787C13.4997 13.65 13.5145 13.4992 13.4856 13.3537C13.4566 13.2082 13.3852 13.0746 13.2803 12.9697C13.1754 12.8648 13.0418 12.7934 12.8963 12.7644C12.7508 12.7355 12.6 12.7503 12.463 12.8071C12.3259 12.8639 12.2088 12.96 12.1264 13.0833C12.044 13.2067 12 13.3517 12 13.5C12 13.6989 12.079 13.8897 12.2197 14.0303C12.3603 14.171 12.5511 14.25 12.75 14.25ZM12.75 11.25C12.8983 11.25 13.0433 11.206 13.1667 11.1236C13.29 11.0412 13.3861 10.9241 13.4429 10.787C13.4997 10.65 13.5145 10.4992 13.4856 10.3537C13.4566 10.2082 13.3852 10.0746 13.2803 9.96967C13.1754 9.86478 13.0418 9.79335 12.8963 9.76441C12.7508 9.73547 12.6 9.75032 12.463 9.80709C12.3259 9.86386 12.2088 9.95998 12.1264 10.0833C12.044 10.2067 12 10.3517 12 10.5C12 10.6989 12.079 10.8897 12.2197 11.0303C12.3603 11.171 12.5511 11.25 12.75 11.25ZM9 11.25C9.14834 11.25 9.29334 11.206 9.41668 11.1236C9.54002 11.0412 9.63614 10.9241 9.69291 10.787C9.74968 10.65 9.76453 10.4992 9.73559 10.3537C9.70665 10.2082 9.63522 10.0746 9.53033 9.96967C9.42544 9.86478 9.2918 9.79335 9.14632 9.76441C9.00083 9.73547 8.85003 9.75032 8.71299 9.80709C8.57594 9.86386 8.45881 9.95998 8.3764 10.0833C8.29399 10.2067 8.25 10.3517 8.25 10.5C8.25 10.6989 8.32902 10.8897 8.46967 11.0303C8.61032 11.171 8.80109 11.25 9 11.25ZM14.25 2.25H13.5V1.5C13.5 1.30109 13.421 1.11032 13.2803 0.96967C13.1397 0.829018 12.9489 0.75 12.75 0.75C12.5511 0.75 12.3603 0.829018 12.2197 0.96967C12.079 1.11032 12 1.30109 12 1.5V2.25H6V1.5C6 1.30109 5.92098 1.11032 5.78033 0.96967C5.63968 0.829018 5.44891 0.75 5.25 0.75C5.05109 0.75 4.86032 0.829018 4.71967 0.96967C4.57902 1.11032 4.5 1.30109 4.5 1.5V2.25H3.75C3.15326 2.25 2.58097 2.48705 2.15901 2.90901C1.73705 3.33097 1.5 3.90326 1.5 4.5V15C1.5 15.5967 1.73705 16.169 2.15901 16.591C2.58097 17.0129 3.15326 17.25 3.75 17.25H14.25C14.8467 17.25 15.419 17.0129 15.841 16.591C16.2629 16.169 16.5 15.5967 16.5 15V4.5C16.5 3.90326 16.2629 3.33097 15.841 2.90901C15.419 2.48705 14.8467 2.25 14.25 2.25ZM15 15C15 15.1989 14.921 15.3897 14.7803 15.5303C14.6397 15.671 14.4489 15.75 14.25 15.75H3.75C3.55109 15.75 3.36032 15.671 3.21967 15.5303C3.07902 15.3897 3 15.1989 3 15V8.25H15V15ZM15 6.75H3V4.5C3 4.30109 3.07902 4.11032 3.21967 3.96967C3.36032 3.82902 3.55109 3.75 3.75 3.75H4.5V4.5C4.5 4.69891 4.57902 4.88968 4.71967 5.03033C4.86032 5.17098 5.05109 5.25 5.25 5.25C5.44891 5.25 5.63968 5.17098 5.78033 5.03033C5.92098 4.88968 6 4.69891 6 4.5V3.75H12V4.5C12 4.69891 12.079 4.88968 12.2197 5.03033C12.3603 5.17098 12.5511 5.25 12.75 5.25C12.9489 5.25 13.1397 5.17098 13.2803 5.03033C13.421 4.88968 13.5 4.69891 13.5 4.5V3.75H14.25C14.4489 3.75 14.6397 3.82902 14.7803 3.96967C14.921 4.11032 15 4.30109 15 4.5V6.75ZM5.25 11.25C5.39834 11.25 5.54334 11.206 5.66668 11.1236C5.79001 11.0412 5.88614 10.9241 5.94291 10.787C5.99968 10.65 6.01453 10.4992 5.98559 10.3537C5.95665 10.2082 5.88522 10.0746 5.78033 9.96967C5.67544 9.86478 5.5418 9.79335 5.39632 9.76441C5.25083 9.73547 5.10003 9.75032 4.96299 9.80709C4.82594 9.86386 4.70881 9.95998 4.6264 10.0833C4.54399 10.2067 4.5 10.3517 4.5 10.5C4.5 10.6989 4.57902 10.8897 4.71967 11.0303C4.86032 11.171 5.05109 11.25 5.25 11.25ZM5.25 14.25C5.39834 14.25 5.54334 14.206 5.66668 14.1236C5.79001 14.0412 5.88614 13.9241 5.94291 13.787C5.99968 13.65 6.01453 13.4992 5.98559 13.3537C5.95665 13.2082 5.88522 13.0746 5.78033 12.9697C5.67544 12.8648 5.5418 12.7934 5.39632 12.7644C5.25083 12.7355 5.10003 12.7503 4.96299 12.8071C4.82594 12.8639 4.70881 12.96 4.6264 13.0833C4.54399 13.2067 4.5 13.3517 4.5 13.5C4.5 13.6989 4.57902 13.8897 4.71967 14.0303C4.86032 14.171 5.05109 14.25 5.25 14.25Z" fill="#8292B4"/>
</svg>
