<?xml version="1.0" encoding="UTF-8"?>
<svg width="144px" height="128px" viewBox="0 0 144 128" version="1.1" xmlns="http://www.w3.org/2000/svg" xmlns:xlink="http://www.w3.org/1999/xlink">
    <!-- Generator: Sketch 52.5 (67469) - http://www.bohemiancoding.com/sketch -->
    <title>Group 11</title>
    <desc>Created with Sketch.</desc>
    <g id="Page-1" stroke="none" stroke-width="1" fill="none" fill-rule="evenodd">
        <g id="Group-11" transform="translate(-1.000000, 0.000000)" fill="#000000" fill-rule="nonzero">
            <path d="M90,34 C90,35.1045695 89.1045695,36 88,36 C86.8954305,36 86,35.1045695 86,34 L86,10.6 C86,4.55339873 90.9266281,0 97.1,0 L134,0 C140.15914,0 145,4.54296046 145,10.6 L145,81.2 C145,87.2685687 140.144467,91.9 134,91.9 L104,91.9 C102.895431,91.9 102,91.0045695 102,89.9 C102,88.7954305 102.895431,87.9 104,87.9 L134,87.9 C137.976501,87.9 141,85.0160467 141,81.2 L141,10.6 C141,6.81088569 138.004794,4 134,4 L97.1,4 C93.0684538,4 90,6.83599521 90,10.6 L90,34 Z" id="Path"></path>
            <path d="M89,19 C87.8954305,19 87,18.1045695 87,17 C87,15.8954305 87.8954305,15 89,15 L142,15 C143.104569,15 144,15.8954305 144,17 C144,18.1045695 143.104569,19 142,19 L89,19 Z" id="Path"></path>
            <path d="M104,63 C102.895431,63 102,62.1045695 102,61 C102,59.8954305 102.895431,59 104,59 L142,59 C143.104569,59 144,59.8954305 144,61 C144,62.1045695 143.104569,63 142,63 L104,63 Z" id="Path"></path>
            <path d="M115.5,83.5 C111.468321,83.5 108.2,80.2316787 108.2,76.2 C108.2,72.1683213 111.468321,68.9 115.5,68.9 C119.531679,68.9 122.8,72.1683213 122.8,76.2 C122.8,80.2316787 119.531679,83.5 115.5,83.5 Z M115.5,79.5 C117.32254,79.5 118.8,78.0225397 118.8,76.2 C118.8,74.3774603 117.32254,72.9 115.5,72.9 C113.67746,72.9 112.2,74.3774603 112.2,76.2 C112.2,78.0225397 113.67746,79.5 115.5,79.5 Z" id="Oval"></path>
            <path d="M17,45 L17,95 L93,95 L93,45 L17,45 Z M15,41 L95,41 C96.1045695,41 97,41.8954305 97,43 L97,97 C97,98.1045695 96.1045695,99 95,99 L15,99 C13.8954305,99 13,98.1045695 13,97 L13,43 C13,41.8954305 13.8954305,41 15,41 Z" id="Rectangle"></path>
            <path d="M94.2,103 C94.9306938,103 95.6032296,103.398482 95.9541925,104.039371 L107.454193,125.039371 C108.184074,126.372197 107.21959,128 105.7,128 L3,128 C1.47717971,128 0.513020122,126.365941 1.24933121,125.032964 L12.8493312,104.032964 C13.2013682,103.395656 13.8719259,103 14.6,103 L94.2,103 Z M15.7800792,107 L6.38960301,124 L102.32451,124 L93.0149867,107 L15.7800792,107 Z" id="Path"></path>
        </g>
    </g>
</svg>