<svg xmlns="http://www.w3.org/2000/svg" width="124" height="144" viewBox="0 0 124 144"><defs><style>.a{fill:#010101;}</style></defs><title>ITES_BPO</title><path class="a" d="M8964.89,64H8951.1a7,7,0,0,0-3.1.72v-9C8948,27.2,8971,4,8999.32,4h5.23A51.65,51.65,0,0,1,9056,55.72v9a7.05,7.05,0,0,0-3.11-.72H9039.1a7.11,7.11,0,0,0-7.1,7.1V97.89a7.11,7.11,0,0,0,7.1,7.11h13.79a7.11,7.11,0,0,0,7.11-7.11V55.72A55.65,55.65,0,0,0,9004.55,0h-5.23C8968.82,0,8944,25,8944,55.72V97.89a7.11,7.11,0,0,0,7.1,7.11h13.79a7.11,7.11,0,0,0,7.11-7.11V71.1A7.11,7.11,0,0,0,8964.89,64ZM9056,97.89a3.11,3.11,0,0,1-3.11,3.11H9039.1a3.11,3.11,0,0,1-3.1-3.11V71.1a3.11,3.11,0,0,1,3.1-3.1h13.79a3.11,3.11,0,0,1,3.11,3.1V97.89Zm-88,0a3.11,3.11,0,0,1-3.11,3.11H8951.1a3.11,3.11,0,0,1-3.1-3.11V71.1a3.11,3.11,0,0,1,3.1-3.1h13.79a3.11,3.11,0,0,1,3.11,3.1V97.89Z" transform="translate(-8944)"/><path class="a" d="M9066,67a2,2,0,0,0-2,2v37.3L9037.4,133h-22.62a7.81,7.81,0,0,0-7.6-6h-10.37a7.82,7.82,0,0,0-7.82,7.82v1.37a7.82,7.82,0,0,0,7.82,7.82h10.37a7.82,7.82,0,0,0,7.77-7h23.28a2,2,0,0,0,1.42-.59l27.77-27.88a2,2,0,0,0,.58-1.41V69A2,2,0,0,0,9066,67Zm-58.82,73h-10.37a3.82,3.82,0,0,1-3.82-3.82v-1.37a3.82,3.82,0,0,1,3.82-3.82h10.37a3.82,3.82,0,0,1,3.82,3.82V135h0v1.17A3.82,3.82,0,0,1,9007.18,140Z" transform="translate(-8944)"/></svg>