<svg xmlns="http://www.w3.org/2000/svg" width="144" height="144" viewBox="0 0 144 144"><title>test</title><path d="M133,100H103a2,2,0,0,1,0-4h30a6.79,6.79,0,0,0,7-6.74V18.62A6.66,6.66,0,0,0,133,12H96.06A6.77,6.77,0,0,0,89,18.62V42a2,2,0,0,1-4,0V18.62A10.73,10.73,0,0,1,96.06,8H133a10.69,10.69,0,0,1,11,10.62V89.26A10.75,10.75,0,0,1,133,100Z"/><path d="M141,27H88a2,2,0,0,1,0-4h53A2,2,0,0,1,141,27Z"/><path d="M141,71H103a2,2,0,0,1,0-4h38A2,2,0,0,1,141,71Z"/><path d="M114.53,91.49a7.31,7.31,0,1,1,7.31-7.31A7.32,7.32,0,0,1,114.53,91.49Zm0-10.62a3.31,3.31,0,1,0,3.31,3.31A3.31,3.31,0,0,0,114.53,80.87Z"/><path d="M94,107H14a2,2,0,0,1-2-2V51a2,2,0,0,1,2-2H94a2,2,0,0,1,2,2v54A2,2,0,0,1,94,107Zm-78-4H92V53H16v50Z"/><path d="M104.74,136H2a2,2,0,0,1-1.75-3l11.57-21a2,2,0,0,1,1.75-1H93.17a2,2,0,0,1,1.75,1l11.57,21A2,2,0,0,1,104.74,136ZM5.39,132h96L92,115H14.76Z"/></svg>