<!-- Generated by IcoMoon.io -->
<svg version="1.1" xmlns="http://www.w3.org/2000/svg" width="33" height="32" viewBox="0 0 33 32">
<title>job4u</title>
<path d="M2.297 27.359v-3.688q0-1.344 1.234-1.875 0.766-0.328 2.375-0.906t2.844-0.953v-0.25q0-0.813-0.188-1.188-0.406-0.859-0.547-1.844-0.547-0.703-0.813-2-0.094-0.516-0.094-0.938 0-0.516 0.141-0.906 0.016-0.047 0.016-0.063 0.031-0.141-0.023-0.813t-0.164-1.25q-0.031-0.219-0.031-0.469-0.016-0.531 0.141-1.156 0.219-0.938 0.844-1.703 1.281-1.625 3.688-1.781h1.031q2.453 0.156 3.75 1.781 0.594 0.766 0.828 1.703 0.156 0.609 0.156 1.125 0 0.266-0.047 0.5-0.094 0.594-0.148 1.266t-0.023 0.828q0.156 0.406 0.156 0.953 0 0.422-0.094 0.922-0.266 1.297-0.813 2-0.141 0.984-0.547 1.844-0.344 0.719-0.344 1.172 0 0.156 0.016 0.25 3.234 0.969 5.25 1.813 0.703 0.297 1.078 0.852t0.375 1.086v0.016q0.063-0.078 0.094-0.234v-1.047q-0.406-0.5-0.734-1.438-0.5-0.359-0.625-1.016-0.047-0.234-0.047-0.438 0-0.344 0.125-0.625-0.125-0.797-0.125-1.484 0-1.797 0.859-2.813 0.969-1.172 2.891-1.172h0.094q0.719 0 1.078 0.148t0.609 0.477q0.875 0.078 1.391 0.766 0.484 0.625 0.563 1.688 0.016 0.203 0.016 0.422 0 0.891-0.266 1.953 0.141 0.266 0.141 0.609 0 0.234-0.063 0.5-0.156 0.703-0.688 1.031-0.109 0.297-0.391 0.781-0.219 0.391-0.219 0.469v1.219q0 0.078 0.141 0.234l0.109 0.125q0.094 0.063 0.5 0.25 1.875 0.516 2.797 1.625l0.234 0.328 0.078 1.313h-28.609zM3.141 26.5h26.859l-0.016-0.172-0.063-0.094q-0.75-0.875-2.375-1.328l-0.063-0.016q-0.563-0.25-0.766-0.406l-0.078-0.094-0.063-0.094q-0.391-0.375-0.391-0.813v-1.219q0-0.313 0.344-0.906 0.297-0.484 0.375-0.75l0.063-0.203 0.188-0.078q0.094-0.031 0.203-0.18t0.156-0.352q0.094-0.422-0.031-0.578l-0.141-0.172 0.063-0.219q0.266-1.031 0.266-1.875v-0.172q-0.031-0.906-0.391-1.406-0.297-0.391-0.922-0.391h-0.141l-0.109-0.125q-0.047-0.047-0.203-0.234-0.078-0.125-0.148-0.18t-0.289-0.102-0.594-0.047l-0.094-0.016q-1.516 0-2.234 0.875-0.656 0.781-0.656 2.25 0 0.672 0.141 1.5l0.031 0.172-0.109 0.141q-0.109 0.156-0.031 0.578 0.078 0.391 0.328 0.531l0.156 0.078 0.047 0.156q0.344 0.984 0.719 1.406l0.109 0.125v0.156q0.016 0.578 0.008 0.914t-0.008 0.445q-0.078 0.438-0.375 0.719-0.125 0.125-0.469 0.266-0.031 0.016-0.109 0.031t-0.094 0.031l0.109-0.281h-0.844v-0.703q0-0.297-0.25-0.625t-0.688-0.531q-0.797-0.328-2.445-0.891t-2.867-0.922q-0.172-0.063-0.273-0.148t-0.141-0.242-0.047-0.273-0.008-0.367q0-0.641 0.422-1.531 0.375-0.813 0.484-1.719l0.031-0.125 0.078-0.094q0.453-0.531 0.688-1.719 0.094-0.438 0.094-0.781t-0.094-0.578l-0.047-0.141q-0.031-0.141-0.031-0.422 0-0.25 0.031-0.609 0.063-0.766 0.172-1.422 0.031-0.141 0.031-0.313-0.016-0.375-0.141-0.906-0.188-0.75-0.672-1.422-1.047-1.328-3.094-1.453h-1q-1.984 0.125-3.031 1.453-0.484 0.672-0.672 1.422-0.125 0.531-0.125 0.906 0 0.172 0.016 0.313 0.109 0.641 0.172 1.406 0.031 0.406 0.031 0.672 0 0.219-0.016 0.344-0.031 0.078-0.063 0.172-0.094 0.234-0.094 0.57t0.094 0.789q0.234 1.188 0.688 1.719l0.094 0.094 0.016 0.125q0.109 0.906 0.5 1.719 0.25 0.547 0.25 1.547 0 0.266-0.008 0.383t-0.047 0.273-0.133 0.234-0.25 0.141q-1.219 0.359-2.867 0.945t-2.414 0.914q-0.734 0.313-0.734 1.094v2.828zM17.469 7.891l5.406-2.203-0.5 1.734q3.016 1.016 4 3.75 0.219 0.578 0.281 0.797 0.047 0.188 0.047 0.359v0.078q-0.016 0.219-0.172 0.359l-0.219 0.203-0.297-0.063q-0.266-0.047-0.422-0.297-0.125-0.203-0.461-0.602t-0.586-0.602q-1.172-0.922-2.953-1.234l-0.5 1.719zM18.922 8.219l1.781 1.953 0.266-0.953 0.375 0.047q2.25 0.297 3.734 1.469 0.141 0.125 0.328 0.313-0.984-2.172-3.672-2.938l-0.406-0.125 0.234-0.844z"></path>
</svg>
