<svg xmlns="http://www.w3.org/2000/svg" width="30.16" height="39.62" viewBox="0 0 30.16 39.62"><defs><style>.a{fill:#010101;}</style></defs><title>Keyskills 3</title><path class="a" d="M15.08,16.36a5.73,5.73,0,1,0,5.73,5.73A5.73,5.73,0,0,0,15.08,16.36Zm0,9.47a3.73,3.73,0,0,1,0-7.46h0A3.74,3.74,0,0,1,15.08,25.83Z" transform="translate(0.01 0.03)"/><path class="a" d="M27.77,31.6H24.63L30,23.31a1,1,0,0,0,0-1.08L15.91,0.43a1,1,0,0,0-1.68,0L0.15,22.23a1,1,0,0,0,0,1.08L5.51,31.6H2.4A2.32,2.32,0,0,0,.09,33.91v3.37A2.32,2.32,0,0,0,2.4,39.59H27.77a2.32,2.32,0,0,0,2.31-2.31V33.91A2.32,2.32,0,0,0,27.77,31.6ZM2.17,22.78L14.08,4.3v9.29a1,1,0,1,0,2,0V4.36L27.95,22.78l-5.7,8.82H7.86ZM28.08,37.27h0a0.31,0.31,0,0,1-.31.31H2.4a0.31,0.31,0,0,1-.31-0.31V33.9h0a0.31,0.31,0,0,1,.31-0.31H27.77a0.31,0.31,0,0,1,.31.31v3.37Z" transform="translate(0.01 0.03)"/></svg>