<?xml version="1.0" encoding="utf-8"?>
<!-- Generator: Adobe Illustrator 22.1.0, SVG Export Plug-In . SVG Version: 6.00 Build 0)  -->
<svg version="1.1" id="Layer_1" xmlns="http://www.w3.org/2000/svg" xmlns:xlink="http://www.w3.org/1999/xlink" x="0px" y="0px"
	 viewBox="0 0 14 17.3" style="enable-background:new 0 0 14 17.3;" xml:space="preserve">
<style type="text/css">
	.st0{fill:#CCCCCC;}
</style>
<title>keyskill</title>
<g>
	<path class="st0" d="M12.9,14.6c0-0.7-0.6-1.3-1.3-1.3h-0.7l2-3.2c0.1-0.1,0.2-0.4,0.1-0.5L7.3,0.9C7.2,0.6,6.9,0.6,6.6,0.7
		c-0.1,0-0.1,0.1-0.1,0.1L0.9,9.6c-0.1,0.2-0.1,0.4,0,0.5l2,3.2H2.2c-0.7,0-1.3,0.6-1.3,1.3v0.9c0,0.7,0.6,1.3,1.3,1.3h9.4
		c0.7,0,1.3-0.6,1.3-1.3c0,0,0,0,0,0V14.6z M1.9,9.8l4.5-7V6c0,0.3,0.2,0.5,0.5,0.5c0.3,0,0.5-0.2,0.5-0.5V2.8l4.5,7l-2.2,3.4H4.1
		L1.9,9.8z M12,15.5c0,0.2-0.1,0.3-0.3,0.3c0,0,0,0,0,0H2.2c-0.2,0-0.3-0.1-0.3-0.3v-0.9c0-0.2,0.1-0.3,0.3-0.3h9.4
		c0.2,0,0.3,0.1,0.3,0.3c0,0,0,0,0,0H12V15.5z"/>
	<path class="st0" d="M6.9,12c1.3,0,2.4-1.1,2.4-2.4c0,0,0,0,0,0c0-1.3-1.1-2.4-2.4-2.4c-1.3,0-2.4,1.1-2.4,2.4S5.6,12,6.9,12z
		 M6.9,8.2c0.8,0,1.4,0.6,1.4,1.4C8.3,10.3,7.7,11,7,11c0,0,0,0,0,0v0c-0.8,0-1.4-0.6-1.4-1.4S6.2,8.2,6.9,8.2z"/>
</g>
</svg>
