<svg width="20" height="20" viewBox="0 0 20 20" fill="none" xmlns="http://www.w3.org/2000/svg">
<path fill-rule="evenodd" clip-rule="evenodd" d="M16.7451 5.22433L7.73788 2.87583L4.90642 14.7518L13.9136 17.1003L16.7451 5.22433ZM8.15838 1.26309C7.25443 1.02739 6.33331 1.58059 6.11666 2.4893L3.28519 14.3653C3.07488 15.2474 3.60842 16.1358 4.48592 16.3645L13.4931 18.713C14.3971 18.9487 15.3182 18.3955 15.5348 17.4868L18.3663 5.61086C18.5766 4.72875 18.0431 3.84037 17.1656 3.61158L8.15838 1.26309Z" fill="#457EFF"/>
<path d="M1.0835 4.01432C1.0835 3.09385 1.82969 2.34766 2.75016 2.34766H11.6427C12.5632 2.34766 13.3094 3.09385 13.3094 4.01432V16.9821C13.3094 17.9026 12.5632 18.6488 11.6427 18.6488H2.75016C1.82969 18.6488 1.0835 17.9026 1.0835 16.9821V4.01432Z" fill="white"/>
<path fill-rule="evenodd" clip-rule="evenodd" d="M11.6427 4.01432L2.75016 4.01432V16.9821L11.6427 16.9821V4.01432ZM2.75016 2.34766C1.82969 2.34766 1.0835 3.09385 1.0835 4.01432V16.9821C1.0835 17.9026 1.82969 18.6488 2.75016 18.6488H11.6427C12.5632 18.6488 13.3094 17.9026 13.3094 16.9821V4.01432C13.3094 3.09385 12.5632 2.34766 11.6427 2.34766H2.75016Z" fill="#457EFF"/>
</svg>
