<svg width="6" height="10" viewBox="0 0 6 10" fill="none" xmlns="http://www.w3.org/2000/svg">
<path d="M5.35826 9.16664C5.51347 9.01051 5.60059 8.7993 5.60059 8.57914C5.60059 8.35899 5.51347 8.14778 5.35826 7.99164L2.40826 4.99998L5.35826 2.04998C5.51347 1.89384 5.60059 1.68263 5.60059 1.46248C5.60059 1.24232 5.51347 1.03111 5.35826 0.874978C5.28079 0.796871 5.18862 0.734875 5.08707 0.692568C4.98552 0.650261 4.8766 0.628479 4.76659 0.628479C4.65658 0.628479 4.54766 0.650261 4.44611 0.692568C4.34456 0.734875 4.25239 0.796871 4.17493 0.874978L0.641592 4.40831C0.563485 4.48578 0.50149 4.57795 0.459182 4.6795C0.416875 4.78105 0.395093 4.88997 0.395093 4.99998C0.395093 5.10999 0.416875 5.21891 0.459182 5.32046C0.50149 5.42201 0.563485 5.51417 0.641592 5.59164L4.17493 9.16664C4.25239 9.24475 4.34456 9.30675 4.44611 9.34905C4.54766 9.39136 4.65658 9.41314 4.76659 9.41314C4.8766 9.41314 4.98552 9.39136 5.08707 9.34905C5.18862 9.30675 5.28079 9.24475 5.35826 9.16664Z" fill="#8292B4"/>
</svg>
