<svg id="Layer_1" data-name="Layer 1" xmlns="http://www.w3.org/2000/svg" viewBox="0 0 24 24"><defs><style>.cls-1{fill:#00759e;}</style></defs><title>1Linkedin</title><path class="cls-1" d="M20,0H4A4,4,0,0,0,0,4V20a4,4,0,0,0,4,4H20a4,4,0,0,0,4-4V4A4,4,0,0,0,20,0ZM8.77,18H5.21V9.23H8.77ZM7,8H7c-1.2,0-2-.67-2-1.51S5.8,5,7,5s2,.66,2,1.52S8.23,8,7,8ZM19,18H16.05V13.3c0-1.19-.42-2-1.49-2a1.59,1.59,0,0,0-1.51,1.07,1.9,1.9,0,0,0-.1.71V18H10s0-8,0-8.79H13v1.24A2.92,2.92,0,0,1,15.61,9C17.55,9,19,10.26,19,13Z"/></svg>