<svg width="14" height="18" viewBox="0 0 14 18" fill="none" xmlns="http://www.w3.org/2000/svg">
<path d="M11.1668 6.50033V4.83366C11.1668 3.72859 10.7278 2.66878 9.94644 1.88738C9.16504 1.10598 8.10523 0.666992 7.00016 0.666992C5.89509 0.666992 4.83529 1.10598 4.05388 1.88738C3.27248 2.66878 2.8335 3.72859 2.8335 4.83366V6.50033C2.17045 6.50033 1.53457 6.76372 1.06573 7.23256C0.596888 7.7014 0.333496 8.33728 0.333496 9.00033V14.8337C0.333496 15.4967 0.596888 16.1326 1.06573 16.6014C1.53457 17.0703 2.17045 17.3337 2.8335 17.3337H11.1668C11.8299 17.3337 12.4658 17.0703 12.9346 16.6014C13.4034 16.1326 13.6668 15.4967 13.6668 14.8337V9.00033C13.6668 8.33728 13.4034 7.7014 12.9346 7.23256C12.4658 6.76372 11.8299 6.50033 11.1668 6.50033ZM4.50016 4.83366C4.50016 4.17062 4.76355 3.53473 5.2324 3.06589C5.70124 2.59705 6.33712 2.33366 7.00016 2.33366C7.6632 2.33366 8.29909 2.59705 8.76793 3.06589C9.23677 3.53473 9.50016 4.17062 9.50016 4.83366V6.50033H4.50016V4.83366ZM12.0002 14.8337C12.0002 15.0547 11.9124 15.2666 11.7561 15.4229C11.5998 15.5792 11.3878 15.667 11.1668 15.667H2.8335C2.61248 15.667 2.40052 15.5792 2.24424 15.4229C2.08796 15.2666 2.00016 15.0547 2.00016 14.8337V9.00033C2.00016 8.77931 2.08796 8.56735 2.24424 8.41107C2.40052 8.25479 2.61248 8.16699 2.8335 8.16699H11.1668C11.3878 8.16699 11.5998 8.25479 11.7561 8.41107C11.9124 8.56735 12.0002 8.77931 12.0002 9.00033V14.8337Z" fill="#8292B4"/>
</svg>
