<!-- Generated by IcoMoon.io -->
<svg version="1.1" xmlns="http://www.w3.org/2000/svg" width="32" height="32" viewBox="0 0 32 32">
<title>lock</title>
<path d="M3.266 29.281v-12.453q0-1.156 0.813-1.969t1.969-0.813v-3.422q0-2.813 1.391-5.203t3.773-3.781 5.203-1.391 5.203 1.391 3.773 3.773 1.391 5.211v3.422q1.156 0 1.969 0.813t0.813 1.969v12.453q0 1.156-0.813 1.969t-1.969 0.813h-20.734q-1.156 0-1.969-0.82t-0.813-1.961zM4.063 29.281q0 0.797 0.594 1.383t1.391 0.586h20.734q0.797 0 1.391-0.586t0.594-1.383v-12.453q0-0.797-0.578-1.391t-1.406-0.594h-0.797v-4.219q0-3.969-2.797-6.773t-6.766-2.805-6.773 2.805-2.805 6.773v4.219h-0.797q-0.797 0-1.391 0.594t-0.594 1.391v12.453zM11.078 15.578h9.906v-3.938q0-2.047-1.453-3.484t-3.5-1.438-3.5 1.438-1.453 3.484v3.938zM11.484 15.188h9.094v-3.547q0-1.859-1.328-3.203t-3.219-1.344-3.219 1.344-1.328 3.203v3.547zM11.875 14.781v-3.141q0-1.703 1.211-2.914t2.945-1.211 2.945 1.219 1.211 2.906v3.141h-8.313zM15.297 21.719v-0.375q0-0.641 0.367-1.063t0.977-0.422q0.641 0 1.086 0.438t0.445 1.047q0 0.281-0.289 0.695t-0.289 0.508v2.25h-1.594v-2.313q-0.156-0.063-0.289-0.109t-0.211-0.141-0.125-0.141-0.063-0.195-0.016-0.18zM15.516 21.344q0 0.547 0.391 0.828l0.094 0.313v2.313h0.797v-2.25l0.328-0.313q0.609-0.453 0.609-0.891 0-0.453-0.32-0.773t-0.773-0.32-0.789 0.32-0.336 0.773zM16.031 21.344q0-0.281 0.18-0.477t0.43-0.195q0.281 0 0.492 0.188t0.211 0.484q0 0.391-0.25 0.531l-0.297 0.672v1.453-1.516l-0.438-0.609q-0.313-0.281-0.328-0.531z"></path>
</svg>
