<svg width="9" height="13" viewBox="0 0 9 13" fill="none" xmlns="http://www.w3.org/2000/svg">
<path d="M4.41995 12.14C2.31995 12.14 0.613281 10.4333 0.613281 8.33333C0.613281 6.48667 1.95995 4.91333 3.77328 4.6V2.2L3.04661 2.92667C2.92661 3.04667 2.75995 3.12 2.58661 3.12C2.41328 3.12 2.25328 3.05333 2.12661 2.92667C1.87328 2.67333 1.87328 2.26 2.12661 2.00667L3.97995 0.18C4.07328 0.0733333 4.24661 0 4.41995 0C4.59995 0 4.76661 0.0733333 4.89328 0.206667L6.71328 2.00667C6.83328 2.12667 6.89995 2.29333 6.89995 2.46667C6.89995 2.64 6.83328 2.8 6.71328 2.92667C6.59328 3.04667 6.42661 3.12 6.25328 3.12C6.07995 3.12 5.91995 3.05333 5.79328 2.92667L5.07328 2.2V4.6C6.88661 4.91333 8.23328 6.48667 8.23328 8.33333C8.22661 10.4333 6.51995 12.14 4.41995 12.14ZM4.41995 5.82C3.03995 5.82 1.91328 6.94667 1.91328 8.32667C1.91328 9.70667 3.03995 10.8333 4.41995 10.8333C5.79995 10.8333 6.92661 9.70667 6.92661 8.32667C6.92661 6.94667 5.80661 5.82 4.41995 5.82Z" fill="#FFC000"/>
</svg>
