<svg width="18" height="18" viewBox="0 0 18 18" fill="none" xmlns="http://www.w3.org/2000/svg">
<path d="M12.0431 13.2793L12.3915 13.0089L12.7033 13.3207L16.5033 17.1207L16.5095 17.1269L16.5155 17.1333C16.5556 17.1764 16.604 17.2109 16.6577 17.2348L16.6579 17.2349C16.7111 17.2586 16.769 17.2715 16.8281 17.2726C16.8865 17.2736 16.9448 17.2629 16.9996 17.2407C17.0541 17.2188 17.1034 17.1861 17.1447 17.1447L17.145 17.1445C17.1866 17.1028 17.2194 17.0533 17.2412 16.9991L17.7049 17.1863L17.2412 16.9991C17.2634 16.9443 17.2741 16.886 17.2731 16.8276C17.272 16.7686 17.2592 16.7107 17.2353 16.6572L17.692 16.4536L17.2353 16.6572C17.2114 16.6035 17.1769 16.5551 17.1338 16.515L17.1274 16.509L17.1212 16.5028L13.3212 12.7028L13.0094 12.391L13.2798 12.0426C14.3718 10.6361 14.8867 8.86625 14.7196 7.09343L14.7196 7.0934C14.5526 5.32058 13.7163 3.67805 12.3808 2.5002L12.7065 2.13095L12.3808 2.50019C11.0453 1.32232 9.31115 0.697688 7.53135 0.753435C5.75154 0.80919 4.05988 1.54113 2.80075 2.80026L12.0431 13.2793ZM12.0431 13.2793C10.6366 14.3713 8.86675 14.8862 7.09392 14.7191L7.09388 14.7191M12.0431 13.2793L7.09388 14.7191M7.09388 14.7191C5.32107 14.5521 3.67854 13.7158 2.50068 12.3803L2.12569 12.711M7.09388 14.7191L2.12569 12.711M2.12569 12.711L2.50068 12.3803C1.32281 11.0448 0.698179 9.31065 0.753923 7.53086M2.12569 12.711L0.753923 7.53086M13.6748 12.3493C14.8448 10.8422 15.3964 8.94597 15.2174 7.04652C15.0385 5.14705 14.1424 3.38719 12.7115 2.1252L13.6748 12.3493ZM13.6748 12.3493L17.4748 16.1493L13.6748 12.3493ZM0.753923 7.53086C0.809678 5.75105 1.54162 4.05938 2.80074 2.80026L0.753923 7.53086ZM12.0808 12.0804L12.0809 12.0803C12.6495 11.5115 13.1007 10.8363 13.4085 10.0932C13.7163 9.35005 13.8748 8.55358 13.8748 7.74927C13.8748 6.12481 13.2295 4.5669 12.0808 3.41824L12.0808 3.41823C10.9321 2.26957 9.3742 1.62427 7.74975 1.62427C6.1253 1.62427 4.56739 2.26957 3.41873 3.41824C2.27006 4.56689 1.62476 6.12481 1.62476 7.74927C1.62476 8.5536 1.78317 9.35008 2.09099 10.0932C2.39881 10.8363 2.84996 11.5115 3.41872 12.0803L3.41875 12.0803C3.98749 12.649 4.66268 13.1002 5.40577 13.4081L5.40585 13.4081C6.14895 13.7158 6.94541 13.8743 7.74975 13.8743C8.5541 13.8743 9.35056 13.7158 10.0937 13.4081L10.0937 13.4081C10.8368 13.1002 11.512 12.649 12.0808 12.0804Z" fill="#24292E" stroke="white"/>
</svg>
