<svg width="18" height="18" viewBox="0 0 18 18" fill="none" xmlns="http://www.w3.org/2000/svg">
<path d="M13.6101 12.528L13.3286 12.879L13.648 13.1958L16.7351 16.258C16.7935 16.3198 16.826 16.4016 16.826 16.4867C16.826 16.5721 16.7932 16.6541 16.7345 16.716C16.704 16.7462 16.668 16.7702 16.6284 16.7867C16.5877 16.8036 16.5442 16.8124 16.5002 16.8124C16.4562 16.8124 16.4126 16.8036 16.372 16.7867C16.3314 16.7698 16.2945 16.745 16.2635 16.7138L16.2621 16.7123L13.1954 13.6456L12.8785 13.3288L12.529 13.6091C11.1324 14.7292 9.35979 15.2716 7.57557 15.1249C5.79135 14.9781 4.13117 14.1533 2.93639 12.8201C1.74162 11.4869 1.10307 9.74654 1.15204 7.95697C1.20101 6.16739 1.93377 4.46459 3.19967 3.19869C4.46556 1.9328 6.16837 1.20003 7.95794 1.15106C9.74752 1.10209 11.4878 1.74064 12.8211 2.93542C14.1543 4.13019 14.9791 5.79037 15.1259 7.57459C15.2726 9.35881 14.7302 11.1315 13.6101 12.528ZM4.64822 13.4318C5.68973 14.1277 6.91422 14.4992 8.16683 14.4992C9.84654 14.4992 11.4574 13.8319 12.6452 12.6442C13.8329 11.4565 14.5002 9.84556 14.5002 8.16585C14.5002 6.91324 14.1287 5.68875 13.4328 4.64724C12.7369 3.60573 11.7478 2.79397 10.5905 2.31462C9.43323 1.83526 8.15981 1.70984 6.93126 1.95421C5.70271 2.19859 4.57422 2.80178 3.68849 3.68751C2.80276 4.57324 2.19956 5.70174 1.95519 6.93028C1.71082 8.15883 1.83624 9.43225 2.31559 10.5895C2.79495 11.7468 3.60671 12.7359 4.64822 13.4318Z" fill="#8292B4" stroke="#8292B4"/>
</svg>
