<?xml version="1.0" encoding="UTF-8"?>
<svg width="122px" height="144px" viewBox="0 0 122 144" version="1.1" xmlns="http://www.w3.org/2000/svg" xmlns:xlink="http://www.w3.org/1999/xlink">
    <!-- Generator: Sketch 52.5 (67469) - http://www.bohemiancoding.com/sketch -->
    <title>Group 38</title>
    <desc>Created with Sketch.</desc>
    <g id="Page-1" stroke="none" stroke-width="1" fill="none" fill-rule="evenodd">
        <g id="Artboard" transform="translate(-2805.000000, -1082.000000)" fill="#010101" fill-rule="nonzero">
            <g id="Group-38" transform="translate(2805.000000, 1082.000000)">
                <g id="Group-15-Copy">
                    <path d="M97.4,44.8 L101.4,44.8 C101.4,67.1045695 83.3045695,85.2 61,85.2 C38.6954305,85.2 20.6,67.1045695 20.6,44.8 L24.6,44.8 C24.6,64.8954305 40.9045695,81.2 61,81.2 C81.0954305,81.2 97.4,64.8954305 97.4,44.8 Z" id="Path"></path>
                    <path d="M20.2,44.8 C20.2,45.9045695 19.3045695,46.8 18.2,46.8 C17.0954305,46.8 16.2,45.9045695 16.2,44.8 C16.2,20.0954305 36.2954305,-2.84217094e-14 61,-2.84217094e-14 C85.7045695,-2.84217094e-14 105.8,20.0954305 105.8,44.8 C105.8,45.9045695 104.904569,46.8 103.8,46.8 C102.695431,46.8 101.8,45.9045695 101.8,44.8 C101.8,22.3045695 83.4954305,4 61,4 C38.5045695,4 20.2,22.3045695 20.2,44.8 Z" id="Path"></path>
                    <path d="M4.2,142 C4.2,143.104569 3.3045695,144 2.2,144 C1.0954305,144 0.2,143.104569 0.2,142 C0.2,108.395431 27.3954305,81.2 61,81.2 C94.6045695,81.2 121.8,108.395431 121.8,142 C121.8,143.104569 120.904569,144 119.8,144 C118.695431,144 117.8,143.104569 117.8,142 C117.8,110.604569 92.3954305,85.2 61,85.2 C29.6045695,85.2 4.2,110.604569 4.2,142 Z" id="Path"></path>
                    <path d="M12,47 C10.8954305,47 10,46.1045695 10,45 C10,43.8954305 10.8954305,43 12,43 L110,43 C111.104569,43 112,43.8954305 112,45 C112,46.1045695 111.104569,47 110,47 L12,47 Z" id="Path"></path>
                </g>
                <path d="M50.6320458,39 C50.6320458,40.1045695 49.7366153,41 48.6320458,41 C47.5274763,41 46.6320458,40.1045695 46.6320458,39 L46.6320458,16.8629264 C46.6320458,15.1934647 48.5566405,14.2588111 49.8687032,15.2910872 L59.2153656,22.6446506 L68.5620281,15.2910872 C69.8740907,14.2588111 71.7986855,15.1934647 71.7986855,16.8629264 L71.7986855,39 C71.7986855,40.1045695 70.903255,41 69.7986855,41 C68.694116,41 67.7986855,40.1045695 67.7986855,39 L67.7986855,20.9812324 L60.452023,26.7612794 C59.7264112,27.3321604 58.7043201,27.3321604 57.9787082,26.7612794 L50.6320458,20.9812324 L50.6320458,39 Z" id="Path-27"></path>
            </g>
        </g>
    </g>
</svg>