<?xml version="1.0" encoding="UTF-8"?>
<svg width="144px" height="127px" viewBox="0 0 144 127" version="1.1" xmlns="http://www.w3.org/2000/svg" xmlns:xlink="http://www.w3.org/1999/xlink">
    <!-- Generator: Sketch 52.5 (67469) - http://www.bohemiancoding.com/sketch -->
    <title>Search Marketing 2</title>
    <desc>Created with Sketch.</desc>
    <g id="Page-1" stroke="none" stroke-width="1" fill="none" fill-rule="evenodd">
        <g id="Search-Marketing-2" transform="translate(2.000000, 1.000000)" fill="#000000" fill-rule="nonzero">
            <g id="Search-Marketing">
                <path d="M10,3 L10,90 L130,90 L130,3 L10,3 Z M8,-1 L132,-1 C133.104569,-1 134,-0.1045695 134,1 L134,92 C134,93.1045695 133.104569,94 132,94 L8,94 C6.8954305,94 6,93.1045695 6,92 L6,1 C6,-0.1045695 6.8954305,-1 8,-1 Z" id="Rectangle"></path>
                <path d="M0,3 C-1.1045695,3 -2,2.1045695 -2,1 C-2,-0.1045695 -1.1045695,-1 0,-1 L140,-1 C141.104569,-1 142,-0.1045695 142,1 C142,2.1045695 141.104569,3 140,3 L0,3 Z" id="Path"></path>
                <g id="Group" transform="translate(47.000000, 92.000000)">
                    <path d="M15.1439924,-0.857307358 C15.6726987,-1.82712357 16.8874912,-2.18471384 17.8573074,-1.65600758 C18.8271236,-1.12730133 19.1847138,0.0874911511 18.6560076,1.05730736 L1.75600758,32.0573074 C1.22730133,33.0271236 0.0125088489,33.3847138 -0.957307358,32.8560076 C-1.92712357,32.3273013 -2.28471384,31.1125088 -1.75600758,30.1426926 L15.1439924,-0.857307358 Z" id="Path"></path>
                    <path d="M27.3439924,1.05730736 C26.8152862,0.0874911511 27.1728764,-1.12730133 28.1426926,-1.65600758 C29.1125088,-2.18471384 30.3273013,-1.82712357 30.8560076,-0.857307358 L47.7560076,30.1426926 C48.2847138,31.1125088 47.9271236,32.3273013 46.9573074,32.8560076 C45.9874912,33.3847138 44.7726987,33.0271236 44.2439924,32.0573074 L27.3439924,1.05730736 Z" id="Path"></path>
                </g>
                <path d="M50.1971109,43.225538 L27.1113186,66.2171027 C26.3286744,66.9965524 25.0623471,66.9939627 24.2828973,66.2113186 C23.5034476,65.4286744 23.5060373,64.1623471 24.2886814,63.3828973 L48.7886814,38.9828973 C49.5701941,38.2045745 50.8342942,38.205867 51.6142136,38.9857864 L76,63.3715729 L112.885786,26.4857864 C113.666835,25.7047379 114.933165,25.7047379 115.714214,26.4857864 C116.495262,27.266835 116.495262,28.533165 115.714214,29.3142136 L77.4142136,67.6142136 C76.633165,68.3952621 75.366835,68.3952621 74.5857864,67.6142136 L50.1971109,43.225538 Z" id="Path"></path>
            </g>
        </g>
    </g>
</svg>