<?xml version="1.0" encoding="UTF-8"?>
<svg width="1131px" height="169px" viewBox="0 0 1131 169" version="1.1" xmlns="http://www.w3.org/2000/svg" xmlns:xlink="http://www.w3.org/1999/xlink">
    <!-- Generator: Sketch 52.5 (67469) - http://www.bohemiancoding.com/sketch -->
    <title>Group 8</title>
    <desc>Created with Sketch.</desc>
    <defs>
        <polygon id="path-1" points="0.988389625 0.0849528356 131.8454 0.0849528356 131.8454 167 0.988389625 167"></polygon>
        <polygon id="path-3" points="0 187.483 1479.49 187.483 1479.49 0 0 0"></polygon>
    </defs>
    <g id="Page-1" stroke="none" stroke-width="1" fill="none" fill-rule="evenodd">
        <g id="Artboard" transform="translate(-208.000000, -132.000000)">
            <g id="Group-8" transform="translate(208.000000, 113.000000)">
                <path d="M24.8678,20.2022 C24.0828,21.4102 23.2618,22.5812 22.4758,23.7892 C24.9708,23.7592 26.2848,22.5502 28.4548,22.1952 C29.6348,24.2052 26.1268,24.5292 26.0628,26.5782 C28.2908,26.8172 30.7798,23.9582 32.0418,25.7822 C32.4738,27.4032 29.1208,28.3472 28.4548,30.1652 C29.1188,30.4132 32.5188,29.9932 34.4328,30.1652 C37.9208,41.1842 28.6458,49.7022 19.6868,50.4922 C5.6928,51.7252 -5.9732,37.2672 3.3468,25.3832 C7.2238,20.4372 16.0618,17.1992 24.8678,20.2022" id="Fill-1" fill="#ED1B24"></path>
                <g id="Group-5" transform="translate(9.000000, 20.483000)">
                    <mask id="mask-2" fill="white">
                        <use xlink:href="#path-1"></use>
                    </mask>
                    <g id="Clip-4"></g>
                    <path d="M21.0484,119.6816 C45.5394,141.3056 85.0544,153.8046 118.6934,162.7246 C119.3704,162.8146 119.6794,162.2756 118.6934,162.3266 C107.4744,156.9466 95.9054,150.5446 86.0114,143.9936 C82.5834,141.7226 79.4864,138.5446 76.0484,136.8196 C74.1554,135.8686 71.6694,135.6286 69.6714,134.8266 C63.7164,132.4356 58.2144,129.6016 52.5334,126.8556 C30.1434,116.0316 9.5304,102.5676 3.5134,75.0446 C-0.1956,96.0856 9.9604,109.8906 21.0484,119.6816 M70.4684,14.0666 C68.3744,14.7296 66.2164,17.1626 64.0914,18.8496 C51.8774,28.5446 38.2534,42.6626 36.9904,61.4936 C36.8334,63.8316 36.4374,66.3626 37.7874,68.6676 C40.1894,52.4226 49.9344,42.2776 59.7084,33.1976 C69.6814,23.9316 82.1854,17.0096 94.3824,10.0816 C85.7004,9.8896 77.3124,11.9016 70.4684,14.0666 M131.8454,166.3116 C131.3394,167.6586 128.3454,166.6776 126.6634,166.3116 C115.0974,163.7946 101.8044,159.9566 90.3964,156.3476 C64.1934,148.0596 39.5384,137.9886 20.2514,121.2756 C10.0544,112.4396 -0.3046,99.4136 1.1204,80.6236 C1.4414,76.4066 3.1324,72.8176 3.9114,69.0666 C4.5924,65.7836 4.4134,63.0446 5.1074,60.2986 C9.3424,43.5176 22.3274,30.4286 35.3964,20.8426 C50.4314,9.8146 69.2364,-0.5734 93.1854,0.1176 C87.3414,3.8396 80.6344,6.6966 75.2514,10.8786 C82.4954,9.3716 91.6934,7.3336 99.9604,9.2846 C79.3984,20.3696 58.4414,31.1006 45.7594,51.5306 C41.8274,57.8636 37.5814,67.6956 38.5854,76.2406 C39.1234,80.8336 42.2354,86.0886 44.9614,90.5876 C62.8414,120.0916 94.0304,137.2886 126.6634,151.5656 C112.3454,149.4106 97.8374,143.9926 84.0194,140.0076 C83.6964,139.9316 83.6224,139.6076 83.2224,139.6096 C95.5194,148.7246 110.0384,157.3276 125.4684,163.5216 C127.5564,164.3596 130.2864,164.3156 131.8454,166.3116" id="Fill-3" fill="#006CB7" mask="url(#mask-2)"></path>
                </g>
                <mask id="mask-4" fill="white">
                    <use xlink:href="#path-3"></use>
                </mask>
                <g id="Clip-6"></g>
                <text id="naukri-com" mask="url(#mask-4)" font-family="Arial-Black, Arial Black" font-size="160" font-weight="700">
                    <tspan x="162.7397" y="139.6529" fill="#27ABE0">naukri</tspan>
                    <tspan x="713.911575" y="139.6529" fill="#4BB549"> </tspan>
                    <tspan x="767.27095" y="139.6529" fill="#0B6CB6">com</tspan>
                </text>
                <path d="M754.4899,125.8033 C754.4899,133.2593 748.4459,139.3033 740.9899,139.3033 C733.5339,139.3033 727.4899,133.2593 727.4899,125.8033 C727.4899,118.3473 733.5339,112.3033 740.9899,112.3033 C748.4459,112.3033 754.4899,118.3473 754.4899,125.8033" id="Fill-7" fill="#ED1B24" mask="url(#mask-4)"></path>
            </g>
        </g>
    </g>
</svg>