<?xml version="1.0" encoding="UTF-8"?>
<svg width="546px" height="89px" viewBox="0 0 546 89" version="1.1" xmlns="http://www.w3.org/2000/svg" xmlns:xlink="http://www.w3.org/1999/xlink">
    <!-- Generator: Sketch 52.5 (67469) - http://www.bohemiancoding.com/sketch -->
    <title>Group 2</title>
    <desc>Created with Sketch.</desc>
    <g id="Page-1" stroke="none" stroke-width="1" fill="none" fill-rule="evenodd">
        <g id="Group-2" fill="#000000">
            <path d="M64,16 L80,16 L80,23.3 C82,20.5 84.4,18.4 86.7,17.2 C89,16 91.8,15.4 95.1,15.4 C99.6,15.4 103.4,16.8 105.9,19.5 C108.5,22.2 109.9,26.4 109.9,32 L109.9,59 L93,59 L93,35.6 C93,32.9 92.5,31 91.5,29.9 C90.5,28.8 89.1,28.2 87.3,28.2 C85.3,28.2 83.9,29 82.6,30.5 C81.5,32 81,34.7 81,38.6 L81,59 L64,59 L64,16 Z" id="Path"></path>
            <path d="M134.3,30.2 L118.6,28.5 C119.2,25.8 120,23.6 121.2,22 C122.3,20.4 123.9,19.1 126,17.9 C127.5,17.1 129.6,16.4 132.2,16 C134.8,15.5 137.7,15.3 140.8,15.3 C145.7,15.3 149.7,15.6 152.7,16.1 C155.7,16.7 158.2,17.8 160.2,19.5 C161.6,20.7 162.9,22.4 163.7,24.6 C164.5,26.8 165.1,28.9 165.1,31 L165.1,50 C165.1,52 165,53.5 165.3,54.7 C165.6,55.8 165.9,57 166.8,59 L151.4,59 C150.8,58 150.4,57.1 150.2,56.6 C150,56 149.8,55.1 149.6,53.9 C147.4,56 145.3,57.5 143.2,58.4 C140.3,59.6 136.9,60.2 133.1,60.2 C128,60.2 124.1,59 121.5,56.7 C118.9,54.3 117.5,51.4 117.5,47.9 C117.5,44.6 118.5,42 120.4,39.9 C122.3,37.8 125.8,36.2 131,35.2 C137.2,34 141.1,33.1 143,32.6 C144.8,32.1 146.8,31.4 148.8,30.6 C148.8,28.6 148.4,27.2 147.5,26.4 C146.7,25.6 145.2,25.2 143.1,25.2 C140.4,25.2 138.4,25.6 137,26.5 C135.8,27.1 135,28.3 134.3,30.2 Z M149,38.8 C146,39.6 144.2,40.3 141.7,40.9 C138.4,41.8 136.1,42.7 135.3,43.5 C134.4,44.4 133.9,45.4 133.9,46.5 C133.9,47.8 134.3,48.8 135.2,49.7 C136.1,50.5 137.4,50.9 139.2,50.9 C141,50.9 142.7,50.5 144.3,49.6 C145.9,48.7 147.2,47.6 147.9,46.4 C148.6,45.1 149.1,43.5 149.1,41.4 L149.1,38.8 L149,38.8 Z" id="Shape" fill-rule="nonzero"></path>
            <path d="M220,59 L204,59 L204,52.2 C202,55.1 199.6,57.1 197.2,58.3 C194.9,59.5 192.1,60.1 188.7,60.1 C184.2,60.1 180.5,58.7 177.9,56 C175.3,53.3 173.9,49.1 173.9,43.5 L173.9,16 L190.9,16 L190.9,39.9 C190.9,42.6 191.3,44.5 192.3,45.6 C193.3,46.7 194.6,47.3 196.4,47.3 C198.4,47.3 199.8,46.5 201.1,45 C202.4,43.5 202.9,40.8 202.9,36.9 L202.9,16 L219.9,16 L219.9,59 L220,59 Z" id="Path"></path>
            <polygon id="Path" points="230 0 246 0 246 30.5 258.6 16 278.8 16 263.4 31.1 279.7 59 261.2 59 252.3 41.9 246 48 246 59 230 59"></polygon>
            <path d="M285,16 L300,16 L300,23.3 C302,20.3 303.1,18.2 304.7,17 C306.3,15.9 308.3,15.3 310.6,15.3 C313,15.3 315.7,16.1 318.6,17.6 L313.5,29.3 C311.6,28.5 310,28.1 308.9,28.1 C306.7,28.1 304.9,29 303.7,30.8 C302,33.3 301,38 301,44.8 L301,59 L285,59 L285,16 Z" id="Path"></path>
            <path d="M322,0 L338,0 L338,11 L322,11 L322,0 Z M322,16 L338,16 L338,59 L322,59 L322,16 Z" id="Shape" fill-rule="nonzero"></path>
            <path d="M394.8,42.4 L410.4,44.2 C409.5,47.5 408.1,50.3 406.2,52.7 C404.2,55.1 401.7,56.9 398.7,58.2 C395.6,59.5 391.8,60.2 387.1,60.2 C382.6,60.2 378.8,59.8 375.7,58.9 C372.7,58.1 370.1,56.7 367.9,54.8 C365.7,52.9 364,50.7 362.8,48.1 C361.6,45.5 360.9,42.2 360.9,37.9 C360.9,33.5 361.7,29.8 363.2,26.9 C364.3,24.8 365.8,22.8 367.7,21.1 C369.6,19.4 371.6,18.1 373.6,17.3 C376.8,16 380.9,15.3 385.9,15.3 C392.9,15.3 398.2,16.5 401.9,19.1 C405.6,21.6 408.1,25.3 409.6,30.1 L394.2,32.2 C393.7,30.4 392.8,29 391.6,28.1 C390.3,27.2 388.6,26.7 386.5,26.7 C383.8,26.7 381.6,27.7 379.9,29.6 C378.2,31.5 377.4,34.5 377.4,38.4 C377.4,41.9 378.2,44.6 379.9,46.4 C381.6,48.2 383.7,49.1 386.3,49.1 C388.5,49.1 390.3,48.5 391.7,47.4 C393,46.3 394.1,44.7 394.8,42.4 Z" id="Path"></path>
            <path d="M415.9,37.8 C415.9,31.3 418.1,25.9 422.5,21.6 C426.9,17.4 432.9,15.2 440.4,15.2 C449,15.2 455.5,17.7 459.8,22.7 C463.3,26.7 465.1,31.6 465.1,37.5 C465.1,44.1 462.9,49.5 458.5,53.7 C454.1,57.9 448.1,60 440.4,60 C433.5,60 427.9,58.3 423.7,54.8 C418.6,50.5 415.9,44.9 415.9,37.8 Z M432.4,37.8 C432.4,41.6 433.2,44.4 434.7,46.3 C436.2,48.1 438.2,49 440.5,49 C442.9,49 444.8,48.1 446.3,46.3 C447.8,44.5 448.6,41.6 448.6,37.6 C448.6,33.9 447.8,31.1 446.3,29.3 C444.8,27.5 442.9,26.6 440.6,26.6 C438.2,26.6 436.2,27.5 434.7,29.4 C433.2,31.2 432.4,34 432.4,37.8 Z" id="Shape" fill-rule="nonzero"></path>
            <path d="M473,16 L489,16 L489,22.6 C491,20 493.2,18.1 495.4,17 C497.7,15.9 500.2,15.3 503.4,15.3 C506.8,15.3 509.5,15.9 511.5,17.1 C513.5,18.3 515.1,20.1 516.4,22.5 C519,19.7 521.3,17.8 523.4,16.8 C525.5,15.8 528.1,15.3 531.2,15.3 C535.8,15.3 539.4,16.7 542,19.4 C544.6,22.1 545.9,26.4 545.9,32.2 L545.9,59 L528.9,59 L528.9,34.7 C528.9,32.8 528.7,31.3 528,30.4 C526.9,28.9 525.6,28.2 524,28.2 C522.1,28.2 520.7,28.9 519.5,30.3 C518.3,31.7 517.9,33.9 517.9,37 L517.9,59 L500.9,59 L500.9,35.5 C500.9,33.6 500.9,32.3 500.7,31.7 C500.3,30.6 499.8,29.8 499,29.1 C498.1,28.4 497.2,28.1 496,28.1 C494.1,28.1 492.8,28.8 491.5,30.2 C490.3,31.6 489.9,34 489.9,37.2 L489.9,59 L472.9,59 L472.9,16 L473,16 Z" id="Path"></path>
            <circle id="Oval" cx="351.3" cy="53" r="7"></circle>
            <polygon id="Path" points="314 88 314 70 317 70 317 88"></polygon>
            <path d="M332,88 L329,88 L329,81.3 C329,80 328.7,79.1 328.6,78.7 C328.5,78.3 328.1,78 327.8,77.8 C327.5,77.6 327,77.5 326.6,77.5 C326,77.5 325.5,77.7 325,78 C324.5,78.3 324.3,78.7 324.1,79.2 C323.9,79.7 323.9,80.7 323.9,82.1 L323.9,88.1 L320.9,88.1 L320.9,75 L323.9,75 L323.9,77 C324.9,75.6 326.2,74.9 327.8,74.9 C328.5,74.9 329.1,75 329.7,75.3 C330.3,75.6 330.7,75.9 331,76.3 C331.3,76.7 331.5,77.2 331.7,77.7 C331.8,78.2 331.9,79 331.9,79.9 L331.9,88 L332,88 Z" id="Path"></path>
            <path d="M347,88 L344,88 L344,85.8 C343,86.5 342.7,87 342,87.4 C341.3,87.7 340.5,87.9 339.8,87.9 C338.4,87.9 337.1,87.3 336.1,86.2 C335.1,85 334.5,83.4 334.5,81.4 C334.5,79.3 335,77.7 336,76.6 C337,75.5 338,74.9 339.6,74.9 C341,74.9 342,75.5 343,76.6 L343,70 L347,70 L347,88 Z M337.9,81.2 C337.9,82.5 338.1,83.5 338.5,84.1 C339,85 339.8,85.4 340.7,85.4 C341.5,85.4 342.1,85.1 342.6,84.4 C343.1,83.8 343.4,82.8 343.4,81.5 C343.4,80.1 343.1,79 342.6,78.4 C342.1,77.8 341.4,77.4 340.6,77.4 C339.8,77.4 339.2,77.7 338.6,78.3 C338.2,79 337.9,79.9 337.9,81.2 Z" id="Shape" fill-rule="nonzero"></path>
            <path d="M350,73 L350,70 L353,70 L353,73 L350,73 Z M350,88 L350,75 L353,75 L353,88 L350,88 Z" id="Shape" fill-rule="nonzero"></path>
            <path d="M359.1,79 L356.1,78.5 C356.4,77.3 357,76.4 357.8,75.8 C358.6,75.2 359.8,74.9 361.5,74.9 C363,74.9 364.1,75.1 364.8,75.4 C365.5,75.7 366,76.2 366.3,76.7 C366.6,77.2 366.7,78.2 366.7,79.7 L366.7,83.6 C366.7,84.7 366.8,85.7 366.9,86.2 C367,86.7 367.2,87 367.5,88 L364.2,88 C364.1,87 364,87.3 363.9,86.9 C363.8,86.7 363.8,86.5 363.8,86.4 C363.2,86.9 362.6,87.3 362,87.6 C361.4,87.9 360.7,88 359.9,88 C358.6,88 357.6,87.6 356.9,86.9 C356.2,86.2 355.8,85.3 355.8,84.2 C355.8,83.5 356,82.9 356.3,82.3 C356.6,81.7 357.1,81.3 357.7,81 C358.3,80.7 359.4,80.4 360.5,80.2 C362,79.9 362.9,79.6 363.9,79.4 L363.9,79.1 C363.9,78.5 363.5,78 363.2,77.7 C362.9,77.4 362.2,77.3 361.3,77.3 C360.7,77.3 360.2,77.4 359.9,77.6 C359.7,78 359.4,78.4 359.1,79 Z M364,81.7 C363,81.8 362.7,82 361.8,82.2 C360.9,82.4 360.2,82.6 359.9,82.8 C359.5,83.1 359.2,83.5 359.2,84 C359.2,84.5 359.3,84.9 359.7,85.2 C360,85.5 360.5,85.7 361,85.7 C361.6,85.7 362.2,85.5 362.7,85.1 C363.1,84.8 363.6,84.4 363.7,84 C363.8,83.7 364,83.2 364,82.4 L364,81.7 Z" id="Shape" fill-rule="nonzero"></path>
            <path d="M370,70 L373,70 L373,72.8 C373,73.8 373.1,74.5 372.9,75.1 C372.7,75.7 372.5,76.1 372,76.6 C371.5,77 371,77.4 370.3,77.6 L369.7,76.2 C370.4,76 370.9,75.8 371.1,75.4 C371.4,75 371.5,73.9 371.6,73.9 L370,73.9 L370,70 Z" id="Path"></path>
            <path d="M374.7,84.1 L378,83.6 C378.1,84.2 378.4,84.7 378.9,85.1 C379.3,85.4 379.9,85.6 380.7,85.6 C381.6,85.6 382.2,85.4 382.6,85.1 C382.9,84.9 383,84.6 383,84.2 C383,83.9 382.9,83.7 382.8,83.6 C382.6,83.4 382.3,83.3 381.7,83.2 C379,82.6 377.3,82.1 376.6,81.6 C375.6,80.9 375.1,80 375.1,78.8 C375.1,77.7 375.5,76.8 376.4,76.1 C377.3,75.4 378.6,75 380.4,75 C382.1,75 383.4,75.3 384.2,75.8 C385,76.4 385.6,77.2 385.9,78.3 L382.8,78.9 C382.7,78.4 382.4,78 382,77.8 C381.6,77.5 381.1,77.4 380.4,77.4 C379.5,77.4 378.9,77.5 378.5,77.8 C378.3,78 378.1,78.2 378.1,78.5 C378.1,78.7 378.2,78.9 378.4,79.1 C378.7,79.3 379.7,79.6 381.5,80 C383.3,80.4 384.5,80.9 385.2,81.5 C385.9,82.1 386.2,82.9 386.2,84 C386.2,85.1 385.7,86.1 384.8,87 C383.8,87.8 382.4,88.2 380.6,88.2 C378.9,88.2 377.6,87.9 376.6,87.2 C375.7,86.2 375,85.3 374.7,84.1 Z" id="Path"></path>
            <polygon id="Path" points="396 88 396 70 399.4 70 406 82 406 70 410 70 410 88 406.2 88 399 76.4 399 88"></polygon>
            <path d="M412.6,81.3 C412.6,80.2 412.9,79.1 413.4,78.1 C413.9,77.1 414.7,76.3 415.7,75.7 C416.7,75.2 417.8,74.9 419,74.9 C420.9,74.9 422.4,75.5 423.6,76.7 C424.8,77.9 425.4,79.5 425.4,81.4 C425.4,83.3 424.8,84.9 423.6,86.1 C422.4,87.3 420.8,88 419,88 C417.9,88 416.8,87.7 415.7,87.2 C414.7,86.7 413.9,85.9 413.3,84.9 C412.9,83.9 412.6,82.7 412.6,81.3 Z M416,81.4 C416,82.6 416.3,83.6 416.9,84.2 C417.5,84.9 418.2,85.2 419.1,85.2 C420,85.2 420.7,84.9 421.3,84.2 C421.9,83.5 422.2,82.6 422.2,81.3 C422.2,80.1 421.9,79.1 421.3,78.5 C420.7,77.8 420,77.5 419.1,77.5 C418.2,77.5 417.5,77.8 416.9,78.5 C416.3,79.2 416,80.2 416,81.4 Z" id="Shape" fill-rule="nonzero"></path>
            <polygon id="Path" points="428 88 428 84 431 84 431 88"></polygon>
            <path d="M443,88 L439,88 L439,75.2 C438,76.3 437,77.2 435,77.7 L435,74.7 C436,74.4 436.8,73.7 437.8,72.9 C438.8,72.1 439.5,71 439.9,70 L443,70 L443,88 Z" id="Path"></path>
            <path d="M461,70 L465,70 L465,81.4 C465,82.8 464.7,83.9 464.4,84.7 C464.1,85.7 463.4,86.5 462.5,87.1 C461.6,87.7 460.4,88 458.9,88 C457.2,88 455.9,87.5 454.9,86.6 C454,85.6 453.5,84.2 453.5,82.4 L456.8,82 C456.8,83 457,83.7 457.2,84.1 C457.6,84.7 458.1,85 458.9,85 C459.7,85 460.1,84.8 460.5,84.3 C460.8,83.9 460.9,82.9 460.9,81.5 L460.9,70 L461,70 Z" id="Path"></path>
            <path d="M467.6,81.3 C467.6,80.2 467.9,79.1 468.4,78.1 C468.9,77.1 469.7,76.3 470.7,75.7 C471.7,75.2 472.8,74.9 474,74.9 C475.9,74.9 477.4,75.5 478.6,76.7 C479.8,77.9 480.4,79.5 480.4,81.4 C480.4,83.3 479.8,84.9 478.6,86.1 C477.4,87.3 475.8,88 474,88 C472.9,88 471.8,87.7 470.7,87.2 C469.7,86.7 468.9,85.9 468.3,84.9 C467.8,83.9 467.6,82.7 467.6,81.3 Z M471,81.4 C471,82.6 471.3,83.6 471.9,84.2 C472.5,84.9 473.2,85.2 474.1,85.2 C475,85.2 475.7,84.9 476.3,84.2 C476.9,83.5 477.2,82.6 477.2,81.3 C477.2,80.1 476.9,79.1 476.3,78.5 C475.7,77.8 475,77.5 474.1,77.5 C473.2,77.5 472.5,77.8 471.9,78.5 C471.3,79.2 471,80.2 471,81.4 Z" id="Shape" fill-rule="nonzero"></path>
            <path d="M483,88 L483,70 L486,70 L486,76.6 C487,75.4 488.3,74.9 489.7,74.9 C491.2,74.9 492.5,75.5 493.5,76.6 C494.5,77.7 495,79.3 495,81.3 C495,83.4 494.5,85.1 493.5,86.2 C492.5,87.4 491.3,87.9 489.8,87.9 C489.1,87.9 488.4,87.7 487.7,87.4 C487,87 485.9,86.5 485.9,85.8 L485.9,88 L483,88 Z M486.2,81.2 C486.2,82.5 486.4,83.5 486.8,84.1 C487.4,85 488.1,85.4 489.1,85.4 C489.8,85.4 490.5,85.1 491,84.5 C491.5,83.9 491.8,82.9 491.8,81.6 C491.8,80.2 491.5,79.1 491,78.5 C490.5,77.9 489.8,77.5 489,77.5 C488.2,77.5 487.5,77.8 487,78.4 C486.5,79 486.2,79.9 486.2,81.2 Z" id="Shape" fill-rule="nonzero"></path>
            <path d="M503.6,82.1 L507,81.8 C507.2,82.9 507.6,83.8 508.2,84.3 C508.8,84.8 509.7,85.1 510.7,85.1 C511.8,85.1 512.7,84.9 513.2,84.4 C513.8,83.9 514.1,83.4 514.1,82.7 C514.1,82.3 514,81.9 513.7,81.7 C513.5,81.4 513,81.2 512.4,81 C512,80.9 511.1,80.6 509.6,80.2 C507.7,79.7 506.4,79.2 505.7,78.5 C504.6,77.5 504.1,76.4 504.1,75 C504.1,74.1 504.3,73.3 504.8,72.5 C505.3,71.7 506,71.2 507,70.8 C507.9,70.4 509.1,70.2 510.4,70.2 C512.6,70.2 514.2,70.7 515.3,71.6 C516.4,72.5 517,73.8 517,75.4 L513.5,75.6 C513.4,74.7 513,74.1 512.5,73.7 C512,73.3 511.3,73.1 510.3,73.1 C509.3,73.1 508.5,73.3 507.9,73.7 C507.5,74 507.3,74.3 507.3,74.8 C507.3,75.2 507.5,75.6 507.8,75.8 C508.2,76.2 509.3,76.6 511,77 C512.7,77.4 513.9,77.8 514.8,78.2 C515.6,78.6 516.2,79.2 516.7,80 C517.2,80.7 517.4,81.7 517.4,82.7 C517.4,83.7 517.1,84.6 516.6,85.5 C516.1,86.4 515.3,87 514.3,87.4 C513.3,87.8 512,88 510.5,88 C508.3,88 506.6,87.5 505.5,86.5 C504.5,85.5 503.8,84 503.6,82.1 Z" id="Path"></path>
            <path d="M521,73 L521,70 L524,70 L524,73 L521,73 Z M521,88 L521,75 L524,75 L524,88 L521,88 Z" id="Shape" fill-rule="nonzero"></path>
            <path d="M533,75 L533,78 L531,78 L531,82.9 C531,83.9 530.9,84.5 530.9,84.7 C530.9,84.9 531,85 531.1,85.1 C531.3,85.2 531.4,85.3 531.6,85.3 C531.9,85.3 532.3,85.2 532.9,85 L533.2,87.6 C532.4,87.9 531.6,88.1 530.6,88.1 C530,88.1 529.5,88 529,87.8 C528.5,87.6 528.2,87.3 527.9,87 C527.7,86.7 527.3,86.3 527.2,85.7 C527.1,85.3 526.9,84.5 526.9,83.4 L526.9,78 L525.9,78 L525.9,75 L526.9,75 L526.9,72.7 L530.9,70.8 L530.9,75 L533,75 Z" id="Path"></path>
            <path d="M542.5,83.7 L545.8,84.3 C545.4,85.5 544.7,86.4 543.8,87.1 C542.9,87.7 541.7,88 540.4,88 C538.2,88 536.6,87.3 535.6,85.9 C534.8,84.8 534.4,83.3 534.4,81.6 C534.4,79.5 534.9,77.9 536,76.7 C537.1,75.5 538.5,74.9 540.1,74.9 C542,74.9 543.4,75.3 544.5,76.6 C545.6,77.8 546.1,80 546,82 L537.7,82 C537.7,83 538,83.9 538.5,84.5 C539,85 539.6,85.4 540.4,85.4 C540.9,85.4 541.4,85.3 541.7,85 C542.1,84.7 542.3,84.3 542.5,83.7 Z M542.7,80 C542.7,79 542.4,78.5 542,78 C541.5,77.5 541,77.3 540.3,77.3 C539.6,77.3 539,77.4 538.5,78 C538,78.5 537.8,79 537.8,80 L542.7,80 Z" id="Shape" fill-rule="nonzero"></path>
            <path d="M11.4,3.5 C11,4 10.6,4.6 10.3,5.1 C11.4,5.1 12,4.5 13,4.4 C13.5,5.3 11.9,5.5 11.9,6.4 C12.9,6.5 14.1,5.2 14.6,6 C14.8,6.7 13.3,7.2 13,8 C13.3,8.1 14.9,7.9 15.7,8 C17.3,13 13.1,16.9 9,17.3 C2.6,17.9 -2.7,11.3 1.5,5.8 C3.3,3.6 7.3,2.1 11.4,3.5 Z" id="Path"></path>
            <path d="M64.4,79.7 C64.2,80.3 62.8,79.9 62,79.7 C56.7,78.6 50.6,76.8 45.4,75.1 C33.4,71.3 22.1,66.7 13.3,59.1 C8.6,55.1 3.9,49.1 4.6,40.5 C4.7,38.6 5.5,36.9 5.9,35.2 C6.2,33.7 6.1,32.4 6.4,31.2 C8.3,23.5 14.3,17.5 20.3,13.2 C27.2,8.2 35.8,3.4 46.7,3.7 C44,5.4 41,6.7 38.5,8.6 C41.8,7.9 46,7 49.8,7.9 C40.4,13 30.8,17.9 25,27.2 C23.2,30.1 21.3,34.6 21.7,38.5 C21.9,40.6 23.4,43 24.6,45.1 C32.8,58.5 47.1,66.4 62,72.9 C55.5,71.9 48.8,69.4 42.5,67.6 C42.4,67.6 42.3,67.4 42.1,67.4 C47.7,71.6 54.4,75.5 61.4,78.3 C62.4,78.8 63.7,78.7 64.4,79.7 Z M36.3,10 C35.3,10.3 34.4,11.4 33.4,12.2 C27.8,16.7 21.6,23.1 21,31.7 C21,32.8 20.8,34 21.4,35 C22.5,27.6 27,22.9 31.4,18.8 C36,14.6 41.7,11.4 47.3,8.2 C43.3,8.1 39.5,9.1 36.3,10 Z M13.7,58.3 C24.9,68.2 43,73.9 58.4,78 C58.7,78 58.9,77.8 58.4,77.8 C53.3,75.3 48,72.4 43.5,69.4 C41.9,68.4 40.5,66.9 38.9,66.1 C38,65.7 36.9,65.6 36,65.2 C33.3,64.1 30.8,62.8 28.2,61.6 C18,56.6 8.5,50.5 5.8,37.9 C4,47.5 8.7,53.9 13.7,58.3 Z" id="Shape" fill-rule="nonzero"></path>
        </g>
    </g>
</svg>