<svg id="Layer_1" data-name="Layer 1" xmlns="http://www.w3.org/2000/svg" viewBox="0 0 33.25 36.94"><defs><style>.cls-1{fill:#010101;}</style></defs><title>JDPostDate</title><path class="cls-1" d="M36.08,2.06H4.67A.92.92,0,0,0,3.75,3v35.1a.92.92,0,0,0,.92.92h31.4a.92.92,0,0,0,.92-.92V3A.92.92,0,0,0,36.08,2.06ZM35.15,3.9V9.44H5.6V3.9ZM5.6,37.15V11.29H35.15V37.15Z" transform="translate(-3.75 -2.06)"/><path class="cls-1" d="M21.3,17.76H18.53a.92.92,0,0,0-.92.92v2.77a.92.92,0,0,0,.92.92H21.3a.92.92,0,0,0,.92-.92V18.68A.92.92,0,0,0,21.3,17.76Zm-.92,2.77h-.92V19.6h.92Z" transform="translate(-3.75 -2.06)"/><path class="cls-1" d="M29.61,17.76H26.84a.92.92,0,0,0-.92.92v2.77a.92.92,0,0,0,.92.92h2.77a.92.92,0,0,0,.92-.92V18.68A.92.92,0,0,0,29.61,17.76Zm-.92,2.77h-.92V19.6h.92Z" transform="translate(-3.75 -2.06)"/><path class="cls-1" d="M13,17.76H10.22a.92.92,0,0,0-.92.92v2.77a.92.92,0,0,0,.92.92H13a.92.92,0,0,0,.92-.92V18.68A.92.92,0,0,0,13,17.76Zm-.92,2.77h-.92V19.6h.92Z" transform="translate(-3.75 -2.06)"/><path class="cls-1" d="M21.3,26.07H18.53a.92.92,0,0,0-.92.92v3.69a.92.92,0,0,0,.92.92H21.3a.92.92,0,0,0,.92-.92V27A.92.92,0,0,0,21.3,26.07Zm-.92,3.69h-.92V27.92h.92Z" transform="translate(-3.75 -2.06)"/><path class="cls-1" d="M29.61,26.07H26.84a.92.92,0,0,0-.92.92v3.69a.92.92,0,0,0,.92.92h2.77a.92.92,0,0,0,.92-.92V27A.92.92,0,0,0,29.61,26.07Zm-.92,3.69h-.92V27.92h.92Z" transform="translate(-3.75 -2.06)"/><path class="cls-1" d="M13,26.07H10.22a.92.92,0,0,0-.92.92v3.69a.92.92,0,0,0,.92.92H13a.92.92,0,0,0,.92-.92V27A.92.92,0,0,0,13,26.07Zm-.92,3.69h-.92V27.92h.92Z" transform="translate(-3.75 -2.06)"/></svg>