<svg id="Layer_1" data-name="Layer 1" xmlns="http://www.w3.org/2000/svg" viewBox="0 0 27.86 34.86"><title>interviewpro-icon2</title><path d="M30.68,2.57H8.32A2.76,2.76,0,0,0,5.57,5.32V34.68a2.76,2.76,0,0,0,2.75,2.75H30.68a2.76,2.76,0,0,0,2.75-2.75V5.32A2.76,2.76,0,0,0,30.68,2.57Zm1.89,32.11a1.89,1.89,0,0,1-1.89,1.89H8.32a1.89,1.89,0,0,1-1.89-1.89V5.32A1.89,1.89,0,0,1,8.32,3.43H30.68a1.89,1.89,0,0,1,1.89,1.89Z" transform="translate(-5.57 -2.57)"/><path d="M28.56,10.38H10.44c-.52,0-.94.29-.94.63s.42.64.94.64H28.56c.52,0,.94-.29.94-.64S29.08,10.38,28.56,10.38Z" transform="translate(-5.57 -2.57)"/><path d="M28.56,29.35H10.44c-.52,0-.94.29-.94.64s.42.63.94.63H28.56c.52,0,.94-.29.94-.63S29.08,29.35,28.56,29.35Z" transform="translate(-5.57 -2.57)"/><path d="M28.56,19.38H10.44c-.52,0-.94.29-.94.63s.42.64.94.64H28.56c.52,0,.94-.29.94-.64S29.08,19.38,28.56,19.38Z" transform="translate(-5.57 -2.57)"/></svg>