<svg width="36" height="26" viewBox="0 0 36 26" fill="none" xmlns="http://www.w3.org/2000/svg">
<path d="M34.6894 0.756558C34.4555 0.520737 34.1772 0.33356 33.8706 0.205826C33.564 0.0780923 33.2352 0.0123291 32.903 0.0123291C32.5709 0.0123291 32.2421 0.0780923 31.9355 0.205826C31.6289 0.33356 31.3506 0.520737 31.1167 0.756558L12.3725 19.5259L4.49741 11.6257C4.25456 11.3911 3.96788 11.2066 3.65375 11.0828C3.33961 10.959 3.00417 10.8983 2.66657 10.9042C2.32897 10.91 1.99583 10.9823 1.68617 11.1169C1.3765 11.2515 1.09638 11.4457 0.861789 11.6886C0.627201 11.9314 0.442743 12.2181 0.318946 12.5322C0.195149 12.8464 0.134437 13.1818 0.140277 13.5194C0.146118 13.857 0.218397 14.1902 0.352987 14.4998C0.487576 14.8095 0.681841 15.0896 0.924689 15.3242L10.5861 24.9856C10.82 25.2215 11.0983 25.4086 11.4049 25.5364C11.7115 25.6641 12.0403 25.7299 12.3725 25.7299C12.7046 25.7299 13.0335 25.6641 13.3401 25.5364C13.6467 25.4086 13.925 25.2215 14.1588 24.9856L34.6894 4.45508C34.9448 4.21947 35.1486 3.93353 35.288 3.61525C35.4274 3.29698 35.4994 2.95328 35.4994 2.60582C35.4994 2.25835 35.4274 1.91466 35.288 1.59638C35.1486 1.27811 34.9448 0.992162 34.6894 0.756558Z" fill="#18C1A3"/>
</svg>
