<svg width="80" height="80" viewBox="0 0 80 80" fill="none" xmlns="http://www.w3.org/2000/svg">
<path d="M40.0016 77.9629C35.0161 77.9629 30.0793 76.9809 25.4732 75.073C20.8672 73.1651 16.682 70.3687 13.1566 66.8434C9.63131 63.318 6.83486 59.1328 4.92697 54.5268C3.01907 49.9207 2.03709 44.9839 2.03709 39.9984C2.03709 35.0128 3.01907 30.076 4.92697 25.47C6.83486 20.8639 9.63131 16.6787 13.1566 13.1534C16.682 9.62803 20.8672 6.83158 25.4732 4.92369C30.0793 3.01579 35.0161 2.03381 40.0016 2.03381C44.9872 2.03381 49.924 3.01579 54.5301 4.92369C59.1361 6.83158 63.3213 9.62803 66.8466 13.1534C70.372 16.6787 73.1684 20.8639 75.0763 25.47C76.9842 30.076 77.9662 35.0128 77.9662 39.9984C77.9662 44.9839 76.9842 49.9207 75.0763 54.5268C73.1684 59.1328 70.372 63.318 66.8466 66.8434C63.3213 70.3687 59.1361 73.1651 54.53 75.073C49.924 76.9809 44.9872 77.9629 40.0016 77.9629L40.0016 77.9629Z" stroke="#D3E1EA" stroke-width="4.06761" stroke-linecap="round"/>
<mask id="mask0_535_7850" style="mask-type:alpha" maskUnits="userSpaceOnUse" x="37" y="0" width="43" height="80">
<path d="M39.9984 2.03389C44.9839 2.03389 49.9207 3.01588 54.5268 4.92377C59.1329 6.83167 63.318 9.62812 66.8434 13.1535C70.3687 16.6788 73.1652 20.864 75.0731 25.47C76.981 30.0761 77.9629 35.0129 77.9629 39.9985C77.9629 44.984 76.981 49.9208 75.0731 54.5269C73.1652 59.1329 70.3687 63.3181 66.8434 66.8435C63.318 70.3688 59.1329 73.1652 54.5268 75.0731C49.9207 76.981 44.9839 77.963 39.9984 77.963" stroke="#D3E1EA" stroke-width="4.06761" stroke-linecap="round"/>
</mask>
<g mask="url(#mask0_535_7850)">
<path d="M39.9957 2.03243C50.0645 2.03243 59.721 6.03226 66.8407 13.152C73.9604 20.2717 77.9603 29.9282 77.9603 39.997C77.9603 50.0658 73.9604 59.7223 66.8407 66.842C59.721 73.9617 50.0645 77.9616 39.9957 77.9616" stroke="#EE5C5C" stroke-width="4.06761" stroke-linecap="round"/>
</g>
<mask id="mask1_535_7850" style="mask-type:alpha" maskUnits="userSpaceOnUse" x="0" y="0" width="43" height="80">
<path d="M40.0016 77.9633C35.0161 77.9633 30.0793 76.9813 25.4732 75.0734C20.8671 73.1655 16.682 70.3691 13.1566 66.8437C9.63129 63.3184 6.83484 59.1332 4.92694 54.5271C3.01905 49.9211 2.03706 44.9843 2.03706 39.9987C2.03706 35.0132 3.01905 30.0764 4.92694 25.4703C6.83484 20.8643 9.63129 16.6791 13.1566 13.1537C16.682 9.6284 20.8671 6.83195 25.4732 4.92405C30.0793 3.01615 35.0161 2.03417 40.0016 2.03417" stroke="#D3E1EA" stroke-width="4.06761" stroke-linecap="round"/>
</mask>
<g mask="url(#mask1_535_7850)">
<path d="M50.8703 3.62218C45.4239 1.9956 39.6818 1.61275 34.0677 2.50189C28.4535 3.39103 23.1107 5.52945 18.4334 8.75936C13.7562 11.9893 9.8639 16.2282 7.0438 21.1634C4.22369 26.0986 2.54776 31.604 2.13967 37.2734C1.73158 42.9429 2.60175 48.6316 4.68597 53.9198C6.7702 59.208 10.0153 63.9607 14.1817 67.8272C18.3482 71.6936 23.3296 74.5752 28.7586 76.2592C34.1875 77.9433 39.9252 78.3867 45.5484 77.557" stroke="#EE5C5C" stroke-width="4.06761" stroke-linecap="round"/>
</g>
<g clip-path="url(#clip0_535_7850)">
<path d="M40 55.6667H40.0392" stroke="#EE5C5C" stroke-width="5.032" stroke-linecap="round" stroke-linejoin="round"/>
<path d="M40 24.3333V40" stroke="#EE5C5C" stroke-width="5.032" stroke-linecap="round" stroke-linejoin="round"/>
</g>
<defs>
<clipPath id="clip0_535_7850">
<rect width="48" height="48" fill="white" transform="translate(16 16)"/>
</clipPath>
</defs>
</svg>
