<svg width="20" height="20" viewBox="0 0 20 20" fill="none" xmlns="http://www.w3.org/2000/svg">
<path fill-rule="evenodd" clip-rule="evenodd" d="M13.6978 1.66669C14.2434 1.66669 14.7665 1.88454 15.1484 2.26954L17.7325 4.85362C18.1173 5.23835 18.3334 5.76016 18.3334 6.30425C18.3334 6.84835 18.1173 7.37015 17.7325 7.75489L8.29794 17.1865C7.71587 17.8579 6.89077 18.2705 5.94552 18.3353H1.66669V17.502L1.66939 13.9894C1.74039 13.1107 2.14891 12.2936 2.7721 11.7445L12.2462 2.27054C12.6303 1.88405 13.1528 1.66669 13.6978 1.66669ZM5.88668 16.6707C6.33187 16.6392 6.74627 16.432 7.07902 16.0514L13.3806 9.74983L10.2519 6.62107L3.91345 12.958C3.57582 13.2566 3.36695 13.6744 3.33336 14.0566V16.6691L5.88668 16.6707ZM11.4306 5.4427L14.5591 8.57132L16.554 6.57638C16.6262 6.50421 16.6667 6.40633 16.6667 6.30426C16.6667 6.2022 16.6262 6.10431 16.554 6.03214L13.9676 3.44574C13.8963 3.37382 13.7991 3.33336 13.6978 3.33336C13.5965 3.33336 13.4994 3.37382 13.428 3.44574L11.4306 5.4427Z" fill="#8292B4"/>
</svg>
