<svg width="16" height="16" viewBox="0 0 16 16" fill="none" xmlns="http://www.w3.org/2000/svg">
<path fill-rule="evenodd" clip-rule="evenodd" d="M14.0045 4.65183L13.2877 5.37119L10.649 2.72382L11.3658 2.00446C11.7184 1.6506 12.1864 1.4562 12.6855 1.4562C13.1832 1.4562 13.6526 1.6506 14.0045 2.00446C14.7314 2.73402 14.7314 3.92228 14.0045 4.65183ZM2.76995 11.2856L4.74334 13.2667L1.8442 14.1637L2.76995 11.2856ZM6.10802 12.5765L3.46932 9.9291L9.62313 3.75336L12.2618 6.40073L6.10802 12.5765ZM15.0304 0.974926C14.4042 0.345847 13.5706 0 12.6855 0C11.7989 0 10.9668 0.345847 10.3399 0.974926L9.11162 2.20833C9.1109 2.20833 9.11019 2.20833 9.11019 2.20906L9.10946 2.20979L1.93053 9.41433C1.85218 9.49297 1.80065 9.58617 1.76583 9.68446C1.76293 9.69174 1.75567 9.69756 1.75277 9.70485L0.034781 15.0484C-0.047927 15.3068 0.0195248 15.5901 0.208884 15.7838C0.348182 15.9243 0.534646 16 0.725455 16C0.797281 16 0.869826 15.9898 0.939475 15.968L6.32204 14.3021C6.33075 14.2992 6.33729 14.2912 6.34527 14.2882C6.44539 14.2533 6.54116 14.2016 6.62096 14.1208L15.0304 5.68137C16.3232 4.38389 16.3232 2.2724 15.0304 0.974926Z" fill="#457EFF"/>
</svg>
