<svg xmlns="http://www.w3.org/2000/svg" width="144" height="144" viewBox="0 0 144 144"><defs><style>.a{fill:#231f20;}</style></defs><title>test-03</title><path class="a" d="M89.35,92.66H54.65a2,2,0,0,1-2-2V45.53a2,2,0,0,1,2-2h34.7a2,2,0,0,1,2,2V90.66A2,2,0,0,1,89.35,92.66Zm-32.7-4h30.7V47.53H56.65V88.66Z"/><path class="a" d="M97,47.53H47a2,2,0,0,1,0-4H97A2,2,0,1,1,97,47.53Z"/><path class="a" d="M112.93,144H31.07a2,2,0,0,1-1.82-2.82L52.31,89.84a2,2,0,0,1,1.82-1.18H89.87a2,2,0,0,1,1.82,1.18l23.06,51.34A2,2,0,0,1,112.93,144Zm-78.76-4h75.67L88.58,92.66H55.42Z"/><path class="a" d="M68.61,32.29a8.48,8.48,0,1,1,8.48-8.48A8.49,8.49,0,0,1,68.61,32.29Zm0-13a4.48,4.48,0,1,0,4.48,4.48A4.48,4.48,0,0,0,68.61,19.33Z"/><path class="a" d="M95.41,23.25A11.63,11.63,0,1,1,107,11.63,11.64,11.64,0,0,1,95.41,23.25ZM95.41,4A7.63,7.63,0,1,0,103,11.63,7.64,7.64,0,0,0,95.41,4Z"/></svg>