<?xml version="1.0" encoding="UTF-8"?>
<svg width="54px" height="48px" viewBox="0 0 54 48" version="1.1" xmlns="http://www.w3.org/2000/svg" xmlns:xlink="http://www.w3.org/1999/xlink">
    <!-- Generator: Sketch 50.2 (55047) - http://www.bohemiancoding.com/sketch -->
    <title>Artboard</title>
    <desc>Created with Sketch.</desc>
    <defs></defs>
    <g id="Artboard" stroke="none" stroke-width="1" fill="none" fill-rule="evenodd">
        <g id="Group" transform="translate(2.000000, 7.000000)" fill="#000000" fill-rule="nonzero">
            <path d="M26.4442062,21.8320582 C25.1566902,21.8320582 24.2953423,22.4036768 23.5361246,22.9080683 C22.9184623,23.3185671 22.3856582,23.6719792 21.7004097,23.6719792 C20.468089,23.6719792 18.6886959,22.4911848 16.2604759,20.0619933 C11.6480969,15.448858 12.4283414,14.2733216 13.4158501,12.7856859 C13.9197423,12.0255308 14.4912208,11.1643471 14.4912208,9.8768906 C14.4912208,8.86660532 13.4537734,6.79683501 11.9101809,5.32497331 C10.3909945,3.87602142 8.70396923,2.53448276 6.66436952,2.53448276 C5.10162762,2.53448276 3.57718454,3.29989591 2.00242733,4.874664 C0.711531931,6.17263645 0,7.89537941 0,9.72516002 C0,18.1773794 18.1450029,36.3260839 26.5962751,36.3275862 L26.597026,36.3275862 C28.4248558,36.3260839 30.1468006,35.614753 31.4459566,34.3227896 C36.0512015,29.7171657 32.7623845,26.267173 30.9953823,24.4137314 C29.5220043,22.8701357 27.4527417,21.8328093 26.4442062,21.8320582 Z M30.6022562,33.4758776 C29.5295138,34.5436252 28.1068255,35.1310179 26.5962751,35.131769 C23.0577648,35.131769 16.9265749,31.276911 10.9759902,25.3128477 C5.03404148,19.3562959 1.19477288,13.2382487 1.19477288,9.72478445 C1.19477288,8.21348782 1.78239687,6.78969917 2.8483806,5.71782029 C4.18621082,4.37966177 5.43467713,3.72954883 6.66436952,3.72954883 C8.36416111,3.72954883 9.83791458,4.99935348 11.0856299,6.18916157 C12.5158279,7.55323447 13.2960724,9.34020002 13.2960724,9.87613945 C13.2960724,10.803048 12.8706552,11.4445228 12.4197054,12.1235547 C11.0683579,14.1598992 10.4923738,15.982544 15.4148981,20.9066519 C18.1525125,23.6453137 20.0911085,24.8666697 21.7000342,24.8666697 C22.7457421,24.8666697 23.4828066,24.3765499 24.1958404,23.9037063 C24.8758322,23.4530215 25.5171496,23.0267487 26.4427043,23.0267487 C26.8914012,23.0267487 28.6478901,23.6858753 30.1299041,25.2384847 C32.3707603,27.5884308 34.0919542,29.9860744 30.6022562,33.4758776 Z" id="32"></path>
            <g id="12" transform="translate(27.879310, 0.000000)">
                <path d="M10.4442971,0.187035441 C4.68531167,0.187035441 0,4.28961207 0,9.33276341 C0,11.2570929 0.674469496,13.098113 1.95099469,14.6570546 C2.27940981,15.0578784 2.40613395,15.1820211 2.42818302,15.2026724 C2.71853448,15.476772 2.88378647,15.966772 2.83806366,16.2223324 L2.16057692,19.9764176 C2.0895557,20.3683238 2.19562334,20.5968966 2.29658488,20.7198659 C2.41077586,20.8580891 2.57579576,20.9338889 2.76124005,20.9338889 C2.93507958,20.9338889 3.12029178,20.8677107 3.31200265,20.7369971 L6.84496021,18.3243103 C7.01206897,18.2102586 7.32214854,18.1269492 7.58116711,18.1269492 C7.65218833,18.1269492 7.71810345,18.1335201 7.77125332,18.1450192 C7.83229443,18.1588649 9.2803382,18.4775527 10.4445292,18.4775527 C16.2035146,18.4775527 20.8888263,14.3749761 20.8888263,9.33276341 C20.8885942,4.28961207 16.2032825,0.187035441 10.4442971,0.187035441 Z M10.4442971,17.7303496 C9.36180371,17.7303496 7.94393236,17.4187021 7.92954244,17.4154167 C7.47718833,17.3145067 6.80921751,17.446863 6.43090186,17.7050048 L2.89817639,20.1174569 C2.89330239,20.1207423 2.88866048,20.1237931 2.88401857,20.1268439 C2.88494695,20.1214464 2.88587533,20.1158142 2.88703581,20.110182 L3.56452255,16.3558621 C3.66130637,15.8184579 3.38975464,15.0881513 2.93438329,14.6586973 C2.93322281,14.6572893 2.8204244,14.5467577 2.52009284,14.180431 C1.35474138,12.7571312 0.738759947,11.0810872 0.738759947,9.33276341 C0.738992042,4.70123084 5.09263926,0.934003831 10.4442971,0.934003831 C15.7959549,0.934003831 20.1496021,4.70123084 20.1496021,9.33252874 C20.1496021,13.9631226 15.7959549,17.7303496 10.4442971,17.7303496 Z" id="Shape"></path>
                <ellipse id="Oval" cx="10.4442971" cy="9.33252874" rx="1.11962865" ry="1.13206897"></ellipse>
                <ellipse id="Oval" cx="14.8102454" cy="9.33252874" rx="1.11962865" ry="1.13206897"></ellipse>
                <ellipse id="Oval" cx="6.07834881" cy="9.33252874" rx="1.11962865" ry="1.13206897"></ellipse>
            </g>
        </g>
    </g>
</svg>