<svg width="24" height="24" viewBox="0 0 24 24" fill="none" xmlns="http://www.w3.org/2000/svg">
<path d="M16.7141 10.7485H11.5313V1.04049C11.5313 0.466258 11.0651 0 10.4908 0C9.9166 0 9.45035 0.466258 9.45035 1.04049V10.7485H4.26752C3.35955 10.7485 3.21722 11.6025 3.2663 11.9018L4.8663 23.1509C4.96446 23.6515 5.36691 24 5.86752 24H15.1191C15.6197 24 16.0712 23.6515 16.1203 23.1509L17.7154 11.9018C17.7645 11.6025 17.6123 10.7485 16.7141 10.7485ZM14.2651 21.9975H6.7166L5.41599 12.746H15.5657L14.2651 21.9975Z" fill="#457EFF"/>
<path d="M23.4133 2.94949C21.5139 1.94827 18.9617 1.94827 16.8611 2.90041C14.7114 3.90164 13.2636 5.75195 12.9593 7.85256C12.9102 8.25011 13.1605 8.65256 13.509 8.85379C16.4096 10.3704 19.0599 9.40348 20.0611 8.90287C22.2108 7.90164 23.6587 6.05133 23.963 3.95072C24.017 3.54827 23.7667 3.15072 23.4133 2.94949ZM19.217 7.15072C17.9163 7.70041 16.4194 7.79857 15.1679 7.40103C15.5654 6.30164 16.5176 5.30041 17.7691 4.70164C19.0697 4.15195 20.5666 4.05379 21.8182 4.45133C21.4157 5.5998 20.4636 6.55195 19.217 7.15072Z" fill="#457EFF"/>
<path d="M6.86395 8.95225C7.21242 8.85409 7.51181 8.50072 7.56579 8.10317C7.76702 6.50317 7.0161 4.90317 5.56825 3.80378C4.21365 2.74857 2.36334 2.4001 0.763341 2.85164C0.365795 3.00378 0.0615001 3.30317 0.0615001 3.70072C-0.139727 5.30072 0.611193 6.90072 2.05905 8.0001C4.29217 9.64918 6.41733 9.09949 6.86395 8.95225ZM2.06395 4.70194C2.86395 4.65286 3.71303 4.90317 4.36579 5.45286C5.01365 5.9044 5.4161 6.55225 5.56334 7.20501C4.76334 7.20501 3.91426 6.9547 3.2615 6.45409C2.61365 6.00256 2.2161 5.3498 2.06395 4.70194Z" fill="#457EFF"/>
</svg>
