<svg xmlns="http://www.w3.org/2000/svg" width="60" height="70" viewBox="0 0 60 70" fill="none">
<path d="M8 0.5H59.5V69.5H8C3.85786 69.5 0.5 66.1421 0.5 62V8C0.5 3.85786 3.85786 0.5 8 0.5Z" fill="#D04525" stroke="#EAF1F5"/>
<path d="M16.076 27V16.0909H20.1669C21.005 16.0909 21.7081 16.2472 22.2763 16.5597C22.848 16.8722 23.2795 17.3018 23.5707 17.8487C23.8654 18.392 24.0128 19.0099 24.0128 19.7024C24.0128 20.402 23.8654 21.0234 23.5707 21.5668C23.2759 22.1101 22.8409 22.538 22.2656 22.8505C21.6903 23.1594 20.9819 23.3139 20.1403 23.3139H17.429V21.6893H19.8739C20.364 21.6893 20.7653 21.604 21.0778 21.4336C21.3903 21.2631 21.6211 21.0288 21.7702 20.7305C21.9229 20.4322 21.9993 20.0895 21.9993 19.7024C21.9993 19.3153 21.9229 18.9744 21.7702 18.6797C21.6211 18.3849 21.3885 18.1559 21.0724 17.9925C20.7599 17.8256 20.3569 17.7422 19.8633 17.7422H18.0522V27H16.076ZM25.7293 27V16.0909H29.8202C30.6583 16.0909 31.3614 16.2472 31.9296 16.5597C32.5013 16.8722 32.9328 17.3018 33.224 17.8487C33.5187 18.392 33.6661 19.0099 33.6661 19.7024C33.6661 20.402 33.5187 21.0234 33.224 21.5668C32.9292 22.1101 32.4942 22.538 31.9189 22.8505C31.3437 23.1594 30.6352 23.3139 29.7936 23.3139H27.0823V21.6893H29.5273C30.0173 21.6893 30.4186 21.604 30.7311 21.4336C31.0436 21.2631 31.2744 21.0288 31.4236 20.7305C31.5763 20.4322 31.6526 20.0895 31.6526 19.7024C31.6526 19.3153 31.5763 18.9744 31.4236 18.6797C31.2744 18.3849 31.0418 18.1559 30.7258 17.9925C30.4133 17.8256 30.0102 17.7422 29.5166 17.7422H27.7055V27H25.7293ZM34.9032 17.7475V16.0909H43.6071V17.7475H40.2353V27H38.275V17.7475H34.9032Z" fill="white"/>
<path d="M39 49V53C39 53.5304 38.7893 54.0391 38.4142 54.4142C38.0391 54.7893 37.5304 55 37 55H23C22.4696 55 21.9609 54.7893 21.5858 54.4142C21.2107 54.0391 21 53.5304 21 53V49" stroke="white" stroke-width="2" stroke-linecap="round" stroke-linejoin="round"/>
<path d="M25 44L30 49L35 44" stroke="white" stroke-width="2" stroke-linecap="round" stroke-linejoin="round"/>
<path d="M30 49V37" stroke="white" stroke-width="2" stroke-linecap="round" stroke-linejoin="round"/>
</svg>