<svg id="Layer_1" data-name="Layer 1" xmlns="http://www.w3.org/2000/svg" viewBox="0 0 37.67 39.64"><title>Preferredjobs</title><path d="M691,403H673.15a3.89,3.89,0,0,1-4.15-4V378.3a1,1,0,0,1,.29-.71l13.84-13.94a1.06,1.06,0,0,1,.72-.29,1,1,0,0,1,.71.31l2.38,2.49a1,1,0,0,1,.26.86l-1.73,10h10.78c1.87.05,5.41,1.23,5.41,5.32s-1,6-1.25,6.4L695,400.48a1,1,0,0,1-.14.23A4.2,4.2,0,0,1,691,403Zm-20-24.29V399a1.9,1.9,0,0,0,2.15,2H691a2.19,2.19,0,0,0,2.19-1.37,1,1,0,0,1,.2-.33l5.27-11.46.07-.13s1-1.62,1-5.39c0-3.07-3-3.3-3.46-3.32H684.29a1,1,0,0,1-1-1.17l1.85-10.65-1.32-1.38Z" transform="translate(-664 -363.36)"/><path d="M665,403a1,1,0,0,1-1-1V379a1,1,0,0,1,2,0v23A1,1,0,0,1,665,403Z" transform="translate(-664 -363.36)"/></svg>