<!-- Generated by IcoMoon.io -->
<svg version="1.1" xmlns="http://www.w3.org/2000/svg" width="31" height="32" viewBox="0 0 31 32">
<title>priority</title>
<path d="M3.141 27.781v-14.078h8.547v0.859h-7.688v12.375h2.984v0.844h-3.844zM5.547 20.781l0.969-1.625 1.609 1.453 2.609-3.297 1.297 1.266-3.578 4.453zM5.953 27.016l0.359-0.438q0.828-0.984 2.25-1.781t3.25-1.297q1.172-0.453 1.609-0.891 0.5-0.484 0.594-1 0.031-0.188 0.031-0.836t-0.031-1.773q-0.891-1.016-1.641-3.188-0.406-0.203-0.719-0.664t-0.406-1.008q-0.078-0.422-0.078-0.766 0-0.672 0.297-1.078-0.297-1.75-0.297-3.219 0-3.297 1.531-5.141 1.719-2.063 5.219-2.063h0.203q1.531 0 3.039 0.625t2.539 1.859q0.906 1.078 1 3.203 0.016 0.25 0.016 0.5 0 1.922-0.625 4.172 0.328 0.406 0.328 1.078 0 0.391-0.109 0.875-0.125 0.578-0.492 1.055t-0.789 0.633q-0.656 2.203-1.484 3.141v2.469q0.047 0.375 0.188 0.586t0.469 0.523l0.25 0.25q0.266 0.219 1.375 0.703 1.75 0.484 3.148 1.273t2.211 1.758l0.375 0.438-0.438 0.375q-1.125 1-4.305 1.539t-7.063 0.539-7.070-0.539-4.313-1.539zM7.156 26.922q1.109 0.766 4.031 1.234t6.563 0.469 6.563-0.477 4.047-1.227q-0.766-0.797-2-1.461t-2.766-1.102l-0.047-0.016-0.063-0.016q-1.203-0.531-1.563-0.813l-0.047-0.031-0.281-0.281q-0.266-0.25-0.398-0.406t-0.289-0.477-0.219-0.711v-2.922l0.219-0.234q0.703-0.813 1.297-2.828l0.125-0.391 0.391-0.156q0.203-0.078 0.438-0.383t0.328-0.695q0.094-0.516 0.070-0.813t-0.117-0.406l-0.281-0.344 0.109-0.422q0.578-2.188 0.578-3.969v-0.359q-0.063-1.906-0.797-2.781-0.938-1.109-2.289-1.648t-2.633-0.539h-0.203q-3.094 0-4.563 1.766-1.344 1.609-1.344 4.609 0 1.391 0.281 3.063l0.063 0.344-0.203 0.281q-0.141 0.203-0.141 0.563 0 0.281 0.078 0.641 0.063 0.359 0.266 0.664t0.406 0.414l0.297 0.156 0.109 0.313q0.703 2.016 1.484 2.891l0.203 0.234v0.313q0.047 1.172 0.047 1.867t-0.047 0.93q-0.156 0.781-0.828 1.453-0.563 0.547-1.906 1.078l-0.047 0.016-0.031 0.016q-3.313 0.906-4.891 2.594z"></path>
</svg>
