<svg width="50" height="35" viewBox="0 0 50 35" fill="none" xmlns="http://www.w3.org/2000/svg">
<g opacity="0.8">
<g opacity="0.3">
<path d="M10.3409 15.2705L12.636 14.2128L11.918 0.859567L1.69686 1.02551C1.05862 1.03587 0.735797 1.77925 1.18965 2.22811C4.59092 5.59197 8.30047 7.36387 9.55521 12.189C9.58461 12.3021 9.59632 12.4209 9.5916 12.5376L9.5036 14.7102C9.48574 15.1511 9.94015 15.4552 10.3409 15.2705Z" fill="url(#paint0_linear_820_10147)"/>
<path d="M11.753 4.2804L11.8369 9.44687C10.3107 7.33739 9.04905 6.22764 6.87636 4.45401C6.74499 4.34677 6.81822 4.13333 6.98778 4.13058L11.5222 4.05696C11.6477 4.05492 11.751 4.15496 11.753 4.2804Z" fill="#FEFBEF"/>
<path d="M37.2712 14.9064L34.3608 13.8661L34.7322 0.495194L46.8297 0.298789C47.4964 0.287965 47.8293 1.07405 47.3326 1.51893C43.477 4.97246 39.219 6.87707 37.9123 11.7075C37.8766 11.8393 37.8657 11.9782 37.877 12.1143L38.0585 14.3014C38.094 14.7293 37.6755 15.0509 37.2712 14.9064Z" fill="url(#paint1_linear_820_10147)"/>
<path d="M35.0501 3.90748L35.134 9.07395C36.848 6.91527 38.2876 5.76187 40.7676 3.91774C40.9094 3.81231 40.8334 3.5864 40.6567 3.58927L35.2736 3.67666C35.1481 3.6787 35.0481 3.78204 35.0501 3.90748Z" fill="#FEFBEF"/>
<path d="M11.6055 0.866211L35.6572 0.475728L35.9703 19.7608C35.9886 20.8897 35.0883 21.8198 33.9593 21.8381L13.9959 22.1622C12.867 22.1806 11.9369 21.2802 11.9186 20.1513L11.6055 0.866211Z" fill="url(#paint2_linear_820_10147)"/>
<rect width="4.88639" height="8.79026" transform="matrix(-0.999868 0.016233 0.016233 0.999868 26.3906 20.6123)" fill="#EA8201"/>
<path d="M31.9868 29.0913C31.9817 28.7777 31.7233 28.5276 31.4097 28.5327L16.6362 28.7725C16.3226 28.7776 16.0725 29.0359 16.0775 29.3496L16.1589 34.3614C16.1605 34.4617 16.2432 34.5417 16.3436 34.5401L31.8894 34.2877C31.9897 34.2861 32.0698 34.2034 32.0681 34.1031L31.9868 29.0913Z" fill="url(#paint3_linear_820_10147)"/>
</g>
</g>
<defs>
<linearGradient id="paint0_linear_820_10147" x1="6.24959" y1="0.951595" x2="6.4894" y2="15.7227" gradientUnits="userSpaceOnUse">
<stop stop-color="#FFBF00"/>
<stop offset="1" stop-color="#E98000"/>
</linearGradient>
<linearGradient id="paint1_linear_820_10147" x1="41.3878" y1="0.387139" x2="41.6276" y2="15.1582" gradientUnits="userSpaceOnUse">
<stop stop-color="#FFBF00"/>
<stop offset="1" stop-color="#E98000"/>
</linearGradient>
<linearGradient id="paint2_linear_820_10147" x1="23.6313" y1="0.67097" x2="23.9776" y2="22.0002" gradientUnits="userSpaceOnUse">
<stop stop-color="#FFC000"/>
<stop offset="1" stop-color="#E98000"/>
</linearGradient>
<linearGradient id="paint3_linear_820_10147" x1="24.0229" y1="28.6526" x2="24.1165" y2="34.4139" gradientUnits="userSpaceOnUse">
<stop stop-color="#FFC001"/>
<stop offset="0.994792" stop-color="#E98000"/>
</linearGradient>
</defs>
</svg>
