<svg id="Layer_1" data-name="Layer 1" xmlns="http://www.w3.org/2000/svg" viewBox="0 0 34 34"><defs><style>.cls-1{fill:#ccc;}</style></defs><title>1default icon</title><path class="cls-1" d="M17,.5A16.5,16.5,0,1,0,33.5,17,16.52,16.52,0,0,0,17,.5Zm0,32A15.5,15.5,0,1,1,32.5,17,15.51,15.51,0,0,1,17,32.5Z"/><path class="cls-1" d="M17,18.5c-2.5,0-8.5,1.3-8.5,4.5v1A1.5,1.5,0,0,0,10,25.5H24A1.5,1.5,0,0,0,25.5,24V23C25.5,19.8,19.5,18.5,17,18.5ZM24.5,24a.5.5,0,0,1-.5.5H10a.5.5,0,0,1-.5-.5V23c0-2.17,4.86-3.5,7.5-3.5s7.5,1.33,7.5,3.5Z"/><path class="cls-1" d="M17,17.5A4.5,4.5,0,1,0,12.5,13,4.51,4.51,0,0,0,17,17.5Zm0-8A3.5,3.5,0,1,1,13.5,13,3.5,3.5,0,0,1,17,9.5Z"/></svg>