<?xml version="1.0" encoding="UTF-8"?>
<svg width="18px" height="18px" viewBox="0 0 18 18" version="1.1" xmlns="http://www.w3.org/2000/svg" xmlns:xlink="http://www.w3.org/1999/xlink">
    <!-- Generator: Sketch 52.4 (67378) - http://www.bohemiancoding.com/sketch -->
    <title>Artboard</title>
    <desc>Created with Sketch.</desc>
    <g id="Artboard" stroke="none" stroke-width="1" fill="none" fill-rule="evenodd">
        <g id="Group-2" fill="#000000">
            <path d="M9,18 C4.02943725,18 0,13.9705627 0,9 C0,4.02943725 4.02943725,0 9,0 C13.9705627,0 18,4.02943725 18,9 C18,13.9705627 13.9705627,18 9,18 Z M7.7890625,11.796875 L9.234375,11.796875 C9.234375,11.4114564 9.28385367,11.052085 9.3828125,10.71875 C9.48177133,10.385415 9.67447773,10.0859388 9.9609375,9.8203125 C10.2109388,9.58593633 10.4531238,9.34505332 10.6875,9.09765625 C10.9218762,8.85025918 11.1315095,8.58724098 11.3164062,8.30859375 C11.501303,8.02994652 11.648437,7.7369807 11.7578125,7.4296875 C11.867188,7.1223943 11.921875,6.79166844 11.921875,6.4375 C11.921875,5.98437273 11.8528653,5.57422059 11.7148438,5.20703125 C11.5768222,4.83984191 11.3750013,4.52734504 11.109375,4.26953125 C10.8437487,4.01171746 10.516929,3.81380277 10.1289062,3.67578125 C9.74088348,3.53775973 9.2968775,3.46875 8.796875,3.46875 C8.34374773,3.46875 7.92317902,3.53255145 7.53515625,3.66015625 C7.14713348,3.78776105 6.80989727,3.97265504 6.5234375,4.21484375 C6.23697773,4.45703246 6.0104175,4.75260242 5.84375,5.1015625 C5.6770825,5.45052258 5.59114586,5.84635195 5.5859375,6.2890625 L7.03125,6.2890625 C7.03125,6.01822781 7.08072867,5.78515723 7.1796875,5.58984375 C7.27864633,5.39453027 7.41015543,5.23307355 7.57421875,5.10546875 C7.73828207,4.97786395 7.9257802,4.88411488 8.13671875,4.82421875 C8.3476573,4.76432262 8.56770719,4.734375 8.796875,4.734375 C9.34375273,4.734375 9.76041523,4.88932137 10.046875,5.19921875 C10.3333348,5.50911613 10.4765625,5.93749727 10.4765625,6.484375 C10.4765625,6.75000133 10.4401045,6.98437398 10.3671875,7.1875 C10.2942705,7.39062602 10.1966152,7.57942621 10.0742188,7.75390625 C9.9518223,7.92838629 9.80859457,8.09765543 9.64453125,8.26171875 C9.48046793,8.42578207 9.30989672,8.59895742 9.1328125,8.78125 C8.88281125,9.03645961 8.67317793,9.26692605 8.50390625,9.47265625 C8.33463457,9.67838645 8.19791719,9.89062391 8.09375,10.109375 C7.98958281,10.3281261 7.91406273,10.5703112 7.8671875,10.8359375 C7.82031227,11.1015638 7.79427086,11.4218731 7.7890625,11.796875 Z M7.7265625,14.2734375 C7.7265625,14.5078137 7.79817637,14.7018221 7.94140625,14.8554688 C8.08463613,15.0091154 8.29687359,15.0859375 8.578125,15.0859375 C8.85937641,15.0859375 9.07291594,15.0091154 9.21875,14.8554688 C9.36458406,14.7018221 9.4375,14.5078137 9.4375,14.2734375 C9.4375,14.0390613 9.36458406,13.8424487 9.21875,13.6835938 C9.07291594,13.5247388 8.85937641,13.4453125 8.578125,13.4453125 C8.29687359,13.4453125 8.08463613,13.5247388 7.94140625,13.6835938 C7.79817637,13.8424487 7.7265625,14.0390613 7.7265625,14.2734375 Z" id="Combined-Shape"></path>
        </g>
    </g>
</svg>