<svg version="1.1" xmlns="http://www.w3.org/2000/svg" width="32" height="32" viewBox="0 0 32 32">
<title>question_mark_icon</title>
<path d="M15.919 6.772c-3.196 0-5.822 2.52-5.822 5.636-0 0.002-0 0.005-0 0.008 0 0.339 0.275 0.615 0.615 0.615s0.615-0.275 0.615-0.615c0-0.003-0-0.005-0-0.008v0c0-2.428 2.037-4.407 4.593-4.407 1.275 0 2.557 0.519 3.437 1.324s1.351 1.842 1.161 2.982c0 0 0 0 0 0s0 0 0 0v-0c-0.41 2.48-1.526 2.894-2.805 3.679-0.639 0.392-1.331 0.866-1.802 1.688s-0.687 1.933-0.565 3.525c0.021 0.322 0.288 0.575 0.613 0.575 0.339 0 0.615-0.275 0.615-0.615 0-0.019-0.001-0.039-0.003-0.058l0 0.002c-0.111-1.439 0.090-2.268 0.406-2.819s0.778-0.883 1.378-1.251c1.199-0.736 2.9-1.664 3.374-4.525 0-0 0-0 0-0.001 0.266-1.595-0.427-3.068-1.544-4.091s-2.666-1.646-4.266-1.646z"></path>
<path d="M15.943 22.87c-0.67 0-1.226 0.561-1.226 1.229s0.553 1.229 1.226 1.229 1.227-0.557 1.227-1.229c0-0.672-0.557-1.229-1.227-1.229z"></path>
<path d="M15.943 2.421c-7.462 0-13.523 6.090-13.523 13.581s6.061 13.578 13.523 13.578c7.462 0 13.523-6.086 13.523-13.578s-6.060-13.581-13.523-13.581zM15.943 3.65c6.795 0 12.294 5.522 12.294 12.352s-5.498 12.349-12.293 12.349c-6.795 0-12.293-5.518-12.293-12.349s5.498-12.352 12.293-12.352z"></path>
</svg>
