<svg width="20" height="20" viewBox="0 0 20 20" fill="none" xmlns="http://www.w3.org/2000/svg">
<path fill-rule="evenodd" clip-rule="evenodd" d="M17.084 10.0007C17.084 13.9127 13.9127 17.084 10.0007 17.084C6.08863 17.084 2.91732 13.9127 2.91732 10.0007C2.91732 6.08863 6.08863 2.91732 10.0007 2.91732C13.9127 2.91732 17.084 6.08863 17.084 10.0007ZM19.1673 10.0007C19.1673 15.0633 15.0633 19.1673 10.0007 19.1673C4.93804 19.1673 0.833984 15.0633 0.833984 10.0007C0.833984 4.93804 4.93804 0.833984 10.0007 0.833984C15.0633 0.833984 19.1673 4.93804 19.1673 10.0007ZM14.1673 10.0007C14.1673 12.3018 12.3018 14.1673 10.0007 14.1673C7.69946 14.1673 5.83398 12.3018 5.83398 10.0007C5.83398 7.69946 7.69946 5.83398 10.0007 5.83398C12.3018 5.83398 14.1673 7.69946 14.1673 10.0007Z" fill="#FF7555"/>
</svg>
