<svg xmlns="http://www.w3.org/2000/svg" width="144" height="144" viewBox="0 0 144 144"><title>test</title><path d="M131,63H13a2,2,0,0,1,0-4H131A2,2,0,0,1,131,63Z"/><path d="M131,144H13a2,2,0,0,1,0-4H131A2,2,0,0,1,131,144Z"/><path d="M27,130a2,2,0,0,1-2-2V76a2,2,0,0,1,4,0v52A2,2,0,0,1,27,130Z"/><path d="M38,130a2,2,0,0,1-2-2V76a2,2,0,0,1,4,0v52A2,2,0,0,1,38,130Z"/><path d="M66,130a2,2,0,0,1-2-2V76a2,2,0,0,1,4,0v52A2,2,0,0,1,66,130Z"/><path d="M78,130a2,2,0,0,1-2-2V76a2,2,0,0,1,4,0v52A2,2,0,0,1,78,130Z"/><path d="M106,130a2,2,0,0,1-2-2V76a2,2,0,0,1,4,0v52A2,2,0,0,1,106,130Z"/><path d="M117,130a2,2,0,0,1-2-2V76a2,2,0,0,1,4,0v52A2,2,0,0,1,117,130Z"/><path d="M100.33,49.91a2,2,0,0,1-2-2,26.33,26.33,0,0,0-52.65,0,2,2,0,0,1-4,0,30.33,30.33,0,1,1,60.65,0A2,2,0,0,1,100.33,49.91Z"/><path d="M72,22a2,2,0,0,1-2-2V2a2,2,0,0,1,4,0V20A2,2,0,0,1,72,22Z"/></svg>