<svg id="Layer_1" data-name="Layer 1" xmlns="http://www.w3.org/2000/svg" viewBox="0 0 40 40"><title>RefineFunctionDepartment</title><path d="M673,375h-9a1,1,0,0,1-1-1v-9a1,1,0,0,1,1-1h9a1,1,0,0,1,1,1v9A1,1,0,0,1,673,375Zm-8-2h7v-7h-7Z" transform="translate(-663 -364)"/><path d="M702,375h-9a1,1,0,0,1-1-1v-9a1,1,0,0,1,1-1h9a1,1,0,0,1,1,1v9A1,1,0,0,1,702,375Zm-8-2h7v-7h-7Z" transform="translate(-663 -364)"/><path d="M702,404h-9a1,1,0,0,1-1-1v-9a1,1,0,0,1,1-1h9a1,1,0,0,1,1,1v9A1,1,0,0,1,702,404Zm-8-2h7v-7h-7Z" transform="translate(-663 -364)"/><path d="M673,404h-9a1,1,0,0,1-1-1v-9a1,1,0,0,1,1-1h9a1,1,0,0,1,1,1v9A1,1,0,0,1,673,404Zm-8-2h7v-7h-7Z" transform="translate(-663 -364)"/><path d="M693,371H673a1,1,0,0,1,0-2h20a1,1,0,0,1,0,2Z" transform="translate(-663 -364)"/><path d="M693,399H673a1,1,0,0,1,0-2h20a1,1,0,0,1,0,2Z" transform="translate(-663 -364)"/><path d="M697,395a1,1,0,0,1-1-1V374a1,1,0,0,1,2,0v20A1,1,0,0,1,697,395Z" transform="translate(-663 -364)"/><path d="M669,395a1,1,0,0,1-1-1V374a1,1,0,0,1,2,0v20A1,1,0,0,1,669,395Z" transform="translate(-663 -364)"/></svg>