<svg id="Layer_1" data-name="Layer 1" xmlns="http://www.w3.org/2000/svg" viewBox="0 0 30.35 40.14"><title>RefineLocation</title><path d="M683,385.16a6.12,6.12,0,1,1,6.12-6.12A6.09,6.09,0,0,1,683,385.16Zm0-10.24a4.12,4.12,0,1,0,4.12,4.12A4.12,4.12,0,0,0,683,374.92Z" transform="translate(-667.83 -363.86)"/><path d="M683,403.08l-.66-.58a58.69,58.69,0,0,1-11.92-14.67,28.56,28.56,0,0,1-1.92-4.06,15.59,15.59,0,0,1-.67-4.52,15.18,15.18,0,1,1,30.35,0,15.48,15.48,0,0,1-1.07,5.66l0,.05a28.26,28.26,0,0,1-1.56,3,58.53,58.53,0,0,1-11.86,14.57Zm0-37.22a13.29,13.29,0,0,0-13.17,13.38,13.6,13.6,0,0,0,.58,3.94,28.58,28.58,0,0,0,1.71,3.58A58,58,0,0,0,683,400.41a57.8,57.8,0,0,0,10.83-13.54,25.74,25.74,0,0,0,1.42-2.72,13.49,13.49,0,0,0,.93-4.9A13.29,13.29,0,0,0,683,365.86Z" transform="translate(-667.83 -363.86)"/><path d="M694,404H672a1,1,0,0,1,0-2h22a1,1,0,0,1,0,2Z" transform="translate(-667.83 -363.86)"/></svg>