<svg id="Layer_1" data-name="Layer 1" xmlns="http://www.w3.org/2000/svg" viewBox="0 0 40 40.02"><title>RefineEducation</title><path d="M683,404a1,1,0,0,1-.73-.29c-1.53-1.64-5-2.71-8.76-2.71h-.09c-3.76,0-7.09,1-8.69,2.71a1,1,0,0,1-1.1.23A1,1,0,0,1,663,403V368.05a1,1,0,0,1,.27-.69c2-2.12,5.86-3.4,10.24-3.36s8.3,1.31,10.22,3.37a1,1,0,0,1,.27.68V403a1,1,0,0,1-1,1Zm-9.58-5h.1a17.14,17.14,0,0,1,8.49,2V368.47c-1.64-1.49-4.91-2.47-8.5-2.47h-.09c-3.56,0-6.73.94-8.42,2.47v32.48A16.63,16.63,0,0,1,673.42,399Z" transform="translate(-663 -364)"/><path d="M683,404a1,1,0,0,1-1-1V368.05a1,1,0,0,1,.25-.66c1.75-2,5.08-3.23,9.11-3.38,4.65-.17,9.1,1.13,11.34,3.32a1,1,0,0,1,.3.71V403a1,1,0,0,1-1.7.71c-1.84-1.8-5.8-2.91-9.87-2.75-3.44.13-6.31,1.14-7.68,2.7A1,1,0,0,1,683,404Zm9.19-5.05A18.11,18.11,0,0,1,701,401V368.49c-1.95-1.64-5.71-2.63-9.57-2.48-3.24.12-6,1-7.43,2.44v32.44a15.34,15.34,0,0,1,7.36-1.93Z" transform="translate(-663 -364)"/><path d="M678.11,377.67a1,1,0,0,1-.51-.14,7,7,0,0,0-7.7-.05,1,1,0,0,1-1.19-1.6,9,9,0,0,1,9.93-.06,1,1,0,0,1-.52,1.86Z" transform="translate(-663 -364)"/><path d="M678.11,385.65a1,1,0,0,1-.51-.14,7,7,0,0,0-7.7-.05,1,1,0,0,1-1.19-1.6,9,9,0,0,1,9.93-.06,1,1,0,0,1-.52,1.86Z" transform="translate(-663 -364)"/><path d="M678.11,393.63a1,1,0,0,1-.51-.14,7,7,0,0,0-7.7-.05,1,1,0,0,1-1.19-1.6,9,9,0,0,1,9.93-.06,1,1,0,0,1-.52,1.86Z" transform="translate(-663 -364)"/><path d="M696.79,377.67a1,1,0,0,1-.51-.14,7.07,7.07,0,0,0-7.7-.06,1,1,0,0,1-1.2-1.6,9,9,0,0,1,9.93-.06,1,1,0,0,1-.52,1.86Z" transform="translate(-663 -364)"/><path d="M696.79,385.65a1,1,0,0,1-.51-.14,7.07,7.07,0,0,0-7.7-.06,1,1,0,0,1-1.2-1.6,9,9,0,0,1,9.93-.06,1,1,0,0,1-.52,1.86Z" transform="translate(-663 -364)"/><path d="M696.79,393.63a1,1,0,0,1-.51-.14,7,7,0,0,0-7.7-.05,1,1,0,0,1-1.19-1.6,9,9,0,0,1,9.93-.06,1,1,0,0,1-.52,1.86Z" transform="translate(-663 -364)"/></svg>