<svg id="Layer_1" data-name="Layer 1" xmlns="http://www.w3.org/2000/svg" viewBox="0 0 38.57 40"><title>RefineFreshness</title><path d="M417.77,435.87c-7.71,0-14.59-7.22-14.92-7.58a1,1,0,0,1-.15-.21c-3.38-6.23-3.78-11.59-1.18-15.94,6.93-11.57,32.69-11.53,33.78-11.54a1,1,0,0,1,1,1.1c-2,19.61-6.95,30.9-14.8,33.56A11.51,11.51,0,0,1,417.77,435.87ZM404.39,427c.92.93,9,8.88,16.46,6.36,6.79-2.31,11.4-12.93,13.33-30.75-5,.13-25.36,1.23-30.94,10.55C401,416.84,401.42,421.5,404.39,427Z" transform="translate(-397.71 -400.6)"/><path d="M398.72,440.6l-.22,0a1,1,0,0,1-.76-1.19,36.11,36.11,0,0,1,19.94-25,1,1,0,0,1,.76,1.85,34.73,34.73,0,0,0-18.74,23.58A1,1,0,0,1,398.72,440.6Z" transform="translate(-397.71 -400.6)"/></svg>