<svg id="Layer_1" data-name="Layer 1" xmlns="http://www.w3.org/2000/svg" viewBox="0 0 40 40"><title>RefineIndustry</title><path d="M702,404H664a1,1,0,0,1-1-1V373a1,1,0,0,1,1-1h9v2h-8v28h36V374h-8v-2h9a1,1,0,0,1,1,1v30A1,1,0,0,1,702,404Z" transform="translate(-663 -364)"/><path d="M693,404H673a1,1,0,0,1-1-1V365a1,1,0,0,1,1-1h20a1,1,0,0,1,1,1v38A1,1,0,0,1,693,404Zm-19-2h18V366H674Z" transform="translate(-663 -364)"/><path d="M686,404h-6a1,1,0,0,1-1-1V392a1,1,0,0,1,1-1h6a1,1,0,0,1,1,1v11A1,1,0,0,1,686,404Zm-5-2h4v-9h-4Z" transform="translate(-663 -364)"/><path d="M686,374h-6a1,1,0,0,1,0-2h6a1,1,0,0,1,0,2Z" transform="translate(-663 -364)"/><path d="M686,381h-6a1,1,0,0,1,0-2h6a1,1,0,0,1,0,2Z" transform="translate(-663 -364)"/><path d="M686,387h-6a1,1,0,0,1,0-2h6a1,1,0,0,1,0,2Z" transform="translate(-663 -364)"/></svg>