<?xml version="1.0" encoding="utf-8"?>
<!-- Generator: Adobe Illustrator 21.0.0, SVG Export Plug-In . SVG Version: 6.00 Build 0)  -->
<svg version="1.1" id="Layer_1" xmlns="http://www.w3.org/2000/svg" xmlns:xlink="http://www.w3.org/1999/xlink" x="0px" y="0px"
	 viewBox="0 0 40 40" style="enable-background:new 0 0 40 40;" xml:space="preserve">
<style type="text/css">
	.st0{fill:#010101;}
</style>
<g>
	<g>
		<path class="st0" d="M37,40H3c-0.6,0-1-0.4-1-1V11c0-0.6,0.4-1,1-1h34c0.6,0,1,0.4,1,1v28C38,39.6,37.6,40,37,40z M4,38h32V12H4
			V38z"/>
	</g>
	<g>
		<path class="st0" d="M3.1,11.8L2.5,9.9L33.7,0C34,0,34.3,0,34.6,0.2C34.8,0.4,35,0.7,35,1v10h-2V2.4L3.1,11.8z"/>
	</g>
	<g>
		<path class="st0" d="M37,30h-9c-0.6,0-1-0.4-1-1v-6c0-0.6,0.4-1,1-1h9c0.6,0,1,0.4,1,1v6C38,29.6,37.6,30,37,30z M29,28h7v-4h-7
			V28z"/>
	</g>
</g>
</svg>
