<svg xmlns="http://www.w3.org/2000/svg" width="25" height="25" viewBox="0 0 25 25" fill="none">
<path fill-rule="evenodd" clip-rule="evenodd" d="M13.6367 2.08398H7.0079C6.25445 2.08398 5.53185 2.38329 4.99907 2.91607C4.4663 3.44884 4.16699 4.17144 4.16699 4.92489V20.0764C4.16699 20.8299 4.4663 21.5525 4.99907 22.0852C5.53185 22.618 6.25444 22.9173 7.0079 22.9173H18.3715C19.125 22.9173 19.8476 22.618 20.3804 22.0852C20.9131 21.5525 21.2124 20.8299 21.2124 20.0764V9.65974H14.5837C14.0607 9.65974 13.6367 9.23577 13.6367 8.71277V2.08398ZM20.6577 7.7658L15.5306 2.63871V7.7658H20.6577ZM7.95487 17.2355C7.95487 16.7125 8.37884 16.2885 8.90184 16.2885H16.4776C17.0006 16.2885 17.4246 16.7125 17.4246 17.2355C17.4246 17.7585 17.0006 18.1825 16.4776 18.1825H8.90184C8.37884 18.1825 7.95487 17.7585 7.95487 17.2355ZM8.90184 12.5007C8.37884 12.5007 7.95487 12.9246 7.95487 13.4476C7.95487 13.9706 8.37884 14.3946 8.90184 14.3946H16.4776C17.0006 14.3946 17.4246 13.9706 17.4246 13.4476C17.4246 12.9246 17.0006 12.5007 16.4776 12.5007H8.90184ZM7.95487 9.65974C7.95487 9.13675 8.37884 8.71277 8.90184 8.71277H10.7958C11.3188 8.71277 11.7427 9.13675 11.7427 9.65974C11.7427 10.1827 11.3188 10.6067 10.7958 10.6067H8.90184C8.37884 10.6067 7.95487 10.1827 7.95487 9.65974Z" fill="white"/>
</svg>