<svg width="8" height="10" viewBox="0 0 8 10" fill="none" xmlns="http://www.w3.org/2000/svg">
<path d="M7.94667 4.74744C7.91494 4.66561 7.86736 4.59084 7.80666 4.52744L4.47333 1.19411C4.41117 1.13195 4.33738 1.08264 4.25617 1.049C4.17495 1.01536 4.08791 0.998047 4 0.998047C3.82246 0.998047 3.6522 1.06857 3.52667 1.19411C3.46451 1.25627 3.4152 1.33006 3.38156 1.41128C3.34792 1.49249 3.33061 1.57954 3.33061 1.66744C3.33061 1.84498 3.40113 2.01524 3.52667 2.14077L5.72667 4.33411H0.666667C0.489856 4.33411 0.320286 4.40435 0.195262 4.52937C0.070238 4.65439 0 4.82396 0 5.00077C0 5.17759 0.070238 5.34715 0.195262 5.47218C0.320286 5.5972 0.489856 5.66744 0.666667 5.66744H5.72667L3.52667 7.86077C3.46418 7.92275 3.41458 7.99648 3.38074 8.07772C3.34689 8.15896 3.32947 8.2461 3.32947 8.33411C3.32947 8.42211 3.34689 8.50925 3.38074 8.59049C3.41458 8.67173 3.46418 8.74546 3.52667 8.80744C3.58864 8.86993 3.66238 8.91952 3.74361 8.95337C3.82485 8.98721 3.91199 9.00464 4 9.00464C4.08801 9.00464 4.17514 8.98721 4.25638 8.95337C4.33762 8.91952 4.41136 8.86993 4.47333 8.80744L7.80666 5.47411C7.86736 5.41071 7.91494 5.33594 7.94667 5.25411C8.01334 5.0918 8.01334 4.90975 7.94667 4.74744Z" fill="#457EFF"/>
</svg>
