<!-- <svg width="6" height="10" viewBox="0 0 6 10" fill="none" xmlns="http://www.w3.org/2000/svg">
<path d="M0.641741 0.833356C0.486532 0.989491 0.399414 1.2007 0.399414 1.42086C0.399414 1.64101 0.486532 1.85222 0.641741 2.00836L3.59174 5.00002L0.641741 7.95002C0.486532 8.10616 0.399414 8.31737 0.399414 8.53752C0.399414 8.75768 0.486532 8.96889 0.641741 9.12502C0.71921 9.20313 0.811378 9.26512 0.912927 9.30743C1.01448 9.34974 1.1234 9.37152 1.23341 9.37152C1.34342 9.37152 1.45234 9.34974 1.55389 9.30743C1.65544 9.26512 1.74761 9.20313 1.82507 9.12502L5.35841 5.59169C5.43652 5.51422 5.49851 5.42205 5.54082 5.3205C5.58312 5.21895 5.60491 5.11003 5.60491 5.00002C5.60491 4.89001 5.58312 4.78109 5.54082 4.67954C5.49851 4.57799 5.43652 4.48583 5.35841 4.40836L1.82507 0.833356C1.74761 0.755249 1.65544 0.693254 1.55389 0.650947C1.45234 0.60864 1.34342 0.586857 1.23341 0.586857C1.1234 0.586857 1.01448 0.60864 0.912927 0.650947C0.811378 0.693254 0.71921 0.755249 0.641741 0.833356Z" fill="#8292B4"/>
</svg> -->
<svg width="6" height="12" viewBox="0 0 6 12" fill="none" xmlns="http://www.w3.org/2000/svg">
<path d="M6 6.00002C6 6.21508 5.92797 6.43012 5.78422 6.59409L1.25832 11.7538C0.970413 12.0821 0.503627 12.0821 0.21584 11.7538C-0.0719468 11.4257 -0.0719468 10.8937 0.21584 10.5654L4.22061 6.00002L0.21598 1.43459C-0.071807 1.10636 -0.071807 0.574356 0.21598 0.246289C0.503767 -0.0820971 0.970553 -0.0820971 1.25846 0.246289L5.78436 5.40595C5.92813 5.57 6 5.78503 6 6.00002Z" fill="#8292B4"/>
</svg>
