<svg width="16" height="16" viewBox="0 0 16 16" fill="none" xmlns="http://www.w3.org/2000/svg">
<path d="M12 4.66667H10.5267C10.3983 4.18119 10.1714 3.72734 9.86003 3.33333H12C12.1768 3.33333 12.3464 3.2631 12.4714 3.13807C12.5965 3.01305 12.6667 2.84348 12.6667 2.66667C12.6667 2.48986 12.5965 2.32029 12.4714 2.19526C12.3464 2.07024 12.1768 2 12 2H4.6667C4.48989 2 4.32032 2.07024 4.19529 2.19526C4.07027 2.32029 4.00003 2.48986 4.00003 2.66667C4.00003 2.84348 4.07027 3.01305 4.19529 3.13807C4.32032 3.2631 4.48989 3.33333 4.6667 3.33333H7.00003C7.44019 3.33488 7.87094 3.46089 8.24253 3.69682C8.61412 3.93275 8.91139 4.26898 9.10003 4.66667H4.6667C4.48989 4.66667 4.32032 4.7369 4.19529 4.86193C4.07027 4.98695 4.00003 5.15652 4.00003 5.33333C4.00003 5.51014 4.07027 5.67971 4.19529 5.80474C4.32032 5.92976 4.48989 6 4.6667 6H9.33337C9.25345 6.55373 8.97723 7.06032 8.55505 7.42743C8.13286 7.79454 7.59283 7.99775 7.03337 8H4.6667C4.63567 7.99688 4.6044 7.99688 4.57337 8C4.52919 7.99312 4.48421 7.99312 4.44003 8C4.39459 8.01548 4.35185 8.03797 4.31337 8.06667L4.23337 8.11333C4.19685 8.14631 4.1654 8.1845 4.14003 8.22667C4.1177 8.25622 4.09765 8.28742 4.08003 8.32C4.0741 8.35978 4.0741 8.40022 4.08003 8.44C4.03252 8.5065 4.00479 8.58508 4.00003 8.66667C3.99691 8.6977 3.99691 8.72897 4.00003 8.76C3.99315 8.80418 3.99315 8.84915 4.00003 8.89333C4.01551 8.93878 4.038 8.98151 4.0667 9.02C4.0667 9.02 4.0667 9.07333 4.11337 9.1L8.11337 13.7667C8.22829 13.901 8.39189 13.9843 8.56818 13.998C8.74446 14.0118 8.91899 13.9549 9.05337 13.84C9.18774 13.7251 9.27096 13.5615 9.28471 13.3852C9.29847 13.2089 9.24163 13.0344 9.1267 12.9L6.12003 9.33333H7.00003C7.9174 9.33713 8.80287 8.99691 9.48168 8.37981C10.1605 7.76272 10.5833 6.91358 10.6667 6H12C12.1768 6 12.3464 5.92976 12.4714 5.80474C12.5965 5.67971 12.6667 5.51014 12.6667 5.33333C12.6667 5.15652 12.5965 4.98695 12.4714 4.86193C12.3464 4.7369 12.1768 4.66667 12 4.66667Z" fill="#8292B4"/>
</svg>
