<!-- Generated by IcoMoon.io -->
<svg version="1.1" xmlns="http://www.w3.org/2000/svg" width="32" height="32" viewBox="0 0 32 32">
<title>score</title>
<path d="M2.281 21.109q0-0.703 0.5-1.203t1.203-0.5q0.484 0 0.906 0.266l4.984-7.313q-0.375-0.469-0.375-1.047 0-0.719 0.5-1.219t1.203-0.5q0.547 0 0.984 0.32t0.625 0.82l4.625 1.469q0.109-0.594 0.586-0.992t1.102-0.398q0.516 0 0.938 0.281l4.828-6.094q-0.266-0.422-0.266-0.906 0-0.719 0.5-1.219t1.211-0.5 1.211 0.5 0.5 1.211-0.5 1.211-1.203 0.5q-0.422 0-0.828-0.219l-4.875 6.172q0.188 0.375 0.188 0.766 0 0.703-0.5 1.203t-1.219 0.5q-0.531 0-0.961-0.305t-0.617-0.789l-4.656-1.469q-0.109 0.578-0.578 0.969t-1.094 0.391q-0.328 0-0.641-0.125l-5.078 7.422q0.203 0.391 0.203 0.797 0 0.703-0.5 1.203t-1.203 0.5-1.203-0.5-0.5-1.203zM3.578 31.203h2.125v-6.906q0-0.328 0.227-0.555t0.539-0.227h4.016q0.313 0 0.539 0.227t0.227 0.555v6.906h3.844v-12.891q0-0.313 0.227-0.539t0.539-0.227h4.016q0.313 0 0.539 0.227t0.227 0.539v12.891h3.406v-19.281q0-0.328 0.227-0.555t0.555-0.227h4q0.313 0 0.539 0.227t0.227 0.555v20.125h-26.016v-0.844zM6.563 24.375v6.828h3.844v-6.828h-3.844zM15.953 31.203h3.828v-12.797h-3.828v12.797zM24.906 31.203h3.844v-19.203h-3.844v19.203z"></path>
</svg>
