<?xml version="1.0" encoding="utf-8"?>
<!-- Generator: Adobe Illustrator 21.0.0, SVG Export Plug-In . SVG Version: 6.00 Build 0)  -->
<svg version="1.1" id="Layer_1" xmlns="http://www.w3.org/2000/svg" xmlns:xlink="http://www.w3.org/1999/xlink" x="0px" y="0px"
	 viewBox="0 0 54 54" style="enable-background:new 0 0 54 54;" xml:space="preserve">
<style type="text/css">
	.st0{fill:#010101;}
</style>
<g>
	<g>
		<path class="st0" d="M22.4,45.1C10.1,45.1,0,35.1,0,22.7S10.1,0.3,22.4,0.3s22.4,10.1,22.4,22.4S34.8,45.1,22.4,45.1z M22.4,2.3
			C11.2,2.3,2,11.4,2,22.7s9.2,20.4,20.4,20.4S42.9,34,42.9,22.7S33.7,2.3,22.4,2.3z"/>
	</g>
	<g>
		<path class="st0" d="M53,53.7c-0.3,0-0.5-0.1-0.7-0.3L37.1,38.3c-0.4-0.4-0.4-1,0-1.4s1-0.4,1.4,0L53.7,52c0.4,0.4,0.4,1,0,1.4
			C53.5,53.6,53.3,53.7,53,53.7z"/>
	</g>
</g>
</svg>
