<svg id="Layer_1" data-name="Layer 1" xmlns="http://www.w3.org/2000/svg" viewBox="0 0 25 22"><defs><style>.cls-1{fill:#fff;}</style></defs><title>share</title><path class="cls-1" d="M20.7,13.51a4.18,4.18,0,0,0-3.76,2.39L8.27,12.26a3.83,3.83,0,0,0,.08-.83,3.68,3.68,0,0,0-.08-.82L16.94,7a4.16,4.16,0,1,0-.41-1.78,4.6,4.6,0,0,0,.08.84L8,9.66a4.18,4.18,0,1,0,0,3.55l8.66,3.64a4.6,4.6,0,0,0-.08.84,4.18,4.18,0,1,0,4.17-4.18ZM20.7,2a3.18,3.18,0,1,1-3.17,3.18A3.18,3.18,0,0,1,20.7,2ZM4.18,14.61a3.18,3.18,0,1,1,3.17-3.18A3.19,3.19,0,0,1,4.18,14.61ZM20.7,20.87a3.18,3.18,0,1,1,3.18-3.18A3.18,3.18,0,0,1,20.7,20.87Z"/></svg>