<svg xmlns="http://www.w3.org/2000/svg" width="54" height="51.41" viewBox="0 0 54 51.41"><defs><style>.a{fill:#010101;}</style></defs><title>rating star</title><path class="a" d="M1955,113.85a1,1,0,0,0-.81-0.68l-17.45-2.53-7.8-15.81a1,1,0,0,0-1.79,0l-7.8,15.81-17.45,2.53a1,1,0,0,0-.55,1.71l12.62,12.3-3,17.38a1,1,0,0,0,1.45,1.05l15.6-8.2,15.6,8.2a1,1,0,0,0,1.45-1.05l-3-17.38,12.62-12.3A1,1,0,0,0,1955,113.85Zm-14.65,12.26a1,1,0,0,0-.29.89l2.73,15.9-14.28-7.5a1,1,0,0,0-.93,0l-14.28,7.5L1916,127a1,1,0,0,0-.29-0.89l-11.55-11.26,16-2.32a1,1,0,0,0,.75-0.55L1928,97.53l7.14,14.46a1,1,0,0,0,.75.55l16,2.32Z" transform="translate(-1901 -94.32)"/></svg>