<svg width="18" height="14" viewBox="0 0 18 14" fill="none" xmlns="http://www.w3.org/2000/svg">
<path d="M17.2667 6.66658C15.5833 2.75825 12.4167 0.333252 9 0.333252C5.58333 0.333252 2.41666 2.75825 0.733328 6.66658C0.687442 6.77172 0.663757 6.8852 0.663757 6.99992C0.663757 7.11463 0.687442 7.22811 0.733328 7.33325C2.41666 11.2416 5.58333 13.6666 9 13.6666C12.4167 13.6666 15.5833 11.2416 17.2667 7.33325C17.3125 7.22811 17.3362 7.11463 17.3362 6.99992C17.3362 6.8852 17.3125 6.77172 17.2667 6.66658ZM9 11.9999C6.35833 11.9999 3.85833 10.0916 2.41666 6.99992C3.85833 3.90825 6.35833 1.99992 9 1.99992C11.6417 1.99992 14.1417 3.90825 15.5833 6.99992C14.1417 10.0916 11.6417 11.9999 9 11.9999ZM9 3.66658C8.34072 3.66658 7.69626 3.86208 7.14809 4.22835C6.59993 4.59462 6.17269 5.11522 5.9204 5.72431C5.6681 6.33339 5.60209 7.00361 5.73071 7.65022C5.85933 8.29682 6.1768 8.89076 6.64297 9.35694C7.10915 9.82311 7.70309 10.1406 8.34969 10.2692C8.9963 10.3978 9.66652 10.3318 10.2756 10.0795C10.8847 9.82722 11.4053 9.39998 11.7716 8.85182C12.1378 8.30365 12.3333 7.65919 12.3333 6.99992C12.3333 6.11586 11.9821 5.26802 11.357 4.64289C10.7319 4.01777 9.88405 3.66658 9 3.66658ZM9 8.66658C8.67036 8.66658 8.34813 8.56884 8.07404 8.3857C7.79996 8.20256 7.58634 7.94227 7.4602 7.63772C7.33405 7.33318 7.30104 6.99807 7.36535 6.67477C7.42966 6.35147 7.5884 6.05449 7.82148 5.82141C8.05457 5.58832 8.35154 5.42958 8.67484 5.36527C8.99815 5.30097 9.33326 5.33397 9.6378 5.46012C9.94234 5.58626 10.2026 5.79989 10.3858 6.07397C10.5689 6.34805 10.6667 6.67028 10.6667 6.99992C10.6667 7.44194 10.4911 7.86587 10.1785 8.17843C9.86595 8.49099 9.44202 8.66658 9 8.66658Z" fill="#2885D6"/>
</svg>
