<svg id="Layer_1" data-name="Layer 1" xmlns="http://www.w3.org/2000/svg" viewBox="0 0 29 21"><defs><style>.cls-1{fill:#fff;}</style></defs><title>Similar</title><path class="cls-1" d="M28.19,2.39l-5.87-1V.5a.5.5,0,0,0-.5-.5h-14a.5.5,0,0,0-.5.5v.84L1.41,2.39A.48.48,0,0,0,1,3L4,20.17a.54.54,0,0,0,.21.32.48.48,0,0,0,.29.09h.08l2.7-.48v.41a.5.5,0,0,0,.5.5h14a.5.5,0,0,0,.5-.5v-.4l2.66.47h.09a.49.49,0,0,0,.49-.41L28.6,3A.49.49,0,0,0,28.19,2.39ZM4.94,19.5,2.08,3.28l5.24-.92V19.08Zm16.38.5h-13V1h13Zm3.34-.5-2.34-.41V2.36l5.21.92Z"/></svg>