<svg width="12" height="12" viewBox="0 0 12 12" fill="none" xmlns="http://www.w3.org/2000/svg">
<path d="M10.666 5.33341H6.66602V1.33341C6.66602 1.1566 6.59578 0.987035 6.47075 0.86201C6.34573 0.736986 6.17616 0.666748 5.99935 0.666748C5.82254 0.666748 5.65297 0.736986 5.52794 0.86201C5.40292 0.987035 5.33268 1.1566 5.33268 1.33341V5.33341H1.33268C1.15587 5.33341 0.986302 5.40365 0.861278 5.52868C0.736254 5.6537 0.666016 5.82327 0.666016 6.00008C0.666016 6.17689 0.736254 6.34646 0.861278 6.47149C0.986302 6.59651 1.15587 6.66675 1.33268 6.66675H5.33268V10.6667C5.33268 10.8436 5.40292 11.0131 5.52794 11.1382C5.65297 11.2632 5.82254 11.3334 5.99935 11.3334C6.17616 11.3334 6.34573 11.2632 6.47075 11.1382C6.59578 11.0131 6.66602 10.8436 6.66602 10.6667V6.66675H10.666C10.8428 6.66675 11.0124 6.59651 11.1374 6.47149C11.2624 6.34646 11.3327 6.17689 11.3327 6.00008C11.3327 5.82327 11.2624 5.6537 11.1374 5.52868C11.0124 5.40365 10.8428 5.33341 10.666 5.33341Z" fill="#8292B4"/>
</svg>
