<svg width="16" height="16" viewBox="0 0 16 16" fill="none" xmlns="http://www.w3.org/2000/svg">
<path fill-rule="evenodd" clip-rule="evenodd" d="M8.54348 1.64054C8.44138 1.43369 8.2307 1.30273 8.00002 1.30273C7.76935 1.30273 7.55867 1.43369 7.45657 1.64054L5.72472 5.14906L1.8518 5.71514C1.62358 5.7485 1.43408 5.9085 1.36294 6.1279C1.2918 6.3473 1.35136 6.58806 1.51658 6.74898L4.31851 9.47806L3.65725 13.3336C3.61825 13.5609 3.71174 13.7907 3.89839 13.9263C4.08504 14.0619 4.33249 14.0798 4.53668 13.9724L8.00002 12.1511L11.4634 13.9724C11.6676 14.0798 11.915 14.0619 12.1017 13.9263C12.2883 13.7907 12.3818 13.5609 12.3428 13.3336L11.6815 9.47806L14.4835 6.74898C14.6487 6.58806 14.7082 6.3473 14.6371 6.1279C14.566 5.9085 14.3765 5.7485 14.1482 5.71514L10.2753 5.14906L8.54348 1.64054Z" fill="#FDAA29"/>
</svg>
