<?xml version="1.0" encoding="UTF-8"?>
<svg width="19px" height="19px" viewBox="0 0 19 19" version="1.1" xmlns="http://www.w3.org/2000/svg" xmlns:xlink="http://www.w3.org/1999/xlink">
    <!-- Generator: Sketch 54.1 (76490) - https://sketchapp.com -->
    <title>Star Copy 2</title>
    <desc>Created with Sketch.</desc>
    <g id="final" stroke="none" stroke-width="1" fill="none" fill-rule="evenodd">
        <g id="Startup-JD" transform="translate(-1125.000000, -146.000000)" fill="#4A90E2">
            <g id="Star-Copy-2" transform="translate(1125.000000, 146.000000)">
                <path d="M9.39542341,1.49074935 L11.9769221,7.08399653 L17.5701693,7.08399653 L13.6979212,10.9562446 L14.5584208,16.9797416 L9.39542341,13.4646008 L4.23242601,16.9797416 L5.52317536,10.9562446 L1.65092731,7.08399653 L6.81392471,7.08399653 L9.39542341,1.49074935 L9.39542341,1.49074935 Z M9.39542341,0.2 C8.89285045,0.200431011 8.43622454,0.492537286 8.225144,0.948634623 L5.98784513,5.79324718 L1.65092731,5.79324718 C1.12922079,5.79370606 0.659088395,6.10818151 0.459502027,6.59020142 C0.259915659,7.07222132 0.370124817,7.62699444 0.738797772,7.99612607 L4.11195607,11.3692844 L2.96318915,16.7043817 C2.85258935,17.2201084 3.0669067,17.751241 3.50445809,18.0457832 C3.94200949,18.3403254 4.51475036,18.339009 4.95094315,18.0424585 L9.39112092,15.03071 L13.8226937,18.0424585 C14.2451041,18.3303887 14.7976418,18.3418905 15.2316684,18.0717881 C15.665695,17.8016857 15.8994157,17.3008815 15.8276577,16.7947341 L15.0618131,11.4080069 L18.4779963,7.99182358 C18.8430818,7.62286027 18.9516369,7.07110063 18.7535335,6.59133365 C18.5554301,6.11156666 18.0892128,5.79713962 17.5701693,5.79324718 L12.8030017,5.79324718 L10.5657028,0.948634623 C10.3546223,0.492537286 9.89799638,0.200431011 9.39542341,0.2 Z" id="Shape"></path>
            </g>
        </g>
    </g>
</svg>