<?xml version="1.0" encoding="UTF-8"?>
<svg width="142px" height="144px" viewBox="0 0 142 144" version="1.1" xmlns="http://www.w3.org/2000/svg" xmlns:xlink="http://www.w3.org/1999/xlink">
    <!-- Generator: Sketch 52.5 (67469) - http://www.bohemiancoding.com/sketch -->
    <title>Group 13</title>
    <desc>Created with Sketch.</desc>
    <g id="Page-1" stroke="none" stroke-width="1" fill="none" fill-rule="evenodd">
        <g id="Group-13" fill="#000000" fill-rule="nonzero">
            <path d="M0,13.2154999 C0,12.7201893 0.183794815,12.2424987 0.515794714,11.8749274 C15.0058067,-4.16758585 57.953541,-3.7404384 72.4641376,11.8530385 C72.8085392,12.2231417 73,12.709942 73,13.2154999 L73,142.0155 C73,143.832192 70.7734491,144.707905 69.5358624,143.377961 C56.5725001,129.447184 16.3581262,129.010862 3.48848457,143.351319 C2.26329696,144.716528 0,143.849861 0,142.0155 L0,13.2154999 Z M4,137.499028 C19.6478185,125.671201 53.3266137,126.00089 69,137.585708 L69,14.0251515 C55.7034782,0.846354999 17.2366953,0.478061626 4,14.0075848 L4,137.499028 Z" id="Path"></path>
            <path d="M69,13.2154022 C69,12.7275103 69.1783416,12.2564448 69.5014534,11.8908804 C83.7026642,-4.17618294 127.383442,-3.74447714 141.484536,11.875196 C141.816331,12.2427229 142,12.7202618 142,13.2154022 L142,142.015402 C142,143.846866 139.742734,144.715046 138.515464,143.355608 C125.967052,129.455829 85.0787953,129.014985 72.502764,143.335137 C71.2853462,144.721394 69,143.860345 69,142.015402 L69,13.2154022 Z M73,137.463778 C88.5134597,125.688635 122.527985,126.012022 138.000002,137.534851 L138,14.008401 C125.081608,0.853230354 85.9722403,0.480619866 73,13.9957269 L73,137.463778 Z" id="Path"></path>
            <path d="M22.1948065,46.4632141 C21.3089564,47.1230197 20.055955,46.9397744 19.3961494,46.0539243 C18.7363438,45.1680742 18.9195891,43.9150727 19.8054392,43.2552672 C20.7306394,42.5661525 22.3738245,41.58629 24.6417176,40.6194514 C33.6360241,36.7850365 43.9304172,36.7850365 54.5291144,43.1442548 C55.4762749,43.7125511 55.783405,44.9410716 55.2151087,45.8882321 C54.6468124,46.8353927 53.4182919,47.1425228 52.4711313,46.5742265 C43.0698285,40.9334448 34.1049624,40.9334448 26.21038,44.2990299 C25.0646032,44.7874926 24.050463,45.3090505 23.1818687,45.8270098 C22.6766727,46.1282677 22.3430981,46.3527624 22.1948065,46.4632141 Z" id="Path"></path>
            <path d="M22.1948065,76.4632141 C21.3089564,77.1230197 20.055955,76.9397744 19.3961494,76.0539243 C18.7363438,75.1680742 18.9195891,73.9150727 19.8054392,73.2552672 C20.7306394,72.5661525 22.3738245,71.58629 24.6417176,70.6194514 C33.6360241,66.7850365 43.9304172,66.7850365 54.5291144,73.1442548 C55.4762749,73.7125511 55.783405,74.9410716 55.2151087,75.8882321 C54.6468124,76.8353927 53.4182919,77.1425228 52.4711313,76.5742265 C43.0698285,70.9334448 34.1049624,70.9334448 26.21038,74.2990299 C25.0646032,74.7874926 24.050463,75.3090505 23.1818687,75.8270098 C22.6766727,76.1282677 22.3430981,76.3527624 22.1948065,76.4632141 Z" id="Path"></path>
            <path d="M22.1948065,105.463214 C21.3089564,106.12302 20.055955,105.939774 19.3961494,105.053924 C18.7363438,104.168074 18.9195891,102.915073 19.8054392,102.255267 C20.7306394,101.566153 22.3738245,100.58629 24.6417176,99.6194514 C33.6360241,95.7850365 43.9304172,95.7850365 54.5291144,102.144255 C55.4762749,102.712551 55.783405,103.941072 55.2151087,104.888232 C54.6468124,105.835393 53.4182919,106.142523 52.4711313,105.574226 C43.0698285,99.9334448 34.1049624,99.9334448 26.21038,103.29903 C25.0646032,103.787493 24.050463,104.30905 23.1818687,104.82701 C22.6766727,105.128268 22.3430981,105.352762 22.1948065,105.463214 Z" id="Path"></path>
            <path d="M90.1948065,46.4632141 C89.3089564,47.1230197 88.055955,46.9397744 87.3961494,46.0539243 C86.7363438,45.1680742 86.9195891,43.9150727 87.8054392,43.2552672 C88.7306394,42.5661525 90.3738245,41.58629 92.6417176,40.6194514 C101.636024,36.7850365 111.930417,36.7850365 122.529114,43.1442548 C123.476275,43.7125511 123.783405,44.9410716 123.215109,45.8882321 C122.646812,46.8353927 121.418292,47.1425228 120.471131,46.5742265 C111.069828,40.9334448 102.104962,40.9334448 94.21038,44.2990299 C93.0646032,44.7874926 92.050463,45.3090505 91.1818687,45.8270098 C90.6766727,46.1282677 90.3430981,46.3527624 90.1948065,46.4632141 Z" id="Path"></path>
            <path d="M90.1948065,76.4632141 C89.3089564,77.1230197 88.055955,76.9397744 87.3961494,76.0539243 C86.7363438,75.1680742 86.9195891,73.9150727 87.8054392,73.2552672 C88.7306394,72.5661525 90.3738245,71.58629 92.6417176,70.6194514 C101.636024,66.7850365 111.930417,66.7850365 122.529114,73.1442548 C123.476275,73.7125511 123.783405,74.9410716 123.215109,75.8882321 C122.646812,76.8353927 121.418292,77.1425228 120.471131,76.5742265 C111.069828,70.9334448 102.104962,70.9334448 94.21038,74.2990299 C93.0646032,74.7874926 92.050463,75.3090505 91.1818687,75.8270098 C90.6766727,76.1282677 90.3430981,76.3527624 90.1948065,76.4632141 Z" id="Path"></path>
            <path d="M90.1948065,105.463214 C89.3089564,106.12302 88.055955,105.939774 87.3961494,105.053924 C86.7363438,104.168074 86.9195891,102.915073 87.8054392,102.255267 C88.7306394,101.566153 90.3738245,100.58629 92.6417176,99.6194514 C101.636024,95.7850365 111.930417,95.7850365 122.529114,102.144255 C123.476275,102.712551 123.783405,103.941072 123.215109,104.888232 C122.646812,105.835393 121.418292,106.142523 120.471131,105.574226 C111.069828,99.9334448 102.104962,99.9334448 94.21038,103.29903 C93.0646032,103.787493 92.050463,104.30905 91.1818687,104.82701 C90.6766727,105.128268 90.3430981,105.352762 90.1948065,105.463214 Z" id="Path"></path>
        </g>
    </g>
</svg>