<svg width="14" height="15" viewBox="0 0 14 15" fill="none" xmlns="http://www.w3.org/2000/svg">
<path fill-rule="evenodd" clip-rule="evenodd" d="M7.96657 1.60625C8.02565 1.53873 8.111 1.5 8.20072 1.5C8.42409 1.5 8.57469 1.72839 8.4867 1.9337L7.02986 5.33301C6.93055 5.56473 6.9543 5.83085 7.09308 6.04132C7.23187 6.25179 7.46711 6.37845 7.71921 6.37845H9.10499C9.83105 6.37845 10.3259 6.37915 10.7012 6.41252C11.0714 6.44543 11.2346 6.50453 11.3306 6.56352C11.5944 6.72568 11.7887 6.97998 11.8757 7.27717C11.9074 7.38529 11.9214 7.55831 11.8558 7.92412C11.7892 8.29499 11.6597 8.7726 11.4687 9.47309L11.1233 10.7392C10.8751 11.6494 10.7948 11.8912 10.6655 12.0586C10.5319 12.2317 10.3552 12.3667 10.153 12.4501C9.95749 12.5308 9.70304 12.5446 8.75968 12.5446H6.04076C5.46834 12.5446 5.08412 12.544 4.78824 12.5198C4.50112 12.4964 4.36384 12.4545 4.27328 12.4083C4.03807 12.2885 3.84685 12.0973 3.72701 11.8621C3.68086 11.7715 3.63898 11.6342 3.61552 11.3471C3.59135 11.0512 3.59076 10.667 3.59076 10.0946V7.52772C3.59076 7.05055 3.59479 6.92317 3.61972 6.80936C3.6454 6.69213 3.68783 6.57921 3.7457 6.47407C3.80188 6.37201 3.88273 6.2735 4.19695 5.91439L7.96657 1.60625ZM8.20072 0C7.67846 0 7.18162 0.225451 6.83771 0.618495L3.06809 4.92663L3.0248 4.97607C2.77373 5.2627 2.57603 5.4884 2.43162 5.75075C2.3043 5.98205 2.21096 6.23048 2.15446 6.48839C2.09038 6.78092 2.09054 7.08097 2.09074 7.46201L2.09076 7.52772V10.0946L2.09076 10.125C2.09075 10.6592 2.09074 11.105 2.1205 11.4693C2.15154 11.8491 2.21865 12.2058 2.3905 12.5431C2.65415 13.0605 3.07484 13.4812 3.59229 13.7449C3.92955 13.9167 4.28621 13.9838 4.66609 14.0148C5.03031 14.0446 5.47614 14.0446 6.01027 14.0446H6.01031H6.04076H8.75968L8.89385 14.0447H8.89386C9.63639 14.0454 10.218 14.046 10.7252 13.8367C11.1699 13.6532 11.5587 13.3562 11.8527 12.9755C12.1881 12.5412 12.3406 11.9799 12.5353 11.2634L12.5705 11.1339L12.9158 9.86776L12.9249 9.83424C13.1046 9.17566 13.2524 8.63347 13.3322 8.18908C13.4142 7.7321 13.4425 7.29022 13.3153 6.85563C13.1238 6.20182 12.6965 5.64235 12.1161 5.28561C11.7303 5.04849 11.2965 4.95953 10.8341 4.91841C10.3844 4.87843 9.82239 4.87844 9.13978 4.87845H9.10499H8.85662L9.86542 2.52458C10.3776 1.32947 9.50097 0 8.20072 0ZM1.5 6.32537C1.5 5.91116 1.16421 5.57537 0.75 5.57537C0.335786 5.57537 0 5.91116 0 6.32537V13.2946C0 13.7088 0.335787 14.0446 0.75 14.0446C1.16421 14.0446 1.5 13.7088 1.5 13.2946L1.5 6.32537Z" fill="#18C1A3"/>
</svg>
