<svg width="28" height="28" viewBox="0 0 28 28" fill="none" xmlns="http://www.w3.org/2000/svg">
<path d="M17.1112 1.19489C17.0554 1.16699 16.9996 1.16699 16.9159 1.16699H10.8349C10.3607 1.16699 9.99805 1.55752 9.99805 2.00383C9.99805 2.05962 9.99805 2.11541 10.0259 2.1712L10.6675 5.57435H17.0833L17.7528 2.1712C17.8364 1.72489 17.5575 1.27857 17.1112 1.19489Z" fill="#FFC000"/>
<path d="M19.6777 21.11L17.0277 6.68848H10.7235L8.32458 21.11C8.26879 21.3611 8.35248 21.64 8.54774 21.8353L13.2619 26.5774C13.5688 26.9121 14.0988 26.9121 14.4335 26.6053L19.4266 21.8632C19.6219 21.6679 19.7335 21.389 19.6777 21.11Z" fill="#FFC000"/>
</svg>
