<svg width="20" height="20" viewBox="0 0 20 20" fill="none" xmlns="http://www.w3.org/2000/svg">
<path d="M8.33333 15C8.55435 15 8.76631 14.9122 8.92259 14.7559C9.07887 14.5996 9.16667 14.3877 9.16667 14.1667V9.16667C9.16667 8.94565 9.07887 8.73369 8.92259 8.57741C8.76631 8.42113 8.55435 8.33333 8.33333 8.33333C8.11232 8.33333 7.90036 8.42113 7.74408 8.57741C7.5878 8.73369 7.5 8.94565 7.5 9.16667V14.1667C7.5 14.3877 7.5878 14.5996 7.74408 14.7559C7.90036 14.9122 8.11232 15 8.33333 15ZM16.6667 5H13.3333V4.16667C13.3333 3.50363 13.0699 2.86774 12.6011 2.3989C12.1323 1.93006 11.4964 1.66667 10.8333 1.66667H9.16667C8.50363 1.66667 7.86774 1.93006 7.3989 2.3989C6.93006 2.86774 6.66667 3.50363 6.66667 4.16667V5H3.33333C3.11232 5 2.90036 5.0878 2.74408 5.24408C2.5878 5.40036 2.5 5.61232 2.5 5.83333C2.5 6.05435 2.5878 6.26631 2.74408 6.42259C2.90036 6.57887 3.11232 6.66667 3.33333 6.66667H4.16667V15.8333C4.16667 16.4964 4.43006 17.1323 4.8989 17.6011C5.36774 18.0699 6.00363 18.3333 6.66667 18.3333H13.3333C13.9964 18.3333 14.6323 18.0699 15.1011 17.6011C15.5699 17.1323 15.8333 16.4964 15.8333 15.8333V6.66667H16.6667C16.8877 6.66667 17.0996 6.57887 17.2559 6.42259C17.4122 6.26631 17.5 6.05435 17.5 5.83333C17.5 5.61232 17.4122 5.40036 17.2559 5.24408C17.0996 5.0878 16.8877 5 16.6667 5ZM8.33333 4.16667C8.33333 3.94565 8.42113 3.73369 8.57741 3.57741C8.73369 3.42113 8.94565 3.33333 9.16667 3.33333H10.8333C11.0543 3.33333 11.2663 3.42113 11.4226 3.57741C11.5789 3.73369 11.6667 3.94565 11.6667 4.16667V5H8.33333V4.16667ZM14.1667 15.8333C14.1667 16.0543 14.0789 16.2663 13.9226 16.4226C13.7663 16.5789 13.5543 16.6667 13.3333 16.6667H6.66667C6.44565 16.6667 6.23369 16.5789 6.07741 16.4226C5.92113 16.2663 5.83333 16.0543 5.83333 15.8333V6.66667H14.1667V15.8333ZM11.6667 15C11.8877 15 12.0996 14.9122 12.2559 14.7559C12.4122 14.5996 12.5 14.3877 12.5 14.1667V9.16667C12.5 8.94565 12.4122 8.73369 12.2559 8.57741C12.0996 8.42113 11.8877 8.33333 11.6667 8.33333C11.4457 8.33333 11.2337 8.42113 11.0774 8.57741C10.9211 8.73369 10.8333 8.94565 10.8333 9.16667V14.1667C10.8333 14.3877 10.9211 14.5996 11.0774 14.7559C11.2337 14.9122 11.4457 15 11.6667 15Z" fill="#457EFF"/>
</svg>
