<svg id="Layer_1" data-name="Layer 1" xmlns="http://www.w3.org/2000/svg" viewBox="0 0 24 24"><defs><style>.cls-1{fill:#38a0cd;}</style></defs><title>1Twitter</title><path class="cls-1" d="M20,0H4A4,4,0,0,0,0,4V20a4,4,0,0,0,4,4H20a4,4,0,0,0,4-4V4A4,4,0,0,0,20,0ZM18.46,8.87c0,.13,0,.25,0,.38a8.45,8.45,0,0,1-8.75,8.29A9.13,9.13,0,0,1,5,16.23a6,6,0,0,0,.73,0A6.43,6.43,0,0,0,9.56,15a3.06,3.06,0,0,1-2.88-2,3.68,3.68,0,0,0,.58.05,3.1,3.1,0,0,0,.81-.1A3,3,0,0,1,5.6,10.09v0a3.13,3.13,0,0,0,1.4.36A2.86,2.86,0,0,1,5.63,8,2.82,2.82,0,0,1,6,6.53a8.93,8.93,0,0,0,6.35,3.05,2.51,2.51,0,0,1-.08-.67A3,3,0,0,1,15.39,6a3.13,3.13,0,0,1,2.24.92,6.3,6.3,0,0,0,2-.71,3,3,0,0,1-1.36,1.61A6.48,6.48,0,0,0,20,7.37,5.94,5.94,0,0,1,18.46,8.87Z"/></svg>