<svg width="20" height="20" viewBox="0 0 20 20" fill="none" xmlns="http://www.w3.org/2000/svg">
<g clip-path="url(#clip0_7100_5969)">
<path d="M10.0009 19.9998C15.5237 19.9998 20.0008 15.5227 20.0008 9.99991C20.0008 4.47711 15.5237 0 10.0009 0C4.47809 0 0.000976562 4.47711 0.000976562 9.99991C0.000976562 15.5227 4.47809 19.9998 10.0009 19.9998Z" fill="#48A8EE"/>
<path d="M16.1257 7.18729C15.6971 7.37731 15.2362 7.50584 14.7527 7.56324C15.2463 7.26751 15.6251 6.79958 15.8039 6.2411C15.3421 6.51508 14.8303 6.71384 14.2861 6.82097C13.85 6.35661 13.2288 6.06641 12.5409 6.06641C11.2211 6.06641 10.1507 7.13684 10.1507 8.45667C10.1507 8.64402 10.1719 8.82637 10.2129 9.00142C8.22636 8.90178 6.46499 7.95024 5.28599 6.50367C5.08028 6.85662 4.96228 7.26751 4.96228 7.70549C4.96228 8.53456 5.38457 9.26649 6.02558 9.69502C5.63395 9.68272 5.26514 9.57523 4.94302 9.39573C4.94285 9.40589 4.94285 9.41605 4.94285 9.42603C4.94285 10.5842 5.76711 11.5502 6.86037 11.7696C6.66 11.8245 6.44841 11.8535 6.23076 11.8535C6.07639 11.8535 5.92683 11.8388 5.78101 11.8109C6.08512 12.7603 6.96768 13.4515 8.01387 13.4709C7.19567 14.1121 6.16516 14.4941 5.04499 14.4941C4.85247 14.4941 4.66173 14.4829 4.4751 14.4606C5.53235 15.139 6.78906 15.5346 8.13883 15.5346C12.5354 15.5346 14.9397 11.8924 14.9397 8.7335C14.9397 8.62993 14.9374 8.52672 14.9328 8.4244C15.4002 8.08749 15.8053 7.66663 16.1257 7.18729Z" fill="#F1F2F2"/>
</g>
<defs>
<clipPath id="clip0_7100_5969">
<rect width="20" height="20" fill="white"/>
</clipPath>
</defs>
</svg>
