<svg width="20" height="20" viewBox="0 0 20 20" fill="none" xmlns="http://www.w3.org/2000/svg">
<path d="M15.8332 5H13.3332V4.16667C13.3332 3.72464 13.1576 3.30072 12.845 2.98816C12.5325 2.67559 12.1085 2.5 11.6665 2.5H8.33317C7.89114 2.5 7.46722 2.67559 7.15466 2.98816C6.8421 3.30072 6.6665 3.72464 6.6665 4.16667V5H4.1665C3.50346 5 2.86758 5.26339 2.39874 5.73223C1.9299 6.20107 1.6665 6.83696 1.6665 7.5V15C1.6665 15.663 1.9299 16.2989 2.39874 16.7678C2.86758 17.2366 3.50346 17.5 4.1665 17.5H15.8332C16.4962 17.5 17.1321 17.2366 17.6009 16.7678C18.0698 16.2989 18.3332 15.663 18.3332 15V7.5C18.3332 6.83696 18.0698 6.20107 17.6009 5.73223C17.1321 5.26339 16.4962 5 15.8332 5ZM8.33317 4.16667H11.6665V5H8.33317V4.16667ZM16.6665 15C16.6665 15.221 16.5787 15.433 16.4224 15.5893C16.2661 15.7455 16.0542 15.8333 15.8332 15.8333H4.1665C3.94549 15.8333 3.73353 15.7455 3.57725 15.5893C3.42097 15.433 3.33317 15.221 3.33317 15V10.325L7.23317 11.6667C7.32165 11.6787 7.41135 11.6787 7.49984 11.6667H12.4998C12.5902 11.665 12.6799 11.651 12.7665 11.625L16.6665 10.325V15ZM16.6665 8.56667L12.3665 10H7.63317L3.33317 8.56667V7.5C3.33317 7.27899 3.42097 7.06702 3.57725 6.91074C3.73353 6.75446 3.94549 6.66667 4.1665 6.66667H15.8332C16.0542 6.66667 16.2661 6.75446 16.4224 6.91074C16.5787 7.06702 16.6665 7.27899 16.6665 7.5V8.56667Z" fill="#8292B4"/>
</svg>
