<svg width="20" height="20" viewBox="0 0 20 20" fill="none" xmlns="http://www.w3.org/2000/svg">
<path d="M12.2666 7.32499L8.69163 10.9083L7.31663 9.53332C7.24192 9.44609 7.14999 9.37524 7.0466 9.32522C6.94322 9.2752 6.83061 9.24709 6.71584 9.24266C6.60107 9.23823 6.48663 9.25756 6.37969 9.29946C6.27276 9.34135 6.17563 9.4049 6.09442 9.48611C6.01321 9.56733 5.94966 9.66445 5.90776 9.77139C5.86587 9.87833 5.84653 9.99277 5.85096 10.1075C5.8554 10.2223 5.88351 10.3349 5.93352 10.4383C5.98354 10.5417 6.05439 10.6336 6.14163 10.7083L8.09996 12.675C8.17783 12.7522 8.27018 12.8133 8.37171 12.8548C8.47324 12.8963 8.58196 12.9173 8.69163 12.9167C8.91025 12.9157 9.11975 12.8289 9.27496 12.675L13.4416 8.50832C13.5197 8.43085 13.5817 8.33869 13.624 8.23714C13.6663 8.13559 13.6881 8.02667 13.6881 7.91666C13.6881 7.80665 13.6663 7.69773 13.624 7.59618C13.5817 7.49463 13.5197 7.40246 13.4416 7.32499C13.2855 7.16978 13.0743 7.08266 12.8541 7.08266C12.634 7.08266 12.4228 7.16978 12.2666 7.32499ZM9.99996 1.66666C8.35179 1.66666 6.74062 2.1554 5.37021 3.07108C3.9998 3.98675 2.9317 5.28824 2.30097 6.81096C1.67024 8.33368 1.50521 10.0092 1.82675 11.6257C2.1483 13.2423 2.94197 14.7271 4.10741 15.8925C5.27284 17.058 6.7577 17.8517 8.37421 18.1732C9.99072 18.4947 11.6663 18.3297 13.189 17.699C14.7117 17.0683 16.0132 16.0002 16.9289 14.6297C17.8446 13.2593 18.3333 11.6482 18.3333 9.99999C18.3333 8.90564 18.1177 7.82201 17.699 6.81096C17.2802 5.79991 16.6663 4.88125 15.8925 4.10743C15.1187 3.33361 14.2 2.71978 13.189 2.30099C12.1779 1.8822 11.0943 1.66666 9.99996 1.66666V1.66666ZM9.99996 16.6667C8.68142 16.6667 7.39249 16.2757 6.29616 15.5431C5.19983 14.8106 4.34535 13.7694 3.84077 12.5512C3.33618 11.333 3.20416 9.99259 3.46139 8.69939C3.71863 7.40618 4.35357 6.21829 5.28592 5.28594C6.21827 4.35359 7.40615 3.71866 8.69936 3.46142C9.99257 3.20419 11.333 3.33621 12.5512 3.84079C13.7694 4.34538 14.8105 5.19986 15.5431 6.29619C16.2756 7.39252 16.6666 8.68145 16.6666 9.99999C16.6666 11.7681 15.9643 13.4638 14.714 14.714C13.4638 15.9643 11.7681 16.6667 9.99996 16.6667V16.6667Z" fill="#18C1A3"/>
</svg>
