<svg width="20" height="20" viewBox="0 0 20 20" fill="none" xmlns="http://www.w3.org/2000/svg">
<path d="M10.0919 12.8243L6.85852 16.0576C6.46705 16.4354 5.94424 16.6466 5.40019 16.6466C4.85614 16.6466 4.33332 16.4354 3.94186 16.0576C3.74986 15.8664 3.59752 15.6391 3.49357 15.3888C3.38962 15.1386 3.33611 14.8703 3.33611 14.5993C3.33611 14.3283 3.38962 14.06 3.49357 13.8097C3.59752 13.5594 3.74986 13.3322 3.94186 13.1409L7.17519 9.9076C7.33211 9.75068 7.42027 9.53785 7.42027 9.31593C7.42027 9.09401 7.33211 8.88118 7.17519 8.72427C7.01827 8.56735 6.80544 8.47919 6.58352 8.47919C6.3616 8.47919 6.14878 8.56735 5.99186 8.72427L2.75852 11.9659C2.10715 12.6749 1.75487 13.6082 1.77525 14.5707C1.79563 15.5333 2.18709 16.4508 2.86788 17.1316C3.54868 17.8124 4.46616 18.2038 5.42873 18.2242C6.3913 18.2446 7.32453 17.8923 8.03352 17.2409L11.2752 14.0076C11.4321 13.8507 11.5203 13.6378 11.5203 13.4159C11.5203 13.194 11.4321 12.9812 11.2752 12.8243C11.1183 12.6673 10.9054 12.5792 10.6835 12.5792C10.4616 12.5792 10.2488 12.6673 10.0919 12.8243ZM17.2419 2.7576C16.5408 2.06094 15.5927 1.66992 14.6044 1.66992C13.616 1.66992 12.6679 2.06094 11.9669 2.7576L8.72519 5.99093C8.64749 6.06863 8.58586 6.16087 8.54381 6.26239C8.50176 6.36391 8.48011 6.47272 8.48011 6.5826C8.48011 6.69248 8.50176 6.80129 8.54381 6.90281C8.58586 7.00432 8.64749 7.09657 8.72519 7.17426C8.80289 7.25196 8.89513 7.3136 8.99665 7.35565C9.09817 7.3977 9.20697 7.41934 9.31686 7.41934C9.42674 7.41934 9.53555 7.3977 9.63706 7.35565C9.73858 7.3136 9.83082 7.25196 9.90852 7.17426L13.1419 3.94093C13.5333 3.56312 14.0561 3.35198 14.6002 3.35198C15.1442 3.35198 15.6671 3.56312 16.0585 3.94093C16.2505 4.13217 16.4029 4.35944 16.5068 4.6097C16.6108 4.85996 16.6643 5.12828 16.6643 5.39927C16.6643 5.67025 16.6108 5.93857 16.5068 6.18883C16.4029 6.43909 16.2505 6.66636 16.0585 6.8576L12.8252 10.0909C12.7471 10.1684 12.6851 10.2606 12.6428 10.3621C12.6005 10.4637 12.5787 10.5726 12.5787 10.6826C12.5787 10.7926 12.6005 10.9015 12.6428 11.0031C12.6851 11.1046 12.7471 11.1968 12.8252 11.2743C12.9027 11.3524 12.9948 11.4144 13.0964 11.4567C13.1979 11.499 13.3068 11.5208 13.4169 11.5208C13.5269 11.5208 13.6358 11.499 13.7373 11.4567C13.8389 11.4144 13.9311 11.3524 14.0085 11.2743L17.2419 8.0326C17.9385 7.33158 18.3295 6.38341 18.3295 5.3951C18.3295 4.40679 17.9385 3.45861 17.2419 2.7576ZM7.35852 12.6409C7.43639 12.7182 7.52874 12.7793 7.63027 12.8207C7.7318 12.8622 7.84052 12.8832 7.95019 12.8826C8.05986 12.8832 8.16858 12.8622 8.27011 12.8207C8.37164 12.7793 8.46399 12.7182 8.54186 12.6409L12.6419 8.54093C12.7988 8.38401 12.8869 8.17118 12.8869 7.94926C12.8869 7.72735 12.7988 7.51452 12.6419 7.3576C12.4849 7.20068 12.2721 7.11252 12.0502 7.11252C11.8283 7.11252 11.6154 7.20068 11.4585 7.3576L7.35852 11.4576C7.28042 11.5351 7.21842 11.6272 7.17611 11.7288C7.13381 11.8303 7.11202 11.9393 7.11202 12.0493C7.11202 12.1593 7.13381 12.2682 7.17611 12.3697C7.21842 12.4713 7.28042 12.5635 7.35852 12.6409Z" fill="#8292B4"/>
</svg>
