<svg width="20" height="20" viewBox="0 0 20 20" fill="none" xmlns="http://www.w3.org/2000/svg">
<path d="M15.0001 5.83333H13.1584C12.9979 5.22649 12.7143 4.65917 12.3251 4.16667H15.0001C15.2211 4.16667 15.4331 4.07887 15.5894 3.92259C15.7456 3.76631 15.8334 3.55435 15.8334 3.33333C15.8334 3.11232 15.7456 2.90036 15.5894 2.74408C15.4331 2.5878 15.2211 2.5 15.0001 2.5H5.83343C5.61242 2.5 5.40046 2.5878 5.24418 2.74408C5.0879 2.90036 5.0001 3.11232 5.0001 3.33333C5.0001 3.55435 5.0879 3.76631 5.24418 3.92259C5.40046 4.07887 5.61242 4.16667 5.83343 4.16667H8.7501C9.3003 4.1686 9.83873 4.32612 10.3032 4.62103C10.7677 4.91594 11.1393 5.33622 11.3751 5.83333H5.83343C5.61242 5.83333 5.40046 5.92113 5.24418 6.07741C5.0879 6.23369 5.0001 6.44565 5.0001 6.66667C5.0001 6.88768 5.0879 7.09964 5.24418 7.25592C5.40046 7.4122 5.61242 7.5 5.83343 7.5H11.6668C11.5669 8.19217 11.2216 8.8254 10.6939 9.28429C10.1661 9.74318 9.4911 9.99718 8.79177 10H5.83343C5.79464 9.9961 5.75556 9.9961 5.71677 10C5.66154 9.9914 5.60532 9.9914 5.5501 10C5.4933 10.0193 5.43987 10.0475 5.39177 10.0833L5.29177 10.1417C5.24612 10.1829 5.20681 10.2306 5.1751 10.2833C5.14719 10.3203 5.12212 10.3593 5.1001 10.4C5.09268 10.4497 5.09268 10.5003 5.1001 10.55C5.04072 10.6331 5.00605 10.7313 5.0001 10.8333C4.9962 10.8721 4.9962 10.9112 5.0001 10.95C4.9915 11.0052 4.9915 11.0614 5.0001 11.1167C5.01945 11.1735 5.04756 11.2269 5.08343 11.275C5.08343 11.275 5.08343 11.3417 5.14177 11.375L10.1418 17.2083C10.2854 17.3763 10.4899 17.4803 10.7103 17.4975C10.9306 17.5147 11.1488 17.4437 11.3168 17.3C11.4847 17.1563 11.5888 16.9518 11.606 16.7315C11.6231 16.5111 11.5521 16.293 11.4084 16.125L7.6501 11.6667H8.7501C9.89682 11.6714 11.0037 11.2461 11.8522 10.4748C12.7007 9.70339 13.2292 8.64198 13.3334 7.5H15.0001C15.2211 7.5 15.4331 7.4122 15.5894 7.25592C15.7456 7.09964 15.8334 6.88768 15.8334 6.66667C15.8334 6.44565 15.7456 6.23369 15.5894 6.07741C15.4331 5.92113 15.2211 5.83333 15.0001 5.83333Z" fill="#8292B4"/>
</svg>
