<svg width="24" height="24" viewBox="0 0 24 24" fill="none" xmlns="http://www.w3.org/2000/svg">
<path d="M18.0002 13.9991C17.4093 14.003 16.8267 14.1378 16.2942 14.3937C15.7616 14.6496 15.2924 15.0203 14.9202 15.4791L9.82015 13.1291C10.0599 12.3949 10.0599 11.6034 9.82015 10.8691L14.9202 8.51914C15.5218 9.2451 16.3605 9.73522 17.2883 9.90298C18.2161 10.0707 19.1734 9.90536 19.9911 9.43604C20.8088 8.96672 21.4345 8.22361 21.7577 7.33788C22.0809 6.45215 22.0808 5.48072 21.7575 4.59504C21.4341 3.70937 20.8083 2.96638 19.9905 2.49721C19.1726 2.02803 18.2154 1.86283 17.2876 2.03076C16.3598 2.19869 15.5212 2.68896 14.9197 3.41503C14.3182 4.14111 13.9925 5.05632 14.0002 5.99914C14.0032 6.23737 14.0266 6.47491 14.0702 6.70914L8.79015 9.13914C8.22723 8.58872 7.5144 8.21665 6.74096 8.06957C5.96752 7.92248 5.16787 8.00691 4.4422 8.31227C3.71653 8.61764 3.09711 9.13036 2.66155 9.7862C2.22599 10.442 1.99365 11.2118 1.99365 11.9991C1.99365 12.7864 2.22599 13.5562 2.66155 14.2121C3.09711 14.8679 3.71653 15.3806 4.4422 15.686C5.16787 15.9914 5.96752 16.0758 6.74096 15.9287C7.5144 15.7816 8.22723 15.4096 8.79015 14.8591L14.0702 17.2891C14.0266 17.5234 14.0032 17.7609 14.0002 17.9991C14.0002 18.7903 14.2347 19.5636 14.6743 20.2214C15.1138 20.8792 15.7385 21.3919 16.4694 21.6947C17.2003 21.9974 18.0046 22.0766 18.7805 21.9223C19.5564 21.7679 20.2692 21.387 20.8286 20.8276C21.388 20.2682 21.769 19.5554 21.9233 18.7795C22.0776 18.0036 21.9984 17.1993 21.6957 16.4684C21.3929 15.7375 20.8802 15.1128 20.2224 14.6733C19.5646 14.2337 18.7913 13.9991 18.0002 13.9991ZM18.0002 3.99914C18.3957 3.99914 18.7824 4.11644 19.1113 4.3362C19.4402 4.55596 19.6965 4.86832 19.8479 5.23377C19.9993 5.59922 20.0389 6.00136 19.9617 6.38932C19.8846 6.77728 19.6941 7.13365 19.4144 7.41335C19.1347 7.69306 18.7783 7.88354 18.3903 7.96071C18.0024 8.03788 17.6002 7.99827 17.2348 7.8469C16.8693 7.69552 16.557 7.43918 16.3372 7.11028C16.1174 6.78138 16.0002 6.3947 16.0002 5.99914C16.0002 5.4687 16.2109 4.96 16.5859 4.58492C16.961 4.20985 17.4697 3.99914 18.0002 3.99914ZM6.00015 13.9991C5.60459 13.9991 5.21791 13.8818 4.88901 13.6621C4.56011 13.4423 4.30377 13.13 4.15239 12.7645C4.00102 12.3991 3.96141 11.9969 4.03858 11.609C4.11575 11.221 4.30623 10.8646 4.58594 10.5849C4.86564 10.3052 5.22201 10.1147 5.60997 10.0376C5.99793 9.9604 6.40006 10 6.76552 10.1514C7.13097 10.3028 7.44333 10.5591 7.66309 10.888C7.88285 11.2169 8.00015 11.6036 8.00015 11.9991C8.00015 12.5296 7.78944 13.0383 7.41436 13.4134C7.03929 13.7884 6.53058 13.9991 6.00015 13.9991ZM18.0002 19.9991C17.6046 19.9991 17.2179 19.8818 16.889 19.6621C16.5601 19.4423 16.3038 19.13 16.1524 18.7645C16.001 18.3991 15.9614 17.9969 16.0386 17.609C16.1158 17.221 16.3062 16.8646 16.5859 16.5849C16.8656 16.3052 17.222 16.1147 17.61 16.0376C17.9979 15.9604 18.4001 16 18.7655 16.1514C19.131 16.3028 19.4433 16.5591 19.6631 16.888C19.8829 17.2169 20.0002 17.6036 20.0002 17.9991C20.0002 18.5296 19.7894 19.0383 19.4144 19.4134C19.0393 19.7884 18.5306 19.9991 18.0002 19.9991Z" fill="#8292B4"/>
</svg>
