<svg width="20" height="20" viewBox="0 0 20 20" fill="none" xmlns="http://www.w3.org/2000/svg">
<path fill-rule="evenodd" clip-rule="evenodd" d="M0 10.0002C0 4.48623 4.48633 0 10 0C15.5137 0 20 4.48623 20 10.0002C20 15.5138 15.5137 20 10 20C4.48633 20 0 15.5138 0 10.0002ZM14.5224 6.63184C14.1309 6.24031 13.4946 6.24031 13.1012 6.63146L8.49837 11.2361L6.89715 9.63445C6.50553 9.24284 5.86895 9.24284 5.47735 9.63443C5.08387 10.0279 5.08387 10.6648 5.47773 11.0564L7.78776 13.3682C7.97999 13.5588 8.23406 13.6619 8.49838 13.6619C8.76138 13.6619 9.01701 13.5585 9.20864 13.3691L14.5225 8.05341C14.9159 7.66002 14.9159 7.02526 14.5224 6.63184Z" fill="white"/>
</svg>
