<svg width="10" height="10" viewBox="0 0 10 10" fill="none" xmlns="http://www.w3.org/2000/svg">
<path fill-rule="evenodd" clip-rule="evenodd" d="M0 5.00011C0 2.24312 2.24317 0 5 0C7.75683 0 10 2.24312 10 5.00011C10 7.75688 7.75683 10 5 10C2.24317 10 0 7.75688 0 5.00011ZM7.26122 3.31592C7.06546 3.12015 6.74731 3.12015 6.55062 3.31573L4.24919 5.61805L3.44857 4.81722C3.25277 4.62142 2.93447 4.62142 2.73868 4.81722C2.54194 5.01396 2.54194 5.33239 2.73887 5.5282L3.89388 6.68412C3.98999 6.77942 4.11703 6.83094 4.24919 6.83094C4.38069 6.83094 4.50851 6.77926 4.60432 6.68453L7.26124 4.02671C7.45793 3.83001 7.45793 3.51263 7.26122 3.31592Z" fill="#18C1A3"/>
</svg>
