<svg width="125" height="125" viewBox="0 0 125 125" fill="none" xmlns="http://www.w3.org/2000/svg">
<circle cx="62.5" cy="62.5" r="61.2499" fill="#EAF1F5" stroke="#D3E1EA" stroke-width="2.50013"/>
<path d="M71.334 82.3755V77.9588C71.334 75.6161 70.4033 73.3693 68.7468 71.7127C67.0902 70.0561 64.8434 69.1255 62.5007 69.1255H47.0423C44.6996 69.1255 42.4528 70.0561 40.7962 71.7127C39.1396 73.3693 38.209 75.6161 38.209 77.9588V82.3755" stroke="#AAB6CE" stroke-width="3.6" stroke-linecap="round" stroke-linejoin="round"/>
<path d="M80.168 53.667V66.917" stroke="#AAB6CE" stroke-width="3.6" stroke-linecap="round" stroke-linejoin="round"/>
<path d="M86.791 60.2915H73.541" stroke="#AAB6CE" stroke-width="3.6" stroke-linecap="round" stroke-linejoin="round"/>
<path d="M54.7728 60.2922C59.6513 60.2922 63.6061 56.3373 63.6061 51.4588C63.6061 46.5803 59.6513 42.6255 54.7728 42.6255C49.8943 42.6255 45.9395 46.5803 45.9395 51.4588C45.9395 56.3373 49.8943 60.2922 54.7728 60.2922Z" stroke="#AAB6CE" stroke-width="3.6" stroke-linecap="round" stroke-linejoin="round"/>
</svg>
