<svg width="126" height="126" viewBox="0 0 126 126" fill="none" xmlns="http://www.w3.org/2000/svg">
<path d="M62.4981 123.996C54.422 123.996 46.4251 122.405 38.9638 119.315C31.5025 116.224 24.723 111.694 19.0124 105.984C13.3017 100.273 8.77181 93.4936 5.68124 86.0323C2.59067 78.571 0.99998 70.5741 0.99998 62.498C0.99998 54.422 2.59067 46.425 5.68124 38.9637C8.77181 31.5024 13.3017 24.723 19.0124 19.0123C24.723 13.3017 31.5025 8.77179 38.9638 5.68122C46.4251 2.59065 54.422 0.999956 62.4981 0.999957C70.5741 0.999957 78.5711 2.59065 86.0324 5.68122C93.4937 8.77179 100.273 13.3017 105.984 19.0123C111.694 24.723 116.224 31.5025 119.315 38.9637C122.405 46.425 123.996 54.422 123.996 62.498C123.996 70.5741 122.405 78.571 119.315 86.0323C116.224 93.4936 111.694 100.273 105.984 105.984C100.273 111.694 93.4936 116.224 86.0324 119.315C78.5711 122.405 70.5741 123.996 62.4981 123.996L62.4981 123.996Z" stroke="#D3E1EA" stroke-width="1.99991" stroke-linecap="round"/>
<mask id="mask0_205_46401" style="mask-type:alpha" maskUnits="userSpaceOnUse" x="61" y="0" width="64" height="125">
<path d="M62.4981 0.999944C70.5741 0.999943 78.5711 2.59064 86.0324 5.68121C93.4937 8.77178 100.273 13.3017 105.984 19.0123C111.694 24.7229 116.224 31.5024 119.315 38.9637C122.405 46.425 123.996 54.422 123.996 62.498C123.996 70.5741 122.405 78.5711 119.315 86.0323C116.224 93.4936 111.694 100.273 105.984 105.984C100.273 111.694 93.4937 116.224 86.0324 119.315C78.5711 122.405 70.5741 123.996 62.4981 123.996" stroke="#D3E1EA" stroke-width="1.99991" stroke-linecap="round"/>
</mask>
<g mask="url(#mask0_205_46401)">
<path d="M62.4981 0.926873C70.5838 0.926872 78.5904 2.51948 86.0607 5.61377C93.531 8.70806 100.319 13.2434 106.036 18.9609C111.754 24.6784 116.289 31.4661 119.383 38.9364C122.478 46.4067 124.07 54.4132 124.07 62.499C124.07 70.5848 122.478 78.5914 119.383 86.0617C116.289 93.5319 111.754 100.32 106.036 106.037C100.319 111.755 93.531 116.29 86.0607 119.384C78.5904 122.479 70.5838 124.071 62.4981 124.071" stroke="#EE5C5C" stroke-width="1.85181" stroke-linecap="round"/>
</g>
<mask id="mask1_205_46401" style="mask-type:alpha" maskUnits="userSpaceOnUse" x="0" y="0" width="64" height="125">
<path d="M62.498 123.996C54.422 123.996 46.425 122.405 38.9637 119.315C31.5024 116.224 24.7229 111.694 19.0123 105.984C13.3017 100.273 8.77177 93.4936 5.6812 86.0324C2.59063 78.5711 0.999934 70.5741 0.999934 62.4981C0.999934 54.422 2.59063 46.425 5.6812 38.9638C8.77177 31.5025 13.3017 24.723 19.0123 19.0123C24.7229 13.3017 31.5024 8.77179 38.9637 5.68122C46.425 2.59065 54.422 0.999956 62.498 0.999957" stroke="#D3E1EA" stroke-width="1.99991" stroke-linecap="round"/>
</mask>
<g mask="url(#mask1_205_46401)">
<path d="M62.498 0.925902C54.4123 0.925902 46.4057 2.51851 38.9354 5.6128C31.4651 8.70709 24.6774 13.2425 18.9599 18.96C13.2424 24.6775 8.70707 31.4651 5.61278 38.9354C2.51849 46.4057 0.92588 54.4123 0.925881 62.4981C0.925882 70.5838 2.51849 78.5904 5.61278 86.0607C8.70708 93.531 13.2424 100.319 18.96 106.036C24.6775 111.754 31.4651 116.289 38.9354 119.383C46.4057 122.478 54.4123 124.07 62.498 124.07" stroke="#EE5C5C" stroke-width="1.85181" stroke-linecap="round"/>
</g>
<circle cx="62.5032" cy="62.5032" r="61.2531" fill="#FDEFEF" stroke="#EE5C5C" stroke-width="2.50013"/>
<mask id="mask2_205_46401" style="mask-type:alpha" maskUnits="userSpaceOnUse" x="-3" y="-3" width="131" height="131">
<circle cx="62.5032" cy="62.5032" r="63.7533" fill="white" stroke="#8D9CBD" stroke-width="2.50013"/>
</mask>
<g mask="url(#mask2_205_46401)">
</g>
<g clip-path="url(#clip0_205_46401)">
<path d="M63.0059 77.668H63.0425" stroke="#EE5C5C" stroke-width="7.33298" stroke-linecap="round" stroke-linejoin="round"/>
<path d="M63.0059 48.3359V63.0019" stroke="#EE5C5C" stroke-width="7.33298" stroke-linecap="round" stroke-linejoin="round"/>
</g>
<defs>
<clipPath id="clip0_205_46401">
<rect width="87.9922" height="87.9922" fill="white" transform="translate(19.0078 19.0039)"/>
</clipPath>
</defs>
</svg>
