<svg width="126" height="126" viewBox="0 0 126 126" fill="none" xmlns="http://www.w3.org/2000/svg">
<path d="M63.0011 123.998C54.925 123.998 46.9279 122.407 39.4665 119.316C32.0051 116.226 25.2255 111.696 19.5148 105.985C13.8041 100.274 9.27416 93.4949 6.18355 86.0335C3.09294 78.5721 1.50222 70.575 1.50222 62.4989C1.50222 54.4227 3.09294 46.4257 6.18355 38.9643C9.27416 31.5029 13.8041 24.7233 19.5148 19.0126C25.2255 13.3019 32.0051 8.7719 39.4665 5.68129C46.9279 2.59069 54.925 0.99997 63.0011 0.99997C71.0773 0.99997 79.0744 2.59069 86.5357 5.6813C93.9971 8.77191 100.777 13.3019 106.487 19.0126C112.198 24.7233 116.728 31.5029 119.819 38.9643C122.909 46.4257 124.5 54.4227 124.5 62.4989C124.5 70.575 122.909 78.5721 119.819 86.0335C116.728 93.4949 112.198 100.274 106.487 105.985C100.777 111.696 93.9971 116.226 86.5357 119.316C79.0743 122.407 71.0773 123.998 63.0011 123.998L63.0011 123.998Z" stroke="#D3E1EA" stroke-width="1.99993" stroke-linecap="round"/>
<mask id="mask0_205_46243" style="mask-type:alpha" maskUnits="userSpaceOnUse" x="61" y="-1" width="65" height="126">
<path d="M62.9989 0.999263C71.075 0.999262 79.0721 2.58998 86.5335 5.68059C93.9949 8.7712 100.774 13.3012 106.485 19.0119C112.196 24.7226 116.726 31.5022 119.816 38.9636C122.907 46.425 124.498 54.422 124.498 62.4982C124.498 70.5743 122.907 78.5714 119.816 86.0328C116.726 93.4942 112.196 100.274 106.485 105.984C100.774 111.695 93.9949 116.225 86.5335 119.316C79.0721 122.406 71.075 123.997 62.9989 123.997" stroke="#D3E1EA" stroke-width="1.99993" stroke-linecap="round"/>
</mask>
<g mask="url(#mask0_205_46243)">
<path d="M62.9989 0.924726C71.0848 0.924726 79.0915 2.51736 86.5618 5.61169C94.0322 8.70602 100.82 13.2415 106.538 18.959C112.255 24.6766 116.791 31.4644 119.885 38.9347C122.979 46.4051 124.572 54.4118 124.572 62.4977C124.572 70.5836 122.979 78.5903 119.885 86.0606C116.791 93.531 112.255 100.319 106.538 106.036C100.82 111.754 94.0322 116.289 86.5618 119.384C79.0915 122.478 71.0848 124.071 62.9989 124.071" stroke="#18C1A3" stroke-width="1.85184" stroke-linecap="round"/>
</g>
<mask id="mask1_205_46243" style="mask-type:alpha" maskUnits="userSpaceOnUse" x="0" y="0" width="65" height="125">
<path d="M63.0011 123.998C54.925 123.998 46.9279 122.407 39.4665 119.316C32.0051 116.226 25.2255 111.696 19.5148 105.985C13.8041 100.274 9.27412 93.4949 6.18351 86.0335C3.0929 78.5721 1.50218 70.575 1.50218 62.4989C1.50218 54.4227 3.0929 46.4257 6.18351 38.9643C9.27412 31.5029 13.8041 24.7233 19.5148 19.0126C25.2255 13.3019 32.0051 8.77191 39.4665 5.6813C46.9279 2.59069 54.925 0.99997 63.0011 0.99997" stroke="#D3E1EA" stroke-width="1.99993" stroke-linecap="round"/>
</mask>
<g mask="url(#mask1_205_46243)">
<path d="M63.0011 0.926196C54.9152 0.926197 46.9085 2.51883 39.4381 5.61316C31.9678 8.70749 25.18 13.2429 19.4624 18.9605C13.7449 24.6781 9.20942 31.4658 6.11509 38.9362C3.02076 46.4066 1.42813 54.4133 1.42813 62.4992C1.42813 70.585 3.02076 78.5917 6.11509 86.0621C9.20943 93.5325 13.7449 100.32 19.4624 106.038C25.18 111.755 31.9678 116.291 39.4382 119.385C46.9085 122.48 54.9152 124.072 63.0011 124.072" stroke="#18C1A3" stroke-width="1.85184" stroke-linecap="round"/>
</g>
<circle cx="62.9973" cy="62.5022" r="61.2531" fill="#E8F9F6" stroke="#18C1A3" stroke-width="2.50013"/>
<mask id="mask2_205_46243" style="mask-type:alpha" maskUnits="userSpaceOnUse" x="-3" y="-3" width="131" height="131">
<circle cx="62.9973" cy="62.5022" r="63.7533" fill="white" stroke="#8D9CBD" stroke-width="2.50013"/>
</mask>
<g mask="url(#mask2_205_46243)">
</g>
<g clip-path="url(#clip0_205_46243)">
<path d="M76.6152 53.3032C76.4308 53.1172 76.2114 52.9696 75.9696 52.8689C75.7278 52.7682 75.4685 52.7163 75.2066 52.7163C74.9447 52.7163 74.6854 52.7682 74.4436 52.8689C74.2018 52.9696 73.9824 53.1172 73.798 53.3032L59.0171 68.1038L52.8072 61.8741C52.6157 61.6891 52.3897 61.5436 52.142 61.446C51.8942 61.3484 51.6297 61.3005 51.3635 61.3051C51.0973 61.3097 50.8346 61.3667 50.5904 61.4728C50.3462 61.579 50.1253 61.7322 49.9403 61.9237C49.7554 62.1152 49.6099 62.3412 49.5123 62.5889C49.4147 62.8366 49.3668 63.1012 49.3714 63.3674C49.376 63.6336 49.433 63.8963 49.5391 64.1405C49.6453 64.3847 49.7984 64.6055 49.9899 64.7905L57.6085 72.4091C57.7929 72.5951 58.0124 72.7426 58.2541 72.8434C58.4959 72.9441 58.7552 72.996 59.0171 72.996C59.2791 72.996 59.5384 72.9441 59.7801 72.8434C60.0219 72.7426 60.2414 72.5951 60.4258 72.4091L76.6152 56.2197C76.8166 56.0339 76.9773 55.8084 77.0873 55.5574C77.1972 55.3064 77.2539 55.0354 77.2539 54.7614C77.2539 54.4874 77.1972 54.2164 77.0873 53.9654C76.9773 53.7144 76.8166 53.489 76.6152 53.3032Z" fill="#18C1A3"/>
</g>
<defs>
<clipPath id="clip0_205_46243">
<rect width="48" height="48" fill="white" transform="translate(39.498 38.999)"/>
</clipPath>
</defs>
</svg>
