<svg width="126" height="126" viewBox="0 0 126 126" fill="none" xmlns="http://www.w3.org/2000/svg">
<path d="M63.5011 122.03C55.6834 122.03 47.9422 120.49 40.7196 117.498C33.497 114.507 26.9343 110.122 21.4064 104.594C15.8784 99.0657 11.4934 92.503 8.50169 85.2804C5.50998 78.0578 3.97017 70.3166 3.97017 62.4989C3.97017 54.6812 5.50998 46.94 8.50169 39.7174C11.4934 32.4948 15.8784 25.9321 21.4064 20.4042C26.9343 14.8762 33.497 10.4912 40.7196 7.49949C47.9422 4.50778 55.6834 2.96797 63.5011 2.96797C71.3188 2.96797 79.06 4.50778 86.2826 7.49949C93.5052 10.4912 100.068 14.8762 105.596 20.4042C111.124 25.9321 115.509 32.4948 118.501 39.7174C121.492 46.94 123.032 54.6812 123.032 62.4989C123.032 70.3166 121.492 78.0578 118.501 85.2804C115.509 92.503 111.124 99.0657 105.596 104.594C100.068 110.122 93.5052 114.507 86.2826 117.498C79.06 120.49 71.3188 122.03 63.5011 122.03L63.5011 122.03Z" stroke="#D3E1EA" stroke-width="1.93594" stroke-linecap="round"/>
<mask id="mask0_205_46138" style="mask-type:alpha" maskUnits="userSpaceOnUse" x="62" y="2" width="62" height="121">
<path d="M63.4989 2.96818C71.3166 2.96818 79.0578 4.50799 86.2804 7.4997C93.5031 10.4914 100.066 14.8764 105.594 20.4044C111.122 25.9323 115.507 32.495 118.498 39.7176C121.49 46.9402 123.03 54.6814 123.03 62.4991C123.03 70.3168 121.49 78.058 118.498 85.2806C115.507 92.5033 111.122 99.0659 105.594 104.594C100.066 110.122 93.5031 114.507 86.2804 117.499C79.0578 120.49 71.3166 122.03 63.4989 122.03" stroke="#D3E1EA" stroke-width="1.93594" stroke-linecap="round"/>
</mask>
<g mask="url(#mask0_205_46138)">
<path d="M63.4991 122.099C55.672 122.099 47.9215 120.557 40.6902 117.562C33.4588 114.567 26.8883 110.176 21.3537 104.642C15.8191 99.1073 11.4288 92.5367 8.43346 85.3054C5.43815 78.0741 3.89648 70.3236 3.89648 62.4964C3.89648 54.6693 5.43815 46.9188 8.43347 39.6875C11.4288 32.4562 15.8191 25.8856 21.3537 20.351C26.8883 14.8164 33.4589 10.4261 40.6902 7.43081C47.9215 4.4355 55.672 2.89383 63.4991 2.89383" stroke="#18C1A3" stroke-width="1.79258" stroke-linecap="round"/>
</g>
<mask id="mask1_205_46138" style="mask-type:alpha" maskUnits="userSpaceOnUse" x="3" y="2" width="62" height="121">
<path d="M63.5011 122.03C55.6834 122.03 47.9422 120.49 40.7196 117.498C33.4969 114.507 26.9343 110.122 21.4063 104.594C15.8784 99.0657 11.4934 92.5031 8.50165 85.2804C5.50994 78.0578 3.97013 70.3166 3.97013 62.4989C3.97013 54.6812 5.50994 46.94 8.50165 39.7174C11.4934 32.4948 15.8784 25.9321 21.4063 20.4042C26.9343 14.8762 33.4969 10.4912 40.7196 7.49949C47.9422 4.50778 55.6834 2.96797 63.5011 2.96797" stroke="#D3E1EA" stroke-width="1.93594" stroke-linecap="round"/>
</mask>
<g mask="url(#mask1_205_46138)">
<path d="M63.5009 122.102C71.328 122.102 79.0785 120.56 86.3098 117.565C93.5411 114.57 100.112 110.179 105.646 104.645C111.181 99.1102 115.571 92.5397 118.567 85.3083C121.562 78.077 123.104 70.3265 123.104 62.4994C123.104 54.6723 121.562 46.9218 118.567 39.6905C115.571 32.4591 111.181 25.8886 105.646 20.354C100.112 14.8194 93.5411 10.4291 86.3098 7.43376C79.0785 4.43845 71.328 2.89678 63.5009 2.89678" stroke="#18C1A3" stroke-width="1.79258" stroke-linecap="round"/>
</g>
<circle cx="63.4973" cy="62.5022" r="61.2531" fill="#EAF1F5" stroke="#D3E1EA" stroke-width="2.50013"/>
<mask id="mask2_205_46138" style="mask-type:alpha" maskUnits="userSpaceOnUse" x="-2" y="-3" width="131" height="131">
<circle cx="63.4973" cy="62.5022" r="63.7533" fill="white" stroke="#8D9CBD" stroke-width="2.50013"/>
</mask>
<g mask="url(#mask2_205_46138)">
</g>
<g clip-path="url(#clip0_205_46138)">
<g clip-path="url(#clip1_205_46138)">
<path d="M71.7424 80.6628V76.6948C71.7424 74.59 70.9063 72.5715 69.418 71.0832C67.9297 69.5949 65.9112 68.7588 63.8064 68.7588H49.9184C47.8137 68.7588 45.7951 69.5949 44.3068 71.0832C42.8185 72.5715 41.9824 74.59 41.9824 76.6948V80.6628" stroke="#AAB6CE" stroke-width="3.6" stroke-linecap="round" stroke-linejoin="round"/>
<path d="M79.6777 54.8711V66.7751" stroke="#AAB6CE" stroke-width="3.6" stroke-linecap="round" stroke-linejoin="round"/>
<path d="M85.6306 60.8232H73.7266" stroke="#AAB6CE" stroke-width="3.6" stroke-linecap="round" stroke-linejoin="round"/>
<path d="M56.8618 60.8232C61.2447 60.8232 64.7978 57.2701 64.7978 52.8872C64.7978 48.5042 61.2447 44.9512 56.8618 44.9512C52.4788 44.9512 48.9258 48.5042 48.9258 52.8872C48.9258 57.2701 52.4788 60.8232 56.8618 60.8232Z" stroke="#AAB6CE" stroke-width="3.6" stroke-linecap="round" stroke-linejoin="round"/>
</g>
</g>
<defs>
<clipPath id="clip0_205_46138">
<rect width="48" height="48" fill="white" transform="translate(39.998 38.999)"/>
</clipPath>
<clipPath id="clip1_205_46138">
<rect width="47.616" height="47.616" fill="white" transform="translate(39.998 38.999)"/>
</clipPath>
</defs>
</svg>
