<svg id="Layer_1" data-name="Layer 1" xmlns="http://www.w3.org/2000/svg" viewBox="0 0 14 14"><defs><style>.cls-1{fill:#ddd;}</style></defs><title>WITHOUT STROKE</title><path class="cls-1" d="M7.22,8.68A5.87,5.87,0,0,0,8.43,6.62a.59.59,0,0,0,0-.13V5.32a3,3,0,0,0-6,0V6.49a.59.59,0,0,0,0,.13A6,6,0,0,0,3.7,8.68c-1.82.57-2.7,1.21-2.7,2v1.43a.43.43,0,0,0,.43.43H9.49a.43.43,0,0,0,.43-.43V10.64C9.92,9.89,9,9.25,7.22,8.68ZM5.46,3.24A2.1,2.1,0,0,1,7.58,5.32V6.4A4.62,4.62,0,0,1,6.1,8.52.43.43,0,0,0,5.92,9a.45.45,0,0,0,.31.33c2.32.62,2.82,1.19,2.82,1.36v1H1.87v-1c0-.17.5-.74,2.82-1.36A.45.45,0,0,0,5,8.94a.41.41,0,0,0-.18-.42A4.67,4.67,0,0,1,3.33,6.46V5.32A2.11,2.11,0,0,1,5.46,3.24Z"/><path class="cls-1" d="M13,9.75v1.44a.42.42,0,0,1-.43.42H10.48a.43.43,0,1,1,0-.85h1.65v-1c0-.16-.5-.73-2.82-1.36A.41.41,0,0,1,9,8.06a.41.41,0,0,1,.18-.42,4.58,4.58,0,0,0,1.5-2.13V4.44A2.12,2.12,0,0,0,8.54,2.35a2.25,2.25,0,0,0-.92.21.37.37,0,0,1-.18,0,.44.44,0,0,1-.39-.24A.38.38,0,0,1,7,2a.49.49,0,0,1,.21-.24,3.08,3.08,0,0,1,1.3-.29,3,3,0,0,1,3,2.94V5.61a.6.6,0,0,1,0,.12A6,6,0,0,1,10.3,7.8C12.12,8.37,13,9,13,9.75Z"/></svg>