<?xml version="1.0" encoding="UTF-8"?>
<svg width="132px" height="145px" viewBox="0 0 132 145" version="1.1" xmlns="http://www.w3.org/2000/svg" xmlns:xlink="http://www.w3.org/1999/xlink">
    <!-- Generator: Sketch 52.5 (67469) - http://www.bohemiancoding.com/sketch -->
    <title>Group 21</title>
    <desc>Created with Sketch.</desc>
    <g id="Page-1" stroke="none" stroke-width="1" fill="none" fill-rule="evenodd">
        <g id="Group-21" transform="translate(0.000000, -1.000000)" fill="#333333" fill-rule="nonzero">
            <path d="M19.0410659,61.899885 L15.2841854,82.708359 C15.2537217,82.8770905 15.2016868,83.0412043 15.1293608,83.1966628 C13.1538199,87.4429208 10.0033108,89.4101132 6.04759874,88.6003677 C2.08868715,87.7899673 1.70530257e-12,84.8280395 0,80.3323991 C0,80.2541165 0.00459612233,80.1759014 0.013764643,80.0981575 C1.26662384,69.4746231 2.27210541,62.337623 3.04128264,58.6350571 C3.8854735,54.5714002 5.88284083,51.1951642 9.00013516,48.5725191 L9.10510708,48.4900273 C20.7520728,39.9503643 26.9651673,35.5769704 28.4654095,34.9075852 C33.5481104,32.6397616 39.977599,31.9033036 45.4464487,34.9926655 C51.5544476,38.4430838 53.8744574,43.231407 53.8744574,50.1029327 C53.8744574,53.7223074 51.9508924,66.7902043 48.0659003,89.7016557 L76.7552653,129.561059 C76.8525932,129.69628 76.9326433,129.843134 76.9935553,129.998206 C79.0608313,135.261149 77.9280959,139.591102 73.6107879,142.317866 C69.3662695,144.998657 64.9730837,144.455051 60.9549259,140.846392 C60.842322,140.745264 60.7415612,140.631681 60.6545784,140.507824 C41.4794337,113.203925 30.0294742,97.097584 26.3444194,92.2430394 C22.3070388,86.9243545 20.7159575,79.8349867 21.5029593,71.0608079 L21.5189906,70.9303918 L23.4093169,58.8457551 L19.0410659,61.899885 Z M15.251192,60.3778504 C15.3450184,59.8581677 15.6405712,59.3966846 16.0733647,59.0940903 L24.964814,52.8774969 C26.4092964,51.8675648 28.3591807,53.0843434 28.086792,54.8256924 L25.4811951,71.4829717 C24.790359,79.3024725 26.162665,85.3879393 29.5304586,89.8245368 C33.2511163,94.7259835 44.6587118,110.771952 63.7926852,138.0163 C66.4574827,140.334623 68.8539792,140.591202 71.4747918,138.935926 C74.0210626,137.327729 74.6438747,135.121063 73.3576956,131.687886 L44.3309363,91.3597374 C44.0183429,90.9254376 43.8928195,90.3839863 43.9824313,89.8564442 C47.8973707,66.8093331 49.8744574,53.4217133 49.8744574,50.1029327 C49.8744574,44.5741304 48.216064,41.1513328 43.4790533,38.4753879 C39.3760432,36.157591 34.1352486,36.7578915 30.0952702,38.5604682 C29.01139,39.044079 22.5824356,43.5689502 11.52582,51.675133 C9.12784637,53.7101513 7.61598674,56.2797156 6.95766635,59.4486532 C6.22265536,62.9867541 5.23329171,70.0028915 4.00052145,80.4455636 C4.02489713,83.068845 4.90485818,84.283499 6.84977566,84.6816291 C8.76927659,85.0745564 10.1714417,84.2444414 11.3952831,81.7348194 L15.251192,60.3778504 Z" id="Path-12-Copy"></path>
            <path d="M12.1140077,132.308538 C10.3701623,135.459443 10.6751678,137.587187 12.9580896,139.386052 C15.970624,141.759827 18.4674812,141.37908 20.8264303,139.41877 C21.8442606,138.572943 29.0088032,129.471353 41.5163539,113.069516 L34.6016326,103.351168 L12.1140077,132.308538 Z M36.3014252,98.8405186 L45.6296021,111.950876 C46.1374253,112.6646 46.1217156,113.625731 45.5908383,114.322477 C31.9206489,132.263828 24.8053023,141.313176 23.3829469,142.495168 C19.7118512,145.545884 15.1880162,146.235727 10.4824314,142.527885 C6.5270976,139.411216 5.95797366,135.06668 8.70132221,130.21599 C8.74912251,130.131471 8.80301438,130.050545 8.86257024,129.973855 L33.0921999,98.773301 C33.9142446,97.7147521 35.5244249,97.7484775 36.3014252,98.8405186 Z" id="Path-13-Copy"></path>
            <path d="M66.2631382,87.534402 C66.7557805,88.1636184 67.4288015,88.8498243 68.2816584,89.5852351 C70.0633761,90.3153599 71.747277,90.0885174 73.5644422,88.8434877 C75.1205456,87.7773244 75.4305449,86.4125923 74.4371557,84.1138551 L53.5253105,57.9793146 L52.0860672,70.1002181 C60.9345205,80.9519501 65.6360335,86.7334465 66.2631382,87.534402 Z M48.013952,70.4709026 L50.1164592,52.7641755 C50.3256901,51.0020911 52.5554876,50.3649425 53.6641221,51.7504564 L77.7214895,81.8161076 C77.8245258,81.944877 77.9112395,82.0858963 77.9796556,82.2359539 C79.8466862,86.3309258 79.1495072,89.8656851 75.8252876,92.1432722 C72.7951019,94.2194022 69.5595916,94.5685981 66.3824092,93.1210111 C66.2169032,93.0456033 66.0624564,92.9479722 65.9233398,92.8308177 C64.7686571,91.8584225 63.8323187,90.918218 63.1136335,90.0002933 C62.5006596,89.2173861 57.587126,83.1757784 48.4500057,71.9706567 C48.1073937,71.5505014 47.9500273,71.0092586 48.013952,70.4709026 Z" id="Path-14-Copy"></path>
            <path d="M47.5,31 C40.0441559,31 34,24.9558441 34,17.5 C34,10.0441559 40.0441559,4 47.5,4 C54.9558441,4 61,10.0441559 61,17.5 C61,24.9558441 54.9558441,31 47.5,31 Z M47.5,27 C52.7467051,27 57,22.7467051 57,17.5 C57,12.2532949 52.7467051,8 47.5,8 C42.2532949,8 38,12.2532949 38,17.5 C38,22.7467051 42.2532949,27 47.5,27 Z" id="Oval-Copy"></path>
            <path d="M129.249636,1.14609774 C130.564444,0.613930939 132,1.58157729 132,3 L132,143 C132,144.436077 130.531436,145.404141 129.211635,144.838064 L90.2116349,128.110556 C89.4765488,127.795269 89,127.072339 89,126.272491 L89,18.785192 C89,17.9703627 89.4943289,17.2369991 90.2496358,16.9312898 L129.249636,1.14609774 Z M93,20.133306 L93,124.95411 L128,139.965977 L128,5.96710807 L93,20.133306 Z" id="Path-15-Copy"></path>
            <path d="M101,75.2183523 C101,76.3229218 100.104569,77.2183523 99,77.2183523 C97.8954305,77.2183523 97,76.3229218 97,75.2183523 L97,67 C97,65.8954305 97.8954305,65 99,65 C100.104569,65 101,65.8954305 101,67 L101,75.2183523 Z" id="Line-Copy"></path>
        </g>
    </g>
</svg>