<svg width="18" height="18" viewBox="0 0 18 18" fill="none" xmlns="http://www.w3.org/2000/svg">
<g clip-path="url(#clip0)">
<mask id="mask0" mask-type="alpha" maskUnits="userSpaceOnUse" x="1" y="2" width="16" height="16">
<path d="M13.6429 4.86922H15.1905C16.0453 4.86922 16.7382 5.56211 16.7382 6.41684V15.7026C16.7382 16.5573 16.0453 17.2502 15.1905 17.2502H2.80958C1.95486 17.2502 1.26196 16.5573 1.26196 15.7026H1.28263C1.26889 15.6193 1.26196 15.535 1.26196 15.4505V6.22671C1.26196 5.53573 1.72002 4.92847 2.38442 4.73864L11.6701 2.08558C12.492 1.85077 13.3486 2.32665 13.5834 3.14849C13.6229 3.28676 13.6429 3.42985 13.6429 3.57365V4.86922ZM13.6429 6.41684V12.7974C13.6429 13.4884 13.1849 14.0957 12.5205 14.2855L7.56081 15.7026H15.1905V6.41684H13.6429ZM2.80958 6.22671V15.4505L12.0953 12.7974V3.57365L2.80958 6.22671ZM13.6429 9.51208V7.96446H15.1905V9.51208H13.6429ZM9.77387 8.73827C9.3465 8.73827 9.00006 8.39182 9.00006 7.96446C9.00006 7.53709 9.3465 7.19065 9.77387 7.19065C10.2012 7.19065 10.5477 7.53709 10.5477 7.96446C10.5477 8.39182 10.2012 8.73827 9.77387 8.73827Z" fill="white"/>
</mask>
<g mask="url(#mask0)">
<path d="M18.2858 1H-0.285645V19.5714H18.2858V1Z" fill="#8292B4"/>
</g>
</g>
<defs>
<clipPath id="clip0">
<rect width="18" height="18" fill="white"/>
</clipPath>
</defs>
</svg>
