<svg width="40" height="38" viewBox="0 0 40 38" fill="none" xmlns="http://www.w3.org/2000/svg">
<path d="M7.20996 0L7.27959 0.174064C7.28829 0.165361 7.27088 0.121842 7.20996 0ZM36.9046 8.61596L36.9394 8.58985C36.9133 8.60725 36.9046 8.61596 36.9046 8.61596ZM10.0645 6.38799V6.37929L10.0297 6.34448L10.0645 6.38799Z" fill="url(#paint0_linear_1933_18578)"/>
<path d="M38.6391 29.2688L24.7001 3.64549C22.4606 -0.124767 17.0013 -0.129776 14.7588 3.64549L0.820536 29.2688C-1.46885 33.1214 1.30291 37.9999 5.79005 37.9999H33.6684C38.1518 37.9999 40.9285 33.1253 38.6391 29.2688ZM19.7295 33.3759C18.4549 33.3759 17.4174 32.3384 17.4174 31.0638C17.4174 29.7893 18.4549 28.7518 19.7295 28.7518C21.004 28.7518 22.0415 29.7893 22.0415 31.0638C22.0415 32.3384 21.004 33.3759 19.7295 33.3759ZM22.0415 24.1277C22.0415 25.4022 21.004 26.4397 19.7295 26.4397C18.4549 26.4397 17.4174 25.4022 17.4174 24.1277V12.5674C17.4174 11.2929 18.4549 10.2554 19.7295 10.2554C21.004 10.2554 22.0415 11.2929 22.0415 12.5674V24.1277Z" fill="url(#paint1_linear_1933_18578)"/>
<mask id="mask0_1933_18578" style="mask-type:alpha" maskUnits="userSpaceOnUse" x="0" y="0" width="40" height="38">
<path d="M7.20996 0L7.27959 0.174064C7.28829 0.165361 7.27088 0.121842 7.20996 0ZM36.9046 8.61596L36.9394 8.58985C36.9133 8.60725 36.9046 8.61596 36.9046 8.61596ZM10.0645 6.38799V6.37929L10.0297 6.34448L10.0645 6.38799Z" fill="url(#paint2_linear_1933_18578)"/>
<path d="M38.6391 29.2688L24.7001 3.64549C22.4606 -0.124767 17.0013 -0.129776 14.7588 3.64549L0.820536 29.2688C-1.46885 33.1214 1.30291 37.9999 5.79005 37.9999H33.6684C38.1518 37.9999 40.9285 33.1253 38.6391 29.2688ZM19.7295 33.3759C18.4549 33.3759 17.4174 32.3384 17.4174 31.0638C17.4174 29.7893 18.4549 28.7518 19.7295 28.7518C21.004 28.7518 22.0415 29.7893 22.0415 31.0638C22.0415 32.3384 21.004 33.3759 19.7295 33.3759ZM22.0415 24.1277C22.0415 25.4022 21.004 26.4397 19.7295 26.4397C18.4549 26.4397 17.4174 25.4022 17.4174 24.1277V12.5674C17.4174 11.2929 18.4549 10.2554 19.7295 10.2554C21.004 10.2554 22.0415 11.2929 22.0415 12.5674V24.1277Z" fill="url(#paint3_linear_1933_18578)"/>
</mask>
<g mask="url(#mask0_1933_18578)">
<path fill-rule="evenodd" clip-rule="evenodd" d="M8.50905 14.13L8.03645 13.7397L8.39654 13.5202L8.50905 14.13ZM35.1669 3.29896L33.8503 2.98182L35.0318 1.76211L35.1669 3.29896ZM33.0626 2.04266L34.3004 1.85967L33.7603 3.01841L33.0626 2.04266ZM36.506 3.5185L35.6957 4.90895L34.9868 3.5185H36.506ZM32.3874 2.82326L32.8375 2.88426L32.545 3.45752L32.3874 2.82326ZM34.5704 3.60389L34.9756 4.73821L34.0303 4.67724L34.5704 3.60389ZM26.8623 3.84781L27.2674 4.98217L26.3335 4.92115L26.8623 3.84781ZM13.1452 2.6403L13.5953 3.86002L12.56 3.81122L13.1452 2.6403ZM17.7363 1.07907L20.2344 1.05469L18.8278 2.39635L17.7363 1.07907ZM21.7873 1.07907L24.2855 1.05469L22.8901 2.39635L21.7873 1.07907ZM25.5232 1.03027L27.2899 1.09128L26.4234 2.37196L25.5232 1.03027ZM28.3252 1.07907L30.8233 1.05469L29.428 2.39635L28.3252 1.07907ZM24.4655 2.87205L25.6133 2.45735L25.512 3.5673L24.4655 2.87205ZM15.5646 2.00607L16.7235 1.57916L16.6223 2.68911L15.5646 2.00607ZM19.9306 2.6403L21.0559 2.43294L20.8308 3.44532L19.9306 2.6403ZM19.4017 3.04279L19.2892 2.50611L19.7393 2.61592L19.4017 3.04279ZM31.9431 1.20581L30.6715 1.47414L31.628 2.42552L31.9431 1.20581ZM28.6122 12.3296L28.6453 12.5804L28.7983 12.4253L28.8226 12.4847L29.2199 12.0369L29.445 12.9639L28.9422 12.777L29.1062 13.1781L29.3961 13.0414V13.6513L29.2605 13.5554L29.2822 13.6083L28.6123 13.555L28.7023 13.8908L27.8583 13.6957L28.0687 13.5117L27.7518 13.4864L28.2676 12.9635L27.9371 12.7199L28.6122 12.3296ZM26.0691 14.3787L27.3857 14.708L27.2507 13.1712L26.0691 14.3787ZM25.799 12.8297L24.5612 13.0248L25.2589 14.0006L25.799 12.8297ZM21.6356 7.79225L20.3977 7.97523L21.0954 8.95099L21.6356 7.79225ZM18.0684 8.56067L17.589 8.63626L17.5206 8.24327L17.1933 8.69864L16.8306 8.75583L16.991 8.98014L16.7667 9.29221L17.3111 9.42787L17.5283 9.73162L17.6315 9.50773L17.7456 9.53616L17.7108 9.3359L18.0684 8.56067ZM27.9709 16.3302L28.781 14.9398L27.2619 14.9276L27.9709 16.3302ZM24.5016 9.19541L23.9556 9.03908L23.706 9.49988L23.5344 8.9185L23.3088 8.85389L24.389 7.57321L24.5016 9.19541ZM26.5643 4.98692L26.418 5.84074L27.0256 5.41383L26.5643 4.98692ZM22.8959 5.63337L22.7383 6.48719L23.3572 6.07248L22.8959 5.63337ZM18.5072 13.9274L18.0703 13.8682L18.1395 13.1099L16.9917 13.5246L18.0382 14.2199L18.0669 13.9056L18.2147 14.5007L18.5072 13.9274ZM20.6453 12.7931L20.1952 12.7321L20.3415 13.3786L20.6453 12.7931ZM25.3152 12.354L25.0902 11.5002L24.64 12.2564L25.3152 12.354ZM25.5852 9.98775L25.3827 9.13394L24.9101 9.86577L25.5852 9.98775ZM26.463 15.7204L26.0691 14.5983L25.529 15.6594L26.463 15.7204ZM27.4757 10.4756L27.1381 9.07297L26.3505 10.2683L27.4757 10.4756ZM20.8064 24.8069L20.919 24.4654L20.4238 24.5386L20.5926 24.7338L20.2999 25.3584L19.3577 25.6988L20.4042 26.3941L20.4935 25.416L21.1552 25.1973L20.8064 24.8069ZM22.2242 17.4521V16.8422L21.7179 17.0862L21.758 17.1152L20.6405 17.5267L21.6983 18.2098L21.7956 17.1424L22.2242 17.4521ZM23.192 17.6229L23.2145 17.013L22.6968 17.2569L23.192 17.6229ZM22.8994 20.0379L23.3158 20.7697L23.6871 20.1233L22.8994 20.0379ZM26.1627 27.039L25.375 26.9537L25.5516 27.264L25.2216 27.2193L25.3791 27.8535L25.6192 27.3829L25.7914 27.6855L26.1627 27.039ZM18.9834 19.2329L18.1957 19.1475L18.6121 19.8793L18.9834 19.2329ZM24.081 18.0498L23.2933 17.9766L23.6984 18.7084L24.081 18.0498ZM23.6871 28.2587L23.6052 28.2499L23.564 27.6062L23.0611 28.1909L22.8994 28.1734L22.9698 28.297L22.9451 28.3258L22.9925 28.337L23.3158 28.9052L23.5649 28.4714L23.6202 28.4844L23.6139 28.3862L23.6871 28.2587ZM22.0892 20.6599L21.9767 19.0377L20.8852 20.3062L22.0892 20.6599ZM26.0052 17.7326L24.6549 17.0008L24.7468 17.342L24.4562 17.0369L24.5688 16.671L24.0736 16.7441L24.2536 16.9393L23.8823 17.7077L24.7703 17.4294L25.1049 18.6718L26.0052 17.7326ZM27.9857 27.1244L26.6353 26.3926L26.7956 26.9877L26.1093 27.2357L27.0231 27.8321L27.0854 28.0636L27.9857 27.1244ZM31.3615 25.4656L31.1496 25.5099L31.2186 24.8689L30.7235 24.9665L31.0886 25.5227L30.3759 25.6718L30.3864 25.3885L29.8687 25.6325L30.2987 25.9502L31.0464 26.6853L31.3615 25.4656ZM2.93695 35.0769L2.52061 35.5404L3.10578 35.4916L2.93695 35.0769ZM0.416358 34.4305L0 34.894L0.585171 34.8452L0.416358 34.4305ZM39.8686 13.0001L38.7209 14.0979L39.8686 14.6224V13.0001ZM36.2452 14.3174L36.4252 14.4638L36.414 13.854L37.1792 14.1467L36.982 13.3342L38.2971 13.0902L36.7884 11.8637L36.7652 11.7666L36.7321 11.8179L36.5867 11.6997L36.4712 12.222L35.9776 12.9863L36.2902 13.0405L36.1929 13.4805L36.8331 13.3618L36.414 13.854L36.3577 13.5124L35.6826 13.9027L36.2452 14.3174ZM36.2452 14.3174L35.6038 14.8785L36.4478 15.0737L36.2452 14.3174ZM8.63086 10.6217L8.57461 9.91427L8.12454 10.3656L8.63086 10.6217ZM38.8065 15.3949L38.7196 15.1208L37.393 15.4518L38.0457 13.9881L38.6308 14.9639L38.6709 14.9675L38.5589 14.6143L39.3466 14.7363L39.1234 15.0084L39.441 15.0371L39.0359 15.7689L38.8802 15.305L38.8065 15.3949ZM33.0945 15.1346L34.411 15.4518L34.298 14.1757L34.6291 14.5012L34.9441 13.2815L33.6614 13.5498L34.0386 13.9206L33.7045 13.9865L33.9106 14.3005L33.0945 15.1346ZM20.2888 16.8422L20.9639 17.0008L20.9077 16.1226L20.2888 16.8422ZM37.2805 15.6225L36.324 15.7445L36.8528 16.5129L37.2805 15.6225ZM33.5671 14.0369L32.3293 14.2321L33.027 15.2078L33.5671 14.0369ZM34.9624 17.1106L35.7726 15.7079H34.2535L34.9624 17.1106ZM31.318 10.1406L31.4853 10.7071L31.7891 10.146L31.4399 10.1108L32.5475 9.84001L31.7485 8.83983L31.0509 10.2059L31.318 10.1406ZM9.95875 8.65797L10.1275 9.24345L10.4201 8.70677L9.95875 8.65797ZM18.9834 11.6463L19.186 12.2561L19.4673 11.6829L18.9834 11.6463ZM34.3435 6.19416L34.186 7.04794L34.7936 6.62104L34.3435 6.19416ZM36.2002 4.6939L36.0539 5.54772L36.6616 5.13302L36.2002 4.6939ZM37.7531 4.81588L37.6068 5.66966L38.2145 5.25496L37.7531 4.81588ZM32.1042 15.0858L31.6541 15.0249L31.8116 15.6591L32.1042 15.0858ZM32.9095 12.9573L32.8469 12.7196L32.3968 13.4758L33.0719 13.5734L32.9554 13.1315L33.9873 13.1634L33.6272 11.7851L32.9095 12.9573ZM33.3533 11.2072L33.1507 10.3534L32.6781 11.0852L33.3533 11.2072ZM34.2309 16.9398L33.8258 15.8177L33.2857 16.8788L33.458 16.8899L33.0758 17.0701L33.5709 17.436L33.5907 16.8985L34.2309 16.9398ZM22.7869 13.4758L22.3931 12.3537L21.8529 13.4148L22.7869 13.4758ZM26.5228 17.1837L26.1177 16.0616L25.5888 17.1228L26.5228 17.1837ZM12.8507 16.086L12.4006 14.8663L11.8154 16.0372L12.8507 16.086ZM22.8094 10.1826L21.6503 10.5973L22.7081 11.2925L22.8094 10.1826ZM24.8911 14.659L23.7434 15.0737L24.7899 15.7567L24.8911 14.659ZM16.0015 13.8052L14.8424 14.2199L15.9002 14.9151L16.0015 13.8052ZM19.4336 4.93786L18.2745 5.36473L19.3323 6.0478L19.4336 4.93786ZM20.3338 14.6346L19.2085 14.8419L20.1087 15.6591L20.3338 14.6346ZM32.2435 17.0369L32.356 16.671L31.8496 16.7441L32.0296 16.9393L31.6583 17.7077L32.5923 17.415L32.2435 17.0369ZM38.8826 18.7444L38.9951 18.4029L38.8153 18.4246L39.0046 18.35L39.209 18.7093L39.5803 18.0507L39.3304 18.0275L38.9029 17.5263L38.8107 17.9792L38.7927 17.9775L38.8062 18.0012L38.7176 18.4364L38.4887 18.4639L38.6688 18.6591L38.2975 19.4275L39.2314 19.1348L38.8826 18.7444ZM32.6935 24.1112L32.8061 23.7453L32.311 23.8185L32.4797 24.0136L32.1196 24.782L33.0424 24.4893L32.6935 24.1112ZM37.9036 34.4788L37.7964 34.5249L37.5951 34.9614L38.3302 34.8601L38.1273 35.5017L38.2287 35.5284L37.9763 35.9789L37.9251 36.1408L37.8992 36.1165L37.8461 36.2114L37.7307 35.958L37.3287 35.5798L37.3064 35.5812L37.191 35.9978L37.658 36.4716L38.0373 36.3713L38.6764 35.8515L39.2391 37.3151L37.7972 37.2766L37.7785 37.3471L37.7125 37.2743L37.4201 37.2665L37.6216 37.4663L36.1138 38.0518L36.5324 36.9784L36.4147 37.0224L36.8873 35.9002L36.6172 35.6319L36.6678 35.6232L36.586 35.6285L36.6792 35.3055L36.2154 35.6849L36.1591 35.4165L35.0001 34.6969L36.0128 33.9163L36.1817 34.7701L36.727 35.1395L36.8111 34.8479L37.0024 35.0431L37.309 35.0008L37.1389 34.8083L36.9696 34.8813L37.0384 34.6947L36.9675 34.6144L37.0852 34.5681L37.2847 34.0274L37.0821 33.8445L37.529 33.7368L37.5491 33.6869L37.2841 33.5022L37.71 33.2872L37.7551 33.1752L37.8055 33.239L38.1055 33.0876L38.0128 33.5011L38.3419 33.9171L38.6359 33.6904L38.1161 32.5401L39.7252 32.967L39.3334 33.637L39.4191 34.0707L39.8721 34.3775L40.1078 33.7367L40.6704 34.4198L41.0643 34.2612L40.9518 34.7491L41.1318 35.054L39.4438 35.5419L39.7327 34.7565L39.4529 34.9854L39.3966 34.7171L38.5641 34.2002L37.8741 34.4495L37.9036 34.4788ZM38.1926 31.5825L38.2167 31.4716L37.2284 30.8684L37.8369 30.3994L37.1374 30.6521L36.9221 31.1189L37.3373 30.9604L37.1686 31.6922L36.5384 31.2653L36.6598 31.219L36.2822 30.7741L36.541 30.6887L37.0319 29.4434L36.8324 29.7356L36.5814 29.1008L35.6517 29.0408L36.1918 27.9797L36.5205 28.8901L37.2488 29.1257L37.0847 29.366L37.2172 29.5355L37.5534 28.9799L37.6643 29.2022L38.6777 27.5661L39.1392 29.3103L37.7009 29.2756L38.0035 29.8824L37.4061 29.7772L37.8715 30.3727L38.2411 30.0878L38.402 30.8503L38.792 30.4774L39.0845 31.3312L38.9663 31.3175L39.0401 31.3685L38.8292 31.541L38.9915 31.5825L38.4851 32.0947L37.9563 32.6192L37.4274 31.3751L38.1926 31.5825ZM35.7656 29.5389L36.3507 29.978L36.5757 29.1608L35.7656 29.5389ZM21.3494 23.8083L21.552 24.4181L21.8333 23.8449L21.3494 23.8083ZM34.0875 34.5417L34.1011 34.5771L33.9755 34.6266L34.1656 34.8415L32.8395 35.0242L32.637 34.8291L32.4344 35.6097L33.1659 35.5609L33.7622 36.122L34.1668 34.8429L34.2314 34.916L34.3126 35.1272L34.3478 35.0476L34.4932 35.2121L34.8308 34.4803L35.5734 34.2119L35.3548 33.9354L35.6926 33.5041L36.2368 33.5538L35.8092 32.2609L35.2804 33.2463L35.1768 33.1925L35.1852 33.4237L35.1678 33.4562L35.1865 33.4579L35.1966 33.7354L34.792 33.2237L35.2251 32.7942L35.7315 32.2819L35.5403 32.2331L34.9776 32.0745L34.9325 32.2819L34.7071 32.2208L34.7844 31.9067L34.2668 32.0287L34.3819 32.1327L34.1674 32.0745L34.3565 32.5195L34.1655 33.041L34.5143 32.8907L34.6963 33.3186L34.7198 33.2953L34.2231 34.529L34.1909 34.5417H34.0875ZM37.2033 37.0516L37.3799 36.9078L37.2131 36.7239L36.966 36.8163L37.2033 37.0516ZM36.5519 19.1978L37.1596 18.7709L36.7094 18.344L36.5519 19.1978ZM38.4635 17.4553L38.4199 17.7097L38.6215 17.5721L38.6914 17.6238L38.6951 17.5218L39.0275 17.295L38.5662 16.8559L38.5237 17.1035L38.1962 17.2579L38.4635 17.4553ZM40.1191 16.9779L39.9728 17.8317L40.5804 17.417L40.5188 17.3584L40.6037 16.9494L40.1969 17.052L40.1191 16.9779ZM35.332 25.334L35.4025 25.6011L36.2233 25.4717L35.6832 26.6426L34.9881 25.6704L34.7627 25.6378L35.0322 25.1851L34.8872 24.9643L35.2003 24.9026L35.2128 24.8816L35.2174 24.8992L35.3823 24.8667L35.332 25.334ZM35.0778 31.6876L34.7964 30.8338L34.7654 30.8922L34.6282 30.4918L34.251 30.8525L34.1701 30.4432L34.3103 30.3993L34.1347 30.264L34.0997 30.0873L34.0026 30.1623L33.8828 30.07L33.8488 30.2808L33.087 30.8679L34.246 31.5754L34.3023 31.8559L34.5522 31.6514L35.0778 31.6876ZM34.9888 22.3792L35.4322 22.6462L35.5166 22.5154L35.5669 22.7273L36.0512 23.019L36.1926 22.8176L36.3115 23.1757L36.4066 23.233L36.3395 23.26L36.3771 23.3732L36.7657 22.7715L37.1033 24.1864L36.9743 24.164L38.3196 25.2577L36.9413 25.5134L37.0673 26.9353L35.7507 26.6182L36.8075 25.5382L36.2153 25.648L36.5595 24.0921L35.978 23.9912L36.3448 23.4233L36.0024 23.3953L34.8875 23.8429L34.9888 22.3792ZM25.1529 25.65L24.759 24.5279L24.2189 25.5891L25.1529 25.65ZM28.8887 29.358L28.4837 28.2358L27.9548 29.297L28.8887 29.358ZM15.723 32.7731L15.3517 31.4559L14.6765 32.6268L15.723 32.7731ZM20.3592 23.4058L20.1341 22.1129L19.3802 23.1618L20.3592 23.4058ZM15.2167 28.248L14.7665 27.0283L14.1814 28.187L15.2167 28.248ZM24.3672 22.646L24.0163 22.7715L25.0741 23.4668L25.1753 22.3568L24.9861 22.4245L25.2215 21.9143L23.9836 22.1095L24.3672 22.646ZM17.1071 24.7474L15.948 25.1743L17.0058 25.8574L17.1071 24.7474ZM22.1414 26.9238L21.5744 27.0283L22.4747 27.8455L22.6997 26.821L22.3055 26.8936L22.1266 26.8548L22.1414 26.9238ZM38.116 21.1615L36.7995 21.5274L37.3256 21.9266L36.8677 22.7932L38.3755 22.4273L37.9911 21.9578L38.116 21.1615ZM42.257 23.2106L40.164 24.5523L40.5666 24.6985L40.7394 25.2348L41.0429 24.8715L41.6554 25.094L41.774 25.3045L40.8089 25.6501L40.702 25.4717L40.587 25.7295L40.5137 25.7558L40.5592 25.7919L40.2058 26.5843L39.9849 26.5364L40.0782 26.8705L40.0493 26.9353L40.0933 26.9244L40.2099 27.3414L40.8851 26.7316L40.875 26.7294L41.4672 26.5816L41.6922 27.2525L41.9921 26.7107L42.2571 26.8318V26.0383L42.2917 26.0851L42.798 24.8288L42.2482 24.8533L42.257 23.2106ZM41.8415 25.4753L41.8986 25.5526L41.8237 25.6242L41.8415 25.4753ZM41.3962 26.4573L41.3405 26.413L41.2385 26.3664L41.2871 26.4474L41.3962 26.4573ZM40.7867 35.8136L40.164 36.2127L40.9683 36.5049L41.1894 37.3465L41.5485 36.9762L41.7372 37.2419L42.1754 36.9434L42.2458 36.9689L42.2462 36.8951L42.5249 36.7052L42.2478 36.5908L42.2496 36.2532L42.3485 36.1512L42.2504 36.1081L42.257 34.871L41.1094 35.6067L40.6831 35.4194L40.7867 35.8136ZM21.777 36.2127L21.4057 37.1519L22.3509 36.786L21.777 36.2127ZM19.6615 35.8102L19.2114 36.7128L20.1904 36.4689L19.6615 35.8102ZM34.6501 35.4443L34.2789 36.3957L35.2353 36.0298L34.6501 35.4443ZM21.3247 31.5825L21.5272 32.2899L20.9646 32.1435L21.3247 31.5825ZM23.2602 33.6559L23.4627 34.3634L22.8888 34.2048L23.2602 33.6559ZM18.6465 34.4244L18.849 35.1562L18.2751 34.9854L18.6465 34.4244ZM7.2137 34.3756L7.41626 35.083L6.84234 34.9367L7.2137 34.3756ZM27.4462 29.265L26.7935 29.1064L27.4012 28.3746L27.4462 29.265ZM21.1334 34.6317L21.0996 33.7047L21.651 33.9853L21.1334 34.6317ZM16.8911 34.9976L16.8573 34.0707L17.3975 34.3512L16.8911 34.9976ZM15.687 36.071L15.6533 35.144L16.1934 35.4245L15.687 36.071ZM42.2999 30.5335L41.7372 31.9972L40.8707 30.7774L42.2999 30.5335ZM38.9803 27.2037L39.9367 27.0817L39.5092 27.9721L38.9803 27.2037ZM29.3141 29.7773L30.3269 28.9723L30.3303 29.1032L30.8365 28.8647L30.814 29.4746L30.3307 29.1173L30.3607 30.2651L29.3141 29.7773ZM25.0719 30.2651L26.0846 29.4601L26.1184 30.753L25.0719 30.2651ZM17.4987 36.5345L18.5115 35.7295L18.5453 37.0224L17.4987 36.5345ZM41.5909 30.4603L40.2631 30.753L40.3492 30.0263L39.8128 30.1054L39.7356 30.1747L39.6982 30.8067H40.1873L39.6696 32.0264L39.5262 31.7155L39.4767 31.8229L39.5104 32.4693L38.7453 31.9815L39.1392 31.6644L39.2966 31.4204L39.3867 31.5424L39.4385 31.5253L39.107 30.8067H39.1247L38.9592 30.7113L39.6568 30.2601L39.6257 30.133L39.5792 30.1398L39.6126 30.0795L39.3193 28.8818L40.0728 29.2482L40.2544 28.9201L40.7994 29.6745L41.0283 29.8261L40.9158 28.7893L41.9847 29.1918L41.1183 29.9724L41.5909 30.4603ZM38.424 27.1634L37.6187 28.5576L36.9097 27.1549H38.3872L37.9923 27.0636L38.6338 26.5025L38.8363 27.2588L38.424 27.1634ZM38.8025 26.039L38.8138 26.6489L38.6338 26.5025L38.0711 26.0878L38.7463 25.6975L38.8025 26.039ZM38.8025 26.039L39.5678 26.3318L39.3427 25.4048L38.8025 26.039ZM21.6398 28.521L21.7523 28.0331L22.1349 28.399L21.6398 28.521ZM24.7455 29.9846L24.8581 29.4967L25.2294 29.8627L24.7455 29.9846ZM11.7711 34.8269L11.6248 34.217L12.1086 34.278L11.7711 34.8269ZM34.3118 21.8643L34.9552 22.3525L35.1465 21.1328L33.83 21.4987L33.9729 21.6071L34.1416 22.1784L34.3118 21.8643ZM12.7838 20.6782L12.615 20.105L13.0764 20.1537L12.7838 20.6782ZM21.0119 36.8701V37.7971L20.9945 37.788L21.0804 38.0145L19.7076 37.9779L20.5679 37.2684L21.0119 36.8701ZM14.6541 34.016L14.8004 34.7478L14.249 34.5404L14.6541 34.016ZM12.0997 28.8932L12.2685 29.625L11.7059 29.4298L12.0997 28.8932ZM10.9744 22.1238L11.0307 22.8312L10.5244 22.5751L10.9744 22.1238ZM35.2248 22.3785L35.9337 21.0124L36.7214 21.9882L35.2248 22.3785ZM28.9458 24.4642L29.9923 23.403L30.4761 24.5862L28.9458 24.4642ZM40.3223 18.7681L41.1775 18.1583L41.3913 19.0487L40.3223 18.7681ZM41.1887 31.9654L41.7514 33.1851H40.3111L41.1887 31.9654ZM40.782 17.0156L41.2381 17.6583L40.6149 17.3045L40.7161 18.1217L41.0123 17.9196L41.3592 18.3103L41.6059 19.5022L41.9852 19.0156L42.2561 19.3208V18.6682L42.4048 18.4776L42.2561 18.4386V16.8814L42.0311 17.0034L41.9411 16.9302L40.782 17.0156ZM41.3447 17.8084L41.2894 17.7305L41.2119 17.7834L41.3447 17.8084ZM16.2976 37.5639L15.7125 37.4419L16.1513 36.9541L16.2976 37.5639ZM22.4642 31.7703L22.0928 30.4286L23.2519 30.6359L22.4642 31.7703ZM23.792 37.1858L24.8385 36.3564L25.0298 37.6005L23.792 37.1858ZM19.696 34.3073L20.7087 33.4291L20.9563 34.6732L19.696 34.3073ZM2.59173 37.9542L3.49193 37.3931L4.05458 37.9786L2.59173 37.9542ZM41.9652 19.4756L43.1692 19.7927L42.2561 20.9003V22.1928L42.8317 22.5493L42.4266 22.8176L41.9089 23.0615L41.954 22.8176L41.4926 23.3176L41.2451 22.3785L41.9877 22.6956L42.0513 22.4201L40.9278 21.49L39.7717 21.8318L39.9179 20.6121L40.3732 20.9182L40.7708 20.356L41.0124 21.2843L41.3447 21.0651L41.9411 20.6259L42.0311 20.6991L42.1696 20.6316L42.1188 20.3441L41.6599 20.1487L42.0218 19.7956L41.9652 19.4756ZM42.4266 22.8176L43.1918 23.0127L42.4828 23.586L42.4266 22.8176ZM40.9646 21.3159L40.9899 21.2992L40.9024 21.2741L40.9646 21.3159ZM39.9157 21.8684L39.1055 22.4051L39.1482 22.4339L39.0508 23.8408L39.4583 23.6773L39.8819 23.9663L39.9911 23.4634L40.0467 23.441L40.0079 23.8687L40.7506 23.6858L40.3228 23.3302L40.57 23.231L39.7218 22.7202L39.9157 21.8684ZM18.738 21.8441L18.4679 22.3929L18.9968 22.1856L18.738 21.8441ZM35.4146 18.3801L35.2492 18.3657L35.4069 18.086L35.5406 18.1848L35.5631 17.575L35.0455 17.8189L35.347 18.0417L34.64 17.9761L35.0564 18.7079L35.1078 18.6166L35.2458 18.7704L35.4146 18.3801ZM19.1768 17.4409L18.918 17.9898L19.4356 17.7824L19.1768 17.4409ZM13.8092 23.1126L13.5392 23.6614L14.068 23.4541L13.8092 23.1126ZM8.77923 30.4552L8.55422 31.0651L9.08307 30.7967L8.77923 30.4552ZM5.70722 31.6383L5.48216 32.2482L6.01109 31.9555L5.70722 31.6383ZM19.852 31.9677L19.4018 31.9311L19.7057 32.4677L19.852 31.9677ZM22.8115 32.8946L22.3613 32.8215L22.6426 33.3825L22.8115 32.8946ZM15.4972 28.8696L15.2158 29.3209L15.6659 29.2599L15.4972 28.8696ZM13.8092 24.564L13.5279 25.0153L13.978 24.9665L13.8092 24.564ZM17.4664 17.2457L16.9825 17.1238L17.2075 17.5628L17.4664 17.2457ZM17.05 18.6728L16.7125 19.0875H17.1626L17.05 18.6728ZM34.9708 28.3223L35.9341 28.33L35.1239 29.7205L34.415 28.3178L34.7641 28.3206L34.8857 28.1256L34.9708 28.3223ZM36.3148 31.6628L35.735 31.5011L36.0236 30.8211H34.9433L35.5059 32.0408L35.6474 31.7076L35.9322 32.3336L36.3148 31.6628ZM19.5481 18.9777L19.6607 18.6362L19.1543 18.7094L19.3343 18.9045L18.9742 19.673L19.897 19.368L19.5481 18.9777ZM39.8394 19.1306L39.7268 19.4721L40.0869 19.8624L39.1722 20.1491L38.8151 20.7706L38.3988 20.0388L39.1688 20.1223L39.5243 19.3867L39.3443 19.1916L39.8394 19.1306ZM28.304 33.3842L27.7188 32.9452L28.529 32.5549L28.304 33.3842ZM29.8344 31.4327L30.6445 32.4573L29.9019 32.7378L29.5643 33.4696L29.0467 32.8598L29.2943 32.7744L29.8344 31.4327ZM43.125 22.6734L42.5173 22.2587L43.0912 21.783L43.125 22.6734ZM37.7574 16.8432L37.7349 17.453L37.2398 17.0871L37.7574 16.8432ZM36.5533 20.6121L37.341 20.6974L36.9697 21.3439L36.5533 20.6121ZM41.2226 20.694L41.4139 19.2669L40.4012 19.5719L41.2226 20.694ZM40.2099 18.5595L39.7147 18.6814L40.0974 19.0474L40.2099 18.5595ZM23.522 31.5006L23.0157 31.9641L23.7133 32.0251L23.522 31.5006ZM13.5408 32.2934L12.9782 32.6959L13.6759 32.8423L13.5408 32.2934ZM34.0661 36.2093L33.9311 36.6972L34.46 37.2339L33.1659 37.7218L33.616 36.5997L33.3572 36.3313L34.0661 36.2093ZM35.4277 36.5509L35.9903 38.0145L33.706 37.9535L34.6587 37.1773L34.145 36.6111L35.0678 36.3671L34.9063 36.9756L35.4277 36.5509ZM23.0496 37.1241L23.3873 38.0145L22.0031 37.9779L23.0496 37.1241ZM30.8253 37.1241L31.1629 38.0145L29.7788 37.9779L30.8253 37.1241ZM34.55 28.0617L33.2334 27.7324L34.415 26.5248L34.55 28.0617ZM29.43 31.4159L28.1134 31.0987L29.2837 29.879L29.43 31.4159ZM33.9198 32.3795L33.2897 31.9525L34.0886 31.6476L33.9198 32.3795ZM31.9731 34.8311L31.9393 33.9041L32.4795 34.1846L31.9731 34.8311ZM31.7143 26.3785L32.9521 26.1833L32.4119 27.3542L31.7143 26.3785ZM27.5507 21.3289L28.7886 21.1459L28.2484 22.3046L27.5507 21.3289ZM31.388 33.4772L30.5777 34.8799L29.8688 33.4772H31.388ZM30.6229 30.7808L30.5441 31.2687L31.0505 31.1101L30.6229 30.7808ZM30.7017 22.2794L30.8817 22.8893L31.1855 22.3282L31.1635 22.326L32.5584 21.9622L31.7595 20.9864L31.0796 22.3175L30.7017 22.2794ZM31.0955 34.5375L31.3206 35.123L31.5681 34.5375H31.0955ZM26.7069 32.7689L26.932 33.3544L27.1796 32.7689H26.7069ZM34.1338 29.7197L35.034 29.8782L34.5838 28.9756L34.1338 29.7197ZM33.7287 18.3398L33.5824 19.1936L34.19 18.7667L33.7287 18.3398ZM30.0603 18.9862L29.9027 19.84L30.5216 19.4253L30.0603 18.9862ZM27.8097 26.1581L27.3596 26.0971L27.5059 26.7314L27.8097 26.1581ZM32.4796 25.719L32.2546 24.8652L31.8044 25.6214L32.4796 25.719ZM32.1195 31.6712L31.827 30.8174L31.4106 31.6224L32.1195 31.6712ZM20.5629 30.2563L20.2703 29.4026L19.854 30.2076L20.5629 30.2563ZM29.7902 37.0867L29.4976 36.233L29.0813 37.0379L29.7902 37.0867ZM32.7384 23.3406L32.5359 22.4868L32.1206 23.1299L32.0176 22.8198L31.6237 23.3809L32.2201 23.4297L32.1556 23.2353L32.7384 23.3406ZM33.8518 29.7478L33.5659 29.0699L32.6821 29.0122L33.2223 27.9511L33.561 28.916L34.2569 29.1379L33.8518 29.7478ZM32.8173 32.2322L33.2393 33.4444L33.9418 33.0898L33.7505 33.9436L33.4452 33.7309L33.3683 34.088L33.7622 34.4783L32.8282 34.8808L33.132 34.027L32.9407 33.844L33.4363 33.7247L33.1324 33.5129L32.1871 33.4275L32.8173 32.2322ZM34.3026 22.4379L34.6402 23.8406L33.5149 23.6332L34.3026 22.4379ZM31.3094 36.3792L31.6807 35.4278L32.2658 36.0133L31.3094 36.3792ZM30.1166 37.2818L30.4879 36.3304L31.073 36.9159L30.1166 37.2818ZM25.4804 37.8916L25.8405 36.9403L26.4256 37.5257L25.4804 37.8916ZM27.1909 35.8669L26.3357 35.44L26.8758 34.818L27.1909 35.8669ZM30.2066 36.1718L29.3401 35.7449L29.8915 35.1351L30.2066 36.1718ZM26.0205 36.3548L25.1541 35.9279L25.7055 35.3181L26.0205 36.3548ZM31.3206 37.9404L32.3333 36.7451L32.9185 37.9526L31.3206 37.9404ZM27.8098 38.0014L28.8225 36.8061L29.4076 38.0014H27.8098ZM16.7595 38.0014L17.7948 36.8061L18.3687 38.0014H16.7595ZM13.3724 38.0014L14.3852 36.8061L14.9816 38.0014H13.3724ZM10.7393 38.0014L11.752 36.8061L12.3485 38.0014H10.7393ZM5.66431 38.0014L6.27193 37.0866L7.27346 38.0014H5.66431ZM32.4339 18.3801L31.8713 18.3313L32.2651 18.7704L32.4339 18.3801ZM31.905 28.1378L31.6237 28.589L32.0738 28.5281L31.905 28.1378ZM25.491 31.492L25.2097 31.9432L25.6597 31.8823L25.491 31.492ZM33.3229 31.6749L32.5352 31.4554L32.9403 32.3458L33.3229 31.6749ZM31.7025 32.2848L31.7925 31.9189L31.2749 32.0408L31.4775 32.2238L31.1624 33.0532L32.1076 32.6507L31.7025 32.2848ZM14.7108 35.3951L14.8008 35.0291L14.2832 35.1511L14.4857 35.334L14.1819 36.1634L15.1159 35.761L14.7108 35.3951ZM28.3042 34.8828L28.383 34.5169L27.8766 34.6388L28.0791 34.834L27.764 35.6634L28.698 35.2609L28.3042 34.8828ZM23.3192 35.4926L23.3979 35.1267L22.8916 35.2487L23.0941 35.4438L22.779 36.2733L23.713 35.8707L23.3192 35.4926ZM26.5375 36.9075L26.1999 36.8343L26.3349 37.3831L26.5037 37.1636L27.2914 37.4564L26.8751 36.4562L26.5375 36.9075ZM25.6935 34.1022L25.7836 33.7362L25.2659 33.8582L25.4684 34.0412L25.1646 34.895L26.0986 34.4803L25.6935 34.1022ZM9.82707 37.1514L9.91712 36.7855L9.39945 36.9075L9.60207 37.0904L9.29822 37.9198L10.2322 37.5173L9.82707 37.1514ZM35.6644 19.1306L35.5518 19.4721L35.9119 19.8624L35.0234 20.1409L34.6625 20.7692L34.2461 20.0373L34.9956 20.1186L35.3492 19.3867L35.1692 19.1916L35.6644 19.1306ZM31.6241 29.5385L32.2093 29.9776L32.4343 29.1604L31.6241 29.5385ZM27.3819 31.5754L27.967 32.0145L28.192 31.1973L27.3819 31.5754ZM29.1823 20.1925L29.6325 20.2535L29.3399 20.839L29.1823 20.1925ZM29.7562 21.5952L30.0376 21.1439L30.2064 21.5342L29.7562 21.5952ZM30.3301 22.9979L29.745 22.5588L30.5552 22.1807L30.3301 22.9979ZM32.907 29.3282L33.7172 30.3649L32.9745 30.6333L32.637 31.3651L32.1193 30.7552L32.3669 30.6699L32.907 29.3282ZM28.3384 23.1686L28.4734 24.5103L27.7307 24.2786L27.0781 24.6689L26.9656 23.8639L27.2131 23.9493L28.3384 23.1686ZM28.766 35.9878L28.3609 37.2685L27.7533 36.7074L27.0106 36.7562L27.2356 35.9756L27.4382 36.1586L28.766 35.9878ZM32.8058 25.291L33.6272 23.9493L33.9873 25.3275L32.8058 25.291ZM30.7127 20.6804L31.5455 19.3387L31.9055 20.717L30.7127 20.6804ZM31.3992 17.5579L31.3766 18.1678L30.8815 17.8019L31.3992 17.5579ZM34.5499 16.9969L34.5274 17.6067L34.0323 17.2408L34.5499 16.9969ZM29.4074 25.2056V25.8154L28.8898 25.4495L29.4074 25.2056ZM32.3894 20.6072L32.7072 20.6417L32.2881 19.086L33.6385 19.8178L32.8355 20.6556L33.1771 20.6926L32.8058 21.3391L32.3894 20.6072ZM27.7758 18.1834L27.7983 17.5735L27.2806 17.8175L27.7758 18.1834ZM25.9754 18.342L25.8291 19.1958L26.4367 18.7689L25.9754 18.342ZM24.67 18.3785L24.1074 18.3298L24.5012 18.7689L24.67 18.3785ZM16.1404 20.4764L15.5778 20.4277L15.9716 20.8668L16.1404 20.4764ZM18.5035 22.2085L17.9409 22.1597L18.3347 22.5987L18.5035 22.2085ZM23.2634 21.8425L22.7008 21.7937L23.0947 22.2328L23.2634 21.8425ZM27.8771 20.2081L27.9896 19.8666L27.4945 19.9398L27.6633 20.1349L27.3032 20.9034L28.2259 20.5984L27.8771 20.2081ZM16.9281 17.6467L17.0407 17.3052L16.5343 17.3784L16.7143 17.5735L16.343 18.3298L17.2769 18.037L16.9281 17.6467ZM17.8394 30.9673L17.7269 31.3088L18.087 31.6992L17.153 31.9919L17.5243 31.2235L17.3443 31.0283L17.8394 30.9673ZM36.8822 10.9186L37.0155 10.6867L37.9136 11.3682L37.8388 11.9919L39.0536 11.6328L39.0512 11.6674L40.5703 11.0576L39.3611 10.3294L39.4816 9.43054L38.4689 9.73547L39.1231 10.629L39.063 11.4971L38.0158 10.7929L38.1156 10.1566L37.1688 10.4197L37.2536 10.2721L36.4659 10.1868L36.8822 10.9186ZM41.9194 12.4218L42.2566 12.2057L42.254 12.6837L42.7984 12.6676L42.292 13.9117L42.2478 13.8517L42.2453 14.3036L41.7436 14.1213L41.6956 14.5215L40.728 13.7524L40.1636 13.5474L41.5066 12.6865L41.3018 12.631L41.8082 11.8992L41.9194 12.4218ZM34.0308 11.4007L34.7398 10.0346L34.9585 10.3123L34.9663 10.1995L36.1507 10.9127L36.3827 10.4737L37.1816 11.4495L35.6738 11.8154L35.9936 11.2101L34.865 11.6632L34.8957 11.2195L34.8806 11.1929L34.0308 11.4007ZM39.1284 7.79034L39.9836 7.18048L40.1974 8.07088L39.1284 7.79034ZM40.0349 6.81386L39.5335 7.1561L39.4321 6.33887L39.7255 6.50546L40.2102 6.38608L40.1298 6.73498L40.1411 6.7414L40.1259 6.75175L40.0977 6.87395L40.0349 6.81386ZM35.2012 12.4496L34.6047 12.4008L34.9986 11.8642L35.2012 12.4496ZM21.0451 16.4015L20.9326 15.877L21.3827 15.9746L21.0451 16.4015ZM40.7712 8.52217L41.9753 8.8393L41.0301 9.98584L40.7712 8.52217ZM40.5845 12.4066L41.1921 12.8213L41.1583 11.9309L40.5845 12.4066ZM40.4719 8.62552L39.4029 8.34497L39.673 9.65008L40.4719 8.62552ZM34.9869 7.9404L35.3223 7.24642L35.3069 7.23504L35.334 7.22228L35.3492 7.19068L35.1692 6.99555L35.6644 6.93455L35.6128 7.09086L35.8245 6.99111L35.8039 7.54935L35.9119 7.66638L35.0074 7.94986L34.64 8.58949L34.2236 7.85765L34.9869 7.9404ZM33.6077 8.33277L33.6302 7.72291L33.1126 7.96687L33.6077 8.33277ZM36.7585 7.77171L36.781 7.16185L36.2634 7.40581L36.7585 7.77171ZM37.6474 8.19862L36.8598 8.12543L37.2761 8.85727L37.6474 8.19862ZM38.075 14.0288L38.8178 13.8459L38.1426 13.2848L38.075 14.0288ZM40.8854 14.5581L40.2102 15.168L39.9852 14.363L40.8854 14.5581ZM33.8303 9.32772L35.1468 8.96181L34.9556 10.1815L33.8303 9.32772ZM31.1521 13.426L30.7358 12.7917L31.2309 12.6941L31.1521 13.426ZM32.2324 11.2549L31.636 11.2061L32.0299 10.6694L32.2324 11.2549ZM31.8836 6.15649L32.4462 6.20525L32.2774 6.59557L31.8836 6.15649ZM31.636 16.3899L31.9173 15.9386L32.0861 16.3289L31.636 16.3899ZM29.1823 8.0406L29.6325 8.08941L29.3399 8.67488L29.1823 8.0406ZM29.7562 9.4433L30.0376 8.99198L30.2064 9.3823L29.7562 9.4433ZM30.3301 10.8338L29.745 10.3947L30.5552 10.0166L30.3301 10.8338ZM28.3384 11.0045L28.4734 12.3462L27.7307 12.1023L27.0781 12.4926L26.9656 11.6876L27.2131 11.7729L28.3384 11.0045ZM30.7127 8.49193L31.5455 7.15024L31.9055 8.52852L30.7127 8.49193ZM33.5934 4.66201L33.5709 5.27187L33.0758 4.90597L33.5934 4.66201ZM31.3992 5.39385L31.3766 6.0037L30.8815 5.63777L31.3992 5.39385ZM34.5499 4.83279L34.5274 5.44265L34.0323 5.07672L34.5499 4.83279ZM30.3751 13.2122L30.3527 13.8221L29.8575 13.4561L30.3751 13.2122ZM32.3782 8.40654L33.1659 8.49193L32.7945 9.13837L32.3782 8.40654ZM34.6175 5.79634L35.4052 5.86952L35.0338 6.52817L34.6175 5.79634ZM27.6636 5.87779L26.8759 5.80461L27.281 6.53645L27.6636 5.87779ZM27.2697 16.0868L26.4821 16.0014L26.8984 16.7332L27.2697 16.0868ZM29.5878 5.53628L28.2375 4.80444L28.6876 6.48765L29.5878 5.53628ZM31.5683 14.9281L30.2179 14.1962L30.6681 15.8672L31.5683 14.9281ZM1.54589 11.6226L1.91724 11.1104L1.35461 11.2323L1.54589 11.6226Z" fill="#FF6D6B"/>
</g>
<defs>
<linearGradient id="paint0_linear_1933_18578" x1="36.5663" y1="4.78546" x2="8.18595" y2="2.59307" gradientUnits="userSpaceOnUse">
<stop stop-color="#FF8888"/>
<stop offset="1" stop-color="#FF9B9A"/>
</linearGradient>
<linearGradient id="paint1_linear_1933_18578" x1="38.9638" y1="21.4686" x2="1.09199" y2="20.5689" gradientUnits="userSpaceOnUse">
<stop stop-color="#FF8888"/>
<stop offset="1" stop-color="#FF9B9A"/>
</linearGradient>
<linearGradient id="paint2_linear_1933_18578" x1="36.5663" y1="4.78546" x2="8.18595" y2="2.59307" gradientUnits="userSpaceOnUse">
<stop stop-color="#FAC26B"/>
<stop offset="1" stop-color="#FDD390"/>
</linearGradient>
<linearGradient id="paint3_linear_1933_18578" x1="38.9638" y1="21.4686" x2="1.09199" y2="20.5689" gradientUnits="userSpaceOnUse">
<stop stop-color="#FAC26B"/>
<stop offset="1" stop-color="#FDD390"/>
</linearGradient>
</defs>
</svg>
