<svg id="Layer_1" data-name="Layer 1" xmlns="http://www.w3.org/2000/svg" viewBox="0 0 18 18"><defs><style>.cls-1{fill:#ccc;}</style></defs><title>WEBSITE</title><path class="cls-1" d="M9.14.82a8.32,8.32,0,1,0,8.32,8.32A8.33,8.33,0,0,0,9.14.82Zm-3,7.82H1.85a7.25,7.25,0,0,1,1-3.23,19.34,19.34,0,0,0,3.49.86A20.66,20.66,0,0,0,6.13,8.64ZM7.33,6.4c.6.06,1.2.09,1.81.09a17.93,17.93,0,0,0,1.8-.09,18.46,18.46,0,0,1,.21,2.24h-4A18.46,18.46,0,0,1,7.33,6.4ZM6.13,9.64A18.64,18.64,0,0,0,6.35,12a19.24,19.24,0,0,0-3.5.86,7.29,7.29,0,0,1-1-3.23Zm1,0h4a18.46,18.46,0,0,1-.21,2.24,19.68,19.68,0,0,0-3.6,0A16.65,16.65,0,0,1,7.13,9.64Zm5,0h4.28a7.3,7.3,0,0,1-1,3.23A18.93,18.93,0,0,0,11.93,12,18.64,18.64,0,0,0,12.15,9.64Zm0-1a18.64,18.64,0,0,0-.22-2.37,18.93,18.93,0,0,0,3.49-.86,7.26,7.26,0,0,1,1,3.23Zm2.68-4.09a17.93,17.93,0,0,1-3.06.73,18,18,0,0,0-1-3.27A7.31,7.31,0,0,1,14.83,4.55ZM9.61,1.84a17.75,17.75,0,0,1,1.17,3.57,18,18,0,0,1-3.28,0A18.37,18.37,0,0,1,8.66,1.84l.48,0ZM7.52,2a18.74,18.74,0,0,0-1,3.27,17.71,17.71,0,0,1-3.06-.73A7.28,7.28,0,0,1,7.52,2ZM3.45,13.73A16.83,16.83,0,0,1,6.51,13a18.74,18.74,0,0,0,1,3.27A7.28,7.28,0,0,1,3.45,13.73Zm5.21,2.7A18.06,18.06,0,0,1,7.5,12.87a18,18,0,0,1,3.28,0,17.46,17.46,0,0,1-1.17,3.56c-.15,0-.31,0-.47,0S8.82,16.44,8.66,16.43Zm2.09-.16a18,18,0,0,0,1-3.27,17,17,0,0,1,3.06.73A7.31,7.31,0,0,1,10.75,16.27Z"/></svg>