<svg width="20" height="20" viewBox="0 0 20 20" fill="none" xmlns="http://www.w3.org/2000/svg">
<g clip-path="url(#clip0_7100_6070)">
<path d="M0 20L1.41479 14.8646C0.54415 13.3629 0.084096 11.6544 0.084096 9.91137C0.084096 4.44608 4.55602 0 10.042 0C12.7084 0 15.2065 1.03397 17.0863 2.90497C18.9661 4.77597 20 7.26736 20 9.9163C20 15.3816 15.5281 19.8277 10.042 19.8277H10.0371C8.37002 19.8277 6.73263 19.4092 5.27826 18.6214L0 20Z" fill="url(#paint0_linear_7100_6070)"/>
<path fill-rule="evenodd" clip-rule="evenodd" d="M7.55349 5.76269C7.36729 5.34909 7.17154 5.33959 6.99489 5.33483C6.85165 5.33008 6.68455 5.33008 6.51745 5.33008C6.35034 5.33008 6.08298 5.39188 5.8538 5.63909C5.62463 5.88629 4.98486 6.48529 4.98486 7.70707C4.98486 8.92409 5.87768 10.1031 6.00181 10.2695C6.12595 10.4359 7.72537 13.0173 10.251 14.0108C12.3518 14.838 12.7815 14.6716 13.235 14.6289C13.6934 14.5861 14.7055 14.0299 14.9156 13.4499C15.1209 12.8699 15.1209 12.3755 15.0589 12.2709C14.9968 12.1663 14.8297 12.1045 14.5814 11.9809C14.3331 11.8573 13.1109 11.2583 12.8817 11.1727C12.6526 11.0919 12.4854 11.0491 12.3231 11.2963C12.156 11.5435 11.6786 12.0997 11.5353 12.2661C11.3921 12.4325 11.2441 12.4515 10.9958 12.3279C10.7476 12.2043 9.94547 11.9429 8.99536 11.0967C8.25533 10.4406 7.75402 9.62767 7.61078 9.38047C7.46755 9.13326 7.59646 9.00015 7.7206 8.87655C7.83041 8.7672 7.96886 8.58655 8.093 8.44393C8.21713 8.30131 8.2601 8.19673 8.34127 8.03034C8.42243 7.86395 8.38424 7.72133 8.32217 7.59773C8.25533 7.47888 7.77311 6.25235 7.55349 5.76269Z" fill="white"/>
</g>
<defs>
<linearGradient id="paint0_linear_7100_6070" x1="10.0033" y1="19.9996" x2="10.0033" y2="-7.86769e-05" gradientUnits="userSpaceOnUse">
<stop stop-color="#20B038"/>
<stop offset="1" stop-color="#60D66A"/>
</linearGradient>
<clipPath id="clip0_7100_6070">
<rect width="20" height="20" fill="white"/>
</clipPath>
</defs>
</svg>
